<?xml version="1.0" encoding="UTF-8"?>
<svg width="306px" height="140px" viewBox="0 0 306 140" version="1.1" xmlns="http://www.w3.org/2000/svg" xmlns:xlink="http://www.w3.org/1999/xlink">
    <!-- Generator: Sketch 52.2 (67145) - http://www.bohemiancoding.com/sketch -->
    <title>Boat</title>
    <desc>Created with Sketch.</desc>
    <g id="Games" stroke="none" stroke-width="1" fill="none" fill-rule="evenodd">
        <g id="RST---2" transform="translate(-66.000000, -779.000000)">
            <g id="Boat" transform="translate(66.000000, 779.000000)">
                <rect id="Rectangle-5" fill="#780E2F" x="94" y="50" width="3" height="36" rx="1.5"></rect>
                <rect id="Rectangle-5" fill="#780E2F" x="209" y="50" width="3" height="36" rx="1.5"></rect>
                <g id="canoe-(1)" transform="translate(0.000000, 62.000000)">
                    <path d="M159.57913,0.188390511 C159.32583,0.0516732236 158.862405,0.0385833252 158.498986,0.015815808 C156.782091,-0.091744344 153.988619,0.372874638 152.816513,0.696633455 C151.939412,0.938906188 149.371964,2.4272664 148.941922,2.67746873 C147.606498,3.45442908 143.74698,6.04256218 142.560049,6.85348615 C129.499014,15.7769285 102.036744,19.9004721 87.1300874,19.9004721 L0,19.9004721 L0,62.4 L87.1300874,62.4 C107.258239,62.4 127.536759,43.4293122 139.277245,25.0265428 C140.827013,22.5973393 142.867695,19.2350065 146.418402,13.6333698 C147.623026,11.7329418 149.189726,9.56803308 153.02781,5.13961707 C153.062737,5.09931753 153.702929,4.3975829 154.558759,3.7514737 C155.31276,3.18224017 156.257434,2.67710993 156.775784,2.41154044 C157.882487,1.84453598 156.976436,2.26708876 158.169386,1.77219582 C158.432455,1.66306254 159.032969,1.46745634 159.505491,1.1854324 C159.602588,1.1274803 159.946096,0.996849478 160.094106,0.875620842 C160.157748,0.791903388 160.163372,0.626224291 160.094106,0.560648391 C160.024841,0.495072491 159.970099,0.445616366 159.861638,0.362753009 C159.753176,0.279889651 159.83243,0.325107798 159.57913,0.188390511 Z" id="Combined-Shape" fill="#AE2946" transform="translate(80.071984, 31.200000) scale(-1, 1) translate(-80.071984, -31.200000) "></path>
                    <path d="M305.435161,0.188390511 C305.181861,0.0516732236 304.718436,0.0385833252 304.355017,0.015815808 C302.638122,-0.091744344 299.84465,0.372874638 298.672544,0.696633455 C297.795443,0.938906188 295.227995,2.4272664 294.797953,2.67746873 C293.462529,3.45442908 289.603011,6.04256218 288.41608,6.85348615 C275.355045,15.7769285 247.892775,19.9004721 232.986119,19.9004721 L145.856031,19.9004721 L145.856031,62.4 L232.986119,62.4 C253.11427,62.4 273.39279,43.4293122 285.133276,25.0265428 C286.683044,22.5973393 288.723726,19.2350065 292.274433,13.6333698 C293.479057,11.7329418 295.045757,9.56803308 298.883841,5.13961707 C298.918768,5.09931753 299.55896,4.3975829 300.41479,3.7514737 C301.168791,3.18224017 302.113465,2.67710993 302.631815,2.41154044 C303.738518,1.84453598 302.832467,2.26708876 304.025417,1.77219582 C304.288486,1.66306254 304.889001,1.46745634 305.361523,1.1854324 C305.458619,1.1274803 305.802127,0.996849478 305.950137,0.875620842 C306.013779,0.791903388 306.019403,0.626224291 305.950137,0.560648391 C305.880872,0.495072491 305.826131,0.445616366 305.717669,0.362753009 C305.609207,0.279889651 305.688461,0.325107798 305.435161,0.188390511 Z" id="Combined-Shape" fill="#AE2946"></path>
                    <path d="M86.5717256,55.9205561 C81.1706107,55.9205561 78.6597399,55.8356951 75.6136503,55.5505307 C73.5405582,55.356455 72.0928881,55.2585357 68.0360061,54.35627 C63.9791241,53.4540043 58.7384316,52.2991626 53.2312666,48.7558913 C52.7821249,48.4669167 50.2291686,47.2723816 46.8307816,44.6900734 C43.6490399,42.2723857 36.8710563,36.5754735 35.6016213,35.0395462 C32.9518267,31.8334809 25.9076232,25.6707327 13.3519644,8.70318865 C11.9203003,6.76845755 7.48041946,4.10641202 0.0323218892,0.717052055 C0.0346146858,0.805073665 0.0893871354,0.878394358 0.196639238,0.937014132 C1.47579181,1.63614854 2.06927317,1.52884418 3.0719926,2.07094135 C3.85665319,2.49515003 5.26526328,3.51973098 5.81552937,3.88884819 C6.28330532,4.20263121 6.68207224,4.67743078 6.96509705,4.98142153 C7.11368364,5.14101513 7.20703135,5.20859729 7.3356221,5.37884454 C7.70915,5.87337543 8.13025827,6.34133121 8.39114414,6.64484362 C9.43952898,7.86452566 9.56647537,8.03606538 10.1327512,8.70318865 C10.8633175,9.56386082 11.2873894,10.17675 11.6533708,10.652658 C11.9310337,11.0137201 12.1715384,11.3314915 12.4809746,11.8015699 C16.7356533,18.265044 27.0834718,35.5900498 38.1577824,46.0175337 C47.9515743,55.2392912 57.9452477,60.2016276 68.0360061,61.9198128 C70.9447734,62.4150978 74.3759262,62.557144 77.1782744,62.557144 L224.510674,62.557144 C232.421628,62.557144 241.224092,62.1930889 247.580639,59.9188091 C250.972683,58.7051851 256.674209,54.8332564 259.054219,52.8991473 C259.231213,52.7553139 259.365205,52.7175087 259.450665,52.6571397 C259.720974,52.4661925 259.611745,52.5335051 259.716591,52.2991626 C252.596823,55.5158423 242.174173,58.0305439 232.615419,58.0305439 C219.763038,58.1218704 210.183829,58.1218704 203.87779,58.0305439 C177.807506,57.6529842 138.705484,56.9496549 86.5717256,55.9205561 Z" id="Fill-18" fill="#891236"></path>
                </g>
                <path d="M58,134 L249,134 C250.656854,134 252,135.343146 252,137 L252,137 C252,138.656854 250.656854,140 249,140 L58,140 C56.3431458,140 55,138.656854 55,137 L55,137 C55,135.343146 56.3431458,134 58,134 Z" id="Rectangle-2" fill="#780E2F"></path>
                <path d="M212.689701,74 L212.689701,74 C213.396727,74 213.969885,74.5731582 213.969885,75.2801846 C213.969885,75.3348694 213.966381,75.389498 213.959395,75.4437346 C212.376706,87.7307708 211.585357,96.8600373 211.585357,102.831536 C211.585357,108.844597 212.387761,119.417968 213.992569,134.551649 L213.992588,134.551647 C214.068892,135.271212 213.547426,135.916391 212.827862,135.992695 C212.781969,135.997562 212.735851,136 212.689701,136 L212.689701,136 C211.863281,136 211.172802,135.370696 211.096353,134.54782 C209.714516,119.674183 209.023603,108.665292 209.023603,101.521148 C209.023603,94.4732426 209.696026,85.7822498 211.040873,75.448169 L211.040862,75.4481675 C211.148664,74.6197937 211.854342,74 212.689701,74 Z" id="Rectangle" fill="#780E2F" transform="translate(211.511802, 105.000000) scale(-1, 1) translate(-211.511802, -105.000000) "></path>
                <path d="M95.6660974,75 L95.6660974,75 C96.3731238,75 96.946282,75.5731582 96.946282,76.2801846 C96.946282,76.3348694 96.9427781,76.389498 96.9357918,76.4437346 C95.3531032,88.7307708 94.5617533,97.8600373 94.5617533,103.831536 C94.5617533,109.844597 95.3641573,120.417968 96.9689653,135.551649 L96.9689843,135.551647 C97.0452884,136.271212 96.5238229,136.916391 95.8042583,136.992695 C95.7583654,136.997562 95.7122475,137 95.6660974,137 L95.6660974,137 C94.8396781,137 94.1491986,136.370696 94.0727499,135.54782 C92.6909125,120.674183 92,109.665292 92,102.521148 C92,95.4732426 92.6724232,86.7822498 94.0172696,76.448169 L94.0172583,76.4481675 C94.1250604,75.6197937 94.8307385,75 95.6660974,75 Z" id="Rectangle" fill="#780E2F"></path>
                <path d="M153.5,74 L153.5,74 C154.328427,74 155,74.6715729 155,75.5 L155,134.5 C155,135.328427 154.328427,136 153.5,136 L153.5,136 C152.671573,136 152,135.328427 152,134.5 L152,75.5 C152,74.6715729 152.671573,74 153.5,74 Z" id="Rectangle" fill="#780E2F"></path>
                <path d="M263.21908,50.5 L240.54589,1.29435311 L240.5,1.08510638 L240.5,0.5 L64.5,0.5 L64.5,1.08510638 L64.4541099,1.29435311 L41.7809197,50.5 L263.21908,50.5 Z" id="Combined-Shape" stroke="#780E2F" fill="#FFFFFF"></path>
            </g>
        </g>
    </g>
</svg>