<?xml version="1.0" encoding="UTF-8"?>
<svg width="58px" height="55px" viewBox="0 0 58 55" version="1.1" xmlns="http://www.w3.org/2000/svg" xmlns:xlink="http://www.w3.org/1999/xlink">
    <!-- Generator: Sketch 52.2 (67145) - http://www.bohemiancoding.com/sketch -->
    <title>hearts</title>
    <desc>Created with Sketch.</desc>
    <g id="Games" stroke="none" stroke-width="1" fill="none" fill-rule="evenodd">
        <g id="SR---1" transform="translate(-50.000000, -162.000000)">
            <g id="hearts" transform="translate(50.000000, 162.000000)">
                <polyline id="Fill-5" fill="#DC367A" points="31.6363528 49.3765239 52.7271748 27.4314575 58 19.349238 52.7271748 10.9725332 42.1817638 0 29.0297981 13.684786 26.3636472 10.9725332 21.0909417 5.4862666 13.4506646 0 10.5455307 5.4862666 0 16.4589243 5.27282519 27.4314575 26.3636472 49.3765239 28.8140312 53 31.6363528 49.3765239"></polyline>
                <polyline id="Fill-6" fill="#DB428A" points="52.295082 18.7280698 52.295082 27 58 27 58 11 52.295082 11 52.295082 18.7280698"></polyline>
                <polygon id="Fill-7" fill="#DB428A" points="47.5409836 33 53.2459016 33 53.2459016 27 47.5409836 27"></polygon>
                <polygon id="Fill-8" fill="#DB428A" points="47.5409836 10 53.2459016 10 53.2459016 5 47.5409836 5"></polygon>
                <polygon id="Fill-9" fill="#DB428A" points="41.8360656 39 47.5409836 39 47.5409836 33 41.8360656 33"></polygon>
                <polygon id="Fill-10" fill="#DB428A" points="37.0819672 5 47.5409836 5 47.5409836 0 37.0819672 0"></polygon>
                <polygon id="Fill-11" fill="#DB428A" points="37.0819672 44 42.7868852 44 42.7868852 39 37.0819672 39"></polygon>
                <polygon id="Fill-12" fill="#DB428A" points="31.3770492 50 37.0819672 50 37.0819672 44 31.3770492 44"></polygon>
                <polygon id="Fill-13" fill="#DB428A" points="31.3770492 10 37.0819672 10 37.0819672 5 31.3770492 5"></polygon>
                <polygon id="Fill-14" fill="#DB428A" points="26.6229508 55 32.3278689 55 32.3278689 49 26.6229508 49"></polygon>
                <polygon id="Fill-15" fill="#DB428A" points="26.6229508 17 32.3278689 17 32.3278689 11 26.6229508 11"></polygon>
                <polygon id="Fill-16" fill="#DB428A" points="20.9180328 50 26.6229508 50 26.6229508 44 20.9180328 44"></polygon>
                <polygon id="Fill-17" fill="#DB428A" points="20.9180328 10 26.6229508 10 26.6229508 5 20.9180328 5"></polygon>
                <polygon id="Fill-18" fill="#DB428A" points="16.1639344 44 21.8688525 44 21.8688525 39 16.1639344 39"></polygon>
                <polyline id="Fill-19" fill="#DB428A" points="13.3403496 0 10.4590164 0 10.4590164 5 20.9180328 5 20.9180328 0 13.3403496 0"></polyline>
                <polygon id="Fill-20" fill="#DB428A" points="10.4590164 39 16.1639344 39 16.1639344 33 10.4590164 33"></polygon>
                <polygon id="Fill-21" fill="#DB428A" points="5.70491803 33 11.4098361 33 11.4098361 27 5.70491803 27"></polygon>
                <polygon id="Fill-22" fill="#DB428A" points="5.70491803 10 11.4098361 10 11.4098361 5 5.70491803 5"></polygon>
                <polyline id="Fill-23" fill="#DB428A" points="5.70491803 16.333414 5.70491803 11 0 11 0 27 5.70491803 27 5.70491803 16.333414"></polyline>
            </g>
        </g>
    </g>
</svg>