<?xml version="1.0" encoding="UTF-8"?>
<svg width="361px" height="100px" viewBox="0 0 361 100" version="1.1" xmlns="http://www.w3.org/2000/svg" xmlns:xlink="http://www.w3.org/1999/xlink">
    <!-- Generator: Sketch 52.2 (67145) - http://www.bohemiancoding.com/sketch -->
    <title>meteor</title>
    <desc>Created with Sketch.</desc>
    <defs>
        <polygon id="path-1" points="0.038125 0.140140845 93.5326979 0.140140845 93.5326979 54.2253521 0.038125 54.2253521"></polygon>
        <polygon id="path-3" points="0.038125 0.140140845 161.217281 0.140140845 161.217281 20.6070423 0.038125 20.6070423"></polygon>
    </defs>
    <g id="Games" stroke="none" stroke-width="1" fill="none" fill-rule="evenodd">
        <g id="SR---1" transform="translate(-195.000000, -431.000000)">
            <g id="meteor" transform="translate(195.000000, 431.000000)">
                <g id="comet">
                    <path d="M150.467302,22.6753521 C152.7135,22.6753521 154.532698,24.6915493 154.532698,27.1816901 L163.553073,27.1816901 C166.930948,20.1971831 172.16551,13.9056338 179.626573,9.15492958 L124.032698,9.15492958 C120.664354,9.15492958 117.934604,12.1809859 117.934604,15.9140845 C117.934604,19.6492958 120.664354,22.6753521 124.032698,22.6753521 L150.467302,22.6753521 Z" id="Fill-1" fill="#FFF294"></path>
                    <path d="M166.545885,77.8253521 C166.538896,77.8140845 166.531271,77.8028169 166.523646,77.7922535 C166.327937,77.506338 166.134135,77.2147887 165.942875,76.9204225 L165.856458,76.7880282 C165.677271,76.5105634 165.50126,76.2295775 165.327792,75.9464789 C165.290302,75.8859155 165.255354,75.8253521 165.2185,75.7647887 C165.052021,75.4866197 164.885542,75.2091549 164.724146,74.9260563 C164.689833,74.865493 164.654885,74.8021127 164.619937,74.7415493 C164.456,74.4528169 164.294604,74.1612676 164.138292,73.8669014 C164.123677,73.8443662 164.110969,73.8197183 164.098896,73.7950704 C163.83075,73.2887324 163.572771,72.7746479 163.321781,72.2521127 L154.532698,72.2521127 C154.532698,74.7443662 152.7135,76.7577465 150.467302,76.7577465 L124.032698,76.7577465 C120.664354,76.7577465 117.934604,79.7866197 117.934604,83.5197183 C117.934604,87.2521127 120.664354,90.2809859 124.032698,90.2809859 L179.845156,90.2809859 C174.647448,87.0957746 170.093417,82.9830986 166.545885,77.8253521 Z" id="Fill-2" fill="#FFF294"></path>
                    <path d="M122.407302,54.2253521 L83.3660313,54.2253521 C79.9976875,54.2253521 77.2679375,57.2514085 77.2679375,60.984507 C77.2679375,64.7197183 79.9976875,67.7457746 83.3660313,67.7457746 L130.133969,67.7457746 C126.229333,64.4943662 123.415073,59.7246479 122.407302,54.2253521 Z" id="Fill-3" fill="#FFF294"></path>
                    <path d="M130.133969,31.6901408 L83.3660313,31.6901408 C79.9976875,31.6901408 77.2679375,34.7161972 77.2679375,38.4492958 C77.2679375,42.184507 79.9976875,45.2105634 83.3660313,45.2105634 L122.407302,45.2105634 C123.415073,39.7119718 126.229333,34.9387324 130.133969,31.6901408 Z" id="Fill-4" fill="#FFF294"></path>
                    <path d="M162.567542,70.6042254 C162.468417,70.3676056 162.368656,70.1309859 162.272073,69.8915493 C162.204719,69.7295775 162.138,69.5669014 162.073187,69.3992958 C161.984229,69.1788732 161.899719,68.9535211 161.815208,68.728169 C161.743406,68.5408451 161.674146,68.3535211 161.606792,68.1669014 C161.527365,67.9492958 161.453021,67.7323944 161.376135,67.5119718 C161.30624,67.3084507 161.239521,67.1049296 161.17026,66.9014085 C161.100365,66.6866197 161.031104,66.4753521 160.96375,66.2577465 C160.89449,66.0401408 160.829677,65.8176056 160.762958,65.5971831 C160.703229,65.3908451 160.640958,65.1823944 160.581865,64.9732394 C160.511969,64.7309859 160.447792,64.4830986 160.382979,64.2359155 C160.330875,64.0429577 160.278771,63.8507042 160.229208,63.6584507 C160.152323,63.3471831 160.077979,63.0309859 160.005542,62.7147887 C159.973771,62.5795775 159.941365,62.4450704 159.908958,62.3077465 C159.809833,61.8591549 159.717698,61.4077465 159.62874,60.9514085 C159.598875,60.7887324 159.571552,60.6267606 159.539146,60.4640845 C159.4845,60.156338 159.427312,59.8478873 159.375208,59.534507 C159.343437,59.3450704 159.316115,59.1521127 159.28625,58.9598592 C159.241135,58.6683099 159.196656,58.3788732 159.15726,58.084507 C159.129937,57.8838028 159.105156,57.6774648 159.077833,57.4739437 C159.040344,57.1852113 159.005396,56.893662 158.973625,56.6021127 C158.95075,56.3929577 158.92851,56.1838028 158.908812,55.9746479 C158.878948,55.6774648 158.851625,55.3809859 158.824302,55.078169 C158.807146,54.871831 158.789354,54.6626761 158.77474,54.4507042 C158.7525,54.1401408 158.732802,53.8239437 158.712469,53.5070423 C158.702937,53.306338 158.687687,53.1056338 158.678156,52.8992958 C158.662906,52.5528169 158.650833,52.2007042 158.638125,51.8457746 C158.633042,51.6725352 158.62351,51.4992958 158.620969,51.3232394 C158.60826,50.7922535 158.601271,50.2584507 158.601271,49.7169014 C158.601271,42.0774648 160.122458,34.2732394 163.553073,27.1816901 L154.532698,27.1816901 C154.532698,29.6739437 152.7135,31.6901408 150.467302,31.6901408 L130.133969,31.6901408 C126.229333,34.9387324 123.415073,39.7119718 122.407302,45.2105634 L138.267937,45.2105634 C140.514135,45.2105634 142.333333,47.2267606 142.333333,49.7169014 C142.333333,52.2091549 140.514135,54.2253521 138.267937,54.2253521 L122.407302,54.2253521 C123.415073,59.7246479 126.229333,64.4943662 130.133969,67.7457746 L150.467302,67.7457746 C152.7135,67.7457746 154.532698,69.7619718 154.532698,72.2521127 L163.321781,72.2521127 C163.113365,71.8225352 162.915115,71.3880282 162.721312,70.9450704 C162.669208,70.8323944 162.617104,70.7197183 162.567542,70.6042254 Z" id="Fill-5" fill="#FFFFFF"></path>
                    <path d="M124.032698,90.2809859 L105.732062,90.2809859 C103.485865,90.2809859 101.666667,92.2971831 101.666667,94.7873239 C101.666667,97.2795775 103.485865,99.2957746 105.732062,99.2957746 L211.467302,99.2957746 C211.7005,99.2957746 211.926073,99.2683099 212.14974,99.2267606 C200.752271,98.7816901 189.2525,96.0471831 179.845156,90.2809859 L124.032698,90.2809859 Z" id="Fill-6" fill="#FFCF00"></path>
                    <path d="M212.109708,0.200704225 C211.89875,0.164788732 211.685885,0.140140845 211.467302,0.140140845 L105.732062,0.140140845 C103.485865,0.140140845 101.666667,2.15633803 101.666667,4.64647887 C101.666667,7.13873239 103.485865,9.15492958 105.732062,9.15492958 L179.626573,9.15492958 C187.693823,4.01619718 198.364375,0.676760563 212.109708,0.200704225 Z" id="Fill-7" fill="#FFCF00"></path>
                    <path d="M85.3987292,9.15492958 L89.4673021,9.15492958 C91.7135,9.15492958 93.5326979,7.13873239 93.5326979,4.64647887 C93.5326979,2.15633803 91.7135,0.140140845 89.4673021,0.140140845 L85.3987292,0.140140845 C83.1525313,0.140140845 81.3333333,2.15633803 81.3333333,4.64647887 C81.3333333,7.13873239 83.1525313,9.15492958 85.3987292,9.15492958 Z" id="Fill-8" fill="#FF9300"></path>
                    <g id="Group-13" transform="translate(0.000000, 45.070423)">
                        <mask id="mask-2" fill="white">
                            <use xlink:href="#path-1"></use>
                        </mask>
                        <g id="Clip-10"></g>
                        <path d="M89.4673021,45.2105634 L85.3987292,45.2105634 C83.1525312,45.2105634 81.3333333,47.2267606 81.3333333,49.7169014 C81.3333333,52.2091549 83.1525312,54.2253521 85.3987292,54.2253521 L89.4673021,54.2253521 C91.7135,54.2253521 93.5326979,52.2091549 93.5326979,49.7169014 C93.5326979,47.2267606 91.7135,45.2105634 89.4673021,45.2105634 Z" id="Fill-9" fill="#FF9300" mask="url(#mask-2)"></path>
                        <path d="M4.06539583,0.140140845 C1.81919792,0.140140845 0,2.15633803 0,4.64647887 C0,2.15915493 1.82173958,0.140140845 4.06539583,0.140140845 Z" id="Fill-11" fill="#FFCF00" mask="url(#mask-2)"></path>
                        <path d="M0,4.64647887 C0,7.13873239 1.81919792,9.15492958 4.06539583,9.15492958 C1.82173958,9.15492958 0,7.13591549 0,4.64647887 Z" id="Fill-12" fill="#FFCF00" mask="url(#mask-2)"></path>
                    </g>
                    <path d="M138.267937,54.2253521 C140.514135,54.2253521 142.333333,52.2091549 142.333333,49.7169014 C142.333333,47.2267606 140.514135,45.2105634 138.267937,45.2105634 L40.6666667,45.2105634 C42.9128646,45.2105634 44.7320625,47.2295775 44.7320625,49.7169014 C44.7320625,52.206338 42.9128646,54.2253521 40.6666667,54.2253521 L138.267937,54.2253521 Z" id="Fill-14" fill="#FFCF00"></path>
                    <path d="M44.7320625,31.6901408 L52.8660313,31.6901408 C55.1147708,31.6901408 56.9346042,29.6739437 56.9346042,27.1816901 C56.9346042,24.6915493 55.1147708,22.6753521 52.8660313,22.6753521 L44.7320625,22.6753521 C42.4858646,22.6753521 40.6666667,24.6915493 40.6666667,27.1816901 C40.6666667,29.6739437 42.4858646,31.6901408 44.7320625,31.6901408 Z" id="Fill-15" fill="#FF9300"></path>
                    <path d="M150.467302,31.6901408 C152.7135,31.6901408 154.532698,29.6739437 154.532698,27.1816901 C154.532698,24.6915493 152.7135,22.6753521 150.467302,22.6753521 L69.1339687,22.6753521 C66.8852292,22.6753521 65.0653958,24.6915493 65.0653958,27.1816901 C65.0653958,29.6739437 66.8852292,31.6901408 69.1339687,31.6901408 L150.467302,31.6901408 Z" id="Fill-16" fill="#FFCF00"></path>
                    <path d="M207,0 L310.531784,1.42108547e-14 C338.146022,9.13820158e-15 360.531784,22.3857625 360.531784,50 L360.531784,50 C360.531784,77.6142375 338.146022,100 310.531784,100 L207,100 C179.385763,100 157,77.6142375 157,50 L157,50 C157,22.3857625 179.385763,1.21780805e-14 207,7.10542736e-15 Z" id="Rectangle-8" fill="#BCBCBC"></path>
                    <path d="M52.8660313,67.7457746 L44.7320625,67.7457746 C42.4858646,67.7457746 40.6666667,69.7619718 40.6666667,72.2521127 C40.6666667,74.7443662 42.4858646,76.7605634 44.7320625,76.7605634 L52.8660313,76.7605634 C55.1147708,76.7605634 56.9346042,74.7443662 56.9346042,72.2521127 C56.9346042,69.7619718 55.1147708,67.7457746 52.8660313,67.7457746 Z" id="Fill-17" fill="#FF9300"></path>
                    <path d="M150.467302,76.7605634 C152.7135,76.7605634 154.532698,74.7443662 154.532698,72.2521127 C154.532698,69.7619718 152.7135,67.7457746 150.467302,67.7457746 L69.1339687,67.7457746 C66.8852292,67.7457746 65.0653958,69.7619718 65.0653958,72.2521127 C65.0653958,74.7443662 66.8852292,76.7605634 69.1339687,76.7605634 L150.467302,76.7605634 Z" id="Fill-18" fill="#FFCF00"></path>
                    <path d="M215.532698,0.140140845 C216.135708,0.140140845 216.734271,0.157042254 217.329656,0.184507042 C216.734271,0.157042254 216.135708,0.140140845 215.532698,0.140140845 Z" id="Fill-20" fill="#D49E6C"></path>
                    <path d="M217.600344,0.195070423 C218.181115,0.225352113 218.759344,0.266901408 219.338208,0.321830986 C218.759344,0.266901408 218.181115,0.225352113 217.600344,0.195070423 Z" id="Fill-21" fill="#D49E6C"></path>
                    <path d="M165.327792,75.9464789 C165.50126,76.2295775 165.677271,76.5105634 165.856458,76.7880282 C165.677271,76.5105634 165.50126,76.2295775 165.327792,75.9464789 Z" id="Fill-22" fill="#D49E6C"></path>
                    <path d="M164.619938,74.7415493 C164.456,74.4528169 164.294604,74.1633803 164.138292,73.8697183 C164.294604,74.1633803 164.456,74.4528169 164.619938,74.7415493 Z" id="Fill-23" fill="#D49E6C"></path>
                    <path d="M165.2185,75.7647887 C165.052021,75.4894366 164.885542,75.2091549 164.724146,74.928169 C164.885542,75.2091549 165.052021,75.4894366 165.2185,75.7647887 Z" id="Fill-24" fill="#D49E6C"></path>
                    <path d="M166.523646,77.7922535 C166.327938,77.506338 166.134135,77.2147887 165.942875,76.9204225 C166.131594,77.2147887 166.327938,77.506338 166.523646,77.7922535 Z" id="Fill-25" fill="#D49E6C"></path>
                    <path d="M162.272073,69.8915493 C162.368656,70.1309859 162.468417,70.3676056 162.567542,70.6042254 C162.468417,70.3676056 162.368656,70.1309859 162.272073,69.8915493 Z" id="Fill-26" fill="#D49E6C"></path>
                    <path d="M158.678156,52.9021127 C158.687687,53.1056338 158.700396,53.306338 158.712469,53.5098592 C158.700396,53.306338 158.687687,53.1056338 158.678156,52.9021127 Z" id="Fill-27" fill="#D49E6C"></path>
                    <path d="M161.815208,68.728169 C161.899719,68.9535211 161.984229,69.1788732 162.073187,69.3992958 C161.984229,69.1788732 161.899719,68.9535211 161.815208,68.728169 Z" id="Fill-28" fill="#D49E6C"></path>
                    <path d="M162.721313,70.9478873 C162.915115,71.3880282 163.113365,71.8225352 163.321781,72.2521127 C163.572771,72.7746479 163.83075,73.2887324 164.098896,73.7950704 C163.609625,72.8732394 163.150854,71.9246479 162.721313,70.9478873 Z" id="Fill-29" fill="#D49E6C"></path>
                    <path d="M161.606792,68.1669014 C161.527365,67.9492958 161.453021,67.7323944 161.376135,67.5119718 C161.453021,67.7323944 161.527365,67.9492958 161.606792,68.1669014 Z" id="Fill-30" fill="#D49E6C"></path>
                    <path d="M158.620969,51.3232394 C158.62351,51.4992958 158.633042,51.6725352 158.638125,51.8457746 C158.633042,51.6725352 158.62351,51.4992958 158.620969,51.3232394 Z" id="Fill-31" fill="#D49E6C"></path>
                    <path d="M159.077833,57.4739437 C159.105156,57.6774648 159.129938,57.8838028 159.15726,58.084507 C159.129938,57.8838028 159.102615,57.6774648 159.077833,57.4739437 Z" id="Fill-32" fill="#D49E6C"></path>
                    <path d="M158.906271,55.9746479 C158.92851,56.1838028 158.95075,56.3929577 158.973625,56.6021127 C158.95075,56.3929577 158.92851,56.1838028 158.906271,55.9746479 Z" id="Fill-33" fill="#D49E6C"></path>
                    <path d="M159.28625,58.9598592 C159.316115,59.1492958 159.343438,59.3450704 159.375208,59.534507 C159.343438,59.3450704 159.316115,59.1492958 159.28625,58.9598592 Z" id="Fill-34" fill="#D49E6C"></path>
                    <path d="M158.77474,54.4507042 C158.789354,54.6626761 158.807146,54.871831 158.824302,55.0809859 C158.807146,54.871831 158.789354,54.6626761 158.77474,54.4507042 Z" id="Fill-35" fill="#D49E6C"></path>
                    <path d="M159.9115,62.3077465 C159.941365,62.4450704 159.976313,62.5795775 160.005542,62.7176056 C159.973771,62.5795775 159.941365,62.4450704 159.9115,62.3077465 Z" id="Fill-36" fill="#D49E6C"></path>
                    <path d="M159.539146,60.4640845 C159.571552,60.6267606 159.598875,60.7915493 159.62874,60.9514085 C159.598875,60.7887324 159.571552,60.6267606 159.539146,60.4640845 Z" id="Fill-37" fill="#D49E6C"></path>
                    <path d="M160.96375,66.2577465 C161.031104,66.4753521 161.100365,66.6866197 161.17026,66.9014085 C161.100365,66.6894366 161.031104,66.4753521 160.96375,66.2577465 Z" id="Fill-38" fill="#D49E6C"></path>
                    <path d="M160.229208,63.6584507 C160.278771,63.8507042 160.330875,64.0429577 160.382979,64.2359155 C160.330875,64.0429577 160.278771,63.8507042 160.229208,63.6584507 Z" id="Fill-39" fill="#D49E6C"></path>
                    <g id="Group-43" transform="translate(0.000000, 45.070423)">
                        <mask id="mask-4" fill="white">
                            <use xlink:href="#path-3"></use>
                        </mask>
                        <g id="Clip-41"></g>
                        <path d="M160.581865,19.9028169 C160.640958,20.1119718 160.703229,20.3204225 160.762958,20.5267606 C160.703229,20.3204225 160.640958,20.1119718 160.581865,19.9028169 Z" id="Fill-40" fill="#D49E6C" mask="url(#mask-4)"></path>
                        <path d="M44.7320625,4.64647887 C44.7320625,2.15915493 42.9128646,0.140140845 40.6666667,0.140140845 L4.06539583,0.140140845 C1.82173958,0.140140845 0,2.15915493 0,4.64647887 C0,7.13591549 1.82173958,9.15492958 4.06539583,9.15492958 L40.6666667,9.15492958 C42.9128646,9.15492958 44.7320625,7.13591549 44.7320625,4.64647887 Z" id="Fill-42" fill="#FF9300" mask="url(#mask-4)"></path>
                    </g>
                </g>
                <path d="M221,-2.4158453e-13 C193.385763,-2.36511877e-13 171,22.3857625 171,50 C171,77.6142375 193.385763,100 221,100 L207,100 C179.385763,100 157,77.6142375 157,50 C157,22.3857625 179.385763,-2.36511877e-13 207,-2.4158453e-13 L221,-2.4158453e-13 Z" id="Combined-Shape" fill="#8F8F8F"></path>
            </g>
        </g>
    </g>
</svg>