<?xml version="1.0" encoding="UTF-8"?>
<svg width="203px" height="191px" viewBox="0 0 203 191" version="1.1" xmlns="http://www.w3.org/2000/svg" xmlns:xlink="http://www.w3.org/1999/xlink">
    <!-- Generator: Sketch 52.2 (67145) - http://www.bohemiancoding.com/sketch -->
    <title>explosion</title>
    <desc>Created with Sketch.</desc>
    <defs>
        <polygon id="path-1" points="0.0237890625 0.00600392927 203 0.00600392927 203 190.977485 0.0237890625 190.977485"></polygon>
    </defs>
    <g id="Games" stroke="none" stroke-width="1" fill="none" fill-rule="evenodd">
        <g id="SR---3" transform="translate(-1010.000000, -387.000000)">
            <g id="explosion" transform="translate(1010.000000, 387.000000)">
                <g id="Group-3">
                    <mask id="mask-2" fill="white">
                        <use xlink:href="#path-1"></use>
                    </mask>
                    <g id="Clip-2"></g>
                    <polyline id="Fill-1" fill="#E5744E" mask="url(#mask-2)" points="203 91.5839371 147.123061 77.5152299 175.462574 30.3622456 122.98192 53.1512849 112.259 0.00600392927 87.7312871 48.9898114 42.9634434 14.7190079 57.8653086 66.9775835 0 67.6173772 47.3584727 98.6978428 3.47161719 133.948788 61.1271855 129.308501 51.753502 182.676678 92.7289727 144.486809 122.254768 191 127.376949 137.13012 181.986725 155.024831 148.858473 110.680935 203 91.5839371"></polyline>
                </g>
                <polyline id="Fill-4" fill="#F3B253" points="167 92.9761586 130.941509 83.9157252 149.229525 53.5494704 115.362946 68.2258068 108.442974 34 92.614564 65.5453959 63.7250985 43.4754551 73.3414365 77.1296707 36 77.5416959 66.5614582 97.5575039 38.2402958 120.258967 75.4464977 117.270661 69.3974213 151.639553 95.8399713 127.045396 114.893392 157 118.198909 122.307856 153.439647 133.831825 132.061458 105.274735 167 92.9761586"></polyline>
                <polyline id="Fill-5" fill="#F9C962" points="143 92.9610853 120.704402 87.4367281 132.012342 68.9205298 111.071534 77.8695036 106.792974 57 97.0059707 76.2351292 79.143069 62.777922 85.0890956 83.2987739 62 83.5497285 80.8966104 95.7544001 63.3852176 109.596802 86.3906397 107.774864 82.6505521 128.731251 99.0001236 113.735129 110.781279 132 112.825076 110.845982 134.61543 117.873083 121.39661 100.460265 143 92.9610853"></polyline>
                <polyline id="Fill-6" fill="#F6E07A" points="117 94.3845731 108.191614 92.1747333 112.659198 84.7682467 104.386159 88.3476175 102.695862 80 98.8295991 87.6939607 91.772716 82.3110367 94.1215659 90.5196022 85 90.6200495 92.4654479 95.5018615 85.5472701 101.03883 94.6358488 100.309837 93.1581797 108.692686 99.6173183 102.693961 104.271698 110 105.079289 101.538442 113.687366 104.349092 108.465448 97.3841233 117 94.3845731"></polyline>
            </g>
        </g>
    </g>
</svg>