<?xml version="1.0" encoding="UTF-8"?>
<svg width="475px" height="894px" viewBox="0 0 475 894" version="1.1" xmlns="http://www.w3.org/2000/svg" xmlns:xlink="http://www.w3.org/1999/xlink">
    <!-- Generator: Sketch 52.2 (67145) - http://www.bohemiancoding.com/sketch -->
    <title>Palm tree</title>
    <desc>Created with Sketch.</desc>
    <g id="Games" stroke="none" stroke-width="1" fill="none" fill-rule="evenodd">
        <g id="Ch---3" transform="translate(-965.000000, -130.000000)">
            <g id="Palm-tree" transform="translate(958.000000, 95.000000)">
                <g id="palm-tree-(1)">
                    <g id="Group-11" transform="translate(396.344921, 196.451921) rotate(11.000000) translate(-396.344921, -196.451921) translate(274.344921, 151.451921)" fill="#00A059">
                        <path d="M243.851,74.304 C239.815,46.985 206.953,-11.226 109.017,3.246 C61.011,10.34 14.907,53.506 0.562,83.591 C6.45,84.089 11.851,86.285 16.276,89.692 C29.05,82.94 47.95,77.739 68.754,75.837 C82.183,66.482 97.809,57.935 116.471,53.701 C177,39.973 245.824,87.657 243.851,74.304" id="Fill-10"></path>
                    </g>
                    <path d="M225.381131,228.503458 C229.993131,222.002458 237.123131,217.415458 245.354131,216.176458 C226.320131,188.621458 174.925131,153.335458 126.857131,153.335458 C27.8571314,153.335458 3.85713141,215.724458 3.85713141,243.340458 C3.85713141,256.838458 21.4741314,253.886458 42.8571314,243.340458 C51.9011314,238.880458 48.1211314,220.530458 59.8571314,216.338458 C73.8571314,211.338458 79.4501314,228.892458 94.8571314,225.338458 C107.857131,222.339458 116.857131,200.337458 128.857131,204.338458 C138.762131,207.640458 144.071131,236.516458 152.857131,238.340458 C153.082131,238.387458 153.313131,238.405458 153.540131,238.441458 C180.569131,229.290458 207.380131,226.072458 225.381131,228.503458" id="Fill-12" fill="#00A059" transform="translate(124.605631, 202.863071) rotate(355.000000) translate(-124.605631, -202.863071) "></path>
                    <path d="M316.465792,229.75236 C295.661792,231.65436 276.761792,236.85636 263.987792,243.60736 C269.641792,247.95936 273.701792,254.27736 275.137792,261.54336 C275.553792,263.64836 276.759792,276.89136 273.927792,277.59936 C284.513792,274.95136 298.744792,271.03436 318.360792,273.87136 C326.371792,275.02936 334.675792,288.36036 342.882792,290.73836 C351.501792,293.23636 366.400792,283.95036 374.698792,288.34136 C382.330792,292.38036 382.441792,307.63536 388.895792,312.82636 C397.903792,320.07036 415.060792,313.23936 422.057792,321.32636 C430.211792,330.75036 424.793792,353.93436 430.700792,362.10736 C444.667792,381.43036 458.858792,392.28036 465.171792,380.35036 C478.087792,355.94136 486.054792,289.57136 398.552792,243.26236 C374.321792,230.43836 343.764792,227.25636 316.465792,229.75236 Z" id="Fill-13" fill="#009485" transform="translate(368.538751, 307.149288) rotate(10.000000) translate(-368.538751, -307.149288) "></path>
                    <path d="M176.371744,232.718824 C151.676744,241.078824 126.808744,254.382824 108.337744,272.855824 C29.2927443,351.904824 54.2437443,415.183824 73.7697443,434.710824 C83.3137443,444.254824 95.2927443,428.100824 104.908744,403.569824 C108.975744,393.193824 97.5297443,372.078824 103.610744,359.610824 C108.828744,348.912824 150.174744,348.233824 157.688744,337.623824 C157.842744,337.405824 158.088744,337.142824 158.400744,336.844824 C166.849744,297.063824 200.187744,260.058824 228.749744,241.835824 C233.809744,238.607824 238.717744,235.969824 243.311744,234.010824 C244.162744,229.894824 245.862744,226.091824 248.211744,222.781824 C230.211744,220.350824 203.400744,223.568824 176.371744,232.718824" id="Fill-14" fill="#009485"></path>
                    <path d="M267.628652,265.692 C260.281652,261.843 254.734652,254.96 252.570652,246.946 C251.359652,242.461 251.211652,237.55 252.152652,233 C247.557652,234.96 242.650652,237.597 237.590652,240.825 C209.028652,259.048 175.690652,296.053 167.241652,335.834 C167.163652,336.199 167.076652,336.564 167.003652,336.929 C147.532652,434.001 203.980652,469.804 231.054652,475.235 C244.287652,477.89 244.858652,460.035 238.724652,436.995 C236.130652,427.25 214.746652,416.785 212.603652,404.508 C210.764652,393.973 226.907652,385.002 226.993652,373.443 C227.055652,365.16 215.309652,355.427 217.007652,346.96 C218.854652,337.754 235.469652,332.086 238.985652,323.83 C242.333652,315.968 237.260652,301.105 241.429652,294.167 C249.878652,280.104 259.577652,271.828 267.628652,265.692" id="Fill-15" fill="#00A059"></path>
                    <path d="M252.641579,23.8421526 C245.294579,19.9931526 239.747579,13.1101526 237.583579,5.09615255 C236.372579,0.611152555 236.224579,-4.29984745 237.165579,-8.84984745 C232.570579,-6.88984745 227.663579,-4.25284745 222.603579,-1.02484745 C194.041579,17.1981526 160.703579,54.2031526 152.254579,93.9841526 C152.176579,94.3491526 152.089579,94.7141526 152.016579,95.0791526 C132.545579,192.151153 188.993579,227.954153 216.067579,233.385153 C229.300579,236.040153 229.871579,218.185153 223.737579,195.145153 C221.143579,185.400153 199.759579,174.935153 197.616579,162.658153 C195.777579,152.123153 211.920579,143.152153 212.006579,131.593153 C212.068579,123.310153 200.322579,113.577153 202.020579,105.110153 C203.867579,95.9041526 220.482579,90.2361526 223.998579,81.9801526 C227.346579,74.1181526 222.273579,59.2551526 226.442579,52.3171526 C234.891579,38.2541526 244.590579,29.9781526 252.641579,23.8421526" id="Fill-15" fill="#009485" transform="translate(200.327254, 112.398692) rotate(125.000000) translate(-200.327254, -112.398692) "></path>
                    <path d="M286.408,230.633 C283.602,216.838 271.109,206.475 257.001,206.475 C240.764,206.475 227.001,220.258 227.001,236.477 C227.001,252.554 240.932,266.479 257.001,266.479 C275.184,266.479 290.036,248.471 286.408,230.633" id="Fill-16" fill="#009485"></path>
                </g>
                <path d="M395.078121,925.681142 C394.341316,921.450429 341.408131,473.563047 142.508312,311.378244 C146.9161,305.714005 150.123143,301.289301 152.129441,298.104132 C159.067016,287.09014 167.699983,285.868173 168.018518,286.065355 C411.234051,436.623012 477.598507,909.533355 480.763356,927.911207 L395.078121,925.681142 Z" id="Fill-3" fill="#7F5B53" transform="translate(311.635834, 606.979100) rotate(20.000000) translate(-311.635834, -606.979100) "></path>
                <circle id="Oval" stroke="#FFFFFF" stroke-width="6" cx="257" cy="236" r="31"></circle>
                <path d="M280.5,331.5 L324.5,315.5" id="Line" stroke="#FFFFFF" stroke-width="3" stroke-linecap="square"></path>
                <path d="M292.5,375.5 L348,357" id="Line" stroke="#FFFFFF" stroke-width="3" stroke-linecap="square"></path>
                <path d="M303.5,422.5 L365,403" id="Line" stroke="#FFFFFF" stroke-width="3" stroke-linecap="square"></path>
                <path d="M312.5,472.5 L376,457" id="Line" stroke="#FFFFFF" stroke-width="3" stroke-linecap="square"></path>
                <path d="M312.5,526.5 L395,512" id="Line" stroke="#FFFFFF" stroke-width="3" stroke-linecap="square"></path>
                <path d="M312.5,593.5 L395,579" id="Line" stroke="#FFFFFF" stroke-width="3" stroke-linecap="square"></path>
                <path d="M312.5,676.5 L401,661" id="Line" stroke="#FFFFFF" stroke-width="3" stroke-linecap="square"></path>
                <path d="M303.5,776.5 L397,760" id="Line" stroke="#FFFFFF" stroke-width="3" stroke-linecap="square"></path>
                <path d="M292.5,876.5 L394,861" id="Line" stroke="#FFFFFF" stroke-width="3" stroke-linecap="square"></path>
            </g>
        </g>
    </g>
</svg>