<?xml version="1.0" encoding="UTF-8"?>
<svg width="1051px" height="772px" viewBox="0 0 1051 772" version="1.1" xmlns="http://www.w3.org/2000/svg" xmlns:xlink="http://www.w3.org/1999/xlink">
    <!-- Generator: Sketch 52.2 (67145) - http://www.bohemiancoding.com/sketch -->
    <title>Stars</title>
    <desc>Created with Sketch.</desc>
    <defs>
        <polygon id="path-1" points="0 0 58 0 58 55 0 55"></polygon>
        <polygon id="path-3" points="0 0 58 0 58 55 0 55"></polygon>
        <polygon id="path-5" points="0 0 36 0 36 41 0 41"></polygon>
        <polygon id="path-7" points="0 0 47 0 47 54 0 54"></polygon>
        <polygon id="path-9" points="0 0 58 0 58 55 0 55"></polygon>
        <polygon id="path-11" points="0 0 36 0 36 41 0 41"></polygon>
        <polygon id="path-13" points="0 0 58 0 58 55 0 55"></polygon>
        <polygon id="path-15" points="0 0 36 0 36 41 0 41"></polygon>
        <polygon id="path-17" points="0 0 36 0 36 41 0 41"></polygon>
        <polygon id="path-19" points="0 0 36 0 36 41 0 41"></polygon>
        <polygon id="path-21" points="0 0 36 0 36 41 0 41"></polygon>
        <polygon id="path-23" points="0 0 36 0 36 41 0 41"></polygon>
        <polygon id="path-25" points="0 0 36 0 36 41 0 41"></polygon>
    </defs>
    <g id="Games" stroke="none" stroke-width="1" fill="none" fill-rule="evenodd">
        <g id="SR---2" transform="translate(-116.000000, -192.000000)">
            <g id="Stars" transform="translate(116.000000, 192.000000)">
                <g id="sparkles" transform="translate(338.000000, 27.000000)">
                    <mask id="mask-2" fill="white">
                        <use xlink:href="#path-1"></use>
                    </mask>
                    <g id="Clip-2"></g>
                    <path d="M19.293618,28.9141482 C19.4226783,29.6768434 20.1153328,30.2990506 21.0423651,30.4856914 L31.6254415,32.6167296 C32.1211232,32.7165135 32.1266942,33.2827391 31.6310125,33.3826299 C28.8223263,33.9482145 23.6153471,34.9966934 21.0363962,35.5159116 C20.1092313,35.7025524 19.4226783,36.3239049 19.2934854,37.0866002 L16.48785,53.6581012 C16.4106526,54.1139663 15.5925191,54.1139663 15.5153217,53.6581012 L12.7098189,37.0869207 C12.580626,36.3242254 11.8939403,35.7028729 10.9666428,35.5162321 C8.38755928,34.9971208 3.18044745,33.9487487 0.371761283,33.383164 C-0.123920428,33.2833801 -0.123920428,32.7182229 0.371761283,32.6184389 C3.18071274,32.0528543 8.38808985,31.0041617 10.9670407,30.4847298 C11.894073,30.2979822 12.580626,29.6767366 12.7096863,28.9141482 L15.5153217,12.3424334 C15.5925191,11.8865684 16.4105199,11.8855 16.4877173,12.3413651 C17.3610297,17.4988259 19.120786,27.8932327 19.293618,28.9141482" id="Fill-1" fill="#FDFDFD" mask="url(#mask-2)"></path>
                    <path d="M41.8701475,11.4321662 C41.2508807,11.3148204 40.7882911,10.9235277 40.7020456,10.4439632 C40.3433758,8.44929409 39.3953395,3.17765348 38.8688298,0.250095497 C38.8087636,-0.0842036632 38.1978689,-0.0829441374 38.1376698,0.251355023 L36.3045869,10.4438583 C36.2184743,10.9233178 35.7597385,11.3139807 35.1406046,11.4314315 C33.4829363,11.7457882 30.1990948,12.3683089 28.2821584,12.7316821 C27.9059472,12.8030552 27.9059472,13.2239468 28.2821584,13.2953199 C30.1989619,13.6586931 33.4826705,14.2811088 35.1404717,14.5951506 C35.7597385,14.7124964 36.2184743,15.1031594 36.3047198,15.5827239 L38.1324871,25.7457332 C38.1934835,26.0847556 38.8132819,26.0847556 38.8742783,25.7457332 L40.7020456,15.5825139 C40.7882911,15.1029495 41.2470269,14.7122865 41.8661608,14.5949407 C43.5225002,14.2810039 46.8016906,13.6594278 48.7192914,13.2959497 C49.0968315,13.2243666 49.0919146,12.8011659 48.7143744,12.7295829 L41.8701475,11.4321662" id="Fill-3" fill="#FDFDFD" mask="url(#mask-2)"></path>
                    <path d="M52.6345691,43.1809892 C52.150217,43.0829023 51.788382,42.7561619 51.7209521,42.3555056 C51.4555199,40.7796411 50.7778427,36.7552733 50.356763,34.2546513 C50.2989473,33.9111853 49.7024718,33.9171202 49.6446562,34.2605861 L48.2815064,42.3553977 C48.2140765,42.7559461 47.8553597,43.0822549 47.3711375,43.1803418 C46.148954,43.427879 43.7964422,43.9041777 42.2747867,44.2121424 C41.9084044,44.2862741 41.9084044,44.7172521 42.2747867,44.7913838 C43.7963123,45.0994564 46.1486941,45.5755393 47.3710076,45.8229686 C47.8554896,45.9209476 48.2142064,46.2472564 48.2816364,46.6479127 L49.6446562,54.7424005 C49.7024718,55.0858665 50.2999867,55.0858665 50.3578023,54.7424005 L51.7209521,46.6478048 C51.788382,46.2472564 52.1470988,45.9209476 52.6314509,45.8228607 C53.8536345,45.5754314 56.2058864,45.0992406 57.727412,44.7912759 C58.0937943,44.7171442 58.0893769,44.2853029 57.7229947,44.2111713 L52.6345691,43.1809892" id="Fill-4" fill="#FDFDFD" mask="url(#mask-2)"></path>
                    <path d="M15.6533305,53.6593052 L18,39.1107526 C15.4554975,34.7487099 13.5740063,30.2228271 12.3894011,27 L12.0663956,29.00249 C11.9437416,29.7623928 11.2920639,30.3814507 10.4119527,30.5675407 C7.96353333,31.0852498 3.01959755,32.1301429 0.35294488,32.6937358 C-0.117648293,32.7932748 -0.117648293,33.3563353 0.35294488,33.4557678 C3.01959755,34.0193607 7.96302962,35.0641473 10.4115749,35.5813242 C11.291938,35.7673077 11.9438676,36.386472 12.0665215,37.1464814 L14.730026,53.6593052 C14.8031902,54.1135649 15.5800404,54.1135649 15.6533305,53.6593052" id="Fill-5" fill="#FDFDFD" mask="url(#mask-2)"></path>
                    <path d="M36.1239869,10 L35.9660502,10.9447303 C35.8834489,11.4395736 35.4434188,11.8427712 34.849531,11.9639904 C33.2594568,12.2884334 30.1093914,12.9308197 28.2707486,13.3059603 C27.9097505,13.3796235 27.9097505,13.8140196 28.2707486,13.8876828 C30.1093914,14.262715 33.2592018,14.904993 34.8494035,15.2292193 C35.4434188,15.3503302 35.8834489,15.7535278 35.9661777,16.2484794 L37.7194149,26.7375749 C37.7779241,27.087475 38.3724493,27.087475 38.4310859,26.7375749 L40,17.3508273 C37.9447838,14.8513705 36.773707,12.1131584 36.1239869,10" id="Fill-6" fill="#FDFDFD" mask="url(#mask-2)"></path>
                    <path d="M48.5194175,46.7485552 L49.9340615,54.7455046 C49.9940669,55.0848318 50.6142125,55.0848318 50.6742179,54.7455046 L52,47.2517359 C50.0094391,45.5096858 49.055151,43.4282018 48.6092233,42 L48.5194175,42.5078714 C48.4494337,42.9035932 48.0771305,43.2259701 47.5745685,43.322875 C46.3060949,43.5674294 43.8644822,44.0378821 42.2851942,44.3422425 C41.9049353,44.4154808 41.9049353,44.8412656 42.2851942,44.914504 C43.8643474,45.2188644 46.3058252,45.689317 47.5744337,45.9336582 C48.0769957,46.0303499 48.4492988,46.3527268 48.5194175,46.7485552" id="Fill-7" fill="#FDFDFD" mask="url(#mask-2)"></path>
                </g>
                <g id="sparkles" transform="translate(684.000000, 217.000000)">
                    <mask id="mask-4" fill="white">
                        <use xlink:href="#path-3"></use>
                    </mask>
                    <g id="Clip-2"></g>
                    <path d="M19.293618,28.9141482 C19.4226783,29.6768434 20.1153328,30.2990506 21.0423651,30.4856914 L31.6254415,32.6167296 C32.1211232,32.7165135 32.1266942,33.2827391 31.6310125,33.3826299 C28.8223263,33.9482145 23.6153471,34.9966934 21.0363962,35.5159116 C20.1092313,35.7025524 19.4226783,36.3239049 19.2934854,37.0866002 L16.48785,53.6581012 C16.4106526,54.1139663 15.5925191,54.1139663 15.5153217,53.6581012 L12.7098189,37.0869207 C12.580626,36.3242254 11.8939403,35.7028729 10.9666428,35.5162321 C8.38755928,34.9971208 3.18044745,33.9487487 0.371761283,33.383164 C-0.123920428,33.2833801 -0.123920428,32.7182229 0.371761283,32.6184389 C3.18071274,32.0528543 8.38808985,31.0041617 10.9670407,30.4847298 C11.894073,30.2979822 12.580626,29.6767366 12.7096863,28.9141482 L15.5153217,12.3424334 C15.5925191,11.8865684 16.4105199,11.8855 16.4877173,12.3413651 C17.3610297,17.4988259 19.120786,27.8932327 19.293618,28.9141482" id="Fill-1" fill="#FDFDFD" mask="url(#mask-4)"></path>
                    <path d="M41.8701475,11.4321662 C41.2508807,11.3148204 40.7882911,10.9235277 40.7020456,10.4439632 C40.3433758,8.44929409 39.3953395,3.17765348 38.8688298,0.250095497 C38.8087636,-0.0842036632 38.1978689,-0.0829441374 38.1376698,0.251355023 L36.3045869,10.4438583 C36.2184743,10.9233178 35.7597385,11.3139807 35.1406046,11.4314315 C33.4829363,11.7457882 30.1990948,12.3683089 28.2821584,12.7316821 C27.9059472,12.8030552 27.9059472,13.2239468 28.2821584,13.2953199 C30.1989619,13.6586931 33.4826705,14.2811088 35.1404717,14.5951506 C35.7597385,14.7124964 36.2184743,15.1031594 36.3047198,15.5827239 L38.1324871,25.7457332 C38.1934835,26.0847556 38.8132819,26.0847556 38.8742783,25.7457332 L40.7020456,15.5825139 C40.7882911,15.1029495 41.2470269,14.7122865 41.8661608,14.5949407 C43.5225002,14.2810039 46.8016906,13.6594278 48.7192914,13.2959497 C49.0968315,13.2243666 49.0919146,12.8011659 48.7143744,12.7295829 L41.8701475,11.4321662" id="Fill-3" fill="#FDFDFD" mask="url(#mask-4)"></path>
                    <path d="M52.6345691,43.1809892 C52.150217,43.0829023 51.788382,42.7561619 51.7209521,42.3555056 C51.4555199,40.7796411 50.7778427,36.7552733 50.356763,34.2546513 C50.2989473,33.9111853 49.7024718,33.9171202 49.6446562,34.2605861 L48.2815064,42.3553977 C48.2140765,42.7559461 47.8553597,43.0822549 47.3711375,43.1803418 C46.148954,43.427879 43.7964422,43.9041777 42.2747867,44.2121424 C41.9084044,44.2862741 41.9084044,44.7172521 42.2747867,44.7913838 C43.7963123,45.0994564 46.1486941,45.5755393 47.3710076,45.8229686 C47.8554896,45.9209476 48.2142064,46.2472564 48.2816364,46.6479127 L49.6446562,54.7424005 C49.7024718,55.0858665 50.2999867,55.0858665 50.3578023,54.7424005 L51.7209521,46.6478048 C51.788382,46.2472564 52.1470988,45.9209476 52.6314509,45.8228607 C53.8536345,45.5754314 56.2058864,45.0992406 57.727412,44.7912759 C58.0937943,44.7171442 58.0893769,44.2853029 57.7229947,44.2111713 L52.6345691,43.1809892" id="Fill-4" fill="#FDFDFD" mask="url(#mask-4)"></path>
                    <path d="M15.6533305,53.6593052 L18,39.1107526 C15.4554975,34.7487099 13.5740063,30.2228271 12.3894011,27 L12.0663956,29.00249 C11.9437416,29.7623928 11.2920639,30.3814507 10.4119527,30.5675407 C7.96353333,31.0852498 3.01959755,32.1301429 0.35294488,32.6937358 C-0.117648293,32.7932748 -0.117648293,33.3563353 0.35294488,33.4557678 C3.01959755,34.0193607 7.96302962,35.0641473 10.4115749,35.5813242 C11.291938,35.7673077 11.9438676,36.386472 12.0665215,37.1464814 L14.730026,53.6593052 C14.8031902,54.1135649 15.5800404,54.1135649 15.6533305,53.6593052" id="Fill-5" fill="#FDFDFD" mask="url(#mask-4)"></path>
                    <path d="M36.1239869,10 L35.9660502,10.9447303 C35.8834489,11.4395736 35.4434188,11.8427712 34.849531,11.9639904 C33.2594568,12.2884334 30.1093914,12.9308197 28.2707486,13.3059603 C27.9097505,13.3796235 27.9097505,13.8140196 28.2707486,13.8876828 C30.1093914,14.262715 33.2592018,14.904993 34.8494035,15.2292193 C35.4434188,15.3503302 35.8834489,15.7535278 35.9661777,16.2484794 L37.7194149,26.7375749 C37.7779241,27.087475 38.3724493,27.087475 38.4310859,26.7375749 L40,17.3508273 C37.9447838,14.8513705 36.773707,12.1131584 36.1239869,10" id="Fill-6" fill="#FDFDFD" mask="url(#mask-4)"></path>
                    <path d="M48.5194175,46.7485552 L49.9340615,54.7455046 C49.9940669,55.0848318 50.6142125,55.0848318 50.6742179,54.7455046 L52,47.2517359 C50.0094391,45.5096858 49.055151,43.4282018 48.6092233,42 L48.5194175,42.5078714 C48.4494337,42.9035932 48.0771305,43.2259701 47.5745685,43.322875 C46.3060949,43.5674294 43.8644822,44.0378821 42.2851942,44.3422425 C41.9049353,44.4154808 41.9049353,44.8412656 42.2851942,44.914504 C43.8643474,45.2188644 46.3058252,45.689317 47.5744337,45.9336582 C48.0769957,46.0303499 48.4492988,46.3527268 48.5194175,46.7485552" id="Fill-7" fill="#FDFDFD" mask="url(#mask-4)"></path>
                </g>
                <g id="sparkles" transform="translate(0.000000, 595.000000)">
                    <mask id="mask-6" fill="white">
                        <use xlink:href="#path-5"></use>
                    </mask>
                    <g id="Clip-2"></g>
                    <path d="M12.0585113,21.4842522 C12.139174,22.0471939 12.572083,22.5064421 13.1514782,22.6442008 L19.7659009,24.2171099 C20.075702,24.29076 20.0791839,24.7086884 19.7693828,24.7824173 C18.0139539,25.1998726 14.7595919,25.9737499 13.1477476,26.3569824 C12.5682696,26.4947411 12.139174,26.9533584 12.0584284,27.5163001 L10.3049062,39.7476461 C10.2566579,40.084118 9.74532443,40.084118 9.69707605,39.7476461 L7.94363681,27.5165367 C7.86289123,26.953595 7.43371271,26.4949776 6.85415176,26.357219 C5.24222455,25.9740653 1.98777966,25.2002669 0.232350802,24.7828116 C-0.0774502672,24.7091615 -0.0774502672,24.2920216 0.232350802,24.2183716 C1.98794546,23.8009163 5.24255615,23.0268813 6.85440046,22.6434911 C7.43379561,22.5056535 7.86289123,22.0471151 7.94355391,21.4842522 L9.69707605,9.25274848 C9.74532443,8.91627666 10.256575,8.91548812 10.3048233,9.25195994 C10.8506436,13.0586572 11.9504913,20.7307194 12.0585113,21.4842522" id="Fill-1" fill="#FDFDFD" mask="url(#mask-6)"></path>
                    <path d="M25.5862818,8.79397404 C25.2029262,8.70370802 24.9165612,8.40271363 24.8631711,8.03381787 C24.6411374,6.49945699 24.0542578,2.44434883 23.7283232,0.192381152 C23.6911394,-0.0647720486 23.3129664,-0.0638031826 23.2757003,0.193350018 L22.1409348,8.03373713 C22.0876269,8.40255215 21.8036476,8.7030621 21.4203742,8.79340886 C20.3941987,9.03522169 18.3613444,9.51408374 17.1746695,9.79360159 C16.9417768,9.848504 16.9417768,10.1722667 17.1746695,10.2271692 C18.3612621,10.506687 20.3940341,10.9854683 21.420292,11.2270389 C21.8036476,11.317305 22.0876269,11.6178149 22.141017,11.9867107 L23.272492,19.8044102 C23.3102517,20.0651966 23.6939364,20.0651966 23.7316961,19.8044102 L24.8631711,11.9865492 C24.9165612,11.6176534 25.2005405,11.3171435 25.5838138,11.2268775 C26.6091668,10.9853876 28.6391418,10.5072522 29.826228,10.2276536 C30.0599433,10.1725897 30.0568995,9.84705071 29.8231842,9.79198682 L25.5862818,8.79397404" id="Fill-3" fill="#FDFDFD" mask="url(#mask-6)"></path>
                    <path d="M32.6466057,31.9950394 C32.3438856,31.9203065 32.1177388,31.6713614 32.0755951,31.3660995 C31.9096999,30.1654408 31.4861517,27.0992558 31.2229768,25.19402 C31.1868421,24.9323317 30.8140449,24.9368535 30.7779101,25.1985418 L29.9259415,31.3660173 C29.8837978,31.671197 29.6595998,31.9198133 29.356961,31.9945461 C28.5930962,32.1831459 27.1227764,32.5460401 26.1717417,32.7806799 C25.9427528,32.8371612 25.9427528,33.1655254 26.1717417,33.2220067 C27.1226952,33.4567287 28.5929338,33.8194585 29.3568798,34.0079761 C29.659681,34.0826267 29.883879,34.331243 29.9260227,34.6365049 L30.7779101,40.8037337 C30.8140449,41.0654221 31.1874917,41.0654221 31.2236265,40.8037337 L32.0755951,34.6364227 C32.1177388,34.331243 32.3419368,34.0826267 32.6446568,34.0078939 C33.4085216,33.8193763 34.878679,33.4565643 35.8296325,33.2219245 C36.0586214,33.1654432 36.0558606,32.8364213 35.8268717,32.77994 L32.6466057,31.9950394" id="Fill-4" fill="#FDFDFD" mask="url(#mask-6)"></path>
                    <path d="M9.56592422,39.7476335 L11,28.9709279 C9.44502628,25.7397851 8.2952261,22.3872794 7.57130064,20 L7.3739084,21.4833259 C7.29895322,22.0462169 6.90070572,22.5047783 6.36285997,22.6426228 C4.8666037,23.026111 1.84530962,23.8001059 0.215688538,24.2175821 C-0.0718961793,24.2913146 -0.0718961793,24.7083965 0.215688538,24.7820503 C1.84530962,25.1995265 4.86629588,25.9734425 6.3626291,26.3565364 C6.90062877,26.494302 7.29903018,26.9529423 7.37398536,27.5159121 L9.00168254,39.7476335 C9.046394,40.0841222 9.5211358,40.0841222 9.56592422,39.7476335" id="Fill-5" fill="#FDFDFD" mask="url(#mask-6)"></path>
                    <path d="M21.7389923,7 L21.6468626,7.66686845 C21.5986785,8.01616958 21.3419943,8.30077964 20.9955598,8.38634619 C20.0680164,8.61536476 18.2304783,9.0688139 17.1579367,9.33361902 C16.9473544,9.38561656 16.9473544,9.69224912 17.1579367,9.74424666 C18.2304783,10.0089753 20.0678677,10.462348 20.9954854,10.6912136 C21.3419943,10.7767037 21.5986785,11.0613138 21.646937,11.4106914 L22.6696587,18.8147588 C22.7037891,19.0617471 23.0505954,19.0617471 23.0848001,18.8147588 L24,12.1888193 C22.8011239,10.4244968 22.1179957,8.4916412 21.7389923,7" id="Fill-6" fill="#FDFDFD" mask="url(#mask-6)"></path>
                    <path d="M29.9116505,34.6527348 L30.7604369,40.8042343 C30.7964401,41.0652552 31.1685275,41.0652552 31.2045307,40.8042343 L32,35.0397969 C30.8056634,33.6997583 30.2330906,32.0986168 29.965534,31 L29.9116505,31.3906703 C29.8696602,31.6950717 29.6462783,31.9430539 29.3447411,32.0175962 C28.583657,32.2057149 27.1186893,32.5676016 26.1711165,32.801725 C25.9429612,32.8580622 25.9429612,33.1855889 26.1711165,33.2419261 C27.1186084,33.4760495 28.5834951,33.8379362 29.3446602,34.0258909 C29.6461974,34.1002692 29.8695793,34.3482514 29.9116505,34.6527348" id="Fill-7" fill="#FDFDFD" mask="url(#mask-6)"></path>
                </g>
                <g id="sparkles" transform="translate(472.000000, 636.000000)">
                    <mask id="mask-8" fill="white">
                        <use xlink:href="#path-7"></use>
                    </mask>
                    <g id="Clip-2"></g>
                    <path d="M15.6760647,28.5114303 C15.7809261,29.2559662 16.3437079,29.8633589 17.0969216,30.0455559 L25.6956712,32.1258551 C26.0984126,32.2232632 26.102939,32.7760072 25.7001976,32.8735196 C23.4181401,33.425638 19.1874695,34.4491531 17.0920719,34.956009 C16.3387504,35.1382059 15.7809261,35.7447643 15.6759569,36.4893001 L13.3963781,52.6662417 C13.3336552,53.1112528 12.6689218,53.1112528 12.6061989,52.6662417 L10.3267279,36.489613 C10.2217586,35.7450772 9.66382652,35.1385188 8.91039729,34.9563218 C6.81489192,34.4495703 2.58411355,33.4261594 0.302056042,32.8740411 C-0.100685347,32.776633 -0.100685347,32.2249318 0.302056042,32.1275237 C2.5843291,31.5754054 6.815323,30.5516817 8.9107206,30.0446172 C9.6639343,29.862316 10.2217586,29.2558619 10.3266201,28.5114303 L12.6061989,12.3342803 C12.6689218,11.8892691 13.3335474,11.8882262 13.3962703,12.3332373 C14.1058367,17.3679014 15.5356386,27.5148224 15.6760647,28.5114303" id="Fill-1" fill="#FDFDFD" mask="url(#mask-8)"></path>
                    <path d="M34.2282147,11.4321662 C33.7269034,11.3148204 33.3524261,10.9235277 33.2826083,10.4439632 C32.9922566,8.44929409 32.2247986,3.17765348 31.7985765,0.250095497 C31.7499515,-0.0842036632 31.2554177,-0.0829441374 31.2066851,0.251355023 L29.7227608,10.4438583 C29.6530506,10.9233178 29.281693,11.3139807 28.7804894,11.4314315 C27.4385675,11.7457882 24.7802196,12.3683089 23.228414,12.7316821 C22.923862,12.8030552 22.923862,13.2239468 23.228414,13.2953199 C24.780112,13.6586931 27.4383523,14.2811088 28.7803818,14.5951506 C29.281693,14.7124964 29.6530506,15.1031594 29.7228684,15.5827239 L31.2024895,25.7457332 C31.2518676,26.0847556 31.7536091,26.0847556 31.8029872,25.7457332 L33.2826083,15.5825139 C33.3524261,15.1029495 33.7237837,14.7122865 34.2249873,14.5949407 C35.5658335,14.2810039 38.2204162,13.6594278 39.7727597,13.2959497 C40.0783874,13.2243666 40.074407,12.8011659 39.7687793,12.7295829 L34.2282147,11.4321662" id="Fill-3" fill="#FDFDFD" mask="url(#mask-8)"></path>
                    <path d="M42.6405874,42.1809892 C42.2470513,42.0829023 41.9530604,41.7561619 41.8982736,41.3555056 C41.6826099,39.7796411 41.1319972,35.7552733 40.7898699,33.2546513 C40.7428947,32.9111853 40.2582584,32.9171202 40.2112832,33.2605861 L39.103724,41.3553977 C39.0489372,41.7559461 38.7574798,42.0822549 38.3640492,42.1803418 C37.3710251,42.427879 35.4596093,42.9041777 34.2232642,43.2121424 C33.9255786,43.2862741 33.9255786,43.7172521 34.2232642,43.7913838 C35.4595038,44.0994564 37.370814,44.5755393 38.3639437,44.8229686 C38.7575853,44.9209476 39.0490427,45.2472564 39.1038295,45.6479127 L40.2112832,53.7424005 C40.2582584,54.0858665 40.7437392,54.0858665 40.7907144,53.7424005 L41.8982736,45.6478048 C41.9530604,45.2472564 42.2445178,44.9209476 42.6380539,44.8228607 C43.631078,44.5754314 45.5422827,44.0992406 46.7785223,43.7912759 C47.0762078,43.7171442 47.0726187,43.2853029 46.7749332,43.2111713 L42.6405874,42.1809892" id="Fill-4" fill="#FDFDFD" mask="url(#mask-8)"></path>
                    <path d="M13.0444421,53.6593052 L15,39.1107526 C12.8795813,34.7487099 11.311672,30.2228271 10.3245009,27 L10.0553296,29.00249 C9.95311803,29.7623928 9.41005326,30.3814507 8.67662723,30.5675407 C6.63627778,31.0852498 2.5163313,32.1301429 0.294120734,32.6937358 C-0.0980402445,32.7932748 -0.0980402445,33.3563353 0.294120734,33.4557678 C2.5163313,34.0193607 6.63585802,35.0641473 8.67631241,35.5813242 C9.40994832,35.7673077 9.95322297,36.386472 10.0554346,37.1464814 L12.2750216,53.6593052 C12.3359918,54.1135649 12.983367,54.1135649 13.0444421,53.6593052" id="Fill-5" fill="#FDFDFD" mask="url(#mask-8)"></path>
                    <path d="M29.7699891,10 L29.6383752,10.8891579 C29.5695408,11.3548928 29.202849,11.7343729 28.7079425,11.8484616 C27.3828806,12.1538197 24.7578262,12.7584185 23.2256238,13.111492 C22.9247921,13.1808221 22.9247921,13.5896655 23.2256238,13.6589955 C24.7578262,14.0119671 27.3826682,14.616464 28.7078363,14.9216182 C29.202849,15.0356049 29.5695408,15.415085 29.6384814,15.8809218 L31.0995124,25.7530117 C31.1482701,26.0823294 31.6437077,26.0823294 31.6925716,25.7530117 L33,16.9184257 C31.2873198,14.5659958 30.3114225,11.9888549 29.7699891,10" id="Fill-6" fill="#FDFDFD" mask="url(#mask-8)"></path>
                    <path d="M39.215534,45.7485552 L40.3472492,53.7455046 C40.3952535,54.0848318 40.89137,54.0848318 40.9393743,53.7455046 L42,46.2517359 C40.4075512,44.5096858 39.6441208,42.4282018 39.2873786,41 L39.215534,41.5078714 C39.1595469,41.9035932 38.8617044,42.2259701 38.4596548,42.322875 C37.4448759,42.5674294 35.4915858,43.0378821 34.2281553,43.3422425 C33.9239482,43.4154808 33.9239482,43.8412656 34.2281553,43.914504 C35.4914779,44.2188644 37.4446602,44.689317 38.4595469,44.9336582 C38.8615965,45.0303499 39.1594391,45.3527268 39.215534,45.7485552" id="Fill-7" fill="#FDFDFD" mask="url(#mask-8)"></path>
                </g>
                <g id="sparkles" transform="translate(204.000000, 441.000000)">
                    <mask id="mask-10" fill="white">
                        <use xlink:href="#path-9"></use>
                    </mask>
                    <g id="Clip-2"></g>
                    <path d="M19.293618,28.9141482 C19.4226783,29.6768434 20.1153328,30.2990506 21.0423651,30.4856914 L31.6254415,32.6167296 C32.1211232,32.7165135 32.1266942,33.2827391 31.6310125,33.3826299 C28.8223263,33.9482145 23.6153471,34.9966934 21.0363962,35.5159116 C20.1092313,35.7025524 19.4226783,36.3239049 19.2934854,37.0866002 L16.48785,53.6581012 C16.4106526,54.1139663 15.5925191,54.1139663 15.5153217,53.6581012 L12.7098189,37.0869207 C12.580626,36.3242254 11.8939403,35.7028729 10.9666428,35.5162321 C8.38755928,34.9971208 3.18044745,33.9487487 0.371761283,33.383164 C-0.123920428,33.2833801 -0.123920428,32.7182229 0.371761283,32.6184389 C3.18071274,32.0528543 8.38808985,31.0041617 10.9670407,30.4847298 C11.894073,30.2979822 12.580626,29.6767366 12.7096863,28.9141482 L15.5153217,12.3424334 C15.5925191,11.8865684 16.4105199,11.8855 16.4877173,12.3413651 C17.3610297,17.4988259 19.120786,27.8932327 19.293618,28.9141482" id="Fill-1" fill="#FDFDFD" mask="url(#mask-10)"></path>
                    <path d="M41.8701475,11.4321662 C41.2508807,11.3148204 40.7882911,10.9235277 40.7020456,10.4439632 C40.3433758,8.44929409 39.3953395,3.17765348 38.8688298,0.250095497 C38.8087636,-0.0842036632 38.1978689,-0.0829441374 38.1376698,0.251355023 L36.3045869,10.4438583 C36.2184743,10.9233178 35.7597385,11.3139807 35.1406046,11.4314315 C33.4829363,11.7457882 30.1990948,12.3683089 28.2821584,12.7316821 C27.9059472,12.8030552 27.9059472,13.2239468 28.2821584,13.2953199 C30.1989619,13.6586931 33.4826705,14.2811088 35.1404717,14.5951506 C35.7597385,14.7124964 36.2184743,15.1031594 36.3047198,15.5827239 L38.1324871,25.7457332 C38.1934835,26.0847556 38.8132819,26.0847556 38.8742783,25.7457332 L40.7020456,15.5825139 C40.7882911,15.1029495 41.2470269,14.7122865 41.8661608,14.5949407 C43.5225002,14.2810039 46.8016906,13.6594278 48.7192914,13.2959497 C49.0968315,13.2243666 49.0919146,12.8011659 48.7143744,12.7295829 L41.8701475,11.4321662" id="Fill-3" fill="#FDFDFD" mask="url(#mask-10)"></path>
                    <path d="M52.6345691,43.1809892 C52.150217,43.0829023 51.788382,42.7561619 51.7209521,42.3555056 C51.4555199,40.7796411 50.7778427,36.7552733 50.356763,34.2546513 C50.2989473,33.9111853 49.7024718,33.9171202 49.6446562,34.2605861 L48.2815064,42.3553977 C48.2140765,42.7559461 47.8553597,43.0822549 47.3711375,43.1803418 C46.148954,43.427879 43.7964422,43.9041777 42.2747867,44.2121424 C41.9084044,44.2862741 41.9084044,44.7172521 42.2747867,44.7913838 C43.7963123,45.0994564 46.1486941,45.5755393 47.3710076,45.8229686 C47.8554896,45.9209476 48.2142064,46.2472564 48.2816364,46.6479127 L49.6446562,54.7424005 C49.7024718,55.0858665 50.2999867,55.0858665 50.3578023,54.7424005 L51.7209521,46.6478048 C51.788382,46.2472564 52.1470988,45.9209476 52.6314509,45.8228607 C53.8536345,45.5754314 56.2058864,45.0992406 57.727412,44.7912759 C58.0937943,44.7171442 58.0893769,44.2853029 57.7229947,44.2111713 L52.6345691,43.1809892" id="Fill-4" fill="#FDFDFD" mask="url(#mask-10)"></path>
                    <path d="M15.6533305,53.6593052 L18,39.1107526 C15.4554975,34.7487099 13.5740063,30.2228271 12.3894011,27 L12.0663956,29.00249 C11.9437416,29.7623928 11.2920639,30.3814507 10.4119527,30.5675407 C7.96353333,31.0852498 3.01959755,32.1301429 0.35294488,32.6937358 C-0.117648293,32.7932748 -0.117648293,33.3563353 0.35294488,33.4557678 C3.01959755,34.0193607 7.96302962,35.0641473 10.4115749,35.5813242 C11.291938,35.7673077 11.9438676,36.386472 12.0665215,37.1464814 L14.730026,53.6593052 C14.8031902,54.1135649 15.5800404,54.1135649 15.6533305,53.6593052" id="Fill-5" fill="#FDFDFD" mask="url(#mask-10)"></path>
                    <path d="M36.1239869,10 L35.9660502,10.9447303 C35.8834489,11.4395736 35.4434188,11.8427712 34.849531,11.9639904 C33.2594568,12.2884334 30.1093914,12.9308197 28.2707486,13.3059603 C27.9097505,13.3796235 27.9097505,13.8140196 28.2707486,13.8876828 C30.1093914,14.262715 33.2592018,14.904993 34.8494035,15.2292193 C35.4434188,15.3503302 35.8834489,15.7535278 35.9661777,16.2484794 L37.7194149,26.7375749 C37.7779241,27.087475 38.3724493,27.087475 38.4310859,26.7375749 L40,17.3508273 C37.9447838,14.8513705 36.773707,12.1131584 36.1239869,10" id="Fill-6" fill="#FDFDFD" mask="url(#mask-10)"></path>
                    <path d="M48.5194175,46.7485552 L49.9340615,54.7455046 C49.9940669,55.0848318 50.6142125,55.0848318 50.6742179,54.7455046 L52,47.2517359 C50.0094391,45.5096858 49.055151,43.4282018 48.6092233,42 L48.5194175,42.5078714 C48.4494337,42.9035932 48.0771305,43.2259701 47.5745685,43.322875 C46.3060949,43.5674294 43.8644822,44.0378821 42.2851942,44.3422425 C41.9049353,44.4154808 41.9049353,44.8412656 42.2851942,44.914504 C43.8643474,45.2188644 46.3058252,45.689317 47.5744337,45.9336582 C48.0769957,46.0303499 48.4492988,46.3527268 48.5194175,46.7485552" id="Fill-7" fill="#FDFDFD" mask="url(#mask-10)"></path>
                </g>
                <g id="sparkles" transform="translate(1015.000000, 0.000000)">
                    <mask id="mask-12" fill="white">
                        <use xlink:href="#path-11"></use>
                    </mask>
                    <g id="Clip-2"></g>
                    <path d="M12.0585113,21.4842522 C12.139174,22.0471939 12.572083,22.5064421 13.1514782,22.6442008 L19.7659009,24.2171099 C20.075702,24.29076 20.0791839,24.7086884 19.7693828,24.7824173 C18.0139539,25.1998726 14.7595919,25.9737499 13.1477476,26.3569824 C12.5682696,26.4947411 12.139174,26.9533584 12.0584284,27.5163001 L10.3049062,39.7476461 C10.2566579,40.084118 9.74532443,40.084118 9.69707605,39.7476461 L7.94363681,27.5165367 C7.86289123,26.953595 7.43371271,26.4949776 6.85415176,26.357219 C5.24222455,25.9740653 1.98777966,25.2002669 0.232350802,24.7828116 C-0.0774502672,24.7091615 -0.0774502672,24.2920216 0.232350802,24.2183716 C1.98794546,23.8009163 5.24255615,23.0268813 6.85440046,22.6434911 C7.43379561,22.5056535 7.86289123,22.0471151 7.94355391,21.4842522 L9.69707605,9.25274848 C9.74532443,8.91627666 10.256575,8.91548812 10.3048233,9.25195994 C10.8506436,13.0586572 11.9504913,20.7307194 12.0585113,21.4842522" id="Fill-1" fill="#FDFDFD" mask="url(#mask-12)"></path>
                    <path d="M25.5862818,8.79397404 C25.2029262,8.70370802 24.9165612,8.40271363 24.8631711,8.03381787 C24.6411374,6.49945699 24.0542578,2.44434883 23.7283232,0.192381152 C23.6911394,-0.0647720486 23.3129664,-0.0638031826 23.2757003,0.193350018 L22.1409348,8.03373713 C22.0876269,8.40255215 21.8036476,8.7030621 21.4203742,8.79340886 C20.3941987,9.03522169 18.3613444,9.51408374 17.1746695,9.79360159 C16.9417768,9.848504 16.9417768,10.1722667 17.1746695,10.2271692 C18.3612621,10.506687 20.3940341,10.9854683 21.420292,11.2270389 C21.8036476,11.317305 22.0876269,11.6178149 22.141017,11.9867107 L23.272492,19.8044102 C23.3102517,20.0651966 23.6939364,20.0651966 23.7316961,19.8044102 L24.8631711,11.9865492 C24.9165612,11.6176534 25.2005405,11.3171435 25.5838138,11.2268775 C26.6091668,10.9853876 28.6391418,10.5072522 29.826228,10.2276536 C30.0599433,10.1725897 30.0568995,9.84705071 29.8231842,9.79198682 L25.5862818,8.79397404" id="Fill-3" fill="#FDFDFD" mask="url(#mask-12)"></path>
                    <path d="M32.6466057,31.9950394 C32.3438856,31.9203065 32.1177388,31.6713614 32.0755951,31.3660995 C31.9096999,30.1654408 31.4861517,27.0992558 31.2229768,25.19402 C31.1868421,24.9323317 30.8140449,24.9368535 30.7779101,25.1985418 L29.9259415,31.3660173 C29.8837978,31.671197 29.6595998,31.9198133 29.356961,31.9945461 C28.5930962,32.1831459 27.1227764,32.5460401 26.1717417,32.7806799 C25.9427528,32.8371612 25.9427528,33.1655254 26.1717417,33.2220067 C27.1226952,33.4567287 28.5929338,33.8194585 29.3568798,34.0079761 C29.659681,34.0826267 29.883879,34.331243 29.9260227,34.6365049 L30.7779101,40.8037337 C30.8140449,41.0654221 31.1874917,41.0654221 31.2236265,40.8037337 L32.0755951,34.6364227 C32.1177388,34.331243 32.3419368,34.0826267 32.6446568,34.0078939 C33.4085216,33.8193763 34.878679,33.4565643 35.8296325,33.2219245 C36.0586214,33.1654432 36.0558606,32.8364213 35.8268717,32.77994 L32.6466057,31.9950394" id="Fill-4" fill="#FDFDFD" mask="url(#mask-12)"></path>
                    <path d="M9.56592422,39.7476335 L11,28.9709279 C9.44502628,25.7397851 8.2952261,22.3872794 7.57130064,20 L7.3739084,21.4833259 C7.29895322,22.0462169 6.90070572,22.5047783 6.36285997,22.6426228 C4.8666037,23.026111 1.84530962,23.8001059 0.215688538,24.2175821 C-0.0718961793,24.2913146 -0.0718961793,24.7083965 0.215688538,24.7820503 C1.84530962,25.1995265 4.86629588,25.9734425 6.3626291,26.3565364 C6.90062877,26.494302 7.29903018,26.9529423 7.37398536,27.5159121 L9.00168254,39.7476335 C9.046394,40.0841222 9.5211358,40.0841222 9.56592422,39.7476335" id="Fill-5" fill="#FDFDFD" mask="url(#mask-12)"></path>
                    <path d="M21.7389923,7 L21.6468626,7.66686845 C21.5986785,8.01616958 21.3419943,8.30077964 20.9955598,8.38634619 C20.0680164,8.61536476 18.2304783,9.0688139 17.1579367,9.33361902 C16.9473544,9.38561656 16.9473544,9.69224912 17.1579367,9.74424666 C18.2304783,10.0089753 20.0678677,10.462348 20.9954854,10.6912136 C21.3419943,10.7767037 21.5986785,11.0613138 21.646937,11.4106914 L22.6696587,18.8147588 C22.7037891,19.0617471 23.0505954,19.0617471 23.0848001,18.8147588 L24,12.1888193 C22.8011239,10.4244968 22.1179957,8.4916412 21.7389923,7" id="Fill-6" fill="#FDFDFD" mask="url(#mask-12)"></path>
                    <path d="M29.9116505,34.6527348 L30.7604369,40.8042343 C30.7964401,41.0652552 31.1685275,41.0652552 31.2045307,40.8042343 L32,35.0397969 C30.8056634,33.6997583 30.2330906,32.0986168 29.965534,31 L29.9116505,31.3906703 C29.8696602,31.6950717 29.6462783,31.9430539 29.3447411,32.0175962 C28.583657,32.2057149 27.1186893,32.5676016 26.1711165,32.801725 C25.9429612,32.8580622 25.9429612,33.1855889 26.1711165,33.2419261 C27.1186084,33.4760495 28.5834951,33.8379362 29.3446602,34.0258909 C29.6461974,34.1002692 29.8695793,34.3482514 29.9116505,34.6527348" id="Fill-7" fill="#FDFDFD" mask="url(#mask-12)"></path>
                </g>
                <g id="sparkles" transform="translate(604.000000, 21.000000)">
                    <mask id="mask-14" fill="white">
                        <use xlink:href="#path-13"></use>
                    </mask>
                    <g id="Clip-2"></g>
                    <path d="M19.293618,28.9141482 C19.4226783,29.6768434 20.1153328,30.2990506 21.0423651,30.4856914 L31.6254415,32.6167296 C32.1211232,32.7165135 32.1266942,33.2827391 31.6310125,33.3826299 C28.8223263,33.9482145 23.6153471,34.9966934 21.0363962,35.5159116 C20.1092313,35.7025524 19.4226783,36.3239049 19.2934854,37.0866002 L16.48785,53.6581012 C16.4106526,54.1139663 15.5925191,54.1139663 15.5153217,53.6581012 L12.7098189,37.0869207 C12.580626,36.3242254 11.8939403,35.7028729 10.9666428,35.5162321 C8.38755928,34.9971208 3.18044745,33.9487487 0.371761283,33.383164 C-0.123920428,33.2833801 -0.123920428,32.7182229 0.371761283,32.6184389 C3.18071274,32.0528543 8.38808985,31.0041617 10.9670407,30.4847298 C11.894073,30.2979822 12.580626,29.6767366 12.7096863,28.9141482 L15.5153217,12.3424334 C15.5925191,11.8865684 16.4105199,11.8855 16.4877173,12.3413651 C17.3610297,17.4988259 19.120786,27.8932327 19.293618,28.9141482" id="Fill-1" fill="#FDFDFD" mask="url(#mask-14)"></path>
                    <path d="M40.8701475,11.8718649 C40.2508807,11.7500058 39.7882911,11.3436634 39.7020456,10.8456541 C39.3433758,8.77426693 38.3953395,3.29987092 37.8688298,0.259714555 C37.8087636,-0.0874422657 37.1978689,-0.0861342965 37.1376698,0.261022524 L35.3045869,10.8455451 C35.2184743,11.3434454 34.7597385,11.7491338 34.1406046,11.871102 C32.4829363,12.1975493 29.1990948,12.844013 27.2821584,13.2213622 C26.9059472,13.2954804 26.9059472,13.7325601 27.2821584,13.8066784 C29.1989619,14.1840275 32.4826705,14.8303822 34.1404717,15.1565026 C34.7597385,15.2783617 35.2184743,15.6840501 35.3047198,16.1820594 L37.1324871,26.7359537 C37.1934835,27.0880154 37.8132819,27.0880154 37.8742783,26.7359537 L39.7020456,16.1818414 C39.7882911,15.6838321 40.2470269,15.2781437 40.8661608,15.1562846 C42.5225002,14.8302732 45.8016906,14.1847905 47.7192914,13.8073323 C48.0968315,13.7329961 48.0919146,13.2935185 47.7143744,13.2191822 L40.8701475,11.8718649" id="Fill-3" fill="#FDFDFD" mask="url(#mask-14)"></path>
                    <path d="M52.6345691,43.1809892 C52.150217,43.0829023 51.788382,42.7561619 51.7209521,42.3555056 C51.4555199,40.7796411 50.7778427,36.7552733 50.356763,34.2546513 C50.2989473,33.9111853 49.7024718,33.9171202 49.6446562,34.2605861 L48.2815064,42.3553977 C48.2140765,42.7559461 47.8553597,43.0822549 47.3711375,43.1803418 C46.148954,43.427879 43.7964422,43.9041777 42.2747867,44.2121424 C41.9084044,44.2862741 41.9084044,44.7172521 42.2747867,44.7913838 C43.7963123,45.0994564 46.1486941,45.5755393 47.3710076,45.8229686 C47.8554896,45.9209476 48.2142064,46.2472564 48.2816364,46.6479127 L49.6446562,54.7424005 C49.7024718,55.0858665 50.2999867,55.0858665 50.3578023,54.7424005 L51.7209521,46.6478048 C51.788382,46.2472564 52.1470988,45.9209476 52.6314509,45.8228607 C53.8536345,45.5754314 56.2058864,45.0992406 57.727412,44.7912759 C58.0937943,44.7171442 58.0893769,44.2853029 57.7229947,44.2111713 L52.6345691,43.1809892" id="Fill-4" fill="#FDFDFD" mask="url(#mask-14)"></path>
                    <path d="M15.6533305,53.6593052 L18,39.1107526 C15.4554975,34.7487099 13.5740063,30.2228271 12.3894011,27 L12.0663956,29.00249 C11.9437416,29.7623928 11.2920639,30.3814507 10.4119527,30.5675407 C7.96353333,31.0852498 3.01959755,32.1301429 0.35294488,32.6937358 C-0.117648293,32.7932748 -0.117648293,33.3563353 0.35294488,33.4557678 C3.01959755,34.0193607 7.96302962,35.0641473 10.4115749,35.5813242 C11.291938,35.7673077 11.9438676,36.386472 12.0665215,37.1464814 L14.730026,53.6593052 C14.8031902,54.1135649 15.5800404,54.1135649 15.6533305,53.6593052" id="Fill-5" fill="#FDFDFD" mask="url(#mask-14)"></path>
                    <path d="M34.446988,9 L34.3022127,9.88915794 C34.2264949,10.3548928 33.8231339,10.7343729 33.2787368,10.8484616 C31.8211687,11.1538197 28.9336088,11.7584185 27.2481862,12.111492 C26.9172713,12.1808221 26.9172713,12.5896655 27.2481862,12.6589955 C28.9336088,13.0119671 31.820935,13.616464 33.2786199,13.9216182 C33.8231339,14.0356049 34.2264949,14.415085 34.3023295,14.8809218 L35.9094637,24.7530117 C35.9630971,25.0823294 36.5080785,25.0823294 36.5618288,24.7530117 L38,15.9184257 C36.1160518,13.5659958 35.0425647,10.9888549 34.446988,9" id="Fill-6" fill="#FDFDFD" mask="url(#mask-14)"></path>
                    <path d="M48.5194175,46.7485552 L49.9340615,54.7455046 C49.9940669,55.0848318 50.6142125,55.0848318 50.6742179,54.7455046 L52,47.2517359 C50.0094391,45.5096858 49.055151,43.4282018 48.6092233,42 L48.5194175,42.5078714 C48.4494337,42.9035932 48.0771305,43.2259701 47.5745685,43.322875 C46.3060949,43.5674294 43.8644822,44.0378821 42.2851942,44.3422425 C41.9049353,44.4154808 41.9049353,44.8412656 42.2851942,44.914504 C43.8643474,45.2188644 46.3058252,45.689317 47.5744337,45.9336582 C48.0769957,46.0303499 48.4492988,46.3527268 48.5194175,46.7485552" id="Fill-7" fill="#FDFDFD" mask="url(#mask-14)"></path>
                </g>
                <g id="sparkles" transform="translate(14.000000, 115.000000)">
                    <mask id="mask-16" fill="white">
                        <use xlink:href="#path-15"></use>
                    </mask>
                    <g id="Clip-2"></g>
                    <path d="M12.0585113,21.4842522 C12.139174,22.0471939 12.572083,22.5064421 13.1514782,22.6442008 L19.7659009,24.2171099 C20.075702,24.29076 20.0791839,24.7086884 19.7693828,24.7824173 C18.0139539,25.1998726 14.7595919,25.9737499 13.1477476,26.3569824 C12.5682696,26.4947411 12.139174,26.9533584 12.0584284,27.5163001 L10.3049062,39.7476461 C10.2566579,40.084118 9.74532443,40.084118 9.69707605,39.7476461 L7.94363681,27.5165367 C7.86289123,26.953595 7.43371271,26.4949776 6.85415176,26.357219 C5.24222455,25.9740653 1.98777966,25.2002669 0.232350802,24.7828116 C-0.0774502672,24.7091615 -0.0774502672,24.2920216 0.232350802,24.2183716 C1.98794546,23.8009163 5.24255615,23.0268813 6.85440046,22.6434911 C7.43379561,22.5056535 7.86289123,22.0471151 7.94355391,21.4842522 L9.69707605,9.25274848 C9.74532443,8.91627666 10.256575,8.91548812 10.3048233,9.25195994 C10.8506436,13.0586572 11.9504913,20.7307194 12.0585113,21.4842522" id="Fill-1" fill="#FDFDFD" mask="url(#mask-16)"></path>
                    <path d="M25.5862818,8.79397404 C25.2029262,8.70370802 24.9165612,8.40271363 24.8631711,8.03381787 C24.6411374,6.49945699 24.0542578,2.44434883 23.7283232,0.192381152 C23.6911394,-0.0647720486 23.3129664,-0.0638031826 23.2757003,0.193350018 L22.1409348,8.03373713 C22.0876269,8.40255215 21.8036476,8.7030621 21.4203742,8.79340886 C20.3941987,9.03522169 18.3613444,9.51408374 17.1746695,9.79360159 C16.9417768,9.848504 16.9417768,10.1722667 17.1746695,10.2271692 C18.3612621,10.506687 20.3940341,10.9854683 21.420292,11.2270389 C21.8036476,11.317305 22.0876269,11.6178149 22.141017,11.9867107 L23.272492,19.8044102 C23.3102517,20.0651966 23.6939364,20.0651966 23.7316961,19.8044102 L24.8631711,11.9865492 C24.9165612,11.6176534 25.2005405,11.3171435 25.5838138,11.2268775 C26.6091668,10.9853876 28.6391418,10.5072522 29.826228,10.2276536 C30.0599433,10.1725897 30.0568995,9.84705071 29.8231842,9.79198682 L25.5862818,8.79397404" id="Fill-3" fill="#FDFDFD" mask="url(#mask-16)"></path>
                    <path d="M32.6466057,31.9950394 C32.3438856,31.9203065 32.1177388,31.6713614 32.0755951,31.3660995 C31.9096999,30.1654408 31.4861517,27.0992558 31.2229768,25.19402 C31.1868421,24.9323317 30.8140449,24.9368535 30.7779101,25.1985418 L29.9259415,31.3660173 C29.8837978,31.671197 29.6595998,31.9198133 29.356961,31.9945461 C28.5930962,32.1831459 27.1227764,32.5460401 26.1717417,32.7806799 C25.9427528,32.8371612 25.9427528,33.1655254 26.1717417,33.2220067 C27.1226952,33.4567287 28.5929338,33.8194585 29.3568798,34.0079761 C29.659681,34.0826267 29.883879,34.331243 29.9260227,34.6365049 L30.7779101,40.8037337 C30.8140449,41.0654221 31.1874917,41.0654221 31.2236265,40.8037337 L32.0755951,34.6364227 C32.1177388,34.331243 32.3419368,34.0826267 32.6446568,34.0078939 C33.4085216,33.8193763 34.878679,33.4565643 35.8296325,33.2219245 C36.0586214,33.1654432 36.0558606,32.8364213 35.8268717,32.77994 L32.6466057,31.9950394" id="Fill-4" fill="#FDFDFD" mask="url(#mask-16)"></path>
                    <path d="M9.56592422,39.7476335 L11,28.9709279 C9.44502628,25.7397851 8.2952261,22.3872794 7.57130064,20 L7.3739084,21.4833259 C7.29895322,22.0462169 6.90070572,22.5047783 6.36285997,22.6426228 C4.8666037,23.026111 1.84530962,23.8001059 0.215688538,24.2175821 C-0.0718961793,24.2913146 -0.0718961793,24.7083965 0.215688538,24.7820503 C1.84530962,25.1995265 4.86629588,25.9734425 6.3626291,26.3565364 C6.90062877,26.494302 7.29903018,26.9529423 7.37398536,27.5159121 L9.00168254,39.7476335 C9.046394,40.0841222 9.5211358,40.0841222 9.56592422,39.7476335" id="Fill-5" fill="#FDFDFD" mask="url(#mask-16)"></path>
                    <path d="M21.7389923,7 L21.6468626,7.66686845 C21.5986785,8.01616958 21.3419943,8.30077964 20.9955598,8.38634619 C20.0680164,8.61536476 18.2304783,9.0688139 17.1579367,9.33361902 C16.9473544,9.38561656 16.9473544,9.69224912 17.1579367,9.74424666 C18.2304783,10.0089753 20.0678677,10.462348 20.9954854,10.6912136 C21.3419943,10.7767037 21.5986785,11.0613138 21.646937,11.4106914 L22.6696587,18.8147588 C22.7037891,19.0617471 23.0505954,19.0617471 23.0848001,18.8147588 L24,12.1888193 C22.8011239,10.4244968 22.1179957,8.4916412 21.7389923,7" id="Fill-6" fill="#FDFDFD" mask="url(#mask-16)"></path>
                    <path d="M29.9116505,34.6527348 L30.7604369,40.8042343 C30.7964401,41.0652552 31.1685275,41.0652552 31.2045307,40.8042343 L32,35.0397969 C30.8056634,33.6997583 30.2330906,32.0986168 29.965534,31 L29.9116505,31.3906703 C29.8696602,31.6950717 29.6462783,31.9430539 29.3447411,32.0175962 C28.583657,32.2057149 27.1186893,32.5676016 26.1711165,32.801725 C25.9429612,32.8580622 25.9429612,33.1855889 26.1711165,33.2419261 C27.1186084,33.4760495 28.5834951,33.8379362 29.3446602,34.0258909 C29.6461974,34.1002692 29.8695793,34.3482514 29.9116505,34.6527348" id="Fill-7" fill="#FDFDFD" mask="url(#mask-16)"></path>
                </g>
                <g id="sparkles" transform="translate(168.000000, 245.000000)">
                    <mask id="mask-18" fill="white">
                        <use xlink:href="#path-17"></use>
                    </mask>
                    <g id="Clip-2"></g>
                    <path d="M12.0585113,21.4842522 C12.139174,22.0471939 12.572083,22.5064421 13.1514782,22.6442008 L19.7659009,24.2171099 C20.075702,24.29076 20.0791839,24.7086884 19.7693828,24.7824173 C18.0139539,25.1998726 14.7595919,25.9737499 13.1477476,26.3569824 C12.5682696,26.4947411 12.139174,26.9533584 12.0584284,27.5163001 L10.3049062,39.7476461 C10.2566579,40.084118 9.74532443,40.084118 9.69707605,39.7476461 L7.94363681,27.5165367 C7.86289123,26.953595 7.43371271,26.4949776 6.85415176,26.357219 C5.24222455,25.9740653 1.98777966,25.2002669 0.232350802,24.7828116 C-0.0774502672,24.7091615 -0.0774502672,24.2920216 0.232350802,24.2183716 C1.98794546,23.8009163 5.24255615,23.0268813 6.85440046,22.6434911 C7.43379561,22.5056535 7.86289123,22.0471151 7.94355391,21.4842522 L9.69707605,9.25274848 C9.74532443,8.91627666 10.256575,8.91548812 10.3048233,9.25195994 C10.8506436,13.0586572 11.9504913,20.7307194 12.0585113,21.4842522" id="Fill-1" fill="#FDFDFD" mask="url(#mask-18)"></path>
                    <path d="M25.5862818,8.79397404 C25.2029262,8.70370802 24.9165612,8.40271363 24.8631711,8.03381787 C24.6411374,6.49945699 24.0542578,2.44434883 23.7283232,0.192381152 C23.6911394,-0.0647720486 23.3129664,-0.0638031826 23.2757003,0.193350018 L22.1409348,8.03373713 C22.0876269,8.40255215 21.8036476,8.7030621 21.4203742,8.79340886 C20.3941987,9.03522169 18.3613444,9.51408374 17.1746695,9.79360159 C16.9417768,9.848504 16.9417768,10.1722667 17.1746695,10.2271692 C18.3612621,10.506687 20.3940341,10.9854683 21.420292,11.2270389 C21.8036476,11.317305 22.0876269,11.6178149 22.141017,11.9867107 L23.272492,19.8044102 C23.3102517,20.0651966 23.6939364,20.0651966 23.7316961,19.8044102 L24.8631711,11.9865492 C24.9165612,11.6176534 25.2005405,11.3171435 25.5838138,11.2268775 C26.6091668,10.9853876 28.6391418,10.5072522 29.826228,10.2276536 C30.0599433,10.1725897 30.0568995,9.84705071 29.8231842,9.79198682 L25.5862818,8.79397404" id="Fill-3" fill="#FDFDFD" mask="url(#mask-18)"></path>
                    <path d="M32.6466057,31.9950394 C32.3438856,31.9203065 32.1177388,31.6713614 32.0755951,31.3660995 C31.9096999,30.1654408 31.4861517,27.0992558 31.2229768,25.19402 C31.1868421,24.9323317 30.8140449,24.9368535 30.7779101,25.1985418 L29.9259415,31.3660173 C29.8837978,31.671197 29.6595998,31.9198133 29.356961,31.9945461 C28.5930962,32.1831459 27.1227764,32.5460401 26.1717417,32.7806799 C25.9427528,32.8371612 25.9427528,33.1655254 26.1717417,33.2220067 C27.1226952,33.4567287 28.5929338,33.8194585 29.3568798,34.0079761 C29.659681,34.0826267 29.883879,34.331243 29.9260227,34.6365049 L30.7779101,40.8037337 C30.8140449,41.0654221 31.1874917,41.0654221 31.2236265,40.8037337 L32.0755951,34.6364227 C32.1177388,34.331243 32.3419368,34.0826267 32.6446568,34.0078939 C33.4085216,33.8193763 34.878679,33.4565643 35.8296325,33.2219245 C36.0586214,33.1654432 36.0558606,32.8364213 35.8268717,32.77994 L32.6466057,31.9950394" id="Fill-4" fill="#FDFDFD" mask="url(#mask-18)"></path>
                    <path d="M9.56592422,39.7476335 L11,28.9709279 C9.44502628,25.7397851 8.2952261,22.3872794 7.57130064,20 L7.3739084,21.4833259 C7.29895322,22.0462169 6.90070572,22.5047783 6.36285997,22.6426228 C4.8666037,23.026111 1.84530962,23.8001059 0.215688538,24.2175821 C-0.0718961793,24.2913146 -0.0718961793,24.7083965 0.215688538,24.7820503 C1.84530962,25.1995265 4.86629588,25.9734425 6.3626291,26.3565364 C6.90062877,26.494302 7.29903018,26.9529423 7.37398536,27.5159121 L9.00168254,39.7476335 C9.046394,40.0841222 9.5211358,40.0841222 9.56592422,39.7476335" id="Fill-5" fill="#FDFDFD" mask="url(#mask-18)"></path>
                    <path d="M21.7389923,7 L21.6468626,7.66686845 C21.5986785,8.01616958 21.3419943,8.30077964 20.9955598,8.38634619 C20.0680164,8.61536476 18.2304783,9.0688139 17.1579367,9.33361902 C16.9473544,9.38561656 16.9473544,9.69224912 17.1579367,9.74424666 C18.2304783,10.0089753 20.0678677,10.462348 20.9954854,10.6912136 C21.3419943,10.7767037 21.5986785,11.0613138 21.646937,11.4106914 L22.6696587,18.8147588 C22.7037891,19.0617471 23.0505954,19.0617471 23.0848001,18.8147588 L24,12.1888193 C22.8011239,10.4244968 22.1179957,8.4916412 21.7389923,7" id="Fill-6" fill="#FDFDFD" mask="url(#mask-18)"></path>
                    <path d="M29.9116505,34.6527348 L30.7604369,40.8042343 C30.7964401,41.0652552 31.1685275,41.0652552 31.2045307,40.8042343 L32,35.0397969 C30.8056634,33.6997583 30.2330906,32.0986168 29.965534,31 L29.9116505,31.3906703 C29.8696602,31.6950717 29.6462783,31.9430539 29.3447411,32.0175962 C28.583657,32.2057149 27.1186893,32.5676016 26.1711165,32.801725 C25.9429612,32.8580622 25.9429612,33.1855889 26.1711165,33.2419261 C27.1186084,33.4760495 28.5834951,33.8379362 29.3446602,34.0258909 C29.6461974,34.1002692 29.8695793,34.3482514 29.9116505,34.6527348" id="Fill-7" fill="#FDFDFD" mask="url(#mask-18)"></path>
                </g>
                <g id="sparkles" transform="translate(934.000000, 731.000000)">
                    <mask id="mask-20" fill="white">
                        <use xlink:href="#path-19"></use>
                    </mask>
                    <g id="Clip-2"></g>
                    <path d="M12.0585113,21.4842522 C12.139174,22.0471939 12.572083,22.5064421 13.1514782,22.6442008 L19.7659009,24.2171099 C20.075702,24.29076 20.0791839,24.7086884 19.7693828,24.7824173 C18.0139539,25.1998726 14.7595919,25.9737499 13.1477476,26.3569824 C12.5682696,26.4947411 12.139174,26.9533584 12.0584284,27.5163001 L10.3049062,39.7476461 C10.2566579,40.084118 9.74532443,40.084118 9.69707605,39.7476461 L7.94363681,27.5165367 C7.86289123,26.953595 7.43371271,26.4949776 6.85415176,26.357219 C5.24222455,25.9740653 1.98777966,25.2002669 0.232350802,24.7828116 C-0.0774502672,24.7091615 -0.0774502672,24.2920216 0.232350802,24.2183716 C1.98794546,23.8009163 5.24255615,23.0268813 6.85440046,22.6434911 C7.43379561,22.5056535 7.86289123,22.0471151 7.94355391,21.4842522 L9.69707605,9.25274848 C9.74532443,8.91627666 10.256575,8.91548812 10.3048233,9.25195994 C10.8506436,13.0586572 11.9504913,20.7307194 12.0585113,21.4842522" id="Fill-1" fill="#FDFDFD" mask="url(#mask-20)"></path>
                    <path d="M25.5862818,8.79397404 C25.2029262,8.70370802 24.9165612,8.40271363 24.8631711,8.03381787 C24.6411374,6.49945699 24.0542578,2.44434883 23.7283232,0.192381152 C23.6911394,-0.0647720486 23.3129664,-0.0638031826 23.2757003,0.193350018 L22.1409348,8.03373713 C22.0876269,8.40255215 21.8036476,8.7030621 21.4203742,8.79340886 C20.3941987,9.03522169 18.3613444,9.51408374 17.1746695,9.79360159 C16.9417768,9.848504 16.9417768,10.1722667 17.1746695,10.2271692 C18.3612621,10.506687 20.3940341,10.9854683 21.420292,11.2270389 C21.8036476,11.317305 22.0876269,11.6178149 22.141017,11.9867107 L23.272492,19.8044102 C23.3102517,20.0651966 23.6939364,20.0651966 23.7316961,19.8044102 L24.8631711,11.9865492 C24.9165612,11.6176534 25.2005405,11.3171435 25.5838138,11.2268775 C26.6091668,10.9853876 28.6391418,10.5072522 29.826228,10.2276536 C30.0599433,10.1725897 30.0568995,9.84705071 29.8231842,9.79198682 L25.5862818,8.79397404" id="Fill-3" fill="#FDFDFD" mask="url(#mask-20)"></path>
                    <path d="M32.6466057,31.9950394 C32.3438856,31.9203065 32.1177388,31.6713614 32.0755951,31.3660995 C31.9096999,30.1654408 31.4861517,27.0992558 31.2229768,25.19402 C31.1868421,24.9323317 30.8140449,24.9368535 30.7779101,25.1985418 L29.9259415,31.3660173 C29.8837978,31.671197 29.6595998,31.9198133 29.356961,31.9945461 C28.5930962,32.1831459 27.1227764,32.5460401 26.1717417,32.7806799 C25.9427528,32.8371612 25.9427528,33.1655254 26.1717417,33.2220067 C27.1226952,33.4567287 28.5929338,33.8194585 29.3568798,34.0079761 C29.659681,34.0826267 29.883879,34.331243 29.9260227,34.6365049 L30.7779101,40.8037337 C30.8140449,41.0654221 31.1874917,41.0654221 31.2236265,40.8037337 L32.0755951,34.6364227 C32.1177388,34.331243 32.3419368,34.0826267 32.6446568,34.0078939 C33.4085216,33.8193763 34.878679,33.4565643 35.8296325,33.2219245 C36.0586214,33.1654432 36.0558606,32.8364213 35.8268717,32.77994 L32.6466057,31.9950394" id="Fill-4" fill="#FDFDFD" mask="url(#mask-20)"></path>
                    <path d="M9.56592422,39.7476335 L11,28.9709279 C9.44502628,25.7397851 8.2952261,22.3872794 7.57130064,20 L7.3739084,21.4833259 C7.29895322,22.0462169 6.90070572,22.5047783 6.36285997,22.6426228 C4.8666037,23.026111 1.84530962,23.8001059 0.215688538,24.2175821 C-0.0718961793,24.2913146 -0.0718961793,24.7083965 0.215688538,24.7820503 C1.84530962,25.1995265 4.86629588,25.9734425 6.3626291,26.3565364 C6.90062877,26.494302 7.29903018,26.9529423 7.37398536,27.5159121 L9.00168254,39.7476335 C9.046394,40.0841222 9.5211358,40.0841222 9.56592422,39.7476335" id="Fill-5" fill="#FDFDFD" mask="url(#mask-20)"></path>
                    <path d="M21.7389923,7 L21.6468626,7.66686845 C21.5986785,8.01616958 21.3419943,8.30077964 20.9955598,8.38634619 C20.0680164,8.61536476 18.2304783,9.0688139 17.1579367,9.33361902 C16.9473544,9.38561656 16.9473544,9.69224912 17.1579367,9.74424666 C18.2304783,10.0089753 20.0678677,10.462348 20.9954854,10.6912136 C21.3419943,10.7767037 21.5986785,11.0613138 21.646937,11.4106914 L22.6696587,18.8147588 C22.7037891,19.0617471 23.0505954,19.0617471 23.0848001,18.8147588 L24,12.1888193 C22.8011239,10.4244968 22.1179957,8.4916412 21.7389923,7" id="Fill-6" fill="#FDFDFD" mask="url(#mask-20)"></path>
                    <path d="M29.9116505,34.6527348 L30.7604369,40.8042343 C30.7964401,41.0652552 31.1685275,41.0652552 31.2045307,40.8042343 L32,35.0397969 C30.8056634,33.6997583 30.2330906,32.0986168 29.965534,31 L29.9116505,31.3906703 C29.8696602,31.6950717 29.6462783,31.9430539 29.3447411,32.0175962 C28.583657,32.2057149 27.1186893,32.5676016 26.1711165,32.801725 C25.9429612,32.8580622 25.9429612,33.1855889 26.1711165,33.2419261 C27.1186084,33.4760495 28.5834951,33.8379362 29.3446602,34.0258909 C29.6461974,34.1002692 29.8695793,34.3482514 29.9116505,34.6527348" id="Fill-7" fill="#FDFDFD" mask="url(#mask-20)"></path>
                </g>
                <g id="sparkles" transform="translate(519.000000, 403.000000)">
                    <mask id="mask-22" fill="white">
                        <use xlink:href="#path-21"></use>
                    </mask>
                    <g id="Clip-2"></g>
                    <path d="M12.0585113,21.4842522 C12.139174,22.0471939 12.572083,22.5064421 13.1514782,22.6442008 L19.7659009,24.2171099 C20.075702,24.29076 20.0791839,24.7086884 19.7693828,24.7824173 C18.0139539,25.1998726 14.7595919,25.9737499 13.1477476,26.3569824 C12.5682696,26.4947411 12.139174,26.9533584 12.0584284,27.5163001 L10.3049062,39.7476461 C10.2566579,40.084118 9.74532443,40.084118 9.69707605,39.7476461 L7.94363681,27.5165367 C7.86289123,26.953595 7.43371271,26.4949776 6.85415176,26.357219 C5.24222455,25.9740653 1.98777966,25.2002669 0.232350802,24.7828116 C-0.0774502672,24.7091615 -0.0774502672,24.2920216 0.232350802,24.2183716 C1.98794546,23.8009163 5.24255615,23.0268813 6.85440046,22.6434911 C7.43379561,22.5056535 7.86289123,22.0471151 7.94355391,21.4842522 L9.69707605,9.25274848 C9.74532443,8.91627666 10.256575,8.91548812 10.3048233,9.25195994 C10.8506436,13.0586572 11.9504913,20.7307194 12.0585113,21.4842522" id="Fill-1" fill="#FDFDFD" mask="url(#mask-22)"></path>
                    <path d="M25.5862818,8.79397404 C25.2029262,8.70370802 24.9165612,8.40271363 24.8631711,8.03381787 C24.6411374,6.49945699 24.0542578,2.44434883 23.7283232,0.192381152 C23.6911394,-0.0647720486 23.3129664,-0.0638031826 23.2757003,0.193350018 L22.1409348,8.03373713 C22.0876269,8.40255215 21.8036476,8.7030621 21.4203742,8.79340886 C20.3941987,9.03522169 18.3613444,9.51408374 17.1746695,9.79360159 C16.9417768,9.848504 16.9417768,10.1722667 17.1746695,10.2271692 C18.3612621,10.506687 20.3940341,10.9854683 21.420292,11.2270389 C21.8036476,11.317305 22.0876269,11.6178149 22.141017,11.9867107 L23.272492,19.8044102 C23.3102517,20.0651966 23.6939364,20.0651966 23.7316961,19.8044102 L24.8631711,11.9865492 C24.9165612,11.6176534 25.2005405,11.3171435 25.5838138,11.2268775 C26.6091668,10.9853876 28.6391418,10.5072522 29.826228,10.2276536 C30.0599433,10.1725897 30.0568995,9.84705071 29.8231842,9.79198682 L25.5862818,8.79397404" id="Fill-3" fill="#FDFDFD" mask="url(#mask-22)"></path>
                    <path d="M32.6466057,31.9950394 C32.3438856,31.9203065 32.1177388,31.6713614 32.0755951,31.3660995 C31.9096999,30.1654408 31.4861517,27.0992558 31.2229768,25.19402 C31.1868421,24.9323317 30.8140449,24.9368535 30.7779101,25.1985418 L29.9259415,31.3660173 C29.8837978,31.671197 29.6595998,31.9198133 29.356961,31.9945461 C28.5930962,32.1831459 27.1227764,32.5460401 26.1717417,32.7806799 C25.9427528,32.8371612 25.9427528,33.1655254 26.1717417,33.2220067 C27.1226952,33.4567287 28.5929338,33.8194585 29.3568798,34.0079761 C29.659681,34.0826267 29.883879,34.331243 29.9260227,34.6365049 L30.7779101,40.8037337 C30.8140449,41.0654221 31.1874917,41.0654221 31.2236265,40.8037337 L32.0755951,34.6364227 C32.1177388,34.331243 32.3419368,34.0826267 32.6446568,34.0078939 C33.4085216,33.8193763 34.878679,33.4565643 35.8296325,33.2219245 C36.0586214,33.1654432 36.0558606,32.8364213 35.8268717,32.77994 L32.6466057,31.9950394" id="Fill-4" fill="#FDFDFD" mask="url(#mask-22)"></path>
                    <path d="M9.56592422,39.7476335 L11,28.9709279 C9.44502628,25.7397851 8.2952261,22.3872794 7.57130064,20 L7.3739084,21.4833259 C7.29895322,22.0462169 6.90070572,22.5047783 6.36285997,22.6426228 C4.8666037,23.026111 1.84530962,23.8001059 0.215688538,24.2175821 C-0.0718961793,24.2913146 -0.0718961793,24.7083965 0.215688538,24.7820503 C1.84530962,25.1995265 4.86629588,25.9734425 6.3626291,26.3565364 C6.90062877,26.494302 7.29903018,26.9529423 7.37398536,27.5159121 L9.00168254,39.7476335 C9.046394,40.0841222 9.5211358,40.0841222 9.56592422,39.7476335" id="Fill-5" fill="#FDFDFD" mask="url(#mask-22)"></path>
                    <path d="M21.7389923,7 L21.6468626,7.66686845 C21.5986785,8.01616958 21.3419943,8.30077964 20.9955598,8.38634619 C20.0680164,8.61536476 18.2304783,9.0688139 17.1579367,9.33361902 C16.9473544,9.38561656 16.9473544,9.69224912 17.1579367,9.74424666 C18.2304783,10.0089753 20.0678677,10.462348 20.9954854,10.6912136 C21.3419943,10.7767037 21.5986785,11.0613138 21.646937,11.4106914 L22.6696587,18.8147588 C22.7037891,19.0617471 23.0505954,19.0617471 23.0848001,18.8147588 L24,12.1888193 C22.8011239,10.4244968 22.1179957,8.4916412 21.7389923,7" id="Fill-6" fill="#FDFDFD" mask="url(#mask-22)"></path>
                    <path d="M29.9116505,34.6527348 L30.7604369,40.8042343 C30.7964401,41.0652552 31.1685275,41.0652552 31.2045307,40.8042343 L32,35.0397969 C30.8056634,33.6997583 30.2330906,32.0986168 29.965534,31 L29.9116505,31.3906703 C29.8696602,31.6950717 29.6462783,31.9430539 29.3447411,32.0175962 C28.583657,32.2057149 27.1186893,32.5676016 26.1711165,32.801725 C25.9429612,32.8580622 25.9429612,33.1855889 26.1711165,33.2419261 C27.1186084,33.4760495 28.5834951,33.8379362 29.3446602,34.0258909 C29.6461974,34.1002692 29.8695793,34.3482514 29.9116505,34.6527348" id="Fill-7" fill="#FDFDFD" mask="url(#mask-22)"></path>
                </g>
                <g id="sparkles" transform="translate(233.000000, 711.000000)">
                    <mask id="mask-24" fill="white">
                        <use xlink:href="#path-23"></use>
                    </mask>
                    <g id="Clip-2"></g>
                    <path d="M12.0585113,21.4842522 C12.139174,22.0471939 12.572083,22.5064421 13.1514782,22.6442008 L19.7659009,24.2171099 C20.075702,24.29076 20.0791839,24.7086884 19.7693828,24.7824173 C18.0139539,25.1998726 14.7595919,25.9737499 13.1477476,26.3569824 C12.5682696,26.4947411 12.139174,26.9533584 12.0584284,27.5163001 L10.3049062,39.7476461 C10.2566579,40.084118 9.74532443,40.084118 9.69707605,39.7476461 L7.94363681,27.5165367 C7.86289123,26.953595 7.43371271,26.4949776 6.85415176,26.357219 C5.24222455,25.9740653 1.98777966,25.2002669 0.232350802,24.7828116 C-0.0774502672,24.7091615 -0.0774502672,24.2920216 0.232350802,24.2183716 C1.98794546,23.8009163 5.24255615,23.0268813 6.85440046,22.6434911 C7.43379561,22.5056535 7.86289123,22.0471151 7.94355391,21.4842522 L9.69707605,9.25274848 C9.74532443,8.91627666 10.256575,8.91548812 10.3048233,9.25195994 C10.8506436,13.0586572 11.9504913,20.7307194 12.0585113,21.4842522" id="Fill-1" fill="#FDFDFD" mask="url(#mask-24)"></path>
                    <path d="M25.5862818,8.79397404 C25.2029262,8.70370802 24.9165612,8.40271363 24.8631711,8.03381787 C24.6411374,6.49945699 24.0542578,2.44434883 23.7283232,0.192381152 C23.6911394,-0.0647720486 23.3129664,-0.0638031826 23.2757003,0.193350018 L22.1409348,8.03373713 C22.0876269,8.40255215 21.8036476,8.7030621 21.4203742,8.79340886 C20.3941987,9.03522169 18.3613444,9.51408374 17.1746695,9.79360159 C16.9417768,9.848504 16.9417768,10.1722667 17.1746695,10.2271692 C18.3612621,10.506687 20.3940341,10.9854683 21.420292,11.2270389 C21.8036476,11.317305 22.0876269,11.6178149 22.141017,11.9867107 L23.272492,19.8044102 C23.3102517,20.0651966 23.6939364,20.0651966 23.7316961,19.8044102 L24.8631711,11.9865492 C24.9165612,11.6176534 25.2005405,11.3171435 25.5838138,11.2268775 C26.6091668,10.9853876 28.6391418,10.5072522 29.826228,10.2276536 C30.0599433,10.1725897 30.0568995,9.84705071 29.8231842,9.79198682 L25.5862818,8.79397404" id="Fill-3" fill="#FDFDFD" mask="url(#mask-24)"></path>
                    <path d="M32.6466057,31.9950394 C32.3438856,31.9203065 32.1177388,31.6713614 32.0755951,31.3660995 C31.9096999,30.1654408 31.4861517,27.0992558 31.2229768,25.19402 C31.1868421,24.9323317 30.8140449,24.9368535 30.7779101,25.1985418 L29.9259415,31.3660173 C29.8837978,31.671197 29.6595998,31.9198133 29.356961,31.9945461 C28.5930962,32.1831459 27.1227764,32.5460401 26.1717417,32.7806799 C25.9427528,32.8371612 25.9427528,33.1655254 26.1717417,33.2220067 C27.1226952,33.4567287 28.5929338,33.8194585 29.3568798,34.0079761 C29.659681,34.0826267 29.883879,34.331243 29.9260227,34.6365049 L30.7779101,40.8037337 C30.8140449,41.0654221 31.1874917,41.0654221 31.2236265,40.8037337 L32.0755951,34.6364227 C32.1177388,34.331243 32.3419368,34.0826267 32.6446568,34.0078939 C33.4085216,33.8193763 34.878679,33.4565643 35.8296325,33.2219245 C36.0586214,33.1654432 36.0558606,32.8364213 35.8268717,32.77994 L32.6466057,31.9950394" id="Fill-4" fill="#FDFDFD" mask="url(#mask-24)"></path>
                    <path d="M9.56592422,39.7476335 L11,28.9709279 C9.44502628,25.7397851 8.2952261,22.3872794 7.57130064,20 L7.3739084,21.4833259 C7.29895322,22.0462169 6.90070572,22.5047783 6.36285997,22.6426228 C4.8666037,23.026111 1.84530962,23.8001059 0.215688538,24.2175821 C-0.0718961793,24.2913146 -0.0718961793,24.7083965 0.215688538,24.7820503 C1.84530962,25.1995265 4.86629588,25.9734425 6.3626291,26.3565364 C6.90062877,26.494302 7.29903018,26.9529423 7.37398536,27.5159121 L9.00168254,39.7476335 C9.046394,40.0841222 9.5211358,40.0841222 9.56592422,39.7476335" id="Fill-5" fill="#FDFDFD" mask="url(#mask-24)"></path>
                    <path d="M21.7389923,7 L21.6468626,7.66686845 C21.5986785,8.01616958 21.3419943,8.30077964 20.9955598,8.38634619 C20.0680164,8.61536476 18.2304783,9.0688139 17.1579367,9.33361902 C16.9473544,9.38561656 16.9473544,9.69224912 17.1579367,9.74424666 C18.2304783,10.0089753 20.0678677,10.462348 20.9954854,10.6912136 C21.3419943,10.7767037 21.5986785,11.0613138 21.646937,11.4106914 L22.6696587,18.8147588 C22.7037891,19.0617471 23.0505954,19.0617471 23.0848001,18.8147588 L24,12.1888193 C22.8011239,10.4244968 22.1179957,8.4916412 21.7389923,7" id="Fill-6" fill="#FDFDFD" mask="url(#mask-24)"></path>
                    <path d="M29.9116505,34.6527348 L30.7604369,40.8042343 C30.7964401,41.0652552 31.1685275,41.0652552 31.2045307,40.8042343 L32,35.0397969 C30.8056634,33.6997583 30.2330906,32.0986168 29.965534,31 L29.9116505,31.3906703 C29.8696602,31.6950717 29.6462783,31.9430539 29.3447411,32.0175962 C28.583657,32.2057149 27.1186893,32.5676016 26.1711165,32.801725 C25.9429612,32.8580622 25.9429612,33.1855889 26.1711165,33.2419261 C27.1186084,33.4760495 28.5834951,33.8379362 29.3446602,34.0258909 C29.6461974,34.1002692 29.8695793,34.3482514 29.9116505,34.6527348" id="Fill-7" fill="#FDFDFD" mask="url(#mask-24)"></path>
                </g>
                <g id="sparkles" transform="translate(752.000000, 554.000000)">
                    <mask id="mask-26" fill="white">
                        <use xlink:href="#path-25"></use>
                    </mask>
                    <g id="Clip-2"></g>
                    <path d="M12.0585113,21.4842522 C12.139174,22.0471939 12.572083,22.5064421 13.1514782,22.6442008 L19.7659009,24.2171099 C20.075702,24.29076 20.0791839,24.7086884 19.7693828,24.7824173 C18.0139539,25.1998726 14.7595919,25.9737499 13.1477476,26.3569824 C12.5682696,26.4947411 12.139174,26.9533584 12.0584284,27.5163001 L10.3049062,39.7476461 C10.2566579,40.084118 9.74532443,40.084118 9.69707605,39.7476461 L7.94363681,27.5165367 C7.86289123,26.953595 7.43371271,26.4949776 6.85415176,26.357219 C5.24222455,25.9740653 1.98777966,25.2002669 0.232350802,24.7828116 C-0.0774502672,24.7091615 -0.0774502672,24.2920216 0.232350802,24.2183716 C1.98794546,23.8009163 5.24255615,23.0268813 6.85440046,22.6434911 C7.43379561,22.5056535 7.86289123,22.0471151 7.94355391,21.4842522 L9.69707605,9.25274848 C9.74532443,8.91627666 10.256575,8.91548812 10.3048233,9.25195994 C10.8506436,13.0586572 11.9504913,20.7307194 12.0585113,21.4842522" id="Fill-1" fill="#FDFDFD" mask="url(#mask-26)"></path>
                    <path d="M25.5862818,8.79397404 C25.2029262,8.70370802 24.9165612,8.40271363 24.8631711,8.03381787 C24.6411374,6.49945699 24.0542578,2.44434883 23.7283232,0.192381152 C23.6911394,-0.0647720486 23.3129664,-0.0638031826 23.2757003,0.193350018 L22.1409348,8.03373713 C22.0876269,8.40255215 21.8036476,8.7030621 21.4203742,8.79340886 C20.3941987,9.03522169 18.3613444,9.51408374 17.1746695,9.79360159 C16.9417768,9.848504 16.9417768,10.1722667 17.1746695,10.2271692 C18.3612621,10.506687 20.3940341,10.9854683 21.420292,11.2270389 C21.8036476,11.317305 22.0876269,11.6178149 22.141017,11.9867107 L23.272492,19.8044102 C23.3102517,20.0651966 23.6939364,20.0651966 23.7316961,19.8044102 L24.8631711,11.9865492 C24.9165612,11.6176534 25.2005405,11.3171435 25.5838138,11.2268775 C26.6091668,10.9853876 28.6391418,10.5072522 29.826228,10.2276536 C30.0599433,10.1725897 30.0568995,9.84705071 29.8231842,9.79198682 L25.5862818,8.79397404" id="Fill-3" fill="#FDFDFD" mask="url(#mask-26)"></path>
                    <path d="M32.6466057,31.9950394 C32.3438856,31.9203065 32.1177388,31.6713614 32.0755951,31.3660995 C31.9096999,30.1654408 31.4861517,27.0992558 31.2229768,25.19402 C31.1868421,24.9323317 30.8140449,24.9368535 30.7779101,25.1985418 L29.9259415,31.3660173 C29.8837978,31.671197 29.6595998,31.9198133 29.356961,31.9945461 C28.5930962,32.1831459 27.1227764,32.5460401 26.1717417,32.7806799 C25.9427528,32.8371612 25.9427528,33.1655254 26.1717417,33.2220067 C27.1226952,33.4567287 28.5929338,33.8194585 29.3568798,34.0079761 C29.659681,34.0826267 29.883879,34.331243 29.9260227,34.6365049 L30.7779101,40.8037337 C30.8140449,41.0654221 31.1874917,41.0654221 31.2236265,40.8037337 L32.0755951,34.6364227 C32.1177388,34.331243 32.3419368,34.0826267 32.6446568,34.0078939 C33.4085216,33.8193763 34.878679,33.4565643 35.8296325,33.2219245 C36.0586214,33.1654432 36.0558606,32.8364213 35.8268717,32.77994 L32.6466057,31.9950394" id="Fill-4" fill="#FDFDFD" mask="url(#mask-26)"></path>
                    <path d="M9.56592422,39.7476335 L11,28.9709279 C9.44502628,25.7397851 8.2952261,22.3872794 7.57130064,20 L7.3739084,21.4833259 C7.29895322,22.0462169 6.90070572,22.5047783 6.36285997,22.6426228 C4.8666037,23.026111 1.84530962,23.8001059 0.215688538,24.2175821 C-0.0718961793,24.2913146 -0.0718961793,24.7083965 0.215688538,24.7820503 C1.84530962,25.1995265 4.86629588,25.9734425 6.3626291,26.3565364 C6.90062877,26.494302 7.29903018,26.9529423 7.37398536,27.5159121 L9.00168254,39.7476335 C9.046394,40.0841222 9.5211358,40.0841222 9.56592422,39.7476335" id="Fill-5" fill="#FDFDFD" mask="url(#mask-26)"></path>
                    <path d="M21.7389923,7 L21.6468626,7.66686845 C21.5986785,8.01616958 21.3419943,8.30077964 20.9955598,8.38634619 C20.0680164,8.61536476 18.2304783,9.0688139 17.1579367,9.33361902 C16.9473544,9.38561656 16.9473544,9.69224912 17.1579367,9.74424666 C18.2304783,10.0089753 20.0678677,10.462348 20.9954854,10.6912136 C21.3419943,10.7767037 21.5986785,11.0613138 21.646937,11.4106914 L22.6696587,18.8147588 C22.7037891,19.0617471 23.0505954,19.0617471 23.0848001,18.8147588 L24,12.1888193 C22.8011239,10.4244968 22.1179957,8.4916412 21.7389923,7" id="Fill-6" fill="#FDFDFD" mask="url(#mask-26)"></path>
                    <path d="M29.9116505,34.6527348 L30.7604369,40.8042343 C30.7964401,41.0652552 31.1685275,41.0652552 31.2045307,40.8042343 L32,35.0397969 C30.8056634,33.6997583 30.2330906,32.0986168 29.965534,31 L29.9116505,31.3906703 C29.8696602,31.6950717 29.6462783,31.9430539 29.3447411,32.0175962 C28.583657,32.2057149 27.1186893,32.5676016 26.1711165,32.801725 C25.9429612,32.8580622 25.9429612,33.1855889 26.1711165,33.2419261 C27.1186084,33.4760495 28.5834951,33.8379362 29.3446602,34.0258909 C29.6461974,34.1002692 29.8695793,34.3482514 29.9116505,34.6527348" id="Fill-7" fill="#FDFDFD" mask="url(#mask-26)"></path>
                </g>
            </g>
        </g>
    </g>
</svg>