<?xml version="1.0" encoding="UTF-8"?>
<svg width="1783px" height="1182px" viewBox="0 0 1783 1182" version="1.1" xmlns="http://www.w3.org/2000/svg" xmlns:xlink="http://www.w3.org/1999/xlink">
    <!-- Generator: Sketch 52.2 (67145) - http://www.bohemiancoding.com/sketch -->
    <title>Waves</title>
    <desc>Created with Sketch.</desc>
    <g id="Games" stroke="none" stroke-width="1" fill="none" fill-rule="evenodd">
        <g id="Waves">
            <g transform="translate(226.000000, 0.000000)">
                <path d="M0,151.785507 L0,74.9194528 C0,74.9194528 68.3860998,92.2178025 129.935811,75.1405111 C191.483301,58.0632198 265.948165,9.39175907 265.948165,9.39175907 C265.948165,9.39175907 313.060811,44.4005282 366.25,59.7715928 C419.439189,75.1405111 467.293906,80.1540279 526.632956,62.5101405 C585.972006,44.8683992 614.721718,23.0544506 614.721718,23.0544506 C614.721718,23.0544506 669.488363,58.2477928 727.181081,60.6236331 C784.871577,63.0016196 897.76863,37.9962757 939.560135,11.9543186 C1007.13084,54.8246082 1093.53773,49.9420095 1190.69131,0 C1223.01363,30.3236206 1394.81427,76.8123988 1465,67.4549789 L1465,212.83194 L0,212.83194 L0,151.785507 L995.068433,493" id="Fill-12" fill="#1AAEA9"></path>
                <path d="M0,111.60374 C56.6751468,83.2847992 161.800446,91.9534674 195.282529,37.9706213 C195.282529,37.9706213 205.349372,61.7239342 292.162837,86.7638849 C378.976302,111.801684 552.794305,46.5295596 552.794305,46.5295596 C552.794305,46.5295596 593.825965,80.7696159 688.808881,93.610175 C783.789575,106.450734 887.890637,36.257973 887.890637,36.257973 C887.890637,36.257973 920.379589,80.3973946 1043.6612,75.6338227 C1166.94058,70.8724022 1241.22326,14 1241.22326,14 C1241.22326,14 1291.37307,41.3937663 1352.16071,59.3701186 C1412.95058,77.3464709 1465,73.0670018 1465,73.0670018 L1465,234 L0,234 L0,111.60374 L621.691109,54.0349069" id="Fill-13" fill="#199893"></path>
                <path d="M1465,76.1459022 C1435.32159,72.904318 1369.16615,59.488781 1337.08378,22 C1270.73726,117.70556 1095.52621,94.2909992 1024.30513,40.8793665 C899.152793,127.030784 763.24264,89.6607816 715.805616,37.7608804 C634.08667,126.251162 431.032388,109.831599 364.730309,49.4962359 C352.703865,79.8734001 173.104814,159.338645 91.7035824,60.6420161 C46.106184,109.231225 37.1413395,104.821289 0,111.779573 L0,199 L1465,199 L1465,76.1459022" id="Fill-14" fill="#72CDBF"></path>
                <path d="M127.916222,149.609088 C194.262736,217.408766 365.674561,184.385507 436.89564,146.546986 C562.04798,207.57985 699.477823,176.846699 746.914848,140.077757 C809.637654,221.027221 1023.32977,168.613527 1098.75,121 C1148.25327,151.049569 1279.73766,203.07511 1380.13503,124.025443 C1405.97644,155.405517 1436.97681,166.280291 1465,177.905496 L1465,275 L0,275 L0,187.967304 C29.678412,185.670727 95.833854,176.16743 127.916222,149.609088 Z" id="Fill-15" fill="#A2DDD4"></path>
            </g>
            <g transform="translate(189.000000, 103.000000)">
                <path d="M0,164.408642 L0,81.1500767 C0,81.1500767 70.1132572,99.8870315 133.217467,81.3895192 C196.319398,62.8920068 272.664945,10.1728181 272.664945,10.1728181 C272.664945,10.1728181 320.967467,48.0930671 375.5,64.7424555 C430.032533,81.3895192 479.095868,86.8199815 539.933583,67.7087525 C600.771299,48.5998483 630.247112,24.9717579 630.247112,24.9717579 C630.247112,24.9717579 686.396943,63.0919297 745.546747,65.6653551 C804.694272,68.2411052 920.44265,41.1562094 963.28964,12.9484911 C1032.56691,59.3840584 1121.15609,54.0954018 1220.76338,0 C1253.90203,32.8454633 1430.04166,83.2004482 1502,73.064825 L1502,230.53196 L0,230.53196 L0,164.408642 L1020.19985,534" id="Fill-12" fill="#1AAEA9"></path>
                <path d="M0,122.033154 C58.1065328,91.2684864 165.886873,100.685812 200.214579,42.0408113 C200.214579,42.0408113 210.53567,67.8455467 299.541693,95.0480386 C388.547717,122.248193 566.755663,51.3389307 566.755663,51.3389307 C566.755663,51.3389307 608.823617,88.5360828 706.205419,102.485599 C803.584943,116.435116 910.315179,40.1802525 910.315179,40.1802525 C910.315179,40.1802525 943.624671,88.1317151 1070.01988,82.9567437 C1196.4128,77.7841097 1272.57156,16 1272.57156,16 C1272.57156,16 1323.98795,45.7595916 1386.31085,65.2884471 C1448.63602,84.8173025 1502,80.1682429 1502,80.1682429 L1502,255 L0,255 L0,122.033154 L637.392523,59.4924671" id="Fill-13" fill="#199893"></path>
                <path d="M1502,82.0404471 C1471.57203,78.5058383 1403.74577,63.8775973 1370.85313,23 C1302.83097,127.35691 1123.19479,101.825779 1050.17495,43.5859759 C921.861771,137.525092 782.519075,96.7770105 733.883983,40.1855928 C650.101146,136.674996 441.91853,118.771178 373.941928,52.9817714 C361.611744,86.1048939 177.476745,172.753438 94.0196456,65.1350797 C47.2706405,118.116534 38.0793801,113.307959 0,120.89524 L0,216 L1502,216 L1502,82.0404471" id="Fill-14" fill="#72CDBF"></path>
                <path d="M131.14687,162.024141 C199.16903,235.547168 374.910028,199.736232 447.929865,158.70355 C576.243048,224.888539 717.143816,191.561031 765.778909,151.688217 C830.085841,239.471078 1049.17496,182.63285 1126.5,131 C1177.25352,163.586221 1312.05868,220.003529 1414.99168,134.280837 C1441.48574,168.309879 1473.26905,180.102654 1502,192.709207 L1502,298 L0,298 L0,203.620388 C30.4279691,201.129945 98.2542312,190.824421 131.14687,162.024141 Z" id="Fill-15" fill="#A2DDD4"></path>
            </g>
            <g transform="translate(189.000000, 246.000000)">
                <path d="M0,120.381609 L0,59.4188764 C0,59.4188764 70.1132572,73.1382571 133.217467,59.5941985 C196.319398,46.0501398 272.664945,7.4486365 272.664945,7.4486365 C272.664945,7.4486365 320.967467,35.2142121 375.5,47.4050564 C430.032533,59.5941985 479.095868,63.5704359 539.933583,49.5770079 C600.771299,35.5852822 630.247112,18.2845643 630.247112,18.2845643 C630.247112,18.2845643 686.396943,46.1965253 745.546747,48.0808125 C804.694272,49.9668018 920.44265,30.1349773 963.28964,9.48101127 C1032.56691,43.4815858 1121.15609,39.6091799 1220.76338,0 C1253.90203,24.0497681 1430.04166,60.9201783 1502,53.4987763 L1502,168.797746 L0,168.797746 L0,120.381609 L1020.19985,391" id="Fill-12" fill="#1AAEA9"></path>
                <path d="M0,89.6393385 C58.1065328,67.1129084 165.886873,74.00844 200.214579,31.0675397 C200.214579,31.0675397 210.53567,49.9622204 299.541693,69.880363 C388.547717,89.7967942 566.755663,37.8757861 566.755663,37.8757861 C566.755663,37.8757861 608.823617,65.1121945 706.205419,75.3262755 C803.584943,85.5403566 910.315179,29.7052058 910.315179,29.7052058 C910.315179,29.7052058 943.624671,64.8161094 1070.01988,61.0269044 C1196.4128,57.2394109 1272.57156,12 1272.57156,12 C1272.57156,12 1323.98795,33.7904959 1386.31085,48.0898671 C1448.63602,62.3892382 1502,58.9851151 1502,58.9851151 L1502,187 L0,187 L0,89.6393385 L637.392523,43.8459487" id="Fill-13" fill="#199893"></path>
                <path d="M1502,60.1331763 C1471.57203,57.5508974 1403.74577,46.8639442 1370.85313,17 C1302.83097,93.2400225 1123.19479,74.5877451 1050.17495,32.0394954 C921.861771,100.66859 782.519075,70.8992667 733.883983,29.5552776 C650.101146,100.047536 441.91853,86.9675447 373.941928,38.9037812 C361.611744,63.1025391 177.476745,126.405361 94.0196456,47.782623 C47.2706405,86.4892812 38.0793801,82.9762808 0,88.5193206 L0,158 L1502,158 L1502,60.1331763" id="Fill-14" fill="#72CDBF"></path>
                <path d="M131.14687,118.664342 C199.16903,172.375775 374.910028,146.214493 447.929865,116.238521 C576.243048,164.589232 717.143816,140.24219 765.778909,111.113548 C830.085841,175.242344 1049.17496,133.719807 1126.5,96 C1177.25352,119.805503 1312.05868,161.020542 1414.99168,98.3967794 C1441.48574,123.256319 1473.26905,131.8714 1502,141.080977 L1502,218 L0,218 L0,149.05202 C30.4279691,147.232654 98.2542312,139.704068 131.14687,118.664342 Z" id="Fill-15" fill="#A2DDD4"></path>
            </g>
            <g transform="translate(122.000000, 316.000000)">
                <path d="M0,252.154827 L0,124.460511 C0,124.460511 73.2408126,153.197526 139.159924,124.827746 C205.076655,96.4579655 284.827762,15.6021312 284.827762,15.6021312 C284.827762,15.6021312 335.284924,73.7607153 392.25,99.2960132 C449.215076,124.827746 500.466989,133.156488 564.018504,103.845446 C627.570018,74.5379695 658.360665,38.2993815 658.360665,38.2993815 C658.360665,38.2993815 717.015182,96.7645888 778.803492,100.711472 C840.589423,104.66192 961.50101,63.1216021 1006.25928,19.8592026 C1078.62682,91.0777974 1171.16771,82.9665431 1275.2182,0 C1309.83508,50.3753454 1493.8318,127.605182 1569,112.060097 L1569,353.56868 L0,353.56868 L0,252.154827 L1065.7081,819" id="Fill-12" fill="#1AAEA9"></path>
                <path d="M0,187.820784 C60.6985019,140.579642 173.286621,155.040557 209.145589,64.9873546 C209.145589,64.9873546 219.927074,104.612199 312.903407,146.38339 C405.879739,188.150991 592.037041,79.2652199 592.037041,79.2652199 C592.037041,79.2652199 635.981528,136.383859 737.707259,157.804246 C839.430609,179.224633 950.921782,62.1303459 950.921782,62.1303459 C950.921782,62.1303459 985.717116,135.762927 1117.75046,127.816422 C1249.78142,119.873507 1329.33741,25 1329.33741,25 C1329.33741,25 1383.04734,70.6977829 1448.15028,100.685607 C1513.2556,130.673431 1569,123.534498 1569,123.534498 L1569,392 L0,392 L0,187.820784 L665.824813,91.7855038" id="Fill-13" fill="#199893"></path>
                <path d="M1569,126.24317 C1537.21472,120.84053 1466.36292,98.4813016 1432.00304,36 C1360.9466,195.509267 1173.29735,156.484999 1097.02031,67.4656109 C962.983435,211.051306 817.425053,148.767969 766.620485,62.2681341 C679.100332,209.751937 461.631274,182.385998 390.622426,81.8270599 C377.742228,132.455667 185.393484,264.897742 98.2135978,100.40336 C49.3792509,181.385376 39.7779943,174.035481 0,185.632621 L0,331 L1569,331 L1569,126.24317" id="Fill-14" fill="#72CDBF"></path>
                <path d="M136.996964,248.372191 C208.053401,360.637891 391.633711,305.956522 467.910758,243.301827 C601.947631,344.362739 749.133587,293.47343 799.938154,232.589792 C867.113638,366.62949 1095.97571,279.84058 1176.75,201 C1229.7675,250.757404 1370.58593,336.903592 1478.11048,206.009662 C1505.78637,257.970174 1538.98745,275.977106 1569,295.226633 L1569,456 L0,456 L0,311.887419 C31.7852753,308.084646 102.637076,292.348666 136.996964,248.372191 Z" id="Fill-15" fill="#A2DDD4"></path>
            </g>
            <g transform="translate(98.000000, 442.000000)">
                <path d="M0,252.154827 L0,124.460511 C0,124.460511 78.6556847,153.197526 149.448356,124.827746 C220.238473,96.4579655 305.885774,15.6021312 305.885774,15.6021312 C305.885774,15.6021312 360.073356,73.7607153 421.25,99.2960132 C482.426644,124.827746 537.467735,133.156488 605.717768,103.845446 C673.967802,74.5379695 707.034876,38.2993815 707.034876,38.2993815 C707.034876,38.2993815 770.025865,96.7645888 836.382336,100.711472 C902.736251,104.66192 1032.58713,63.1216021 1080.65449,19.8592026 C1158.37234,91.0777974 1257.755,82.9665431 1369.4982,0 C1406.67438,50.3753454 1604.27443,127.605182 1685,112.060097 L1685,353.56868 L0,353.56868 L0,252.154827 L1144.4985,819" id="Fill-12" fill="#1AAEA9"></path>
                <path d="M0,187.820784 C65.1860904,140.579642 186.098123,155.040557 224.608233,64.9873546 C224.608233,64.9873546 236.18682,104.612199 336.037119,146.38339 C435.887419,188.150991 635.807784,79.2652199 635.807784,79.2652199 C635.807784,79.2652199 683.001195,136.383859 792.247757,157.804246 C901.491764,179.224633 1021.22575,62.1303459 1021.22575,62.1303459 C1021.22575,62.1303459 1058.59359,135.762927 1200.38848,127.816422 C1342.18081,119.873507 1427.61857,25 1427.61857,25 C1427.61857,25 1485.2994,70.6977829 1555.21556,100.685607 C1625.13428,130.673431 1685,123.534498 1685,123.534498 L1685,392 L0,392 L0,187.820784 L715.050866,91.7855038" id="Fill-13" fill="#199893"></path>
                <path d="M1685,126.24317 C1650.86476,120.84053 1574.77471,98.4813016 1537.87452,36 C1461.5647,195.509267 1260.04209,156.484999 1178.1257,67.4656109 C1034.17915,211.051306 877.859282,148.767969 823.298609,62.2681341 C729.307877,209.751937 495.760801,182.385998 419.502096,81.8270599 C405.669633,132.455667 199.100077,264.897742 105.474769,100.40336 C53.0299795,181.385376 42.7188785,174.035481 0,185.632621 L0,331 L1685,331 L1685,126.24317" id="Fill-14" fill="#72CDBF"></path>
                <path d="M147.125484,248.372191 C223.435297,360.637891 420.588147,305.956522 502.504542,243.301827 C646.451089,344.362739 804.518862,293.47343 859.079535,232.589792 C931.221466,366.62949 1177.00387,279.84058 1263.75,201 C1320.68721,250.757404 1471.91669,336.903592 1587.3908,206.009662 C1617.11284,257.970174 1652.76855,275.977106 1685,295.226633 L1685,456 L0,456 L0,311.887419 C34.1352383,308.084646 110.225286,292.348666 147.125484,248.372191 Z" id="Fill-15" fill="#A2DDD4"></path>
            </g>
            <g transform="translate(0.000000, 573.000000)">
                <path d="M0,252.154827 L0,124.460511 C0,124.460511 83.230318,153.197526 158.140308,124.827746 C233.047594,96.4579655 323.676163,15.6021312 323.676163,15.6021312 C323.676163,15.6021312 381.015308,73.7607153 445.75,99.2960132 C510.484692,124.827746 568.726986,133.156488 640.946458,103.845446 C713.165929,74.5379695 748.156193,38.2993815 748.156193,38.2993815 C748.156193,38.2993815 814.810752,96.7645888 885.026531,100.711472 C955.239605,104.66192 1092.64264,63.1216021 1143.50561,19.8592026 C1225.74355,91.0777974 1330.90632,82.9665431 1449.14854,0 C1488.4869,50.3753454 1697.57941,127.605182 1783,112.060097 L1783,353.56868 L0,353.56868 L0,252.154827 L1211.06281,819" id="Fill-12" fill="#1AAEA9"></path>
                <path d="M0,187.820784 C68.9773288,140.579642 196.921634,155.040557 237.671501,64.9873546 C237.671501,64.9873546 249.923501,104.612199 355.581118,146.38339 C461.238735,188.150991 672.786516,79.2652199 672.786516,79.2652199 C672.786516,79.2652199 722.724707,136.383859 838.325075,157.804246 C953.922738,179.224633 1080.62048,62.1303459 1080.62048,62.1303459 C1080.62048,62.1303459 1120.16164,135.762927 1270.20335,127.816422 C1420.24236,119.873507 1510.6492,25 1510.6492,25 C1510.6492,25 1571.68477,70.6977829 1645.66727,100.685607 C1719.65248,130.673431 1783,123.534498 1783,123.534498 L1783,392 L0,392 L0,187.820784 L756.638395,91.7855038" id="Fill-13" fill="#199893"></path>
                <path d="M1783,126.24317 C1746.87945,120.84053 1666.36399,98.4813016 1627.31766,36 C1546.56965,195.509267 1333.32644,156.484999 1246.64577,67.4656109 C1094.32726,211.051306 928.915787,148.767969 871.181852,62.2681341 C771.724596,209.751937 524.594367,182.385998 443.900437,81.8270599 C429.263475,132.455667 210.679784,264.897742 111.609206,100.40336 C56.1142157,181.385376 45.2034186,174.035481 0,185.632621 L0,331 L1783,331 L1783,126.24317" id="Fill-14" fill="#72CDBF"></path>
                <path d="M155.682337,248.372191 C236.430347,360.637891 445.049654,305.956522 531.730326,243.301827 C684.048838,344.362739 851.30987,293.47343 909.043805,232.589792 C985.381527,366.62949 1245.45869,279.84058 1337.25,201 C1397.49869,250.757404 1557.52371,336.903592 1679.71383,206.009662 C1711.1645,257.970174 1748.89396,275.977106 1783,295.226633 L1783,456 L0,456 L0,311.887419 C36.1205519,308.084646 116.636015,292.348666 155.682337,248.372191 Z" id="Fill-15" fill="#A2DDD4"></path>
            </g>
            <g transform="translate(42.000000, 726.000000)">
                <path d="M0,252.154827 L0,124.460511 C0,124.460511 76.9752072,153.197526 146.255394,124.827746 C215.533081,96.4579655 299.350529,15.6021312 299.350529,15.6021312 C299.350529,15.6021312 352.380394,73.7607153 412.25,99.2960132 C472.119606,124.827746 525.984745,133.156488 592.776617,103.845446 C659.56849,74.5379695 691.929087,38.2993815 691.929087,38.2993815 C691.929087,38.2993815 753.574274,96.7645888 818.513039,100.711472 C883.449304,104.66192 1010.52592,63.1216021 1057.56632,19.8592026 C1133.62373,91.0777974 1230.88308,82.9665431 1340.23889,0 C1376.6208,50.3753454 1569.99913,127.605182 1649,112.060097 L1649,353.56868 L0,353.56868 L0,252.154827 L1120.04631,819" id="Fill-12" fill="#1AAEA9"></path>
                <path d="M0,187.820784 C63.7933905,140.579642 182.12214,155.040557 219.809481,64.9873546 C219.809481,64.9873546 231.140692,104.612199 328.857691,146.38339 C426.574691,188.150991 622.22376,79.2652199 622.22376,79.2652199 C622.22376,79.2652199 668.408885,136.383859 775.321395,157.804246 C882.231405,179.224633 999.407277,62.1303459 999.407277,62.1303459 C999.407277,62.1303459 1035.97675,135.762927 1174.74219,127.816422 C1313.50514,119.873507 1397.11752,25 1397.11752,25 C1397.11752,25 1453.566,70.6977829 1521.98841,100.685607 C1590.41331,130.673431 1649,123.534498 1649,123.534498 L1649,392 L0,392 L0,187.820784 L699.773815,91.7855038" id="Fill-13" fill="#199893"></path>
                <path d="M1649,126.24317 C1615.59406,120.84053 1541.12968,98.4813016 1505.01785,36 C1430.33839,195.509267 1233.12131,156.484999 1152.95506,67.4656109 C1012.08393,211.051306 859.103832,148.767969 805.708846,62.2681341 C713.726225,209.751937 485.168879,182.385998 410.53944,81.8270599 C397.002507,132.455667 194.846307,264.897742 103.221302,100.40336 C51.8969948,181.385376 41.8061903,174.035481 0,185.632621 L0,331 L1649,331 L1649,126.24317" id="Fill-14" fill="#72CDBF"></path>
                <path d="M143.98215,248.372191 C218.661605,360.637891 411.602288,305.956522 491.76854,243.301827 C632.639671,344.362739 787.330328,293.47343 840.725313,232.589792 C911.325933,366.62949 1151.8572,279.84058 1236.75,201 C1292.47075,250.757404 1440.46921,336.903592 1553.47622,206.009662 C1582.56324,257.970174 1617.45717,275.977106 1649,295.226633 L1649,456 L0,456 L0,311.887419 C33.4059395,308.084646 107.870324,292.348666 143.98215,248.372191 Z" id="Fill-15" fill="#A2DDD4"></path>
            </g>
        </g>
    </g>
</svg>