<?xml version="1.0" encoding="UTF-8"?>
<svg width="610px" height="292px" viewBox="0 0 610 292" version="1.1" xmlns="http://www.w3.org/2000/svg" xmlns:xlink="http://www.w3.org/1999/xlink">
    <!-- Generator: Sketch 48.2 (47327) - http://www.bohemiancoding.com/sketch -->
    <title>Lesson Graphic 2</title>
    <desc>Created with Sketch.</desc>
    <defs>
        <linearGradient x1="14.8753559%" y1="50%" x2="100%" y2="50%" id="linearGradient-1">
            <stop stop-color="#52B094" offset="0%"></stop>
            <stop stop-color="#97C9A3" offset="59.4210277%"></stop>
            <stop stop-color="#D0E9D6" offset="100%"></stop>
        </linearGradient>
    </defs>
    <g id="Symbols" stroke="none" stroke-width="1" fill="none" fill-rule="evenodd">
        <g id="Lesson-Graphic-2">
            <g id="Lesson-Graphic">
                <rect id="Rectangle-8" fill="url(#linearGradient-1)" transform="translate(305.000000, 146.000000) scale(-1, 1) translate(-305.000000, -146.000000) " x="0" y="0" width="610" height="292" rx="14"></rect>
                <g id="Shift-Key" transform="translate(154.000000, 93.000000)" stroke="#FFFFFF">
                    <path d="M379.611111,89.4 L401,101" id="Line-2" stroke-width="2" stroke-linecap="square"></path>
                    <path d="M7.61764706,4.4 L27.3823529,15.6" id="Line-2" stroke-width="2" stroke-linecap="square"></path>
                    <path d="M379.617647,4.4 L399.382353,15.6" id="Line-2" stroke-width="2" stroke-linecap="square" transform="translate(389.500000, 10.000000) scale(-1, 1) translate(-389.500000, -10.000000) "></path>
                    <path d="M7.59375,89.40625 L25.40625,101.59375" id="Line-2" stroke-width="2" stroke-linecap="square" transform="translate(16.500000, 95.500000) scale(1, -1) translate(-16.500000, -95.500000) "></path>
                    <rect id="Rectangle" stroke-width="4" x="25" y="15" width="355" height="75" rx="12"></rect>
                    <rect id="Rectangle" stroke-width="3" x="1.5" y="1.5" width="405" height="103" rx="8"></rect>
                </g>
            </g>
            <path d="M113.586082,142.678632 L102.358706,132.179821 L102.358706,114.987813 L89.4276649,114.987813 L89.4276649,120.09398 L76.4966241,108 L39.4087829,142.678632 C38.8915413,143.166949 38.8592137,143.993832 39.3457441,144.521214 C39.8322745,145.050224 40.6469301,145.07464 41.1706372,144.586323 L45.4637427,140.573986 L45.4637427,184 L107.529506,184 L107.529506,140.573986 L111.824227,144.586323 C112.069917,144.820715 112.391577,144.934656 112.708387,144.934656 C113.054293,144.934656 113.395349,144.794671 113.655586,144.521214 C114.1405,143.993832 114.109789,143.166949 113.586082,142.678632 Z M92,118 L100,118 L100,130 L92,122.849733 L92,118 Z M69,182 L69,154.235655 C69,153.553573 69.5248906,153 70.1716309,153 L82.8283691,153 C83.4751094,153 84,153.553573 84,154.235655 L84,182 L69,182 Z M105,182 L86.8603244,182 L86.8603244,154.508972 C86.8603244,152.393148 85.158566,150.673736 83.0584893,150.673736 L69.9398915,150.673736 C67.841434,150.673736 66.1396756,152.393148 66.1396756,154.508972 L66.1396756,182 L48,182 L48,138.660685 L76.4991904,112 L105,138.660685 L105,182 Z" id="home-(2)" stroke="#FFFFFF" fill="#FFFFFF"></path>
            <text id="Home" font-family="AvenirNext-DemiBold, Avenir Next" font-size="25" font-weight="500" fill="#FFFFFF">
                <tspan x="210" y="154">Home</tspan>
            </text>
        </g>
    </g>
</svg>