<?xml version="1.0" encoding="UTF-8"?>
<svg width="610px" height="292px" viewBox="0 0 610 292" version="1.1" xmlns="http://www.w3.org/2000/svg" xmlns:xlink="http://www.w3.org/1999/xlink">
    <!-- Generator: Sketch 48.2 (47327) - http://www.bohemiancoding.com/sketch -->
    <title>Chapter 6</title>
    <desc>Created with Sketch.</desc>
    <defs>
        <linearGradient x1="14.8753559%" y1="50%" x2="100%" y2="50%" id="linearGradient-1">
            <stop stop-color="#52B094" offset="0%"></stop>
            <stop stop-color="#97C9A3" offset="59.4210277%"></stop>
            <stop stop-color="#D0E9D6" offset="100%"></stop>
        </linearGradient>
    </defs>
    <g id="Symbols" stroke="none" stroke-width="1" fill="none" fill-rule="evenodd">
        <g id="Chapter-6">
            <rect id="Rectangle-8" fill="url(#linearGradient-1)" transform="translate(305.000000, 146.000000) scale(-1, 1) translate(-305.000000, -146.000000) " x="0" y="0" width="610" height="292" rx="14"></rect>
            <g id="icon" transform="translate(282.000000, 93.000000)">
                <path d="M17,3.0007901 C17,4.65525415 15.6585816,6 14.0039547,6 C12.3414184,6 11,4.65525415 11,3.0007901 C11,1.34632605 12.3414184,0 14.0039547,0 C15.6585816,0 17,1.34632605 17,3.0007901 Z" id="Fill-1" fill="#FFFFFF"></path>
                <path d="M9.29721196,7.31502497 C9.40656285,6.42008977 9.98612255,5.88238442 10.412591,6.02192733 L13.5072211,7.04524201 C13.9336896,7.19036663 14.0805322,8.3681088 13.9586841,8.87790556 L11.4076841,21.3418783 C11.285836,21.8498145 11.0296424,22.1047129 10.6016118,21.9595883 L8.51613419,21.4218829 C6.83056837,19.7715554 6.836817,18.3333332 7.18517768,16.3481027 L9.29721196,7.31502497 Z" id="Fill-2" fill="#FFFFFF"></path>
                <path d="M6.84561054,21 L6.28250468,24.804739 C6.28250468,24.804739 4.8340436,28.1344874 3.83573498,30.0890096 C3.08326609,31.5685411 2.72613405,32.6340606 3.24439077,32.9036499 C4.04336988,33.3112432 5.10646059,32.3965653 6.22935015,30.7100277 C8.1047086,27.8825498 9.07145671,26.4656014 9.42858875,25.7836048 L10,23.9847383 C10,23.9895524 7.20938689,22.2035235 6.84561054,21 Z" id="Fill-3" fill="#FFFFFF"></path>
                <path d="M16.5126461,22.7650602 L12.0526764,18.3908982 C11.3475828,17.6866264 10.3000635,18.0187356 9.58822263,18.7163319 C8.87638178,19.4072525 7.49318393,20.0597887 8.19153016,20.7623916 L13.8575809,25.4886895 L13.2317682,31.5384175 C13.1862239,33.0320745 13.2773125,33.893222 14.2337432,33.9966932 C15.1294482,34.0884822 15.5258525,32.2426893 15.6169411,31.7804067 C15.6169411,31.7804067 16.7639832,25.98435 16.902303,25.1632558 C17.0406228,24.3488373 17.1199036,23.3842186 16.5126461,22.7650602 Z" id="Fill-4" fill="#FFFFFF"></path>
                <path d="M21.764141,9.6845656 L18.478192,11.1704235 L14.3344651,8.26840684 C13.6762856,7.81061054 12.755824,7.95317686 12.2790975,8.58363681 C11.8023709,9.21409675 11.9508325,10.099592 12.6139607,10.5573883 L17.072756,13.66375 C17.4917475,13.9552189 18.1416791,14.1088737 18.6134569,13.9108649 C18.6134569,13.9108649 21.6800127,12.1224497 22.4982009,11.6092109 C23.362577,11.0642908 24.2632437,10.3530432 23.9283805,9.75268062 C23.4582522,8.89886678 22.5955256,9.29488433 21.764141,9.6845656 Z" id="Fill-5" fill="#FFFFFF"></path>
                <path d="M21,9 L21,34" id="Stroke-6" stroke="#FFFFFF" stroke-width="0.913" stroke-linecap="round" stroke-linejoin="round"></path>
                <path d="M7.89193775,8.77517335 C7.89193775,8.77517335 5.91477089,14.741905 5.61686444,15.6912682 C5.3172937,16.6406314 4.27046041,17.2983813 2.79424239,16.8625815 C1.31968865,16.4203014 -0.214779228,15.8176339 0.0248773614,14.1408576 C0.286169615,12.3117943 2.06029409,9.88168372 3.6014191,8.31993263 C5.14254411,6.75656147 8.65917169,6.21221669 7.89193775,8.77517335 Z" id="Fill-8" fill="#FFFFFF"></path>
            </g>
            <path d="M293,228 L304,228 L304,162 L293,173.622225 L293,228 Z M339,128.684188 L339,228 L350,228 L350,127 L340.609561,127 L339,128.684188 Z M317,228 L328,228 L328,139 L317,150.628414 L317,228 Z M226,228 L237,228 L237,184 L226,195.971528 L226,228 Z M271,228 L282,228 L282,168.608361 L271,157 L271,228 Z M249,173.680295 L249,228 L260,228 L259.999725,162 L249,173.680295 Z M363,114.33959 L351.445305,114.33959 L351.445305,99.993479 L291.000023,160.376454 L267.806805,137.206565 L223.289156,183 L215,174.958196 L267.685977,120.762579 L291.000023,144.052306 L343.563727,91.5427848 L328.335914,91.5427848 L328.335914,80 L363,80 L363,114.33959 Z" id="Fill-1" fill="#FFFFFF"></path>
        </g>
    </g>
</svg>