<?xml version="1.0" encoding="UTF-8"?>
<svg width="610px" height="292px" viewBox="0 0 610 292" version="1.1" xmlns="http://www.w3.org/2000/svg" xmlns:xlink="http://www.w3.org/1999/xlink">
    <!-- Generator: Sketch 48.2 (47327) - http://www.bohemiancoding.com/sketch -->
    <title>Chapter 0</title>
    <desc>Created with Sketch.</desc>
    <defs>
        <linearGradient x1="14.8753559%" y1="50%" x2="100%" y2="50%" id="linearGradient-1">
            <stop stop-color="#52B094" offset="0%"></stop>
            <stop stop-color="#97C9A3" offset="59.4210277%"></stop>
            <stop stop-color="#D0E9D6" offset="100%"></stop>
        </linearGradient>
        <polygon id="path-2" points="0.0214453125 0.144220812 183 0.144220812 183 141 0.0214453125 141"></polygon>
    </defs>
    <g id="Symbols" stroke="none" stroke-width="1" fill="none" fill-rule="evenodd">
        <g id="Chapter-0">
            <rect id="Rectangle-8" fill="url(#linearGradient-1)" transform="translate(305.000000, 146.000000) scale(-1, 1) translate(-305.000000, -146.000000) " x="0" y="0" width="610" height="292" rx="14"></rect>
            <g id="laptop" transform="translate(215.000000, 78.000000)">
                <g id="Group-3">
                    <mask id="mask-3" fill="white">
                        <use xlink:href="#path-2"></use>
                    </mask>
                    <g id="Clip-2"></g>
                    <path d="M177.638672,134.828924 C177.638672,135.271607 177.278748,135.63198 176.836617,135.63198 L6.16338281,135.63198 C5.72125195,135.63198 5.36132812,135.271607 5.36132812,134.828924 L5.36132812,130.704137 L177.638672,130.704137 L177.638672,134.828924 Z M111.497039,125.336117 L71.5029609,125.336117 L74.0024121,116.261299 L108.997588,116.261299 L111.497039,125.336117 Z M18.9537246,101.818104 L164.045918,101.818104 L175.9545,125.336117 L117.058523,125.336117 L114.102287,114.604013 C113.500389,112.419228 111.499541,110.893279 109.235988,110.893279 L73.7632969,110.893279 C71.4997441,110.893279 69.4985391,112.419228 68.896998,114.603655 L65.9407617,125.336117 L7.04514258,125.336117 L18.9537246,101.818104 Z M19.9881035,96.4500838 L163.011896,96.4500838 L163.011896,5.51259898 L19.9881035,5.51259898 L19.9881035,96.4500838 Z M182.991422,127.85336 C182.989635,127.82652 182.989992,127.800038 182.98749,127.773198 C182.97784,127.666911 182.962471,127.562772 182.940668,127.460779 C182.938523,127.450759 182.935307,127.440739 182.932805,127.430718 C182.911717,127.336957 182.885625,127.245343 182.854887,127.155876 C182.846666,127.131898 182.83773,127.108637 182.828795,127.085018 C182.798771,127.003782 182.764816,126.924693 182.727287,126.847751 C182.720854,126.834152 182.716564,126.820195 182.709773,126.806596 L168.372867,98.4927944 L168.372867,5.3401066 C168.372867,2.47501523 166.044979,0.144220812 163.183459,0.144220812 L19.8158262,0.144220812 C16.9543066,0.144220812 14.626418,2.47501523 14.626418,5.3401066 L14.626418,98.4924365 L0.289869141,126.806239 C0.283078125,126.819838 0.278789062,126.833794 0.272355469,126.847393 C0.234826172,126.924335 0.201228516,127.003424 0.170847656,127.084302 C0.161912109,127.107921 0.152976562,127.131541 0.144755859,127.155518 C0.114375,127.245343 0.0879257812,127.337315 0.0668378906,127.431076 C0.0646933594,127.440739 0.0614765625,127.450401 0.0593320312,127.460063 C0.0375292969,127.562414 0.0221601562,127.666553 0.0125097656,127.77284 C0.0100078125,127.799322 0.0100078125,127.826162 0.008578125,127.852645 C0.00500390625,127.90883 0,127.963584 0,128.020127 L0,134.828924 C0,138.231891 2.7646582,141 6.16338281,141 L176.836617,141 C180.235342,141 183,138.231891 183,134.828924 L183,128.020127 C183,127.963584 182.994996,127.90883 182.991422,127.85336 Z" id="Fill-1" fill="#FFFFFF" mask="url(#mask-3)"></path>
                </g>
                <path d="M155.310557,56 C153.825106,56 152.621472,57.192177 152.621472,58.6634874 L152.621472,85.6730252 L31.3781695,85.6730252 L31.3781695,58.6634874 C31.3781695,57.192177 30.1745352,56 28.6890848,56 C27.2036343,56 26,57.192177 26,58.6634874 L26,86.8232966 C26,89.1263254 27.8913229,91 30.2168434,91 L153.783157,91 C156.108319,91 158,89.1266805 158,86.8232966 L158,58.6634874 C157.999641,57.1925321 156.796007,56 155.310557,56" id="Fill-4" fill="#FFFFFF"></path>
                <path d="M153.783145,11 L30.2168549,11 C27.8916866,11 26,12.8733195 26,15.1767034 L26,43.3365126 C26,44.807823 27.2036376,46 28.6890921,46 C30.1745465,46 31.3781841,44.807823 31.3781841,43.3365126 L31.3781841,16.3269748 L152.621816,16.3269748 L152.621816,43.3365126 C152.621816,44.807823 153.825453,46 155.310908,46 C156.796362,46 158,44.807823 158,43.3365126 L158,15.1767034 C158,12.8733195 156.108672,11 153.783145,11" id="Fill-5" fill="#FFFFFF"></path>
            </g>
            <g id="Left-hand" transform="translate(37.000000, 58.000000)" stroke="#FFFFFF" stroke-width="4">
                <g transform="translate(80.000000, 90.500000) scale(-1, 1) rotate(340.000000) translate(-80.000000, -90.500000) translate(23.000000, 16.000000)" id="Fill-1">
                    <path d="M44.4562797,148.479041 L39.229059,148.479041 C35.7746129,148.235898 32.2835762,148.220748 28.8754284,147.686424 C25.2522177,147.118844 21.6338609,146.280038 18.1514118,145.144509 C15.3578357,144.233277 14.3295667,142.125176 14.5998887,139.222611 C15.0374817,134.52271 15.5732719,129.831677 15.9933164,125.129928 C16.3159106,121.513454 16.062017,118.099476 14.3392744,114.638569 C10.5234033,106.972176 7.18358268,99.0740956 3.63131286,91.2787409 C2.21062896,88.1607468 1.66961162,84.8694488 1.57962875,81.4872492 C1.37726064,73.8829354 1.26562214,66.2752959 0.979618491,58.6743077 C0.767169308,53.0339828 0.331443128,47.4017872 0.00959568366,41.7651575 C-0.0990558317,39.860661 0.71340361,38.4782936 2.44100004,37.5807341 C4.25297875,36.6395714 6.14373914,36.4149043 7.60885442,37.8966721 C9.5825036,39.8935481 11.6368013,41.9628497 13.0059598,44.3643481 C16.4682467,50.4392264 17.8056685,57.1367427 17.9598715,64.0862704 C18.0102768,66.3569594 18.0476141,68.650189 18.4157598,70.8802309 C18.5792971,71.8716481 19.3678607,73.111751 20.220271,73.5108306 C20.7291783,73.7491698 22.2342445,72.7769676 22.7349376,71.9983928 C24.5233938,69.2177688 26.4839749,66.4371448 27.6242557,63.3804907 C29.6658588,57.9094051 31.4304191,52.3038149 32.8272072,46.6372542 C36.0535225,33.547074 39.0841903,20.4114431 44.0937346,7.83489316 C44.8602692,5.9108122 45.6801961,3.97564569 46.7543899,2.2119356 C47.9088589,0.315938011 49.9015501,-0.0779683279 51.9954254,0.308917167 C53.9056012,0.661806992 55.4939295,1.7252802 55.6589603,3.69850708 C55.8811172,6.35571204 56.0103042,9.10640509 55.5689775,11.7159422 C54.1654687,20.0145806 52.4132297,28.2544657 50.9275789,36.540171 C50.1199733,41.0427495 49.5606607,45.5896703 48.9300338,50.1221798 C48.7313994,51.5503674 49.5483394,52.7875142 50.7998853,52.8736119 C51.6414679,52.9312567 52.5887149,51.7883371 53.4437389,51.1265301 C53.6539478,50.9639421 53.6935254,50.5814909 53.8047905,50.2980704 C58.5279577,38.2425411 63.1831711,26.1604064 68.0116295,14.146263 C69.5812892,10.2408258 71.526562,6.47469688 73.450926,2.72039256 C74.4594062,0.752708455 76.4009453,-0.123049541 78.5549336,0.0140416894 C81.2951174,0.188454252 83.8698969,1.16065648 84.3593888,4.18405392 C84.643899,5.94111269 84.3549083,7.96644162 83.7373495,9.66179086 C78.2147909,24.8157299 72.5596849,39.92274 66.9534907,55.0471176 C66.7007172,55.7288786 66.4206876,56.4390924 66.3885775,57.1467197 C66.3717757,57.519194 66.78958,58.0513001 67.1558588,58.2482533 C67.3847364,58.3716723 68.3469184,58.4651604 68.610893,58.2057587 C68.9469286,57.8754095 70.2936847,56.6633899 70.472157,56.2151644 C73.5405355,48.4922353 77.8156553,42.4443318 80.9482539,34.7476385 C83.2997565,28.9705918 86.3121291,23.8324421 88.7939388,18.1086061 C89.5126816,16.4516867 91.7271563,13.6466745 93.7235813,13.5361886 C97.9236531,13.3045007 102.046063,15.9517287 100.642555,20.2215108 C96.1654401,33.8419495 86.6235221,47.4771689 82.0194608,61.0565911 C81.0206883,64.0031288 79.4472949,66.8938692 78.659478,69.8925089 C78.4257466,70.7819391 78.2954394,72.1798262 78.989913,72.9062989 C79.3897954,73.3245934 80.8224273,73.0829286 81.6169648,72.7426024 C82.5451699,72.3453704 83.3938465,71.615572 84.0879467,70.8599074 C90.4405133,63.9432669 96.7165385,56.9560483 103.108683,50.075251 C104.298622,48.7937621 105.825717,47.7568942 107.347959,46.856748 C108.941514,45.9148462 110.505947,46.7229824 111.812005,47.6641451 C112.99037,48.5129283 113.90364,49.7419456 113.46642,51.2931828 C113.02472,52.8621568 112.606169,54.5752429 111.656682,55.8423206 C107.484613,61.41022 103.098975,66.8203351 98.8399102,72.3246774 C95.7491293,76.320277 92.4261104,80.1854368 89.7669486,84.4511542 C86.4629717,89.752631 83.779914,95.4310163 80.7481261,100.90321 C77.5692291,106.640349 74.6640146,112.57518 70.9526879,117.959798 C67.5773968,122.856283 63.2992901,127.147128 59.379248,131.670769 C57.8379646,133.44926 56.2966812,135.176388 56.0263593,137.658811 C55.8486338,139.29282 55.6425319,140.939023 55.2486235,142.531277 C54.545189,145.375827 52.88816,147.347207 49.7574282,147.754046 C47.9887607,147.983886 46.2230803,148.236637 44.4562797,148.479041"></path>
                </g>
            </g>
            <g id="Left-hand" transform="translate(493.000000, 148.684211) scale(-1, 1) translate(-493.000000, -148.684211) translate(413.000000, 59.000000)" stroke="#FFFFFF" stroke-width="4">
                <g transform="translate(80.000000, 89.684211) scale(-1, 1) rotate(340.000000) translate(-80.000000, -89.684211) translate(22.736842, 15.157895)" id="Fill-1">
                    <path d="M44.6615257,148.531488 L39.4101719,148.531488 C35.9397773,148.288259 32.4326232,148.273104 29.0087406,147.738592 C25.3688022,147.170812 21.7337402,146.331709 18.2352133,145.195779 C15.4287398,144.284225 14.3957235,142.175379 14.6672935,139.271789 C15.1069069,134.570228 15.6451706,129.877538 16.0671544,125.174128 C16.3912379,121.556377 16.1361722,118.141193 14.405476,114.679063 C10.5719878,107.009962 7.21674788,99.1090918 3.64807793,91.3109835 C2.220835,88.191888 1.67731989,84.8994274 1.58692159,81.5160331 C1.38361918,73.9090332 1.27146527,66.2987064 0.984141199,58.6950333 C0.770711179,53.0527161 0.332973336,47.4185311 0.00963998506,41.7799103 C-0.0995131532,39.8747411 0.716697255,38.4918854 2.45226966,37.5940088 C4.27261392,36.6525136 6.17210359,36.4277672 7.64398302,37.9100584 C9.62674415,39.9076398 11.6905262,41.9776723 13.0660057,44.380019 C16.5442774,50.4570431 17.8878738,57.1569252 18.0427887,64.1089077 C18.0934268,66.3803988 18.1309364,68.6744384 18.5007818,70.9052681 C18.6650741,71.8970355 19.4572783,73.1375764 20.3136241,73.536797 C20.8248809,73.7752204 22.3368957,72.8026747 22.8399003,72.023825 C24.6366135,69.2422188 26.6062462,66.4606125 27.7517916,63.4028788 C29.8028203,57.9298606 31.5755273,52.3222903 32.978764,46.653728 C36.2199745,33.5589239 39.2646344,20.4186531 44.2973068,7.8376607 C45.0673803,5.91290009 45.8910926,3.97705001 46.9702458,2.21271692 C48.1300448,0.316049611 50.1319359,-0.0779958689 52.2354781,0.309026286 C54.1544728,0.662040764 55.7501342,1.72588963 55.9159269,3.69981351 C56.1391094,6.35795708 56.2688929,9.10962176 55.8255286,11.7200807 C54.4155401,20.0216504 52.6552113,28.2644461 51.1627016,36.5530781 C50.3513674,41.0572472 49.7894726,45.605774 49.1559343,50.1398846 C48.9563828,51.5685767 49.7770944,52.8061604 51.0344185,52.8922885 C51.8798865,52.9499537 52.8315068,51.8066304 53.6904782,51.1445896 C53.9016576,50.9819442 53.9414179,50.5993579 54.0531967,50.3158373 C58.7981699,38.2560496 63.4748755,26.1696471 68.325626,14.1512599 C69.9025325,10.2444432 71.8567862,6.47698395 73.7900346,2.72135349 C74.8031708,0.752974336 76.7536736,-0.123093006 78.9176064,0.0140466494 C81.6704411,0.18852082 84.2571079,1.16106646 84.7488597,4.18553186 C85.0346833,5.94321128 84.7443585,7.96925562 84.1239486,9.66520371 C78.5758933,24.8244956 72.8946788,39.936842 67.2626019,55.066562 C67.0086615,55.7485638 66.7273389,56.4590285 66.6950806,57.1669057 C66.6782013,57.5395116 67.0979345,58.0718057 67.4659043,58.2688284 C67.6958386,58.3922911 68.6624628,58.4858122 68.9276562,58.2263188 C69.2652432,57.8958529 70.618217,56.6834053 70.7975132,56.2350214 C73.8800578,48.5093643 78.174915,42.4593245 81.3219763,34.7599125 C83.6843352,28.9808252 86.7106154,23.8408605 89.2038831,18.1150026 C89.9259442,16.457498 92.1506427,13.6514949 94.1562848,13.54097 C98.3757475,13.3092003 102.51719,15.9573633 101.107202,20.2286537 C96.6094172,33.8539036 87.023446,47.4939394 82.3981287,61.0781583 C81.394745,64.0257368 79.8140875,66.9174983 79.0226335,69.9171972 C78.787823,70.8069416 78.6569142,72.2053225 79.3545941,72.9320518 C79.7563226,73.350494 81.1955687,73.1087438 81.9937744,72.7682974 C82.9262648,72.3709251 83.7788596,71.640869 84.4761644,70.8849374 C90.8580595,63.9658537 97.1630599,56.976167 103.584715,50.0929392 C104.780148,48.8109976 106.314294,47.7737634 107.843563,46.8732993 C109.444476,45.9310648 111.016131,46.7394865 112.328219,47.6809816 C113.512024,48.5300646 114.429511,49.7595161 113.990273,51.3113012 C113.546533,52.8808294 113.12605,54.5945207 112.172179,55.8620459 C107.980849,61.4319121 103.574963,66.8439382 99.2962348,72.3502248 C96.1911843,76.3472358 92.8528238,80.2137609 90.1813851,84.4809851 C86.8621544,89.7843345 84.1667096,95.4647256 81.1209244,100.938853 C77.9273512,106.678018 75.0087238,112.614945 71.2802626,118.001466 C67.8893885,122.89968 63.5915306,127.19204 59.6533904,131.717279 C58.1049912,133.496398 56.5565921,135.224136 56.285022,137.707436 C56.106476,139.342022 55.8994226,140.988807 55.5036956,142.581623 C54.7970135,145.427179 53.1323343,147.399254 49.9871485,147.806238 C48.2103155,148.036159 46.4364832,148.288999 44.6615257,148.531488"></path>
                </g>
            </g>
        </g>
    </g>
</svg>