<?xml version="1.0" encoding="UTF-8"?>
<svg width="764px" height="480px" viewBox="0 0 764 480" version="1.1" xmlns="http://www.w3.org/2000/svg" xmlns:xlink="http://www.w3.org/1999/xlink">
    <!-- Generator: Sketch 48.2 (47327) - http://www.bohemiancoding.com/sketch -->
    <title>Finger Names</title>
    <desc>Created with Sketch.</desc>
    <defs></defs>
    <g id="Tutorial-Graphics" stroke="none" stroke-width="1" fill="none" fill-rule="evenodd">
        <g id="Finger-Names">
            <g id="Left-hand" transform="translate(383.500000, 281.500000) scale(-1, 1) translate(-383.500000, -281.500000) translate(266.000000, 148.000000)" fill="#FFFFFF" stroke="#52B094" stroke-width="3">
                <g transform="translate(117.500000, 133.500000) scale(-1, 1) rotate(340.000000) translate(-117.500000, -133.500000) translate(33.000000, 23.000000)" id="Fill-1">
                    <path d="M65.9044848,220.896686 L58.1553594,220.896686 C53.0342945,220.534955 47.8589858,220.512415 42.8065561,219.717487 C37.4353052,218.873081 32.0712499,217.625165 26.9086718,215.935804 C22.7673178,214.580137 21.2429542,211.443853 21.6436946,207.12562 C22.2924071,200.133438 23.0866925,193.154449 23.7093901,186.159517 C24.1876218,180.779181 23.8112357,175.700104 21.2573454,170.55121 C15.6004839,159.145689 10.6493463,147.395479 5.38326205,135.798098 C3.27716047,131.159366 2.475126,126.262804 2.34173034,121.231005 C2.04172849,109.917841 1.87622931,98.5997292 1.45224145,87.291513 C1.13729485,78.9002338 0.4913499,70.521049 0.0142251802,62.1352673 C-0.146845926,59.3018912 1.05758956,57.2453021 3.6186755,55.909976 C6.30485446,54.5097803 9.10782382,54.1755365 11.279793,56.3800064 C14.2056413,59.3508183 17.2510476,62.4293798 19.2807649,66.0021605 C24.4134535,75.0399376 26.3961225,85.0040318 26.6247217,95.3430509 C26.6994454,98.7212225 26.7547963,102.132928 27.3005562,105.450628 C27.5429931,106.925589 28.712004,108.770527 29.975665,109.36425 C30.7300977,109.718834 32.9612923,108.27246 33.7035478,107.114151 C36.3548557,102.977334 39.2613312,98.8405167 40.9517476,94.2930415 C43.9783345,86.1535447 46.5942178,77.8139414 48.6648949,69.3836305 C53.4477657,49.90898 57.9405979,30.3667111 65.3670276,11.6562036 C66.5033815,8.79369114 67.7188871,5.91468636 69.3113324,3.29076239 C71.0227821,0.470030378 73.9768594,-0.115995801 77.0809376,0.459585259 C79.9126894,0.98458995 82.2673165,2.56675068 82.5119675,5.50237901 C82.8413053,9.45558188 83.0328194,13.5478698 82.3785718,17.4301558 C80.2979317,29.776287 77.7003141,42.0350091 75.497902,54.3618994 C74.3006621,61.0605194 73.4715057,67.8251087 72.5366291,74.5682579 C72.2421623,76.6930152 73.4532399,78.5335552 75.308602,78.6616453 C76.5562111,78.7474052 77.9604634,77.0470497 79.2279989,76.0624598 C79.5396244,75.8205728 79.5982964,75.2515887 79.763242,74.8299357 C86.7651303,56.894566 93.66628,38.9196148 100.824258,21.0458163 C103.151209,15.2355812 106.034991,9.63259916 108.887776,4.04720894 C110.382804,1.11982676 113.261051,-0.183064463 116.454244,0.020890239 C120.516446,0.280368997 124.333444,1.72674318 125.059094,6.22474149 C125.480868,8.83877008 125.052452,11.8519122 124.136948,14.3741337 C115.949997,36.9190995 107.56655,59.394248 99.2556134,81.8952344 C98.8808879,82.9095105 98.4657561,83.9661168 98.4181544,85.0188749 C98.3932465,85.573016 99.012623,86.3646461 99.5556153,86.6576592 C99.8949163,86.8412734 101.321309,86.9803584 101.71264,86.5944387 C102.210798,86.1029684 104.207305,84.2998109 104.471882,83.6329725 C109.020618,72.143341 115.358296,63.1456951 120.002236,51.6950954 C123.488236,43.1004113 127.953946,35.4562331 131.63312,26.9407119 C132.698625,24.4756637 135.981486,20.3025636 138.941099,20.1381904 C145.167521,19.7935015 151.278813,23.7318613 149.198173,30.0841432 C142.561047,50.347675 128.415572,70.6331966 121.590253,90.835707 C120.109617,95.2193587 117.77713,99.5199992 116.609226,103.981165 C116.26273,105.304396 116.069555,107.384075 117.099082,108.46487 C117.69189,109.087179 119.815704,108.727647 120.993571,108.221334 C122.369594,107.63036 123.62772,106.544617 124.656693,105.420392 C134.074094,95.1303003 143.378026,84.7352074 152.8541,74.4984406 C154.618133,72.5919314 156.881984,71.0493522 159.13864,69.7101779 C161.501017,68.3088826 163.820219,69.5111709 165.756393,70.9113666 C167.503268,72.1741266 168.857151,74.0025723 168.208992,76.3103939 C167.55419,78.6446033 166.933707,81.1932124 165.526134,83.0782816 C159.341225,91.3618112 152.839708,99.4106004 146.525832,107.599574 C141.943885,113.543947 137.017655,119.29426 133.075564,125.640494 C128.177563,133.527659 124.200048,141.975562 119.705555,150.116708 C114.99298,158.65202 110.686127,167.481444 105.184248,175.492301 C100.180527,182.776947 93.8384213,189.160565 88.0271307,195.89052 C85.7422458,198.536434 83.4573608,201.105933 83.0566203,204.799108 C82.7931501,207.230072 82.4876131,209.679177 81.9036612,212.04802 C80.8608503,216.279943 78.4043775,219.212823 73.7632049,219.81809 C71.141233,220.16003 68.5236892,220.536054 65.9044848,220.896686"></path>
                </g>
            </g>
            <polyline id="Line" stroke="#77BFA3" stroke-linecap="square" points="289 271 205.238701 253 135 253"></polyline>
            <polyline id="Line-2" stroke="#77BFA3" stroke-linecap="square" points="330 193 260.057583 179 200 179"></polyline>
            <polyline id="Line-3" stroke="#77BFA3" stroke-linecap="square" points="380 166 360.966131 152 299 152"></polyline>
            <text id="Pinky" font-family="AvenirNext-Medium, Avenir Next" font-size="18" font-weight="400" fill="#4A4A4A">
                <tspan x="501" y="270">Pinky</tspan>
            </text>
            <text id="Index" font-family="AvenirNext-Medium, Avenir Next" font-size="18" font-weight="400" fill="#4A4A4A">
                <tspan x="199" y="172">Index</tspan>
            </text>
            <text id="Middle" font-family="AvenirNext-Medium, Avenir Next" font-size="18" font-weight="400" fill="#4A4A4A">
                <tspan x="297" y="145">Middle</tspan>
            </text>
            <text id="Ring" font-family="AvenirNext-Medium, Avenir Next" font-size="18" font-weight="400" fill="#4A4A4A">
                <tspan x="507" y="163">Ring</tspan>
            </text>
            <polyline id="Line-4" stroke="#52B094" stroke-linecap="square" points="420 192 500.858422 168 545 168"></polyline>
            <polyline id="Line-5" stroke="#77BFA3" stroke-linecap="square" points="450 239 498.902473 277 542 277"></polyline>
            <text id="Thumb" font-family="AvenirNext-Medium, Avenir Next" font-size="18" font-weight="400" fill="#4A4A4A">
                <tspan x="134" y="246">Thumb</tspan>
            </text>
        </g>
    </g>
</svg>