<?xml version="1.0" encoding="UTF-8"?>
<svg width="1248px" height="337px" viewBox="0 0 1248 337" version="1.1" xmlns="http://www.w3.org/2000/svg" xmlns:xlink="http://www.w3.org/1999/xlink">
    <!-- Generator: Sketch 48.2 (47327) - http://www.bohemiancoding.com/sketch -->
    <title>Home Row</title>
    <desc>Created with Sketch.</desc>
    <defs></defs>
    <g id="Tutorial-Graphics" stroke="none" stroke-width="1" fill="none" fill-rule="evenodd">
        <g id="Home-Row">
            <g id="Hands-with-color" transform="translate(10.000000, 22.000000)">
                <g id="Hands" fill="#FFFFFF">
                    <g transform="translate(0.000000, 1.000000)">
                        <g id="Left-hand" stroke="#979797" stroke-width="2">
                            <g transform="translate(127.836158, 145.168660) scale(-1, 1) rotate(340.000000) translate(-127.836158, -145.168660) translate(35.836158, 24.168660)" id="Fill-1">
                                <path d="M71.7539953,241.153878 L63.3170777,241.153878 C57.7414805,240.758975 52.1068248,240.734369 46.6059545,239.866542 C40.7579654,238.9447 34.9178105,237.582344 29.2970155,235.738062 C24.7880857,234.258075 23.1284235,230.834179 23.5647326,226.119946 C24.2710232,218.486549 25.1358072,210.867556 25.8137738,203.231159 C26.3344521,197.357422 25.924659,191.812572 23.144092,186.191502 C16.9851422,173.740045 11.5945545,160.91229 5.86106638,148.251378 C3.56803271,143.187253 2.69481174,137.841655 2.54957623,132.348418 C2.22294699,119.997788 2.04275854,107.641756 1.58113862,95.2965266 C1.23823818,86.1357304 0.534960838,76.9881377 0.0154877701,67.8333431 C-0.159879588,64.740134 1.15145846,62.4949467 3.93985972,61.0371654 C6.86445693,59.5085656 9.91621054,59.1436701 12.280958,61.5502996 C15.466497,64.7935479 18.7822056,68.154427 20.9920754,72.0548473 C26.580328,81.9214281 28.7389737,92.7992734 28.9878627,104.086426 C29.0692187,107.77439 29.1294824,111.498965 29.7236825,115.120912 C29.9876375,116.731133 31.2604067,118.74526 32.6362269,119.39343 C33.4576211,119.780531 35.8868508,118.201518 36.6949869,116.936987 C39.581618,112.420806 42.7460647,107.904624 44.586518,102.940126 C47.881737,94.0542016 50.7297993,84.9498202 52.9842642,75.7464129 C58.1916503,54.4858518 63.0832546,33.1514714 71.1688348,12.7251285 C72.4060485,9.60011109 73.7294393,6.45708897 75.4632258,3.5925397 C77.3265793,0.51313422 80.5428528,-0.126633123 83.922441,0.501731237 C87.0055317,1.07488115 89.5691494,2.80213295 89.8355149,6.00697123 C90.1940839,10.3227001 90.4025963,14.7902687 89.6902794,19.0285773 C87.424967,32.5069028 84.5967917,45.8898033 82.1988992,59.3471233 C80.8953955,66.6600362 79.9926453,74.0449678 78.9747914,81.4064934 C78.6541886,83.7261001 79.9727583,85.7354257 81.9927974,85.8752623 C83.3511411,85.9688867 84.8800311,84.1126012 86.2600698,83.03772 C86.5993544,82.773651 86.6632339,82.1524885 86.8428197,81.6921681 C94.4661774,62.1120466 101.979855,42.4887137 109.773156,22.9758097 C112.306642,16.6327506 115.446381,10.5159506 118.552372,4.4183557 C120.180094,1.22251977 123.313806,-0.199852275 126.790419,0.0228059653 C131.213172,0.306080061 135.368956,1.88509308 136.159013,6.79557751 C136.618223,9.64932396 136.151782,12.9387844 135.15502,15.6923046 C126.241417,40.3047424 117.113877,64.8409603 108.065283,89.4053856 C107.657298,90.5126753 107.20532,91.666177 107.153494,92.8154776 C107.126375,93.4204358 107.800726,94.2846619 108.391912,94.6045456 C108.761329,94.804998 110.314324,94.9568377 110.740389,94.5355275 C111.282762,93.9989872 113.456474,92.0304723 113.744534,91.3024818 C118.697005,78.7592009 125.597198,68.9364316 130.653322,56.4357618 C134.44873,47.0529076 139.310805,38.7077247 143.316533,29.4112931 C144.476609,26.7201892 148.050849,22.1643975 151.273149,21.9849506 C158.052212,21.6086521 164.705927,25.9081768 162.440614,32.8429907 C155.214394,54.9647771 139.813404,77.1105697 132.382288,99.1657386 C130.770234,103.95139 128.230722,108.646418 126.959158,113.516692 C126.581907,114.96127 126.371586,117.231664 127.492491,118.411573 C128.137915,119.09095 130.450233,118.698448 131.732645,118.145703 C133.2308,117.500534 134.600594,116.315224 135.720896,115.087903 C145.974162,103.854165 156.103887,92.5057966 166.421032,81.3302734 C168.341636,79.248929 170.806421,77.5648885 173.263372,76.1029061 C175.835426,74.573106 178.360475,75.8856493 180.468499,77.4142491 C182.370422,78.7928097 183.844472,80.7889318 183.138784,83.3083908 C182.425864,85.8566574 181.750308,88.6389852 180.217802,90.6969235 C173.483937,99.7400889 166.405363,108.526987 159.531083,117.466926 C154.542454,123.956423 149.178985,130.234065 144.887005,137.162277 C139.55427,145.77273 135.223721,154.995342 130.330309,163.883067 C125.199458,173.201104 120.510339,182.840225 114.520128,191.585713 C109.07229,199.538393 102.167275,206.507416 95.8401897,213.854538 C93.3525043,216.743093 90.8648189,219.548227 90.4285097,223.580081 C90.1416545,226.233976 89.8089989,228.907675 89.1732169,231.493751 C88.0378488,236.11376 85.363346,239.315597 80.310235,239.97637 C77.4555436,240.349668 74.6056734,240.760175 71.7539953,241.153878"></path>
                            </g>
                        </g>
                        <g id="Right-hand" transform="translate(1084.359144, 144.701164) rotate(340.000000) translate(-1084.359144, -144.701164) translate(992.859144, 24.201164)" stroke="#7A7777" stroke-width="2">
                            <path d="M71.6293852,241 L63.2071228,241 C57.6412105,240.605348 52.0163424,240.580758 46.5250273,239.713483 C40.6871962,238.79223 34.8571858,237.430741 29.2461543,235.587634 C24.7450566,234.108589 23.0882773,230.686875 23.5238286,225.975646 C24.2288923,218.347112 25.0921742,210.732973 25.7689631,203.101441 C26.288737,197.231446 25.8796557,191.690129 23.1039186,186.072639 C16.9556671,173.629115 11.574443,160.809532 5.85091406,148.156687 C3.56186346,143.095788 2.6901593,137.753596 2.54517606,132.263858 C2.21911419,119.921096 2.03923873,107.572936 1.57842066,95.235572 C1.23611585,86.080612 0.534060116,76.9388471 0.0154893863,67.7898849 C-0.159573354,64.6986464 1.14948686,62.4548895 3.93304459,60.998037 C6.8525617,59.470411 9.89901434,59.105748 12.2596542,61.5108443 C15.4396598,64.7520264 18.749609,68.1107643 20.9556401,72.0086996 C26.5341858,81.8689946 28.6890818,92.7399097 28.9375385,104.019871 C29.0187532,107.705486 29.0789122,111.427688 29.6720801,115.047328 C29.9355766,116.656523 31.2061351,118.669367 32.5795655,119.317123 C33.3995329,119.703978 35.8245428,118.125971 36.6312753,116.862246 C39.5128922,112.348942 42.6718422,107.835637 44.5090986,102.874302 C47.7985937,93.9940385 50.6417088,84.8954573 52.8922576,75.6979134 C58.0905983,54.4508971 62.9737058,33.1301085 71.0452411,12.716779 C72.2803057,9.59375247 73.6013978,6.45273273 75.3321727,3.59000841 C77.1922895,0.512564785 80.4029763,-0.126794971 83.776694,0.501169067 C86.8544293,1.07395384 89.4135939,2.80010523 89.6794967,6.00290175 C90.0374429,10.3158811 90.2455931,14.7806035 89.5345135,19.0162119 C87.273136,32.4859506 84.4498734,45.8603251 82.0561461,59.3090716 C80.7549065,66.6173255 79.8537244,73.9975523 78.8376386,81.3543879 C78.5175927,83.6725169 79.833872,85.6805623 81.8504022,85.8203098 C83.2063865,85.9138747 84.7326207,84.0587717 86.1102622,82.9845754 C86.4489575,82.7206745 86.5127261,82.0999078 86.6919999,81.6398806 C94.3021156,62.0722333 101.802742,42.4614022 109.582506,22.9609297 C112.111591,16.6219116 115.245876,10.5090086 118.346472,4.41529831 C119.971367,1.2214984 123.099636,-0.199967476 126.570209,0.0225489118 C130.98528,0.305642537 135.133845,1.88364959 135.92253,6.79100562 C136.380942,9.64293399 135.915311,12.9302987 134.920281,15.6820647 C126.022161,40.2788223 116.910476,64.7994086 107.877599,89.3481842 C107.470323,90.4547684 107.01913,91.6075352 106.967394,92.7561036 C106.940322,93.3606765 107.613501,94.2243519 108.203661,94.5440318 C108.572436,94.7443566 110.122734,94.8960995 110.548058,94.4750577 C111.089489,93.9388592 113.259425,91.9715984 113.546985,91.2440718 C118.490853,78.708782 125.379061,68.8922706 130.426402,56.3995649 C134.215217,47.0226883 139.068847,38.6828221 143.067617,29.392313 C144.225678,26.7029236 147.793709,22.1500344 151.010412,21.9707017 C157.7777,21.5946431 164.419857,25.8914285 162.158479,32.8218244 C154.944811,54.9295172 139.570573,77.0612011 132.152365,99.102319 C130.543111,103.884922 128.00801,108.576959 126.738655,113.44413 C126.362059,114.887788 126.152104,117.156735 127.271062,118.335892 C127.915365,119.014837 130.223666,118.622584 131.50385,118.070192 C132.999404,117.425434 134.366818,116.240879 135.485174,115.01434 C145.720629,103.787758 155.832759,92.4466199 166.131982,81.2782165 C168.04925,79.1981981 170.509754,77.5152305 172.962437,76.0541795 C175.530024,74.525354 178.050687,75.8370611 180.155049,77.3646871 C182.053668,78.7423694 183.525157,80.7372198 182.820695,83.2550737 C182.109014,85.8017168 181.434632,88.582272 179.904788,90.6388992 C173.182619,99.6763033 166.116341,108.457604 159.254002,117.391847 C154.274038,123.87721 148.919886,130.150852 144.635361,137.074651 C139.311889,145.679617 134.988862,154.896354 130.10395,163.778417 C124.982011,173.090517 120.301038,182.723498 114.321232,191.463414 C108.882857,199.411027 101.989836,206.37561 95.6737412,213.718051 C93.190377,216.604767 90.7070127,219.408113 90.2714615,223.437399 C89.9851045,226.089603 89.6530268,228.761599 89.0183491,231.346028 C87.8849532,235.963093 85.2150961,239.16289 80.1707625,239.823242 C77.3210298,240.196302 74.4761099,240.606548 71.6293852,241" id="Fill-1"></path>
                        </g>
                    </g>
                </g>
                <circle id="Oval" fill-opacity="0.6" fill="#18AD70" cx="176.5" cy="42.5" r="17.5"></circle>
                <circle id="Oval" fill-opacity="0.6" fill="#FCC71E" cx="133.5" cy="18.5" r="17.5"></circle>
                <circle id="Oval" fill-opacity="0.8" fill="#FF9E20" cx="94.5" cy="31.5" r="17.5"></circle>
                <circle id="Oval" fill-opacity="0.6" fill="#DE4545" cx="59.5" cy="77.5" r="17.5"></circle>
                <circle id="Oval" fill-opacity="0.6" fill="#61DEFF" cx="1032.5" cy="36.5" r="17.5"></circle>
                <circle id="Oval" fill-opacity="0.6" fill="#2487FB" cx="1078.5" cy="21.5" r="17.5"></circle>
                <circle id="Oval" fill-opacity="0.6" fill="#7D4CCA" cx="1115.5" cy="31.5" r="17.5"></circle>
                <circle id="Oval" fill-opacity="0.6" fill="#FF07C4" cx="1150.5" cy="77.5" r="17.5"></circle>
            </g>
            <g transform="translate(276.000000, 149.000000)">
                <path d="M533.712061,0.0213672263 C538.753067,0.0213672263 543.794073,0.075148711 548.835079,0.000967352772 C551.734421,-0.0416869282 553.003692,1.32603186 552.999992,4.14770528 C552.98519,14.3726782 552.986115,24.5976512 552.998142,34.8235514 C553.001842,37.6461521 551.678913,39.0083073 548.821202,38.9999619 C538.619849,38.9693621 528.416646,38.9730711 518.215293,38.9981074 C515.366833,39.0055255 514.007824,37.5979342 514.005049,34.8105697 C513.995798,24.5846695 514.002274,14.3596965 514.001349,4.13472354 C514.001349,1.30655926 515.37886,-0.0249961226 518.230095,0.00560368766 C523.390442,0.0603124393 528.551714,0.0213672263 533.712061,0.0213672263" id="Fill-113" stroke="#FF07C4"></path>
                <path d="M690.013712,0.0128858355 C695.252958,0.0240282932 695.971044,0.643363235 695.982178,5.09106094 C696.004444,14.7162873 696.007784,24.3405852 695.981064,33.9658116 C695.968818,38.1646611 694.97129,38.9854888 689.861188,38.9892029 C665.626613,39.0040595 641.39315,39.003131 617.157461,38.9892029 C611.9839,38.9864173 611.024225,38.2008741 611.015319,34.0178097 C610.996393,24.2728019 610.993053,14.5277941 611.016432,4.78278628 C611.027565,0.654505692 611.789071,0.0240282932 616.87802,0.0138143736 C629.140038,-0.0112561563 641.400943,0.00545753031 653.662962,0.00545753031 C665.78025,0.00545753031 677.897537,-0.0103276181 690.013712,0.0128858355 Z" id="Fill-23" stroke="#FF07C4" fill="#FFFFFF"></path>
                <path d="M36.1380382,0.00545753031 C46.4020938,0.00545753031 56.6661493,-0.0103276181 66.9292618,0.0128858355 C71.3672116,0.0240282932 71.9754729,0.643363235 71.9849033,5.09106094 C72.0037641,14.7162873 72.0065933,24.3405852 71.9839603,33.9658116 C71.9735868,38.1646611 71.1286223,38.9854888 66.8000653,38.9892029 C46.2719542,39.0040595 25.7447861,39.003131 5.21573193,38.9892029 C0.83342155,38.9864173 0.0205204213,38.2008741 0.0129760953,34.0178097 C-0.0030555975,24.2728019 -0.00588471976,14.5277941 0.0139191361,4.78278628 C0.0233495436,0.654505692 0.668389419,0.0240282932 4.9790287,0.0138143736 C15.3656796,-0.0112561563 25.7513874,0.00545753031 36.1380382,0.00545753031" id="Fill-23" stroke="#DD4040" fill="#FFFFFF"></path>
                <path d="M436.325692,38.9720313 C431.419116,38.9720313 426.510696,38.8988392 421.606887,38.9979728 C418.402856,39.0628266 417.000977,37.5721161 417.006511,34.4470903 C417.023112,24.4697993 417.031413,14.4925083 417.000055,4.51521734 C416.98991,1.35776468 418.390866,-0.028253273 421.597664,0.00139416984 C431.528869,0.0903364984 441.461918,0.091262981 451.394045,0.000467687249 C454.598999,-0.0291797556 456.009178,1.34942634 455.999955,4.50595252 C455.972286,14.4832435 455.978742,24.461461 455.994421,34.438752 C455.999955,37.5554394 454.614677,39.0619001 451.403268,38.9979728 C446.378639,38.8988392 441.351243,38.9720313 436.325692,38.9720313" id="Fill-59" stroke="#2487FB" fill="#FFFFFF"></path>
                <path d="M388.470009,38.9665316 C383.560751,38.9674582 378.648724,38.8849968 373.743157,38.9971072 C370.613044,39.0693768 368.999079,37.7926147 369.000925,34.5942239 C369.006461,24.4959442 369.007384,14.3976644 369.000002,4.29938471 C368.998156,1.31316987 370.401724,-0.0219637292 373.432176,0.000273055261 C383.489696,0.0725426047 393.547216,0.0697630066 403.604736,0.00212612063 C406.654566,-0.0182575984 408.001844,1.38914555 407.999998,4.34756441 C407.994461,14.4467707 408.003689,24.5450504 407.993539,34.6424036 C407.99077,37.5887775 406.577051,39.0304624 403.555828,38.9859888 C398.527529,38.9127927 393.498308,38.9665316 388.470009,38.9665316" id="Fill-61" stroke="#61DEFF" fill="#FFFFFF"></path>
                <path d="M243.666831,0.0183342158 C248.716501,0.0183342158 253.766172,0.051721608 258.814916,0.00442280234 C261.668272,-0.0224725969 263.008302,1.28612769 262.999961,4.150024 C262.973087,14.3767677 262.981427,24.6035114 262.994401,34.8311826 C262.999035,37.6728206 261.621936,39.0064615 258.790821,38.9999695 C248.571934,38.9786386 238.353046,38.9777112 228.133232,38.9999695 C225.277096,39.0073889 223.989889,37.6626189 224.00101,34.8042872 C224.040858,24.576616 224.043639,14.3498723 224.000083,4.1231286 C223.988036,1.23511918 225.288217,-0.0345291552 228.158254,0.0007130921 C233.32747,0.0637781663 238.497614,0.0183342158 243.666831,0.0183342158" id="Fill-85" stroke="#18AD70" fill="#FFFFFF"></path>
                <path d="M581.802796,0.0347991501 C586.724654,0.0347991501 591.650215,0.103356886 596.570223,0.00978484086 C599.56147,-0.0467289689 601.010817,1.13728167 600.993233,4.24090892 C600.936777,14.3364988 600.927521,24.4330152 600.999711,34.5286051 C601.023774,37.786024 599.54481,39.0228427 596.3916,38.9996813 C586.42664,38.9255648 576.460755,38.9339029 566.49487,38.9922696 C563.253737,39.0117252 561.994118,37.4858523 562.012628,34.3525785 C562.071861,24.4969407 562.094073,14.6403764 562.000597,4.78566499 C561.968204,1.44857085 563.25096,-0.0810078371 566.674419,0.00329964958 C571.714743,0.125591828 576.759695,0.0347991501 581.802796,0.0347991501" id="Fill-89" stroke="#FF07C4" fill="#FFFFFF"></path>
                <path d="M176.025883,19.5643708 C176.026809,14.5139023 176.093517,9.46343378 176.001794,4.41481901 C175.947131,1.41456823 177.13675,-0.0183597011 180.241433,0.000177529524 C190.45696,0.0622772522 200.674341,0.0446668831 210.889869,0.013153591 C213.78609,0.00388497566 215.001651,1.39510414 214.99146,4.22573926 C214.953473,14.3257494 214.937723,24.4266864 214.999798,34.5266965 C215.020181,37.7809073 213.497024,39.0210481 210.358987,38.9997303 C200.503866,38.9339231 190.647818,38.9960228 180.79177,38.9663632 C176.823595,38.9533872 176.055531,38.124773 176.031442,33.9937511 C176.003647,29.1833398 176.024956,24.3738553 176.025883,19.5643708" id="Fill-91" stroke="#FBC311" fill="#FFFFFF"></path>
                <path d="M166.971185,19.6442515 C166.970258,24.6974013 166.933179,29.7505511 166.98509,34.8027735 C167.013826,37.6645867 165.693809,39.0046127 162.842425,38.9999759 C152.620636,38.9795741 142.398848,38.9786468 132.176133,38.9999759 C129.339579,39.0064674 127.995461,37.7007535 128.005658,34.8287394 C128.039956,24.6018839 128.047372,14.3759557 128.000096,4.15002747 C127.987118,1.26039364 129.289523,-0.00451667774 132.150177,0.00568421191 C142.371966,0.0437057097 152.594681,0.0539065993 162.816469,0.000120090284 C165.953363,-0.015644921 167.052759,1.52098 166.998068,4.48572947 C166.903516,9.53702456 166.971185,14.5911017 166.971185,19.6442515" id="Fill-93" stroke="#FF8F00" fill="#FFFFFF"></path>
                <path d="M80.0015692,4.41211152 C79.9496705,1.40437397 81.1813357,-0.0165387177 84.2655958,0.000145188609 C94.4849877,0.054831326 104.70438,0.0446356054 114.923771,0.00941402545 C117.830093,-0.000781695075 119.00708,1.37193304 118.991325,4.2202466 C118.936646,14.321425 118.918111,24.4226034 118.999666,34.5228549 C119.025615,37.7966081 117.541871,39.0219483 114.392737,38.9997031 C104.534782,38.9311137 94.6759004,38.9941418 84.8160917,38.9644815 C80.8866258,38.952432 80.0534678,38.0607699 80.0312255,33.9926774 C80.006203,29.1821511 80.0256649,24.3725517 80.0256649,19.5629522 C80.0256649,14.512363 80.0896114,9.46084695 80.0015692,4.41211152 Z" id="Fill-95" stroke="#DD4040" fill="#FFFFFF"></path>
                <path d="M485.602536,0.037989703 C490.51492,0.037989703 495.430998,0.131567779 500.34061,0.00370862568 C503.505301,-0.0778247474 505.014672,1.17853041 504.999893,4.41484941 C504.95463,14.5110899 504.971257,24.6073305 504.986037,34.703571 C504.990655,37.7165997 503.54964,39.0174276 500.547525,38.9998238 C490.480742,38.9396003 480.414882,38.949792 470.349022,38.9914852 C467.288712,39.0044564 466.013968,37.4701466 466.016739,34.5497694 C466.025053,24.5739759 466.047222,14.5972559 466.000112,4.62146239 C465.986256,1.50003132 467.252687,-0.0500292793 470.503285,0.0129737817 C475.535753,0.11025792 480.569144,0.037989703 485.602536,0.037989703" id="Fill-115" stroke="#7D4CCA" fill="#FFFFFF"></path>
                <path d="M292.54538,0.0308443008 C297.584741,0.0308443008 302.625027,0.0845841584 307.662539,0.0113867661 C310.726478,-0.0330875988 312.008283,1.43363989 311.99996,4.40415685 C311.969441,14.5007642 311.984238,24.5982982 311.988862,34.6958321 C311.990712,37.7006314 310.502671,39.0052128 307.515492,38.9894614 C297.557921,38.9375747 287.598501,38.9218233 277.64093,38.9996535 C274.494682,39.0237438 272.981671,37.7942129 273.000168,34.5457311 C273.057507,24.4491237 273.044559,14.3515898 273.006641,4.25405587 C272.994619,1.19829638 274.409598,-0.0590309784 277.428221,0.00212127343 C282.465732,0.104041693 287.506019,0.0299177515 292.54538,0.0308443008" id="Fill-117" stroke="#18AD70" fill="#FFFFFF"></path>
                <path d="M340.341485,38.9708219 C335.427634,38.9708219 330.512859,38.8957811 325.600856,38.9976883 C322.417338,39.0643913 320.990021,37.6904957 321.004802,34.4943126 C321.053765,24.5194417 321.057461,14.5436445 321.000183,4.56877369 C320.98263,1.4281763 322.224258,-0.0309508036 325.493692,0.000547813218 C335.440567,0.0959700937 345.388367,0.0987493834 355.334319,0.000547813218 C358.778357,-0.0337300934 360.023679,1.54027432 359.99966,4.82168905 C359.930373,14.5556881 359.997812,24.29154 359.963631,34.0264655 C359.950697,37.9174711 358.915084,38.9374704 355.083037,38.962484 C350.169187,38.9958355 345.255336,38.9708219 340.341485,38.9708219" id="Fill-119" stroke="#61DEFF" fill="#FFFFFF"></path>
            </g>
            <text id="“-‘" font-family="AvenirNext-DemiBold, Avenir Next" font-size="12" font-weight="500" fill="#4A4A4A">
                <tspan x="856.21" y="165">“</tspan>
                <tspan x="857.38" y="181">‘</tspan>
            </text>
            <text id=":-;" font-family="AvenirNext-DemiBold, Avenir Next" font-size="12" font-weight="500" fill="#4A4A4A">
                <tspan x="809.2" y="163">:</tspan>
                <tspan x="809.2" y="179">;</tspan>
            </text>
            <text id="L" font-family="AvenirNext-DemiBold, Avenir Next" font-size="12" font-weight="500" fill="#4A4A4A">
                <tspan x="759.434" y="172">L</tspan>
            </text>
            <text id="K" font-family="AvenirNext-DemiBold, Avenir Next" font-size="12" font-weight="500" fill="#4A4A4A">
                <tspan x="709.366" y="172">K</tspan>
            </text>
            <text id="J" font-family="AvenirNext-DemiBold, Avenir Next" font-size="12" font-weight="500" fill="#4A4A4A">
                <tspan x="663.012" y="172">J</tspan>
            </text>
            <text id="H" font-family="AvenirNext-DemiBold, Avenir Next" font-size="12" font-weight="500" fill="#4A4A4A">
                <tspan x="613.066" y="172">H</tspan>
            </text>
            <text id="G" font-family="AvenirNext-DemiBold, Avenir Next" font-size="12" font-weight="500" fill="#4A4A4A">
                <tspan x="565.362" y="172">G</tspan>
            </text>
            <text id="F" font-family="AvenirNext-DemiBold, Avenir Next" font-size="12" font-weight="500" fill="#4A4A4A">
                <tspan x="517.062" y="172">F</tspan>
            </text>
            <text id="D" font-family="AvenirNext-DemiBold, Avenir Next" font-size="12" font-weight="500" fill="#4A4A4A">
                <tspan x="468.416" y="172">D</tspan>
            </text>
            <text id="S" font-family="AvenirNext-DemiBold, Avenir Next" font-size="12" font-weight="500" fill="#4A4A4A">
                <tspan x="421.056" y="172">S</tspan>
            </text>
            <text id="caps-lock" font-family="AvenirNext-DemiBold, Avenir Next" font-size="12" font-weight="500" fill="#4A4A4A">
                <tspan x="287.356" y="174">caps lock</tspan>
            </text>
            <text id="A" font-family="AvenirNext-DemiBold, Avenir Next" font-size="12" font-weight="500" fill="#4A4A4A">
                <tspan x="372" y="172">A</tspan>
            </text>
            <text id="enter-return" font-family="AvenirNext-DemiBold, Avenir Next" font-size="12" font-weight="500" fill="#4A4A4A">
                <tspan x="927.396" y="164">enter</tspan>
                <tspan x="925.272" y="180">return</tspan>
            </text>
        </g>
    </g>
</svg>