<?xml version="1.0" encoding="UTF-8"?>
<svg width="1248px" height="337px" viewBox="0 0 1248 337" version="1.1" xmlns="http://www.w3.org/2000/svg" xmlns:xlink="http://www.w3.org/1999/xlink">
    <!-- Generator: Sketch 48.2 (47327) - http://www.bohemiancoding.com/sketch -->
    <title>Number Row</title>
    <desc>Created with Sketch.</desc>
    <defs>
        <polygon id="path-1" points="0 0.69260241 703.206708 0.69260241 703.206708 234 0 234"></polygon>
    </defs>
    <g id="Tutorial-Graphics" stroke="none" stroke-width="1" fill="none" fill-rule="evenodd">
        <g id="Number-Row">
            <g id="Hands-with-color" transform="translate(9.000000, 22.000000)">
                <g id="Hands" fill="#FFFFFF">
                    <g transform="translate(0.000000, 1.000000)">
                        <g id="Left-hand" stroke="#979797" stroke-width="2">
                            <g transform="translate(127.836158, 145.168660) scale(-1, 1) rotate(340.000000) translate(-127.836158, -145.168660) translate(35.836158, 24.168660)" id="Fill-1">
                                <path d="M71.7539953,241.153878 L63.3170777,241.153878 C57.7414805,240.758975 52.1068248,240.734369 46.6059545,239.866542 C40.7579654,238.9447 34.9178105,237.582344 29.2970155,235.738062 C24.7880857,234.258075 23.1284235,230.834179 23.5647326,226.119946 C24.2710232,218.486549 25.1358072,210.867556 25.8137738,203.231159 C26.3344521,197.357422 25.924659,191.812572 23.144092,186.191502 C16.9851422,173.740045 11.5945545,160.91229 5.86106638,148.251378 C3.56803271,143.187253 2.69481174,137.841655 2.54957623,132.348418 C2.22294699,119.997788 2.04275854,107.641756 1.58113862,95.2965266 C1.23823818,86.1357304 0.534960838,76.9881377 0.0154877701,67.8333431 C-0.159879588,64.740134 1.15145846,62.4949467 3.93985972,61.0371654 C6.86445693,59.5085656 9.91621054,59.1436701 12.280958,61.5502996 C15.466497,64.7935479 18.7822056,68.154427 20.9920754,72.0548473 C26.580328,81.9214281 28.7389737,92.7992734 28.9878627,104.086426 C29.0692187,107.77439 29.1294824,111.498965 29.7236825,115.120912 C29.9876375,116.731133 31.2604067,118.74526 32.6362269,119.39343 C33.4576211,119.780531 35.8868508,118.201518 36.6949869,116.936987 C39.581618,112.420806 42.7460647,107.904624 44.586518,102.940126 C47.881737,94.0542016 50.7297993,84.9498202 52.9842642,75.7464129 C58.1916503,54.4858518 63.0832546,33.1514714 71.1688348,12.7251285 C72.4060485,9.60011109 73.7294393,6.45708897 75.4632258,3.5925397 C77.3265793,0.51313422 80.5428528,-0.126633123 83.922441,0.501731237 C87.0055317,1.07488115 89.5691494,2.80213295 89.8355149,6.00697123 C90.1940839,10.3227001 90.4025963,14.7902687 89.6902794,19.0285773 C87.424967,32.5069028 84.5967917,45.8898033 82.1988992,59.3471233 C80.8953955,66.6600362 79.9926453,74.0449678 78.9747914,81.4064934 C78.6541886,83.7261001 79.9727583,85.7354257 81.9927974,85.8752623 C83.3511411,85.9688867 84.8800311,84.1126012 86.2600698,83.03772 C86.5993544,82.773651 86.6632339,82.1524885 86.8428197,81.6921681 C94.4661774,62.1120466 101.979855,42.4887137 109.773156,22.9758097 C112.306642,16.6327506 115.446381,10.5159506 118.552372,4.4183557 C120.180094,1.22251977 123.313806,-0.199852275 126.790419,0.0228059653 C131.213172,0.306080061 135.368956,1.88509308 136.159013,6.79557751 C136.618223,9.64932396 136.151782,12.9387844 135.15502,15.6923046 C126.241417,40.3047424 117.113877,64.8409603 108.065283,89.4053856 C107.657298,90.5126753 107.20532,91.666177 107.153494,92.8154776 C107.126375,93.4204358 107.800726,94.2846619 108.391912,94.6045456 C108.761329,94.804998 110.314324,94.9568377 110.740389,94.5355275 C111.282762,93.9989872 113.456474,92.0304723 113.744534,91.3024818 C118.697005,78.7592009 125.597198,68.9364316 130.653322,56.4357618 C134.44873,47.0529076 139.310805,38.7077247 143.316533,29.4112931 C144.476609,26.7201892 148.050849,22.1643975 151.273149,21.9849506 C158.052212,21.6086521 164.705927,25.9081768 162.440614,32.8429907 C155.214394,54.9647771 139.813404,77.1105697 132.382288,99.1657386 C130.770234,103.95139 128.230722,108.646418 126.959158,113.516692 C126.581907,114.96127 126.371586,117.231664 127.492491,118.411573 C128.137915,119.09095 130.450233,118.698448 131.732645,118.145703 C133.2308,117.500534 134.600594,116.315224 135.720896,115.087903 C145.974162,103.854165 156.103887,92.5057966 166.421032,81.3302734 C168.341636,79.248929 170.806421,77.5648885 173.263372,76.1029061 C175.835426,74.573106 178.360475,75.8856493 180.468499,77.4142491 C182.370422,78.7928097 183.844472,80.7889318 183.138784,83.3083908 C182.425864,85.8566574 181.750308,88.6389852 180.217802,90.6969235 C173.483937,99.7400889 166.405363,108.526987 159.531083,117.466926 C154.542454,123.956423 149.178985,130.234065 144.887005,137.162277 C139.55427,145.77273 135.223721,154.995342 130.330309,163.883067 C125.199458,173.201104 120.510339,182.840225 114.520128,191.585713 C109.07229,199.538393 102.167275,206.507416 95.8401897,213.854538 C93.3525043,216.743093 90.8648189,219.548227 90.4285097,223.580081 C90.1416545,226.233976 89.8089989,228.907675 89.1732169,231.493751 C88.0378488,236.11376 85.363346,239.315597 80.310235,239.97637 C77.4555436,240.349668 74.6056734,240.760175 71.7539953,241.153878"></path>
                            </g>
                        </g>
                        <g id="Right-hand" transform="translate(1084.359144, 144.701164) rotate(340.000000) translate(-1084.359144, -144.701164) translate(992.859144, 24.201164)" stroke="#7A7777" stroke-width="2">
                            <path d="M71.6293852,241 L63.2071228,241 C57.6412105,240.605348 52.0163424,240.580758 46.5250273,239.713483 C40.6871962,238.79223 34.8571858,237.430741 29.2461543,235.587634 C24.7450566,234.108589 23.0882773,230.686875 23.5238286,225.975646 C24.2288923,218.347112 25.0921742,210.732973 25.7689631,203.101441 C26.288737,197.231446 25.8796557,191.690129 23.1039186,186.072639 C16.9556671,173.629115 11.574443,160.809532 5.85091406,148.156687 C3.56186346,143.095788 2.6901593,137.753596 2.54517606,132.263858 C2.21911419,119.921096 2.03923873,107.572936 1.57842066,95.235572 C1.23611585,86.080612 0.534060116,76.9388471 0.0154893863,67.7898849 C-0.159573354,64.6986464 1.14948686,62.4548895 3.93304459,60.998037 C6.8525617,59.470411 9.89901434,59.105748 12.2596542,61.5108443 C15.4396598,64.7520264 18.749609,68.1107643 20.9556401,72.0086996 C26.5341858,81.8689946 28.6890818,92.7399097 28.9375385,104.019871 C29.0187532,107.705486 29.0789122,111.427688 29.6720801,115.047328 C29.9355766,116.656523 31.2061351,118.669367 32.5795655,119.317123 C33.3995329,119.703978 35.8245428,118.125971 36.6312753,116.862246 C39.5128922,112.348942 42.6718422,107.835637 44.5090986,102.874302 C47.7985937,93.9940385 50.6417088,84.8954573 52.8922576,75.6979134 C58.0905983,54.4508971 62.9737058,33.1301085 71.0452411,12.716779 C72.2803057,9.59375247 73.6013978,6.45273273 75.3321727,3.59000841 C77.1922895,0.512564785 80.4029763,-0.126794971 83.776694,0.501169067 C86.8544293,1.07395384 89.4135939,2.80010523 89.6794967,6.00290175 C90.0374429,10.3158811 90.2455931,14.7806035 89.5345135,19.0162119 C87.273136,32.4859506 84.4498734,45.8603251 82.0561461,59.3090716 C80.7549065,66.6173255 79.8537244,73.9975523 78.8376386,81.3543879 C78.5175927,83.6725169 79.833872,85.6805623 81.8504022,85.8203098 C83.2063865,85.9138747 84.7326207,84.0587717 86.1102622,82.9845754 C86.4489575,82.7206745 86.5127261,82.0999078 86.6919999,81.6398806 C94.3021156,62.0722333 101.802742,42.4614022 109.582506,22.9609297 C112.111591,16.6219116 115.245876,10.5090086 118.346472,4.41529831 C119.971367,1.2214984 123.099636,-0.199967476 126.570209,0.0225489118 C130.98528,0.305642537 135.133845,1.88364959 135.92253,6.79100562 C136.380942,9.64293399 135.915311,12.9302987 134.920281,15.6820647 C126.022161,40.2788223 116.910476,64.7994086 107.877599,89.3481842 C107.470323,90.4547684 107.01913,91.6075352 106.967394,92.7561036 C106.940322,93.3606765 107.613501,94.2243519 108.203661,94.5440318 C108.572436,94.7443566 110.122734,94.8960995 110.548058,94.4750577 C111.089489,93.9388592 113.259425,91.9715984 113.546985,91.2440718 C118.490853,78.708782 125.379061,68.8922706 130.426402,56.3995649 C134.215217,47.0226883 139.068847,38.6828221 143.067617,29.392313 C144.225678,26.7029236 147.793709,22.1500344 151.010412,21.9707017 C157.7777,21.5946431 164.419857,25.8914285 162.158479,32.8218244 C154.944811,54.9295172 139.570573,77.0612011 132.152365,99.102319 C130.543111,103.884922 128.00801,108.576959 126.738655,113.44413 C126.362059,114.887788 126.152104,117.156735 127.271062,118.335892 C127.915365,119.014837 130.223666,118.622584 131.50385,118.070192 C132.999404,117.425434 134.366818,116.240879 135.485174,115.01434 C145.720629,103.787758 155.832759,92.4466199 166.131982,81.2782165 C168.04925,79.1981981 170.509754,77.5152305 172.962437,76.0541795 C175.530024,74.525354 178.050687,75.8370611 180.155049,77.3646871 C182.053668,78.7423694 183.525157,80.7372198 182.820695,83.2550737 C182.109014,85.8017168 181.434632,88.582272 179.904788,90.6388992 C173.182619,99.6763033 166.116341,108.457604 159.254002,117.391847 C154.274038,123.87721 148.919886,130.150852 144.635361,137.074651 C139.311889,145.679617 134.988862,154.896354 130.10395,163.778417 C124.982011,173.090517 120.301038,182.723498 114.321232,191.463414 C108.882857,199.411027 101.989836,206.37561 95.6737412,213.718051 C93.190377,216.604767 90.7070127,219.408113 90.2714615,223.437399 C89.9851045,226.089603 89.6530268,228.761599 89.0183491,231.346028 C87.8849532,235.963093 85.2150961,239.16289 80.1707625,239.823242 C77.3210298,240.196302 74.4761099,240.606548 71.6293852,241" id="Fill-1"></path>
                        </g>
                    </g>
                </g>
                <circle id="Oval" fill-opacity="0.6" fill="#18AD70" cx="176.5" cy="42.5" r="17.5"></circle>
                <circle id="Oval" fill-opacity="0.6" fill="#FCC71E" cx="133.5" cy="18.5" r="17.5"></circle>
                <circle id="Oval" fill-opacity="0.8" fill="#FF9E20" cx="94.5" cy="31.5" r="17.5"></circle>
                <circle id="Oval" fill-opacity="0.6" fill="#DE4545" cx="59.5" cy="77.5" r="17.5"></circle>
                <circle id="Oval" fill-opacity="0.6" fill="#61DEFF" cx="1032.5" cy="36.5" r="17.5"></circle>
                <circle id="Oval" fill-opacity="0.6" fill="#2487FB" cx="1078.5" cy="21.5" r="17.5"></circle>
                <circle id="Oval" fill-opacity="0.6" fill="#7D4CCA" cx="1115.5" cy="31.5" r="17.5"></circle>
                <circle id="Oval" fill-opacity="0.6" fill="#FF07C4" cx="1150.5" cy="77.5" r="17.5"></circle>
            </g>
            <g id="Number-row-keyboard" transform="translate(265.000000, 143.000000)">
                <g id="Group-3">
                    <mask id="mask-2" fill="white">
                        <use xlink:href="#path-1"></use>
                    </mask>
                    <g id="Clip-2"></g>
                </g>
                <path d="M308.242066,41.9611398 C303.452801,41.9611398 298.659843,41.8601092 293.87427,41.9954346 C290.547904,42.089977 288.986247,40.7218926 289.000091,37.3545141 C289.038856,27.3738006 289.019473,17.3921603 289.011167,7.41144684 C289.008398,4.48804693 290.248863,2.98741774 293.342642,3.00780924 C303.401115,3.07639884 313.460511,3.08566771 323.518061,3.00039415 C326.538003,2.97444133 327.99075,4.22851872 327.989827,7.23997284 C327.987058,17.3411815 327.979674,27.4423902 327.999979,37.5435989 C328.00644,40.7256002 326.505699,42.0705124 323.329776,41.9935809 C318.302385,41.8721587 313.271303,41.9611398 308.242066,41.9611398" id="Fill-57" stroke="#61DEFF" fill="#FFFFFF"></path>
                <path d="M261.816925,3.02970583 C266.727542,3.02970583 271.639082,3.10295955 276.54693,3.00281522 C279.577297,2.94161591 280.997868,4.3093278 280.997868,7.29140334 C280.999714,17.3976351 281.001561,27.5038669 280.997868,37.6091714 C280.996945,40.5374657 279.670525,42.01274 276.613389,41.9941948 C266.553086,41.93485 256.492783,41.9283592 246.433403,41.9997584 C243.391036,42.0210854 242.006463,40.6311192 242.00554,37.6731525 C242.001848,27.567848 242.008309,17.4616162 242.000002,7.3563117 C241.998156,4.41132665 243.282116,2.93976139 246.368789,3.00188796 C251.515707,3.10481408 256.667239,3.02970583 261.816925,3.02970583" id="Fill-67" stroke="#18AD70" fill="#FFFFFF"></path>
                <path d="M1.04180032,22.3905154 C1.04180032,17.4607142 1.14468149,12.526278 1.00472602,7.60018474 C0.913893991,4.40665987 2.12344293,2.97258644 5.40729878,3.00039653 C15.5072641,3.08568079 25.6072295,3.06899474 35.7071948,3.01059356 C38.7945569,2.9920535 40.0068864,4.41036788 39.9892761,7.41200316 C39.9290304,17.393043 39.9040052,27.3750098 39.9994715,37.3560497 C40.0328384,40.8100624 38.4868402,42.0309251 35.1742518,41.999407 C25.4357608,41.9048527 15.696343,41.980867 5.95692523,41.9586189 C1.78606683,41.9493489 1.06682547,41.2346297 1.04736146,37.1827002 C1.02326317,32.2519719 1.04180032,27.3212437 1.04180032,22.3905154" id="Fill-73" stroke="#DD4040" fill="#FFFFFF"></path>
                <path d="M49.0032187,7.64281402 C48.9309513,4.50646361 50.0659211,2.9707462 53.3883717,3.0004219 C63.4826547,3.08852163 73.5797172,3.06997432 83.6749267,3.01062292 C86.733323,2.99207561 88.0156074,4.35252092 87.9998568,7.3766601 C87.9433399,17.4812355 87.9488989,27.5867383 87.9952242,37.6922411 C88.0091218,40.7534749 86.5813761,42.0156195 83.5841291,41.9998543 C73.4889196,41.9479218 63.3927836,41.9507039 53.2966476,41.9979995 C50.2410308,42.0128374 48.9568934,40.6236437 49.0097043,37.5957951 C49.0986489,32.5444347 49.0337934,27.4912197 49.0337934,22.4389319 C49.0337934,17.5062744 49.117179,12.5726895 49.0032187,7.64281402 Z" id="Fill-75" stroke="#DD4040" fill="#FFFFFF"></path>
                <path d="M520.974249,22.5093193 C520.973322,27.562593 520.913077,32.6167943 520.995567,37.6691404 C521.046543,40.7430298 519.643291,42.0156237 516.632878,41.9998554 C506.533907,41.9488403 496.433083,41.9525505 486.33504,41.9980003 C483.299602,42.0119135 481.983473,40.6437823 482.000157,37.6144152 C482.055768,27.5078677 482.056694,17.4003927 482.000157,7.29384528 C481.983473,4.21995594 483.372823,2.98168127 486.390651,3.00115975 C496.490548,3.06516046 506.590445,3.06701555 516.689416,3.0002322 C519.753586,2.97982618 521.053031,4.30343514 520.998347,7.34949808 C520.909369,12.4009167 520.974249,17.4560455 520.974249,22.5093193" id="Fill-77" stroke="#FF07C4"></path>
                <path d="M580.04043,22.5299859 C580.04043,17.4783872 580.105251,12.4267884 580.016354,7.37704387 C579.962646,4.35479909 581.207199,2.98273705 584.291727,3.00405963 C594.381496,3.0708086 604.473116,3.08007929 614.561958,3.00035136 C617.851134,2.97346636 619.019755,4.48922409 618.993826,7.63198783 C618.916042,17.4922932 618.904004,27.3553798 618.999382,37.2156851 C619.032719,40.5688935 617.719641,42.0299542 614.312863,41.9975068 C604.46293,41.9047999 594.611145,41.9020187 584.763064,41.9993609 C581.421106,42.0327354 579.908012,40.7626509 580.004316,37.321371 C580.142291,32.3939995 580.039504,27.4601386 580.04043,22.5299859" id="Fill-79" stroke="#FF07C4" fill="#FFFFFF"></path>
                <path d="M627.074641,22.5299859 C627.074641,17.4783872 627.194309,12.4267884 627.030193,7.37704387 C626.931039,4.35479909 629.228675,2.98273705 634.923188,3.00405963 C653.550453,3.0708086 672.181137,3.08007929 690.806693,3.00035136 C696.879017,2.97346636 699.03647,4.48922409 698.988602,7.63198783 C698.845,17.4922932 698.822776,27.3553798 698.99886,37.2156851 C699.060404,40.5688935 696.636261,42.0299542 690.346823,41.9975068 C672.162332,41.9047999 653.974422,41.9020187 635.79335,41.9993609 C629.623581,42.0327354 626.830175,40.7626509 627.007968,37.321371 C627.262691,32.3939995 627.072931,27.4601386 627.074641,22.5299859" id="Fill-79" stroke="#FF07C4" fill="#FFFFFF"></path>
                <path d="M570.968565,22.1982251 C570.967639,27.2501474 570.887031,32.3039244 570.997288,37.3530648 C571.065851,40.5114436 569.840975,42.0220129 566.57124,41.9997577 C556.474811,41.9320649 546.379308,41.9487563 536.283805,41.9904847 C533.21976,42.0034669 531.992104,40.562445 532.010635,37.5570705 C532.073639,27.5737746 532.087537,17.5895514 532.000443,7.60718286 C531.973573,4.43674922 533.166021,2.97347215 536.443168,3.00036381 C546.538671,3.08196608 556.635101,3.0699112 566.730604,3.0068549 C569.821518,2.98738163 571.049174,4.38852969 570.992655,7.40317718 C570.901855,12.3336234 570.968565,17.2668516 570.968565,22.1982251" id="Fill-81" stroke="#FF07C4" fill="#FFFFFF"></path>
                <path d="M116.605579,3.03660093 C121.527244,3.03660093 126.449834,3.11817752 131.369649,3.00786373 C134.541574,2.93648421 136.017426,4.23892855 135.999845,7.46861971 C135.947103,17.4497003 135.948953,27.4307808 135.999845,37.4127884 C136.0165,40.570173 134.675742,42.0172304 131.458478,41.9949822 C121.495784,41.9263837 111.532164,41.9189677 101.570396,41.9996173 C98.3827409,42.0255735 96.9781371,40.7333262 97.0012696,37.499927 C97.0743682,27.5188465 97.0743682,17.5377659 97.0003443,7.55668534 C96.9762865,4.38446859 98.2106353,2.92165211 101.482492,3.00322869 C106.520745,3.1293016 111.56455,3.03660093 116.605579,3.03660093" id="Fill-83" stroke="#FF8F00" fill="#FFFFFF"></path>
                <path d="M424.973111,22.7318323 C424.973111,27.6625725 424.906502,32.5942397 424.995314,37.5231259 C425.055448,40.7694979 423.572464,42.0246628 420.401116,41.9996337 C410.441162,41.9180572 400.478432,41.9264002 390.518478,41.9931446 C387.286072,42.0153927 385.984413,40.5275495 386.000141,37.3868562 C386.051948,27.4057921 386.051023,17.423801 386.001066,7.44273693 C385.984413,4.20100004 387.498852,2.97642628 390.655397,3.00423644 C400.616277,3.09044791 410.578081,3.09786395 420.538961,3.00052842 C423.826875,2.96808324 425.055448,4.4290433 424.99809,7.57993369 C424.907427,12.6293306 424.974036,17.6805814 424.973111,22.7318323" id="Fill-87" stroke="#2487FB" fill="#FFFFFF"></path>
                <path d="M472.985767,22.6809778 C472.985767,27.7359589 472.954272,32.791868 472.997809,37.8468491 C473.022819,40.7167201 471.682443,42.009229 468.829398,41.9999504 C458.614939,41.9646917 448.400481,41.9702589 438.186949,41.996239 C435.333903,42.0036619 433.998159,40.6359962 434.000938,37.8125183 C434.01298,27.5810063 434.014833,17.3494943 434.000012,7.11891017 C433.99538,4.25831785 435.373735,2.99086112 438.223075,3.0029233 C448.436607,3.04560486 458.650139,3.05209988 468.864598,3.00013972 C471.764885,2.9843661 473.023745,4.30378299 472.999661,7.15416885 C472.953346,12.328844 472.985767,17.5053748 472.985767,22.6809778" id="Fill-99" stroke="#7D4CCA" fill="#FFFFFF"></path>
                <path d="M184.973929,22.5075765 C184.973929,27.436113 184.912918,32.365576 184.995191,37.2922593 C185.050656,40.6585636 183.547552,42.0280648 180.197461,41.9956342 C170.364427,41.8992687 160.529543,41.8927826 150.697433,41.9993405 C147.284482,42.0354776 145.971808,40.5881427 146.001389,37.2450031 C146.088285,27.3888568 146.089209,17.5308574 146.000465,7.67563766 C145.970883,4.29265466 147.35104,2.95836392 150.743654,3.00098709 C160.575764,3.12422367 170.411572,3.11403117 180.243682,3.00747323 C183.629826,2.9704096 185.061749,4.36678193 184.997964,7.72289379 C184.904598,12.6495771 184.973929,17.5790401 184.973929,22.5075765" id="Fill-105" stroke="#FBC311" fill="#FFFFFF"></path>
                <path d="M357.453796,41.9685318 C352.539759,41.9685318 347.622951,41.8869425 342.710763,41.9972736 C339.568108,42.0677371 337.99447,40.7771416 338.000015,37.5710501 C338.018495,27.4678752 338.011103,17.3656274 338.005559,7.26245247 C338.003711,4.2492086 339.473856,2.98086472 342.479753,3.00218921 C352.548076,3.07543422 362.618247,3.08192428 372.686569,3.00033491 C375.806123,2.97437465 377.005525,4.45781779 376.999981,7.38854514 C376.9815,17.4917201 376.98612,27.5939678 376.994437,37.6971428 C376.997209,40.6927707 375.58343,42.0482669 372.557204,41.993565 C367.523967,41.9008498 362.487957,41.9685318 357.453796,41.9685318" id="Fill-123" stroke="#61DEFF" fill="#FFFFFF"></path>
                <path d="M213.185553,41.9643221 C208.275605,41.9643221 203.362887,41.8938679 198.454785,41.9893519 C195.42646,42.0486818 194.006471,40.6738978 194.006471,37.6953536 C194.005548,27.5944457 194.012011,17.4926107 194.000008,7.39170275 C193.996315,4.46970735 195.204875,2.97533661 198.320911,3.00036639 C208.380858,3.08101792 218.441728,3.08472603 228.501675,3.00036639 C231.778359,2.97255552 233.006308,4.52811018 232.996152,7.62067891 C232.961068,17.4805593 232.951835,27.3422938 232.999845,37.2031012 C233.016464,40.4792217 231.696188,42.0820548 228.275474,41.9967681 C223.24827,41.8706922 218.215527,41.9643221 213.185553,41.9643221" id="Fill-125" stroke="#18AD70" fill="#FFFFFF"></path>
            </g>
            <g id="Number-Row-Keys" transform="translate(282.000000, 145.000000)" fill="#4A4A4A" font-family="AvenirNext-DemiBold, Avenir Next" font-size="12" font-weight="500">
                <text id="delete">
                    <tspan x="625.216" y="24">delete</tspan>
                </text>
                <text id="+-=">
                    <tspan x="579.004" y="16">+</tspan>
                    <tspan x="579.004" y="32">=</tspan>
                </text>
                <text id="*-8">
                    <tspan x="386.222" y="16">*</tspan>
                    <tspan x="385.34" y="32">8</tspan>
                </text>
                <text id="(-9">
                    <tspan x="435.02" y="16">(</tspan>
                    <tspan x="433.34" y="32">9</tspan>
                </text>
                <text id=")-0">
                    <tspan x="483.02" y="16">)</tspan>
                    <tspan x="481.34" y="32">0</tspan>
                </text>
                <text id="_--">
                    <tspan x="532" y="12">_</tspan>
                    <tspan x="533.08" y="28">-</tspan>
                </text>
                <text id="&amp;-7">
                    <tspan x="336.054" y="16">&amp;</tspan>
                    <tspan x="336.84" y="32">7</tspan>
                </text>
                <text id="$-4">
                    <tspan x="193.34" y="16">$</tspan>
                    <tspan x="193.34" y="32">4</tspan>
                </text>
                <text id="%-5">
                    <tspan x="239.42" y="16">%</tspan>
                    <tspan x="241.34" y="32">5</tspan>
                </text>
                <text id="^-6">
                    <tspan x="288.004" y="16">^</tspan>
                    <tspan x="288.34" y="32">6</tspan>
                </text>
                <text id="@-2">
                    <tspan x="95.2" y="16">@</tspan>
                    <tspan x="96.34" y="32">2</tspan>
                </text>
                <text id="#-3">
                    <tspan x="145.448" y="16">#</tspan>
                    <tspan x="145.34" y="32">3</tspan>
                </text>
                <text id="!-1">
                    <tspan x="49.96" y="16">!</tspan>
                    <tspan x="48.34" y="32">1</tspan>
                </text>
                <text id="~-`">
                    <tspan x="0.004" y="16">~</tspan>
                    <tspan x="2.44" y="32">`</tspan>
                </text>
            </g>
        </g>
    </g>
</svg>