<?xml version="1.0" encoding="UTF-8"?>
<svg viewBox="0 0 888 337" version="1.1" xmlns="http://www.w3.org/2000/svg" xmlns:xlink="http://www.w3.org/1999/xlink">
    <!-- Generator: Sketch 48.2 (47327) - http://www.bohemiancoding.com/sketch -->
    <title>Posture</title>
    <desc>Created with Sketch.</desc>
    <defs>
        <polygon id="path-1" points="0 0 64 0 64 125 0 125"></polygon>
    </defs>
    <g id="Tutorial-Graphics" stroke="none" stroke-width="1" fill="none" fill-rule="evenodd">
        <g id="Posture">
            <g id="sitting-silhouette" transform="translate(268.000000, 165.500000) scale(-1, 1) translate(-268.000000, -165.500000) translate(236.000000, 103.000000)">
                <mask id="mask-2" fill="white">
                    <use xlink:href="#path-1"></use>
                </mask>
                <g id="Clip-2"></g>
                <path d="M13.8677265,24.9941051 C6.96539233,25.2040969 1.20666737,19.777752 1.00557635,12.8783532 C0.801415234,5.97895431 6.22857026,0.21584469 13.1301369,0.00585284107 C20.0286335,-0.20336126 25.7911961,5.22220591 25.9945897,12.1216048 C26.1956807,19.0210036 20.7662231,24.784891 13.8677265,24.9941051 Z" id="Fill-1" fill="#52B094" mask="url(#mask-2)"></path>
                <path d="M0.0309321278,35.5834001 C-0.140762166,33.9051553 0.40803238,32.2308372 1.53462918,30.9758839 C2.66436195,29.7209306 4.269194,29 5.95712923,29 L21.9889859,29 C24.594976,29 26.7721223,30.9821665 27.0237838,33.5800298 L31.0566398,75.3468857 L54.879811,75.3468857 C57.2992109,75.3468857 59.6237478,76.3096972 61.3320668,78.0279937 C63.0443058,79.7431488 64.0031283,82.0708594 63.9999923,84.49438 L63.9474649,118.187284 C63.9419769,121.959997 60.8851913,125 57.1212447,125 L57.1094848,125 C53.3361303,125 50.2864006,121.92937 50.2895366,118.153515 L50.3318722,91.1052666 C50.3318722,90.5468988 50.1115704,90.0105201 49.7164383,89.6178564 C49.3244422,89.2220513 48.7881915,89.0013743 48.2315571,89.0013743 L11.6410727,89.0013743 C7.86771824,89.0013743 5.20998465,86.1176519 4.81171661,82.1635281 C4.78427688,81.9027994 1.48602167,49.7562049 0.0309321278,35.5834001 Z" id="Fill-3" fill="#52B094" mask="url(#mask-2)"></path>
                <rect id="Rectangle-4" fill="#52B094" mask="url(#mask-2)" transform="translate(37.104456, 47.138174) rotate(90.000000) translate(-37.104456, -47.138174) " x="32.2426299" y="25.8552422" width="9.72365151" height="42.565864" rx="4.86182576"></rect>
            </g>
            <g id="Group" transform="translate(511.000000, 103.000000)" fill="#DD4040">
                <path d="M100.867727,24.9941051 C93.9653923,25.2040969 88.2066674,19.777752 88.0055763,12.8783532 C87.8014152,5.97895431 93.2285703,0.21584469 100.130137,0.00585284107 C107.028634,-0.20336126 112.791196,5.22220591 112.99459,12.1216048 C113.195681,19.0210036 107.766223,24.784891 100.867727,24.9941051 Z" id="Fill-1"></path>
                <path d="M80.7925681,30.7576552 L96.7925681,30.7576552 C99.5539918,30.7576552 101.792568,32.9962315 101.792568,35.7576552 L101.792568,81.7576552 C101.792568,84.519079 99.5539918,86.7576552 96.7925681,86.7576552 C94.1259014,86.7576552 91.4592348,86.7576552 88.7925681,86.7576552 C86.1259014,86.7576552 83.4592348,86.7576552 80.7925681,86.7576552 L80.7925681,86.7576552 C78.0311443,86.7576552 75.7925681,84.519079 75.7925681,81.7576552 L75.7925681,35.7576552 C75.7925681,32.9962315 78.0311443,30.7576552 80.7925681,30.7576552 Z" id="Rectangle-2" transform="translate(88.792568, 58.757655) rotate(20.000000) translate(-88.792568, -58.757655) "></path>
                <rect id="Rectangle-3" x="38" y="76" width="54" height="13" rx="4"></rect>
                <rect id="Rectangle-4" transform="translate(26.715359, 99.715359) rotate(45.000000) translate(-26.715359, -99.715359) " x="19.2153589" y="69.434136" width="15" height="60.5624458" rx="7.5"></rect>
                <rect id="Rectangle-4" transform="translate(67.282932, 46.861826) rotate(90.000000) translate(-67.282932, -46.861826) " x="62.4211062" y="25.5788938" width="9.72365151" height="42.565864" rx="4.86182576"></rect>
            </g>
            <text id="Do" font-family="AvenirNext-DemiBold, Avenir Next" font-size="20" font-weight="500" fill="#4A4A4A">
                <tspan x="256" y="251">Do</tspan>
            </text>
            <text id="Don’t" font-family="AvenirNext-DemiBold, Avenir Next" font-size="20" font-weight="500" fill="#4A4A4A">
                <tspan x="554" y="251">Don’t</tspan>
            </text>
        </g>
    </g>
</svg>