<?xml version="1.0" encoding="UTF-8"?>
<svg viewBox="0 0 1248 337" version="1.1" xmlns="http://www.w3.org/2000/svg" xmlns:xlink="http://www.w3.org/1999/xlink">
    <!-- Generator: Sketch 48.2 (47327) - http://www.bohemiancoding.com/sketch -->
    <title>Shift Key</title>
    <desc>Created with Sketch.</desc>
    <defs></defs>
    <g id="Tutorial-Graphics" stroke="none" stroke-width="1" fill="none" fill-rule="evenodd">
        <g id="Shift-Key">
            <path d="M202.799421,148.034598 C214.998743,148.033671 227.198064,148.025328 239.396445,148.037379 C244.341836,148.042941 244.956129,148.633452 244.962714,153.364956 C244.974944,162.982775 244.902508,172.600594 244.999403,182.216558 C245.033269,185.581636 243.629707,187.005537 240.212053,186.999048 C215.081527,186.950843 189.951941,186.95177 164.821414,186.999975 C161.460204,187.006464 159.960688,185.754062 160.004902,182.295355 C160.1319,172.439292 160.137544,162.579522 160.001139,152.723459 C159.955044,149.300906 161.304043,147.977123 164.739571,148.000299 C177.425247,148.088365 190.112805,148.034598 202.799421,148.034598" id="Fill-21" stroke="#DD4040" fill="#FFFFFF"></path>
            <text id="shift" font-family="AvenirNext-DemiBold, Avenir Next" font-size="12" font-weight="500" fill="#4A4A4A">
                <tspan x="167.33" y="171">shift</tspan>
            </text>
            <path d="M688.940326,148.034598 C706.880504,148.033671 724.820682,148.025328 742.759477,148.037379 C750.032111,148.042941 750.935484,148.633452 750.945168,153.364956 C750.963152,162.982775 750.856629,172.600594 750.999121,182.216558 C751.048924,185.581636 748.984863,187.005537 743.958902,186.999048 C707.002245,186.950843 670.046971,186.95177 633.090315,186.999975 C628.147358,187.006464 625.942188,185.754062 626.007209,182.295355 C626.193971,172.439292 626.202271,162.579522 626.001675,152.723459 C625.933888,149.300906 627.917711,147.977123 632.969957,148.000299 C651.625363,148.088365 670.283536,148.034598 688.940326,148.034598" id="Fill-21" stroke="#DD4040" fill="#FFFFFF"></path>
            <text id="shift" font-family="AvenirNext-DemiBold, Avenir Next" font-size="12" font-weight="500" fill="#4A4A4A">
                <tspan x="641.83" y="171">shift</tspan>
            </text>
            <path d="M314.001569,152.412112 C313.949671,149.404374 315.181336,147.983461 318.265596,148.000145 C328.484988,148.054831 338.70438,148.044636 348.923771,148.009414 C351.830093,147.999218 353.00708,149.371933 352.991325,152.220247 C352.936646,162.321425 352.918111,172.422603 352.999666,182.522855 C353.025615,185.796608 351.541871,187.021948 348.392737,186.999703 C338.534782,186.931114 328.6759,186.994142 318.816092,186.964482 C314.886626,186.952432 314.053468,186.06077 314.031225,181.992677 C314.006203,177.182151 314.025665,172.372552 314.025665,167.562952 C314.025665,162.512363 314.089611,157.460847 314.001569,152.412112 Z" id="Fill-95" stroke="#DD4040" fill="#FFFFFF"></path>
            <path d="M820.001569,152.412112 C819.949671,149.404374 821.181336,147.983461 824.265596,148.000145 C834.484988,148.054831 844.70438,148.044636 854.923771,148.009414 C857.830093,147.999218 859.00708,149.371933 858.991325,152.220247 C858.936646,162.321425 858.918111,172.422603 858.999666,182.522855 C859.025615,185.796608 857.541871,187.021948 854.392737,186.999703 C844.534782,186.931114 834.6759,186.994142 824.816092,186.964482 C820.886626,186.952432 820.053468,186.06077 820.031225,181.992677 C820.006203,177.182151 820.025665,172.372552 820.025665,167.562952 C820.025665,162.512363 820.089611,157.460847 820.001569,152.412112 Z" id="Fill-95" stroke="#DD4040" fill="#FFFFFF"></path>
            <text id="A" font-family="AvenirNext-DemiBold, Avenir Next" font-size="12" font-weight="500" fill="#4A4A4A">
                <tspan x="329" y="171">A</tspan>
            </text>
            <text id="=" font-family="AvenirNext-DemiBold, Avenir Next" font-size="20" font-weight="500" fill="#4A4A4A">
                <tspan x="369.34" y="174">=</tspan>
            </text>
            <text id="+" font-family="AvenirNext-DemiBold, Avenir Next" font-size="20" font-weight="500" fill="#4A4A4A">
                <tspan x="271.34" y="174">+</tspan>
            </text>
            <text id="A" font-family="AvenirNext-DemiBold, Avenir Next" font-size="30" font-weight="500" fill="#4A4A4A">
                <tspan x="400.41" y="177">A</tspan>
            </text>
            <text id=":-;" font-family="AvenirNext-DemiBold, Avenir Next" font-size="12" font-weight="500" fill="#4A4A4A">
                <tspan x="838.2" y="163">:</tspan>
                <tspan x="838.2" y="179">;</tspan>
            </text>
            <text id="=" font-family="AvenirNext-DemiBold, Avenir Next" font-size="20" font-weight="500" fill="#4A4A4A">
                <tspan x="878.34" y="174">=</tspan>
            </text>
            <text id="+" font-family="AvenirNext-DemiBold, Avenir Next" font-size="20" font-weight="500" fill="#4A4A4A">
                <tspan x="779.34" y="174">+</tspan>
            </text>
            <text id=":" font-family="AvenirNext-DemiBold, Avenir Next" font-size="30" font-weight="500" fill="#4A4A4A">
                <tspan x="909" y="177">:</tspan>
            </text>
        </g>
    </g>
</svg>