<?xml version="1.0" encoding="UTF-8"?>
<svg width="1248px" height="337px" viewBox="0 0 1248 337" version="1.1" xmlns="http://www.w3.org/2000/svg" xmlns:xlink="http://www.w3.org/1999/xlink">
    <!-- Generator: Sketch 48.2 (47327) - http://www.bohemiancoding.com/sketch -->
    <title>Top Row</title>
    <desc>Created with Sketch.</desc>
    <defs>
        <polygon id="path-1" points="0 0.69260241 703.206708 0.69260241 703.206708 234 0 234"></polygon>
    </defs>
    <g id="Tutorial-Graphics" stroke="none" stroke-width="1" fill="none" fill-rule="evenodd">
        <g id="Top-Row">
            <g id="Hands-with-color" transform="translate(10.000000, 22.000000)">
                <g id="Hands" fill="#FFFFFF">
                    <g transform="translate(0.000000, 1.000000)">
                        <g id="Left-hand" stroke="#979797" stroke-width="2">
                            <g transform="translate(127.836158, 145.168660) scale(-1, 1) rotate(340.000000) translate(-127.836158, -145.168660) translate(35.836158, 24.168660)" id="Fill-1">
                                <path d="M71.7539953,241.153878 L63.3170777,241.153878 C57.7414805,240.758975 52.1068248,240.734369 46.6059545,239.866542 C40.7579654,238.9447 34.9178105,237.582344 29.2970155,235.738062 C24.7880857,234.258075 23.1284235,230.834179 23.5647326,226.119946 C24.2710232,218.486549 25.1358072,210.867556 25.8137738,203.231159 C26.3344521,197.357422 25.924659,191.812572 23.144092,186.191502 C16.9851422,173.740045 11.5945545,160.91229 5.86106638,148.251378 C3.56803271,143.187253 2.69481174,137.841655 2.54957623,132.348418 C2.22294699,119.997788 2.04275854,107.641756 1.58113862,95.2965266 C1.23823818,86.1357304 0.534960838,76.9881377 0.0154877701,67.8333431 C-0.159879588,64.740134 1.15145846,62.4949467 3.93985972,61.0371654 C6.86445693,59.5085656 9.91621054,59.1436701 12.280958,61.5502996 C15.466497,64.7935479 18.7822056,68.154427 20.9920754,72.0548473 C26.580328,81.9214281 28.7389737,92.7992734 28.9878627,104.086426 C29.0692187,107.77439 29.1294824,111.498965 29.7236825,115.120912 C29.9876375,116.731133 31.2604067,118.74526 32.6362269,119.39343 C33.4576211,119.780531 35.8868508,118.201518 36.6949869,116.936987 C39.581618,112.420806 42.7460647,107.904624 44.586518,102.940126 C47.881737,94.0542016 50.7297993,84.9498202 52.9842642,75.7464129 C58.1916503,54.4858518 63.0832546,33.1514714 71.1688348,12.7251285 C72.4060485,9.60011109 73.7294393,6.45708897 75.4632258,3.5925397 C77.3265793,0.51313422 80.5428528,-0.126633123 83.922441,0.501731237 C87.0055317,1.07488115 89.5691494,2.80213295 89.8355149,6.00697123 C90.1940839,10.3227001 90.4025963,14.7902687 89.6902794,19.0285773 C87.424967,32.5069028 84.5967917,45.8898033 82.1988992,59.3471233 C80.8953955,66.6600362 79.9926453,74.0449678 78.9747914,81.4064934 C78.6541886,83.7261001 79.9727583,85.7354257 81.9927974,85.8752623 C83.3511411,85.9688867 84.8800311,84.1126012 86.2600698,83.03772 C86.5993544,82.773651 86.6632339,82.1524885 86.8428197,81.6921681 C94.4661774,62.1120466 101.979855,42.4887137 109.773156,22.9758097 C112.306642,16.6327506 115.446381,10.5159506 118.552372,4.4183557 C120.180094,1.22251977 123.313806,-0.199852275 126.790419,0.0228059653 C131.213172,0.306080061 135.368956,1.88509308 136.159013,6.79557751 C136.618223,9.64932396 136.151782,12.9387844 135.15502,15.6923046 C126.241417,40.3047424 117.113877,64.8409603 108.065283,89.4053856 C107.657298,90.5126753 107.20532,91.666177 107.153494,92.8154776 C107.126375,93.4204358 107.800726,94.2846619 108.391912,94.6045456 C108.761329,94.804998 110.314324,94.9568377 110.740389,94.5355275 C111.282762,93.9989872 113.456474,92.0304723 113.744534,91.3024818 C118.697005,78.7592009 125.597198,68.9364316 130.653322,56.4357618 C134.44873,47.0529076 139.310805,38.7077247 143.316533,29.4112931 C144.476609,26.7201892 148.050849,22.1643975 151.273149,21.9849506 C158.052212,21.6086521 164.705927,25.9081768 162.440614,32.8429907 C155.214394,54.9647771 139.813404,77.1105697 132.382288,99.1657386 C130.770234,103.95139 128.230722,108.646418 126.959158,113.516692 C126.581907,114.96127 126.371586,117.231664 127.492491,118.411573 C128.137915,119.09095 130.450233,118.698448 131.732645,118.145703 C133.2308,117.500534 134.600594,116.315224 135.720896,115.087903 C145.974162,103.854165 156.103887,92.5057966 166.421032,81.3302734 C168.341636,79.248929 170.806421,77.5648885 173.263372,76.1029061 C175.835426,74.573106 178.360475,75.8856493 180.468499,77.4142491 C182.370422,78.7928097 183.844472,80.7889318 183.138784,83.3083908 C182.425864,85.8566574 181.750308,88.6389852 180.217802,90.6969235 C173.483937,99.7400889 166.405363,108.526987 159.531083,117.466926 C154.542454,123.956423 149.178985,130.234065 144.887005,137.162277 C139.55427,145.77273 135.223721,154.995342 130.330309,163.883067 C125.199458,173.201104 120.510339,182.840225 114.520128,191.585713 C109.07229,199.538393 102.167275,206.507416 95.8401897,213.854538 C93.3525043,216.743093 90.8648189,219.548227 90.4285097,223.580081 C90.1416545,226.233976 89.8089989,228.907675 89.1732169,231.493751 C88.0378488,236.11376 85.363346,239.315597 80.310235,239.97637 C77.4555436,240.349668 74.6056734,240.760175 71.7539953,241.153878"></path>
                            </g>
                        </g>
                        <g id="Right-hand" transform="translate(1084.359144, 144.701164) rotate(340.000000) translate(-1084.359144, -144.701164) translate(992.859144, 24.201164)" stroke="#7A7777" stroke-width="2">
                            <path d="M71.6293852,241 L63.2071228,241 C57.6412105,240.605348 52.0163424,240.580758 46.5250273,239.713483 C40.6871962,238.79223 34.8571858,237.430741 29.2461543,235.587634 C24.7450566,234.108589 23.0882773,230.686875 23.5238286,225.975646 C24.2288923,218.347112 25.0921742,210.732973 25.7689631,203.101441 C26.288737,197.231446 25.8796557,191.690129 23.1039186,186.072639 C16.9556671,173.629115 11.574443,160.809532 5.85091406,148.156687 C3.56186346,143.095788 2.6901593,137.753596 2.54517606,132.263858 C2.21911419,119.921096 2.03923873,107.572936 1.57842066,95.235572 C1.23611585,86.080612 0.534060116,76.9388471 0.0154893863,67.7898849 C-0.159573354,64.6986464 1.14948686,62.4548895 3.93304459,60.998037 C6.8525617,59.470411 9.89901434,59.105748 12.2596542,61.5108443 C15.4396598,64.7520264 18.749609,68.1107643 20.9556401,72.0086996 C26.5341858,81.8689946 28.6890818,92.7399097 28.9375385,104.019871 C29.0187532,107.705486 29.0789122,111.427688 29.6720801,115.047328 C29.9355766,116.656523 31.2061351,118.669367 32.5795655,119.317123 C33.3995329,119.703978 35.8245428,118.125971 36.6312753,116.862246 C39.5128922,112.348942 42.6718422,107.835637 44.5090986,102.874302 C47.7985937,93.9940385 50.6417088,84.8954573 52.8922576,75.6979134 C58.0905983,54.4508971 62.9737058,33.1301085 71.0452411,12.716779 C72.2803057,9.59375247 73.6013978,6.45273273 75.3321727,3.59000841 C77.1922895,0.512564785 80.4029763,-0.126794971 83.776694,0.501169067 C86.8544293,1.07395384 89.4135939,2.80010523 89.6794967,6.00290175 C90.0374429,10.3158811 90.2455931,14.7806035 89.5345135,19.0162119 C87.273136,32.4859506 84.4498734,45.8603251 82.0561461,59.3090716 C80.7549065,66.6173255 79.8537244,73.9975523 78.8376386,81.3543879 C78.5175927,83.6725169 79.833872,85.6805623 81.8504022,85.8203098 C83.2063865,85.9138747 84.7326207,84.0587717 86.1102622,82.9845754 C86.4489575,82.7206745 86.5127261,82.0999078 86.6919999,81.6398806 C94.3021156,62.0722333 101.802742,42.4614022 109.582506,22.9609297 C112.111591,16.6219116 115.245876,10.5090086 118.346472,4.41529831 C119.971367,1.2214984 123.099636,-0.199967476 126.570209,0.0225489118 C130.98528,0.305642537 135.133845,1.88364959 135.92253,6.79100562 C136.380942,9.64293399 135.915311,12.9302987 134.920281,15.6820647 C126.022161,40.2788223 116.910476,64.7994086 107.877599,89.3481842 C107.470323,90.4547684 107.01913,91.6075352 106.967394,92.7561036 C106.940322,93.3606765 107.613501,94.2243519 108.203661,94.5440318 C108.572436,94.7443566 110.122734,94.8960995 110.548058,94.4750577 C111.089489,93.9388592 113.259425,91.9715984 113.546985,91.2440718 C118.490853,78.708782 125.379061,68.8922706 130.426402,56.3995649 C134.215217,47.0226883 139.068847,38.6828221 143.067617,29.392313 C144.225678,26.7029236 147.793709,22.1500344 151.010412,21.9707017 C157.7777,21.5946431 164.419857,25.8914285 162.158479,32.8218244 C154.944811,54.9295172 139.570573,77.0612011 132.152365,99.102319 C130.543111,103.884922 128.00801,108.576959 126.738655,113.44413 C126.362059,114.887788 126.152104,117.156735 127.271062,118.335892 C127.915365,119.014837 130.223666,118.622584 131.50385,118.070192 C132.999404,117.425434 134.366818,116.240879 135.485174,115.01434 C145.720629,103.787758 155.832759,92.4466199 166.131982,81.2782165 C168.04925,79.1981981 170.509754,77.5152305 172.962437,76.0541795 C175.530024,74.525354 178.050687,75.8370611 180.155049,77.3646871 C182.053668,78.7423694 183.525157,80.7372198 182.820695,83.2550737 C182.109014,85.8017168 181.434632,88.582272 179.904788,90.6388992 C173.182619,99.6763033 166.116341,108.457604 159.254002,117.391847 C154.274038,123.87721 148.919886,130.150852 144.635361,137.074651 C139.311889,145.679617 134.988862,154.896354 130.10395,163.778417 C124.982011,173.090517 120.301038,182.723498 114.321232,191.463414 C108.882857,199.411027 101.989836,206.37561 95.6737412,213.718051 C93.190377,216.604767 90.7070127,219.408113 90.2714615,223.437399 C89.9851045,226.089603 89.6530268,228.761599 89.0183491,231.346028 C87.8849532,235.963093 85.2150961,239.16289 80.1707625,239.823242 C77.3210298,240.196302 74.4761099,240.606548 71.6293852,241" id="Fill-1"></path>
                        </g>
                    </g>
                </g>
                <circle id="Oval" fill-opacity="0.6" fill="#18AD70" cx="176.5" cy="42.5" r="17.5"></circle>
                <circle id="Oval" fill-opacity="0.6" fill="#FCC71E" cx="133.5" cy="18.5" r="17.5"></circle>
                <circle id="Oval" fill-opacity="0.8" fill="#FF9E20" cx="94.5" cy="31.5" r="17.5"></circle>
                <circle id="Oval" fill-opacity="0.6" fill="#DE4545" cx="59.5" cy="77.5" r="17.5"></circle>
                <circle id="Oval" fill-opacity="0.6" fill="#61DEFF" cx="1032.5" cy="36.5" r="17.5"></circle>
                <circle id="Oval" fill-opacity="0.6" fill="#2487FB" cx="1078.5" cy="21.5" r="17.5"></circle>
                <circle id="Oval" fill-opacity="0.6" fill="#7D4CCA" cx="1115.5" cy="31.5" r="17.5"></circle>
                <circle id="Oval" fill-opacity="0.6" fill="#FF07C4" cx="1150.5" cy="77.5" r="17.5"></circle>
            </g>
            <g id="Group-3" transform="translate(265.000000, 102.000000)">
                <mask id="mask-2" fill="white">
                    <use xlink:href="#path-1"></use>
                </mask>
                <g id="Clip-2"></g>
            </g>
            <g id="Tow-Row-Keyboard" transform="translate(266.000000, 152.000000)">
                <path d="M28.5856972,38.9595631 C20.6201698,38.9595631 12.6546423,38.8882257 4.69097659,38.9938421 C1.29885527,39.0383122 -0.0462641815,37.7032828 0.00121062278,34.2744529 C0.138049765,24.4271055 0.136188008,14.5760522 0.00307237981,4.72870479 C-0.0444024245,1.25262542 1.49061625,-0.00365486494 4.7728939,0.00468327853 C20.5829346,0.0435946147 36.3920444,0.0482269167 52.2020852,5.09766008e-05 C55.5700036,-0.0101400876 57.0165888,1.50740202 56.9989022,4.81208622 C56.9477038,14.6603601 56.9449112,24.5104869 56.999833,34.3596873 C57.0184506,37.7375619 55.4806393,39.0512827 52.1183061,38.9984745 C44.2756546,38.8761817 36.4302105,38.9595631 28.5856972,38.9595631" id="Fill-31" stroke="#DD4040" fill="#FFFFFF"></path>
                <path d="M636.973402,20.0146976 C636.973402,25.0277611 636.903636,30.0408245 636.996972,35.0520002 C637.061081,38.4349449 635.571477,40.0112612 632.187813,39.9989905 C622.05379,39.9640661 611.917882,39.9640661 601.782916,39.9999344 C598.357769,40.0122051 596.983185,38.3027986 597.000155,34.9934783 C597.048237,24.9692392 597.048237,14.9440561 597.001098,4.91981703 C596.98507,1.57651619 598.417165,-0.0205659731 601.841369,0.000199870644 C611.976334,0.0624974018 622.1113,0.0577778919 632.246266,0.00397547859 C635.694039,-0.0139586592 637.061081,1.63315031 636.997915,4.97833895 C636.903636,9.9885707 636.973402,15.0025781 636.973402,20.0146976" id="Fill-33" stroke="#FF07C4" fill="#FFFFFF"></path>
                <path d="M567.423229,39.9813015 C562.541013,39.9831893 557.659717,39.9378816 552.778421,39.9992357 C549.49021,40.0398239 547.987212,38.4644384 548.000082,35.1050633 C548.036853,24.9580327 548.023983,14.8100582 548.012032,4.66302763 C548.007436,1.48205153 549.464471,-0.0149894508 552.606518,0.000113106384 C562.60812,0.0491964172 572.609721,0.0293743109 582.610404,0.0133278439 C585.555729,0.00860829479 586.995297,1.44429513 586.989782,4.4874604 C586.972316,14.7571993 586.95485,25.0269381 586.999894,35.296677 C587.014602,38.5399512 585.50425,39.996404 582.424712,39.9850771 C577.424831,39.965255 572.423111,39.9794136 567.423229,39.9813015" id="Fill-35" stroke="#FF07C4" fill="#FFFFFF"></path>
                <path d="M519.565003,0.0215718255 C524.448063,0.0206512203 529.331123,0.0758875324 534.214183,0.00131851101 C537.48427,-0.0493147751 539.021836,1.35552876 538.999766,4.70561109 C538.935394,14.6011964 538.94367,24.4977023 538.995168,34.3932876 C539.010801,37.5463605 537.546803,39.0027579 534.454198,38.9999961 C524.449902,38.99079 514.446526,38.9917106 504.44223,38.9990755 C501.514234,39.0018373 500.011612,37.5693756 500.008853,34.6344862 C500.000577,24.5004641 499.990461,14.3655215 500.018049,4.23149941 C500.027245,1.26807127 501.634701,-0.0272202502 504.559019,0.00592153702 C509.559788,0.0639196648 514.563315,0.0215718255 519.565003,0.0215718255" id="Fill-37" stroke="#FF07C4"></path>
                <path d="M162.02372,19.5022021 C162.02372,14.6134898 162.087153,9.72289003 162.001656,4.83512153 C161.941901,1.40358527 163.498302,-0.0196151329 166.772904,0.00020397091 C176.654627,0.0587175154 186.537269,0.0558862149 196.418992,0.0039790383 C199.586953,-0.0130087649 200.991667,1.5394877 200.988909,4.6935565 C200.979716,14.8381063 200.965007,24.9835999 200.999941,35.1281498 C201.010973,38.4973974 199.475716,40.0159183 196.198356,39.9998742 C186.316633,39.9489108 176.433991,39.972505 166.552268,39.9819427 C163.466126,39.984774 161.965803,38.5096664 162.006253,35.2697148 C162.072444,30.014821 162.02372,24.7580397 162.02372,19.5022021" id="Fill-39" stroke="#FBC311" fill="#FFFFFF"></path>
                <path d="M134.00253,39.987758 C129.117977,39.987758 124.233425,40.0179669 119.349815,39.9783177 C115.025275,39.9424446 114.026869,38.9162857 114.016499,34.4991765 C113.993872,24.8398774 113.995757,15.1805782 114.014613,5.52127902 C114.024041,1.04091997 114.971537,0.0374177207 119.293248,0.0242013223 C129.183972,-0.00506355985 139.074696,-0.0126157875 148.965419,0.0289214646 C152.845909,0.0449699483 153.945193,1.14948324 153.964048,5.09835428 C154.011187,15.0021568 154.01213,24.9059593 153.965934,34.8097619 C153.947078,38.8841887 152.82234,39.9424446 148.655244,39.9783177 C143.771635,40.020799 138.887082,39.987758 134.00253,39.987758" id="Fill-41" stroke="#FF8F00" fill="#FFFFFF"></path>
                <path d="M104.991048,19.9550452 C104.991048,24.8453469 105.014047,29.7356485 104.983688,34.6259501 C104.957929,38.8489205 103.978162,39.9476102 100.003896,39.966488 C90.3515807,40.0127387 80.7001854,40.0089631 71.0478702,39.9683758 C67.1564011,39.9523296 66.0469184,38.8677984 66.0312789,35.0440941 C65.9889604,25.0190229 65.9908003,14.9939518 66.029439,4.9688806 C66.0450785,1.10930843 67.1251221,0.0408233055 71.0000318,0.0266649336 C80.651427,-0.0092029417 90.3037423,-0.00825905024 99.9551375,0.0257210422 C103.968043,0.039879414 104.957929,1.1017573 104.984608,5.28414034 C105.014967,10.174442 104.991048,15.0647436 104.991048,19.9550452" id="Fill-43" stroke="#DD4040" fill="#FFFFFF"></path>
                <path d="M230.752551,39.9855225 C225.843813,39.9855225 220.934152,40.0251653 216.025413,39.9732522 C212.127026,39.9326656 211.053931,38.8679755 211.041014,35.0094178 C211.009642,24.9656526 211.086226,14.9218873 211.000415,4.87906592 C210.971811,1.44430774 212.420443,-0.0186972521 215.737532,0.00018023174 C225.675882,0.0596443057 235.613309,0.046430067 245.551659,0.00773122526 C248.504284,-0.00453913921 250.007355,1.292344 249.999973,4.39391459 C249.97506,14.8048469 249.979674,25.2157792 249.995359,35.6267115 C249.999973,38.7547106 248.364957,40.0025123 245.479689,39.9902419 C240.570951,39.9694767 235.66129,39.9845787 230.752551,39.9855225" id="Fill-45" stroke="#18AD70" fill="#FFFFFF"></path>
                <path d="M297.97308,20.1110175 C297.97308,25.1340098 297.904735,30.1579462 297.998016,35.1790502 C298.058048,38.3741265 296.759507,40.0047106 293.569491,39.9999898 C283.503487,39.984883 273.437482,40.0056548 263.371477,39.9867714 C260.47331,39.9811063 258.984513,38.5931743 259.002061,35.4726875 C259.058399,25.1821625 259.064864,14.8916375 259.000214,4.60111249 C258.978972,1.28046138 260.538884,-0.00738852439 263.629154,0.00582987639 C273.575094,0.0445409072 283.521958,0.0549267936 293.467899,0.000164847481 C296.650526,-0.0177744107 298.048813,1.42775213 297.995245,4.67570204 C297.9112,9.81954828 297.97308,14.9652829 297.97308,20.1110175" id="Fill-47" stroke="#18AD70" fill="#FFFFFF"></path>
                <path d="M442.966679,19.9149543 C442.967603,24.6954265 442.885399,29.477741 442.997159,34.2554499 C443.070127,37.3908502 441.741007,38.9917097 438.587695,38.994473 C428.520005,39.0036839 418.454161,38.994473 408.387394,38.9999995 C405.454832,39.0009206 403.986242,37.6588882 404.000097,34.6312558 C404.043508,24.4734431 404.032425,14.3137883 404.00841,4.15597558 C404.001944,1.31532502 405.376323,-0.00275894329 408.185116,4.33545757e-06 C418.371957,0.0119785434 428.557874,0.00460980004 438.745638,0.00368870712 C441.757633,0.00368870712 443.02764,1.54007169 442.986076,4.49862214 C442.912184,9.63647843 442.965756,14.7761769 442.966679,19.9149543" id="Fill-49" stroke="#2487FB" fill="#FFFFFF"></path>
                <path d="M490.975268,19.6845758 C490.975268,24.5822331 490.908841,29.4817316 490.998333,34.3775477 C491.057379,37.5683898 489.548009,38.9907358 486.454538,38.9888946 C476.517235,38.9842915 466.580855,38.9686411 456.643552,38.9999419 C453.554694,39.0100687 451.984432,37.696355 452.000116,34.4935448 C452.045324,24.458871 452.037943,14.4232766 452.004729,4.38860283 C451.994581,1.42239008 453.32589,-0.00916200702 456.340017,4.41157373e-05 C466.396335,0.0322655454 476.453576,0.0304243208 486.509894,0.000964728013 C489.681786,-0.00916200702 491.049998,1.49051539 490.99741,4.63256508 C490.913454,9.64806076 490.974345,14.6672389 490.975268,19.6845758" id="Fill-51" stroke="#7D4CCA" fill="#FFFFFF"></path>
                <path d="M345.958617,19.6495576 C345.958617,24.5467256 345.853127,29.448497 345.995631,34.3419822 C346.089092,37.5478364 344.685332,39.0006905 341.553012,38.9997698 C331.467589,38.9960871 321.382166,39.0080561 311.296743,38.9878008 C308.371703,38.981356 306.975345,37.6003159 307.000329,34.5482175 C307.084536,24.5145013 307.085462,14.4789437 307.001255,4.44522758 C306.974419,1.16203509 308.54752,-0.0136903262 311.632647,0.00012007414 C321.597773,0.0443133551 331.5629,0.041551275 341.528027,0.0028821542 C344.710316,-0.0100075527 346.074286,1.40049466 345.992855,4.59898337 C345.863306,9.61307938 345.958617,14.6326995 345.958617,19.6495576" id="Fill-53" stroke="#61DEFF" fill="#FFFFFF"></path>
                <path d="M355.032257,19.195356 C355.032257,14.29614 355.111866,9.39600304 355.002635,4.49954976 C354.935986,1.52594666 356.128265,-0.00367698375 359.183017,6.63730989e-06 C369.392367,0.0110575005 379.600792,0.00461116363 389.809217,0.00461116363 C392.589967,0.00461116363 394.000707,1.269935 393.988673,4.15328938 C393.945166,14.3081117 393.929429,24.4647759 393.999781,34.6205191 C394.01922,37.4642746 392.745481,38.9469321 389.977691,38.9607456 C379.649853,39.0132372 369.32109,39.0123163 358.9914,38.9625874 C356.206948,38.9487739 354.946169,37.4495401 355.003561,34.6076265 C355.107237,29.4726587 355.033183,24.3330864 355.032257,19.195356" id="Fill-55" stroke="#61DEFF" fill="#FFFFFF"></path>
                <path d="M645.053907,19.5299859 C645.053907,14.4783872 645.140335,9.42678845 645.021806,4.37704387 C644.950195,1.35479909 646.609598,-0.0172629544 650.722303,0.0040596315 C664.175327,0.070808596 677.630821,0.0800792855 691.082611,0.000351355702 C695.468179,-0.0265336439 697.026339,1.48922409 696.991768,4.63198783 C696.888056,14.4922932 696.872005,24.3553798 696.999176,34.2156851 C697.043625,37.5688935 695.292855,39.0299542 690.750484,38.9975068 C677.61724,38.9047999 664.481527,38.9020187 651.350753,38.9993609 C646.894809,39.0327354 644.877349,37.7626509 645.005755,34.321371 C645.189722,29.3939995 645.052673,24.4601386 645.053907,19.5299859" id="Fill-79" stroke="#FF07C4" fill="#FFFFFF"></path>
            </g>
            <g id="Top-Row-Keys" transform="translate(277.000000, 157.000000)" fill="#4A4A4A" font-family="AvenirNext-DemiBold, Avenir Next" font-size="12" font-weight="500">
                <text id="}-]">
                    <tspan x="600.02" y="12">}</tspan>
                    <tspan x="600.02" y="28">]</tspan>
                </text>
                <text id="{-[">
                    <tspan x="551.02" y="12">{</tspan>
                    <tspan x="551.02" y="28">[</tspan>
                </text>
                <text id="P">
                    <tspan x="505.34" y="20">P</tspan>
                </text>
                <text id="O">
                    <tspan x="455.406" y="20">O</tspan>
                </text>
                <text id="I">
                    <tspan x="411.308" y="19">I</tspan>
                </text>
                <text id="U">
                    <tspan x="359.216" y="20">U</tspan>
                </text>
                <text id="tab">
                    <tspan x="0.35" y="20">tab</tspan>
                </text>
                <text id="Y">
                    <tspan x="312.268" y="20">Y</tspan>
                </text>
                <text id="T">
                    <tspan x="264.092" y="20">T</tspan>
                </text>
                <text id="R">
                    <tspan x="216.226" y="20">R</tspan>
                </text>
                <text id="E">
                    <tspan x="167.34" y="20">E</tspan>
                </text>
                <text id="W">
                    <tspan x="117.476" y="20">W</tspan>
                </text>
                <text id="Q">
                    <tspan x="70.388" y="20">Q</tspan>
                </text>
                <text id="|-\">
                    <tspan x="659.168" y="12">|</tspan>
                    <tspan x="658.166" y="28">\</tspan>
                </text>
            </g>
        </g>
    </g>
</svg>