<?xml version="1.0" encoding="UTF-8"?>
<svg viewBox="0 0 1248 337" version="1.1" xmlns="http://www.w3.org/2000/svg" xmlns:xlink="http://www.w3.org/1999/xlink">
    <!-- Generator: Sketch 48.2 (47327) - http://www.bohemiancoding.com/sketch -->
    <title>Bottom Row</title>
    <desc>Created with Sketch.</desc>
    <defs>
        <polygon id="path-1" points="0 0.69260241 703.206708 0.69260241 703.206708 234 0 234"></polygon>
    </defs>
    <g id="Tutorial-Graphics" stroke="none" stroke-width="1" fill="none" fill-rule="evenodd">
        <g id="Bottom-Row">
            <g id="Hands-with-color" transform="translate(9.000000, 22.000000)">
                <g id="Hands" fill="#FFFFFF">
                    <g transform="translate(0.000000, 1.000000)">
                        <g id="Left-hand" stroke="#979797" stroke-width="2">
                            <g transform="translate(127.836158, 145.168660) scale(-1, 1) rotate(340.000000) translate(-127.836158, -145.168660) translate(35.836158, 24.168660)" id="Fill-1">
                                <path d="M71.7539953,241.153878 L63.3170777,241.153878 C57.7414805,240.758975 52.1068248,240.734369 46.6059545,239.866542 C40.7579654,238.9447 34.9178105,237.582344 29.2970155,235.738062 C24.7880857,234.258075 23.1284235,230.834179 23.5647326,226.119946 C24.2710232,218.486549 25.1358072,210.867556 25.8137738,203.231159 C26.3344521,197.357422 25.924659,191.812572 23.144092,186.191502 C16.9851422,173.740045 11.5945545,160.91229 5.86106638,148.251378 C3.56803271,143.187253 2.69481174,137.841655 2.54957623,132.348418 C2.22294699,119.997788 2.04275854,107.641756 1.58113862,95.2965266 C1.23823818,86.1357304 0.534960838,76.9881377 0.0154877701,67.8333431 C-0.159879588,64.740134 1.15145846,62.4949467 3.93985972,61.0371654 C6.86445693,59.5085656 9.91621054,59.1436701 12.280958,61.5502996 C15.466497,64.7935479 18.7822056,68.154427 20.9920754,72.0548473 C26.580328,81.9214281 28.7389737,92.7992734 28.9878627,104.086426 C29.0692187,107.77439 29.1294824,111.498965 29.7236825,115.120912 C29.9876375,116.731133 31.2604067,118.74526 32.6362269,119.39343 C33.4576211,119.780531 35.8868508,118.201518 36.6949869,116.936987 C39.581618,112.420806 42.7460647,107.904624 44.586518,102.940126 C47.881737,94.0542016 50.7297993,84.9498202 52.9842642,75.7464129 C58.1916503,54.4858518 63.0832546,33.1514714 71.1688348,12.7251285 C72.4060485,9.60011109 73.7294393,6.45708897 75.4632258,3.5925397 C77.3265793,0.51313422 80.5428528,-0.126633123 83.922441,0.501731237 C87.0055317,1.07488115 89.5691494,2.80213295 89.8355149,6.00697123 C90.1940839,10.3227001 90.4025963,14.7902687 89.6902794,19.0285773 C87.424967,32.5069028 84.5967917,45.8898033 82.1988992,59.3471233 C80.8953955,66.6600362 79.9926453,74.0449678 78.9747914,81.4064934 C78.6541886,83.7261001 79.9727583,85.7354257 81.9927974,85.8752623 C83.3511411,85.9688867 84.8800311,84.1126012 86.2600698,83.03772 C86.5993544,82.773651 86.6632339,82.1524885 86.8428197,81.6921681 C94.4661774,62.1120466 101.979855,42.4887137 109.773156,22.9758097 C112.306642,16.6327506 115.446381,10.5159506 118.552372,4.4183557 C120.180094,1.22251977 123.313806,-0.199852275 126.790419,0.0228059653 C131.213172,0.306080061 135.368956,1.88509308 136.159013,6.79557751 C136.618223,9.64932396 136.151782,12.9387844 135.15502,15.6923046 C126.241417,40.3047424 117.113877,64.8409603 108.065283,89.4053856 C107.657298,90.5126753 107.20532,91.666177 107.153494,92.8154776 C107.126375,93.4204358 107.800726,94.2846619 108.391912,94.6045456 C108.761329,94.804998 110.314324,94.9568377 110.740389,94.5355275 C111.282762,93.9989872 113.456474,92.0304723 113.744534,91.3024818 C118.697005,78.7592009 125.597198,68.9364316 130.653322,56.4357618 C134.44873,47.0529076 139.310805,38.7077247 143.316533,29.4112931 C144.476609,26.7201892 148.050849,22.1643975 151.273149,21.9849506 C158.052212,21.6086521 164.705927,25.9081768 162.440614,32.8429907 C155.214394,54.9647771 139.813404,77.1105697 132.382288,99.1657386 C130.770234,103.95139 128.230722,108.646418 126.959158,113.516692 C126.581907,114.96127 126.371586,117.231664 127.492491,118.411573 C128.137915,119.09095 130.450233,118.698448 131.732645,118.145703 C133.2308,117.500534 134.600594,116.315224 135.720896,115.087903 C145.974162,103.854165 156.103887,92.5057966 166.421032,81.3302734 C168.341636,79.248929 170.806421,77.5648885 173.263372,76.1029061 C175.835426,74.573106 178.360475,75.8856493 180.468499,77.4142491 C182.370422,78.7928097 183.844472,80.7889318 183.138784,83.3083908 C182.425864,85.8566574 181.750308,88.6389852 180.217802,90.6969235 C173.483937,99.7400889 166.405363,108.526987 159.531083,117.466926 C154.542454,123.956423 149.178985,130.234065 144.887005,137.162277 C139.55427,145.77273 135.223721,154.995342 130.330309,163.883067 C125.199458,173.201104 120.510339,182.840225 114.520128,191.585713 C109.07229,199.538393 102.167275,206.507416 95.8401897,213.854538 C93.3525043,216.743093 90.8648189,219.548227 90.4285097,223.580081 C90.1416545,226.233976 89.8089989,228.907675 89.1732169,231.493751 C88.0378488,236.11376 85.363346,239.315597 80.310235,239.97637 C77.4555436,240.349668 74.6056734,240.760175 71.7539953,241.153878"></path>
                            </g>
                        </g>
                        <g id="Right-hand" transform="translate(1084.359144, 144.701164) rotate(340.000000) translate(-1084.359144, -144.701164) translate(992.859144, 24.201164)" stroke="#7A7777" stroke-width="2">
                            <path d="M71.6293852,241 L63.2071228,241 C57.6412105,240.605348 52.0163424,240.580758 46.5250273,239.713483 C40.6871962,238.79223 34.8571858,237.430741 29.2461543,235.587634 C24.7450566,234.108589 23.0882773,230.686875 23.5238286,225.975646 C24.2288923,218.347112 25.0921742,210.732973 25.7689631,203.101441 C26.288737,197.231446 25.8796557,191.690129 23.1039186,186.072639 C16.9556671,173.629115 11.574443,160.809532 5.85091406,148.156687 C3.56186346,143.095788 2.6901593,137.753596 2.54517606,132.263858 C2.21911419,119.921096 2.03923873,107.572936 1.57842066,95.235572 C1.23611585,86.080612 0.534060116,76.9388471 0.0154893863,67.7898849 C-0.159573354,64.6986464 1.14948686,62.4548895 3.93304459,60.998037 C6.8525617,59.470411 9.89901434,59.105748 12.2596542,61.5108443 C15.4396598,64.7520264 18.749609,68.1107643 20.9556401,72.0086996 C26.5341858,81.8689946 28.6890818,92.7399097 28.9375385,104.019871 C29.0187532,107.705486 29.0789122,111.427688 29.6720801,115.047328 C29.9355766,116.656523 31.2061351,118.669367 32.5795655,119.317123 C33.3995329,119.703978 35.8245428,118.125971 36.6312753,116.862246 C39.5128922,112.348942 42.6718422,107.835637 44.5090986,102.874302 C47.7985937,93.9940385 50.6417088,84.8954573 52.8922576,75.6979134 C58.0905983,54.4508971 62.9737058,33.1301085 71.0452411,12.716779 C72.2803057,9.59375247 73.6013978,6.45273273 75.3321727,3.59000841 C77.1922895,0.512564785 80.4029763,-0.126794971 83.776694,0.501169067 C86.8544293,1.07395384 89.4135939,2.80010523 89.6794967,6.00290175 C90.0374429,10.3158811 90.2455931,14.7806035 89.5345135,19.0162119 C87.273136,32.4859506 84.4498734,45.8603251 82.0561461,59.3090716 C80.7549065,66.6173255 79.8537244,73.9975523 78.8376386,81.3543879 C78.5175927,83.6725169 79.833872,85.6805623 81.8504022,85.8203098 C83.2063865,85.9138747 84.7326207,84.0587717 86.1102622,82.9845754 C86.4489575,82.7206745 86.5127261,82.0999078 86.6919999,81.6398806 C94.3021156,62.0722333 101.802742,42.4614022 109.582506,22.9609297 C112.111591,16.6219116 115.245876,10.5090086 118.346472,4.41529831 C119.971367,1.2214984 123.099636,-0.199967476 126.570209,0.0225489118 C130.98528,0.305642537 135.133845,1.88364959 135.92253,6.79100562 C136.380942,9.64293399 135.915311,12.9302987 134.920281,15.6820647 C126.022161,40.2788223 116.910476,64.7994086 107.877599,89.3481842 C107.470323,90.4547684 107.01913,91.6075352 106.967394,92.7561036 C106.940322,93.3606765 107.613501,94.2243519 108.203661,94.5440318 C108.572436,94.7443566 110.122734,94.8960995 110.548058,94.4750577 C111.089489,93.9388592 113.259425,91.9715984 113.546985,91.2440718 C118.490853,78.708782 125.379061,68.8922706 130.426402,56.3995649 C134.215217,47.0226883 139.068847,38.6828221 143.067617,29.392313 C144.225678,26.7029236 147.793709,22.1500344 151.010412,21.9707017 C157.7777,21.5946431 164.419857,25.8914285 162.158479,32.8218244 C154.944811,54.9295172 139.570573,77.0612011 132.152365,99.102319 C130.543111,103.884922 128.00801,108.576959 126.738655,113.44413 C126.362059,114.887788 126.152104,117.156735 127.271062,118.335892 C127.915365,119.014837 130.223666,118.622584 131.50385,118.070192 C132.999404,117.425434 134.366818,116.240879 135.485174,115.01434 C145.720629,103.787758 155.832759,92.4466199 166.131982,81.2782165 C168.04925,79.1981981 170.509754,77.5152305 172.962437,76.0541795 C175.530024,74.525354 178.050687,75.8370611 180.155049,77.3646871 C182.053668,78.7423694 183.525157,80.7372198 182.820695,83.2550737 C182.109014,85.8017168 181.434632,88.582272 179.904788,90.6388992 C173.182619,99.6763033 166.116341,108.457604 159.254002,117.391847 C154.274038,123.87721 148.919886,130.150852 144.635361,137.074651 C139.311889,145.679617 134.988862,154.896354 130.10395,163.778417 C124.982011,173.090517 120.301038,182.723498 114.321232,191.463414 C108.882857,199.411027 101.989836,206.37561 95.6737412,213.718051 C93.190377,216.604767 90.7070127,219.408113 90.2714615,223.437399 C89.9851045,226.089603 89.6530268,228.761599 89.0183491,231.346028 C87.8849532,235.963093 85.2150961,239.16289 80.1707625,239.823242 C77.3210298,240.196302 74.4761099,240.606548 71.6293852,241" id="Fill-1"></path>
                        </g>
                    </g>
                </g>
                <circle id="Oval" fill-opacity="0.6" fill="#18AD70" cx="176.5" cy="42.5" r="17.5"></circle>
                <circle id="Oval" fill-opacity="0.6" fill="#FCC71E" cx="133.5" cy="18.5" r="17.5"></circle>
                <circle id="Oval" fill-opacity="0.8" fill="#FF9E20" cx="94.5" cy="31.5" r="17.5"></circle>
                <circle id="Oval" fill-opacity="0.6" fill="#DE4545" cx="59.5" cy="77.5" r="17.5"></circle>
                <circle id="Oval" fill-opacity="0.6" fill="#61DEFF" cx="1032.5" cy="36.5" r="17.5"></circle>
                <circle id="Oval" fill-opacity="0.6" fill="#2487FB" cx="1078.5" cy="21.5" r="17.5"></circle>
                <circle id="Oval" fill-opacity="0.6" fill="#7D4CCA" cx="1115.5" cy="31.5" r="17.5"></circle>
                <circle id="Oval" fill-opacity="0.6" fill="#FF07C4" cx="1150.5" cy="77.5" r="17.5"></circle>
            </g>
            <g id="Bottom-Row-Keyboard" transform="translate(265.000000, 0.000000)">
                <g id="Group-3">
                    <mask id="mask-2" fill="white">
                        <use xlink:href="#path-1"></use>
                    </mask>
                    <g id="Clip-2"></g>
                </g>
                <path d="M43.7994214,145.034598 C55.9987427,145.033671 68.198064,145.025328 80.3964446,145.037379 C85.3418358,145.042941 85.9561292,145.633452 85.9627142,150.364956 C85.9749437,159.982775 85.9025078,169.600594 85.9994025,179.216558 C86.0332686,182.581636 84.629707,184.005537 81.2120532,183.999048 C56.0815265,183.950843 30.9519406,183.95177 5.8214139,183.999975 C2.46020361,184.006464 0.960688014,182.754062 1.00490209,179.295355 C1.13189996,169.439292 1.13754431,159.579522 1.00113919,149.723459 C0.955043664,146.300906 2.30404326,144.977123 5.73957083,145.000299 C18.425247,145.088365 31.1128045,145.034598 43.7994214,145.034598" id="Fill-21" stroke="#DD4040" fill="#FFFFFF"></path>
                <path d="M639.213664,183.963361 C622.4205,183.963361 605.625342,183.979129 588.834171,183.956869 C580.108741,183.944811 578.103766,183.111917 578.05992,179.184888 C577.952297,169.325578 578.071878,159.466268 578.000129,149.606957 C577.978206,146.498909 580.746507,144.988014 587.755949,145.000072 C621.858469,145.063141 655.960988,145.057577 690.065501,145.004709 C696.803893,144.993579 700.042546,146.177067 699.982755,149.466905 C699.801391,159.444935 699.773489,169.425748 699.9987,179.403778 C700.076427,182.896738 696.670361,184.045909 689.591163,183.998606 C672.803978,183.888234 656.006828,183.963361 639.213664,183.963361" id="Fill-25" stroke="#FF07C4" fill="#FFFFFF"></path>
                <path d="M307.311343,183.967676 C302.40349,183.967676 297.493791,183.883373 292.589627,183.997321 C289.359853,184.072359 287.999123,182.571589 288.004659,179.452396 C288.024954,169.475054 288.030489,159.498639 288.000046,149.522224 C287.990821,146.375239 289.372769,144.970814 292.589627,145.000459 C302.523418,145.091247 312.459977,145.086615 322.393768,145.002312 C325.592176,144.975446 327.009181,146.36968 326.999955,149.522224 C326.972279,159.499566 326.978737,169.475054 326.99442,179.452396 C326.999033,182.574368 325.605092,184.063095 322.392846,183.995468 C317.366908,183.889858 312.338203,183.967676 307.311343,183.967676" id="Fill-63" stroke="#18AD70" fill="#FFFFFF"></path>
                <path d="M355.423933,183.97433 C350.636459,183.975257 345.848985,183.992863 341.061512,183.969697 C337.100546,183.951164 336.04804,183.014319 336.028669,179.198369 C335.979779,169.338798 336.033281,159.479227 336.000073,149.619656 C335.989004,146.52464 337.23799,144.975279 340.50159,145.000298 C350.555284,145.081844 360.609901,145.06887 370.663596,145.008638 C373.73994,144.990105 375.002763,146.49128 374.999995,149.417646 C374.989849,159.518146 375.003685,169.618646 374.988004,179.71822 C374.983392,182.687211 373.514864,184.053096 370.504936,183.998423 C365.479472,183.907611 360.451241,183.973404 355.423933,183.97433" id="Fill-65" stroke="#61DEFF" fill="#FFFFFF"></path>
                <path d="M95.0380389,164.19637 C95.0380389,159.268325 95.1056352,154.338426 95.0139635,149.412233 C94.957479,146.402966 96.183472,144.98913 99.2669741,145.005807 C109.358267,145.062323 119.44956,145.070661 129.539928,145.000248 C132.795661,144.978012 134.021654,146.452997 133.994801,149.618843 C133.913315,159.474007 133.904055,169.331025 133.999431,179.187116 C134.030914,182.516951 132.759548,184.027144 129.337139,183.996569 C119.486599,183.906699 109.635134,183.902993 99.7845951,183.999349 C96.4557091,184.032703 94.9130321,182.788415 95.0037778,179.340915 C95.1361925,174.295204 95.0380389,169.24486 95.0380389,164.19637" id="Fill-71" stroke="#DD4040" fill="#FFFFFF"></path>
                <path d="M162.203449,145.033441 C167.249193,145.033441 172.295864,145.118686 177.33883,145.002863 C180.76501,144.924104 182.032697,146.468711 181.999361,149.803469 C181.901206,159.659491 181.922504,169.517365 181.988249,179.374313 C182.009547,182.520048 180.752972,184.02018 177.506435,183.999795 C167.415872,183.933081 157.324383,183.953466 147.23382,183.98775 C144.419722,183.997942 143.003877,182.804508 143.012211,179.896903 C143.045546,169.680443 143.062214,159.462129 143.000173,149.244742 C142.981653,146.12773 144.453058,144.961167 147.427353,145.011203 C152.351792,145.094595 157.278083,145.033441 162.203449,145.033441" id="Fill-97" stroke="#FF8F00" fill="#FFFFFF"></path>
                <path d="M567.966771,164.555064 C567.968624,169.486011 567.890824,174.420667 567.997336,179.34976 C568.064948,182.497666 566.852565,184.022013 563.574779,183.99976 C553.482089,183.929291 543.389399,183.948763 533.295783,183.987706 C530.237504,184.000687 528.986221,182.531973 529.000114,179.550039 C529.046424,169.446141 529.038088,159.342242 529.004745,149.237417 C528.994557,146.415891 530.214349,144.992611 533.100357,145.000029 C543.434782,145.024137 553.767356,145.0195 564.100855,145.006519 C566.82941,145.00281 567.995483,146.375094 567.976033,149.038065 C567.937133,154.210089 567.963993,159.382113 567.966771,164.555064" id="Fill-101" stroke="#FF07C4"></path>
                <path d="M499.823572,145.024791 C504.747494,145.024791 509.674193,145.086893 514.597189,145.001619 C517.599874,144.948786 519.016497,146.185266 518.998905,149.269977 C518.9415,159.371293 518.942426,169.471683 518.999831,179.572072 C519.016497,182.565021 517.800794,184.011906 514.725889,183.997075 C504.63546,183.94795 494.545957,183.945169 484.455529,183.999856 C481.463954,184.015613 480.001962,182.73835 480.00937,179.703691 C480.033443,169.603302 480.04548,159.501985 480.000111,149.401596 C479.986222,146.400306 481.278775,144.970104 484.328681,145.00718 C489.49241,145.071136 494.657991,145.024791 499.823572,145.024791" id="Fill-103" stroke="#7D4CCA" fill="#FFFFFF"></path>
                <path d="M470.986954,164.562415 C470.987878,169.370264 471.021146,174.17904 470.977712,178.985963 C470.939824,183.119286 470.153398,183.944839 466.194472,183.956884 C456.363692,183.985607 446.531988,183.905924 436.702132,183.999505 C433.279195,184.031934 431.980808,182.470704 432.000214,179.187023 C432.060282,169.330423 432.052889,159.473823 432.002986,149.617222 C431.9882,146.490128 433.260713,144.978005 436.504371,145.000242 C446.574497,145.070659 456.645548,145.068806 466.716599,145.002095 C469.823488,144.981711 471.023918,146.470671 470.998043,149.417088 C470.953685,154.464913 470.985105,159.513664 470.986954,164.562415" id="Fill-107" stroke="#2487FB" fill="#FFFFFF"></path>
                <path d="M258.657642,145.034412 C263.573849,145.034412 268.491905,145.106672 273.406263,145.0094 C276.595929,144.945478 278.013763,146.350824 277.999899,149.532076 C277.95461,159.507533 277.962004,169.483916 277.994354,179.458446 C278.004521,182.612833 276.589459,184.020032 273.394248,183.995945 C263.442602,183.921833 253.489108,183.917201 243.537463,183.999651 C240.308053,184.02559 238.986343,182.607274 239.003904,179.443624 C239.057512,169.468167 239.059361,159.492711 239.000207,149.51818 C238.980797,146.333223 240.323766,144.92695 243.550402,145.002915 C248.583992,145.121494 253.621279,145.034412 258.657642,145.034412" id="Fill-109" stroke="#18AD70" fill="#FFFFFF"></path>
                <path d="M210.719198,145.034591 C215.637607,145.034591 220.557866,145.102222 225.474427,145.010503 C228.700659,144.951209 230.016489,146.443738 229.999844,149.597412 C229.945288,159.57262 229.957309,169.548754 229.990597,179.524888 C230.001694,182.724885 228.489831,184.022857 225.332949,183.999696 C215.376846,183.923726 205.419817,183.9228 195.462789,183.998769 C192.198644,184.023784 190.979907,182.519211 191.00025,179.382213 C191.065903,169.406079 191.065903,159.429945 191.001175,149.454737 C190.979907,146.213976 192.424268,144.928048 195.605191,145.003091 C200.641036,145.120752 205.680579,145.034591 210.719198,145.034591" id="Fill-111" stroke="#FBC311" fill="#FFFFFF"></path>
                <path d="M403.276927,183.967743 C398.365117,183.967743 393.450537,183.898262 388.539651,183.991829 C385.302364,184.054825 383.991748,182.500321 384.000984,179.393165 C384.031464,169.41766 384.034235,159.441227 384.000061,149.466648 C383.988977,146.261294 385.498172,144.978226 388.656027,145.003239 C398.60064,145.084763 408.546177,145.092174 418.491713,145.00046 C421.75948,144.969889 423.012832,146.46325 422.999901,149.581522 C422.957415,159.556101 422.961109,169.531607 422.994359,179.507113 C423.004519,182.681896 421.567367,184.068721 418.374414,183.997388 C413.343457,183.886219 408.30973,183.968669 403.276927,183.967743" id="Fill-121" stroke="#61DEFF" fill="#FFFFFF"></path>
            </g>
            <text id="shift" font-family="AvenirNext-DemiBold, Avenir Next" font-size="12" font-weight="500" fill="#4A4A4A">
                <tspan x="927.33" y="169">shift</tspan>
            </text>
            <g id="Bottom-Row-Keys" transform="translate(277.000000, 149.000000)" fill="#4A4A4A" font-family="AvenirNext-DemiBold, Avenir Next" font-size="12" font-weight="500">
                <text id="?-/">
                    <tspan x="534.386" y="12">?</tspan>
                    <tspan x="535.166" y="28">/</tspan>
                </text>
                <text id="&gt;-.">
                    <tspan x="485.004" y="12">&gt;</tspan>
                    <tspan x="487.44" y="28">.</tspan>
                </text>
                <text id="M">
                    <tspan x="387.48" y="20">M</tspan>
                </text>
                <text id="&lt;-,">
                    <tspan x="437.004" y="12">&lt;</tspan>
                    <tspan x="439.44" y="28">,</tspan>
                </text>
                <text id="V">
                    <tspan x="244.082" y="20">V</tspan>
                </text>
                <text id="N">
                    <tspan x="340.32" y="20">N</tspan>
                </text>
                <text id="C">
                    <tspan x="195.324" y="20">C</tspan>
                </text>
                <text id="B">
                    <tspan x="293.118" y="20">B</tspan>
                </text>
                <text id="X">
                    <tspan x="148.052" y="20">X</tspan>
                </text>
                <text id="shift">
                    <tspan x="0.33" y="21">shift</tspan>
                </text>
                <text id="Z">
                    <tspan x="100.334" y="20">Z</tspan>
                </text>
            </g>
        </g>
    </g>
</svg>