<?xml version="1.0" encoding="UTF-8"?>
<svg width="199px" height="258px" viewBox="0 0 199 258" version="1.1" xmlns="http://www.w3.org/2000/svg" xmlns:xlink="http://www.w3.org/1999/xlink">
    <!-- Generator: Sketch 52.2 (67145) - http://www.bohemiancoding.com/sketch -->
    <title>Group 8</title>
    <desc>Created with Sketch.</desc>
    <g id="MASTERPAGE" stroke="none" stroke-width="1" fill="none" fill-rule="evenodd">
        <g id="Group-8" transform="translate(-13.000000, -17.000000)">
            <g id="Right-hand" transform="translate(127.195302, 144.527804) rotate(340.000000) translate(-127.195302, -144.527804) translate(35.695302, 24.027804)" fill="#FFFFFF" stroke="#7A7777" stroke-width="2">
                <path d="M71.6293852,241 L63.2071228,241 C57.6412105,240.605348 52.0163424,240.580758 46.5250273,239.713483 C40.6871962,238.79223 34.8571858,237.430741 29.2461543,235.587634 C24.7450566,234.108589 23.0882773,230.686875 23.5238286,225.975646 C24.2288923,218.347112 25.0921742,210.732973 25.7689631,203.101441 C26.288737,197.231446 25.8796557,191.690129 23.1039186,186.072639 C16.9556671,173.629115 11.574443,160.809532 5.85091406,148.156687 C3.56186346,143.095788 2.6901593,137.753596 2.54517606,132.263858 C2.21911419,119.921096 2.03923873,107.572936 1.57842066,95.235572 C1.23611585,86.080612 0.534060116,76.9388471 0.0154893863,67.7898849 C-0.159573354,64.6986464 1.14948686,62.4548895 3.93304459,60.998037 C6.8525617,59.470411 9.89901434,59.105748 12.2596542,61.5108443 C15.4396598,64.7520264 18.749609,68.1107643 20.9556401,72.0086996 C26.5341858,81.8689946 28.6890818,92.7399097 28.9375385,104.019871 C29.0187532,107.705486 29.0789122,111.427688 29.6720801,115.047328 C29.9355766,116.656523 31.2061351,118.669367 32.5795655,119.317123 C33.3995329,119.703978 35.8245428,118.125971 36.6312753,116.862246 C39.5128922,112.348942 42.6718422,107.835637 44.5090986,102.874302 C47.7985937,93.9940385 50.6417088,84.8954573 52.8922576,75.6979134 C58.0905983,54.4508971 62.9737058,33.1301085 71.0452411,12.716779 C72.2803057,9.59375247 73.6013978,6.45273273 75.3321727,3.59000841 C77.1922895,0.512564785 80.4029763,-0.126794971 83.776694,0.501169067 C86.8544293,1.07395384 89.4135939,2.80010523 89.6794967,6.00290175 C90.0374429,10.3158811 90.2455931,14.7806035 89.5345135,19.0162119 C87.273136,32.4859506 84.4498734,45.8603251 82.0561461,59.3090716 C80.7549065,66.6173255 79.8537244,73.9975523 78.8376386,81.3543879 C78.5175927,83.6725169 79.833872,85.6805623 81.8504022,85.8203098 C83.2063865,85.9138747 84.7326207,84.0587717 86.1102622,82.9845754 C86.4489575,82.7206745 86.5127261,82.0999078 86.6919999,81.6398806 C94.3021156,62.0722333 101.802742,42.4614022 109.582506,22.9609297 C112.111591,16.6219116 115.245876,10.5090086 118.346472,4.41529831 C119.971367,1.2214984 123.099636,-0.199967476 126.570209,0.0225489118 C130.98528,0.305642537 135.133845,1.88364959 135.92253,6.79100562 C136.380942,9.64293399 135.915311,12.9302987 134.920281,15.6820647 C126.022161,40.2788223 116.910476,64.7994086 107.877599,89.3481842 C107.470323,90.4547684 107.01913,91.6075352 106.967394,92.7561036 C106.940322,93.3606765 107.613501,94.2243519 108.203661,94.5440318 C108.572436,94.7443566 110.122734,94.8960995 110.548058,94.4750577 C111.089489,93.9388592 113.259425,91.9715984 113.546985,91.2440718 C118.490853,78.708782 125.379061,68.8922706 130.426402,56.3995649 C134.215217,47.0226883 139.068847,38.6828221 143.067617,29.392313 C144.225678,26.7029236 147.793709,22.1500344 151.010412,21.9707017 C157.7777,21.5946431 164.419857,25.8914285 162.158479,32.8218244 C154.944811,54.9295172 139.570573,77.0612011 132.152365,99.102319 C130.543111,103.884922 128.00801,108.576959 126.738655,113.44413 C126.362059,114.887788 126.152104,117.156735 127.271062,118.335892 C127.915365,119.014837 130.223666,118.622584 131.50385,118.070192 C132.999404,117.425434 134.366818,116.240879 135.485174,115.01434 C145.720629,103.787758 155.832759,92.4466199 166.131982,81.2782165 C168.04925,79.1981981 170.509754,77.5152305 172.962437,76.0541795 C175.530024,74.525354 178.050687,75.8370611 180.155049,77.3646871 C182.053668,78.7423694 183.525157,80.7372198 182.820695,83.2550737 C182.109014,85.8017168 181.434632,88.582272 179.904788,90.6388992 C173.182619,99.6763033 166.116341,108.457604 159.254002,117.391847 C154.274038,123.87721 148.919886,130.150852 144.635361,137.074651 C139.311889,145.679617 134.988862,154.896354 130.10395,163.778417 C124.982011,173.090517 120.301038,182.723498 114.321232,191.463414 C108.882857,199.411027 101.989836,206.37561 95.6737412,213.718051 C93.190377,216.604767 90.7070127,219.408113 90.2714615,223.437399 C89.9851045,226.089603 89.6530268,228.761599 89.0183491,231.346028 C87.8849532,235.963093 85.2150961,239.16289 80.1707625,239.823242 C77.3210298,240.196302 74.4761099,240.606548 71.6293852,241" id="Fill-1"></path>
            </g>
            <circle id="Oval-6" fill-opacity="0.5" fill="#83ADDC" cx="29" cy="119" r="16"></circle>
            <circle id="Oval-6" fill-opacity="0.337805707" fill="#C137DD" cx="196" cy="74" r="16"></circle>
        </g>
    </g>
</svg>