<?xml version="1.0" encoding="UTF-8"?>
<svg width="94px" height="94px" viewBox="0 0 94 94" version="1.1" xmlns="http://www.w3.org/2000/svg" xmlns:xlink="http://www.w3.org/1999/xlink">
    <!-- Generator: Sketch 48.2 (47327) - http://www.bohemiancoding.com/sketch -->
    <title>Fill 1</title>
    <desc>Created with Sketch.</desc>
    <defs></defs>
    <g id="My-Progress-New" stroke="none" stroke-width="1" fill="none" fill-rule="evenodd" transform="translate(-67.000000, -153.000000)">
        <g id="profits" transform="translate(67.000000, 153.000000)" fill="#4A4A4A">
            <path d="M50.1508359,93.9998163 L57.4896289,93.9998163 L57.4896289,52.2972405 L50.1508359,59.6408269 L50.1508359,93.9998163 Z M79.1390039,30.633183 L79.1390039,94 L86.4777969,94 L86.4777969,29.5586149 L80.2128437,29.5586149 L79.1390039,30.633183 Z M64.6450117,94 L71.9836211,94 L71.9836211,37.7932349 L64.6450117,45.137005 L64.6450117,94 Z M7.03567969,93.9998163 L14.3744727,93.9998163 L14.3744727,66.4859856 L7.03567969,73.9719536 L7.03567969,93.9998163 Z M35.8404375,93.9998163 L43.1790469,93.9998163 L43.1790469,56.4279619 L35.8404375,49.0843755 L35.8404375,93.9998163 Z M21.5298555,59.1868591 L21.5298555,93.9998163 L28.8686484,93.9998163 L28.8684648,51.7010748 L21.5298555,59.1868591 Z M94,21.847592 L86.661207,21.847592 L86.661207,12.720285 L48.2702852,51.1372434 L33.539457,36.3960575 L5.26473437,65.5308344 L0,60.4144645 L33.4627148,25.9340373 L48.2702852,40.7514663 L81.6553398,7.34377009 L71.9836211,7.34377009 L71.9836211,0 L94,0 L94,21.847592 Z" id="Fill-1"></path>
        </g>
    </g>
</svg>