<?xml version="1.0" encoding="UTF-8"?>
<svg width="32px" height="18px" viewBox="0 0 32 18" version="1.1" xmlns="http://www.w3.org/2000/svg" xmlns:xlink="http://www.w3.org/1999/xlink">
    <!-- Generator: Sketch 48.2 (47327) - http://www.bohemiancoding.com/sketch -->
    <title>Show Password Button</title>
    <desc>Created with Sketch.</desc>
    <defs></defs>
    <g id="My-Profile---Joined-Class" stroke="none" stroke-width="1" fill="none" fill-rule="evenodd" transform="translate(-567.000000, -575.000000)">
        <g id="Show-Password-Button" transform="translate(567.000000, 575.000000)" fill="#52B094">
            <g id="Page-1">
                <path d="M26.9431365,12.5157896 C20.9382799,18.4120124 11.1671277,18.4120124 5.16294685,12.5157896 L1.52841065,8.94700565 L5.05686353,5.4843763 C11.0617201,-0.411183089 20.8328723,-0.411183089 26.8377288,5.4843763 L30.472265,9.05316022 L26.9431365,12.5157896 Z M27.6005828,4.73266925 C21.1761228,-1.57755642 10.7184696,-1.57755642 4.29198252,4.73266925 L0,8.94700565 L4.40009291,13.2674966 C7.6123229,16.4216142 11.8326823,18 16.0530417,18 C20.2761038,18 24.4964632,16.4216142 27.7086932,13.2674966 L32,9.05316022 L27.6005828,4.73266925 Z" id="Fill-1"></path>
                <g id="Group-7" transform="translate(9.000000, 3.000000)">
                    <path d="M6.72197727,2.70073333 C4.61584091,2.70073333 2.90311364,4.3754 2.90311364,6.4354 C2.90311364,6.7294 3.14788636,6.96673333 3.44925,6.96673333 C3.74993182,6.96673333 3.99470455,6.7294 3.99470455,6.4354 C3.99470455,4.96406667 5.21720455,3.76873333 6.72197727,3.76873333 C7.02334091,3.76873333 7.26538636,3.52873333 7.26538636,3.23473333 C7.26538636,2.94073333 7.02334091,2.70073333 6.72197727,2.70073333" id="Fill-3"></path>
                    <path d="M7.26531818,12.8332 C3.95781818,12.8332 1.26736364,10.2038667 1.26736364,6.96653333 C1.26736364,3.73186667 3.95781818,1.10186667 7.26531818,1.10186667 C10.5735,1.10186667 13.266,3.73186667 13.266,6.96653333 C13.266,10.2038667 10.5762273,12.8332 7.26531818,12.8332 M7.26531818,0.0338666667 C3.35577273,0.0338666667 0.175772727,3.1432 0.175772727,6.96653333 C0.175772727,10.7898667 3.35577273,13.9018667 7.26531818,13.9018667 C11.1755455,13.9018667 14.3582727,10.7898667 14.3582727,6.96653333 C14.3582727,3.1432 11.1782727,0.0338666667 7.26531818,0.0338666667" id="Fill-5"></path>
                </g>
            </g>
        </g>
    </g>
</svg>