<?xml version="1.0" encoding="UTF-8"?>
<svg width="1106px" height="259px" viewBox="0 0 1106 259" version="1.1" xmlns="http://www.w3.org/2000/svg" xmlns:xlink="http://www.w3.org/1999/xlink">
    <!-- Generator: Sketch 48.2 (47327) - http://www.bohemiancoding.com/sketch -->
    <title>Hands</title>
    <desc>Created with Sketch.</desc>
    <defs></defs>
    <g id="Hands" stroke="none" stroke-width="1" fill="none" fill-rule="evenodd" transform="translate(-53.000000, -18.000000)">
        <g transform="translate(0.000000, 1.000000)" fill="#FFFFFF" stroke-width="2">
            <g id="Left-hand" stroke="#979797">
                <g transform="translate(127.836158, 145.168660) scale(-1, 1) rotate(340.000000) translate(-127.836158, -145.168660) translate(35.836158, 24.168660)" id="Fill-1">
                    <path d="M71.7539953,241.153878 L63.3170777,241.153878 C57.7414805,240.758975 52.1068248,240.734369 46.6059545,239.866542 C40.7579654,238.9447 34.9178105,237.582344 29.2970155,235.738062 C24.7880857,234.258075 23.1284235,230.834179 23.5647326,226.119946 C24.2710232,218.486549 25.1358072,210.867556 25.8137738,203.231159 C26.3344521,197.357422 25.924659,191.812572 23.144092,186.191502 C16.9851422,173.740045 11.5945545,160.91229 5.86106638,148.251378 C3.56803271,143.187253 2.69481174,137.841655 2.54957623,132.348418 C2.22294699,119.997788 2.04275854,107.641756 1.58113862,95.2965266 C1.23823818,86.1357304 0.534960838,76.9881377 0.0154877701,67.8333431 C-0.159879588,64.740134 1.15145846,62.4949467 3.93985972,61.0371654 C6.86445693,59.5085656 9.91621054,59.1436701 12.280958,61.5502996 C15.466497,64.7935479 18.7822056,68.154427 20.9920754,72.0548473 C26.580328,81.9214281 28.7389737,92.7992734 28.9878627,104.086426 C29.0692187,107.77439 29.1294824,111.498965 29.7236825,115.120912 C29.9876375,116.731133 31.2604067,118.74526 32.6362269,119.39343 C33.4576211,119.780531 35.8868508,118.201518 36.6949869,116.936987 C39.581618,112.420806 42.7460647,107.904624 44.586518,102.940126 C47.881737,94.0542016 50.7297993,84.9498202 52.9842642,75.7464129 C58.1916503,54.4858518 63.0832546,33.1514714 71.1688348,12.7251285 C72.4060485,9.60011109 73.7294393,6.45708897 75.4632258,3.5925397 C77.3265793,0.51313422 80.5428528,-0.126633123 83.922441,0.501731237 C87.0055317,1.07488115 89.5691494,2.80213295 89.8355149,6.00697123 C90.1940839,10.3227001 90.4025963,14.7902687 89.6902794,19.0285773 C87.424967,32.5069028 84.5967917,45.8898033 82.1988992,59.3471233 C80.8953955,66.6600362 79.9926453,74.0449678 78.9747914,81.4064934 C78.6541886,83.7261001 79.9727583,85.7354257 81.9927974,85.8752623 C83.3511411,85.9688867 84.8800311,84.1126012 86.2600698,83.03772 C86.5993544,82.773651 86.6632339,82.1524885 86.8428197,81.6921681 C94.4661774,62.1120466 101.979855,42.4887137 109.773156,22.9758097 C112.306642,16.6327506 115.446381,10.5159506 118.552372,4.4183557 C120.180094,1.22251977 123.313806,-0.199852275 126.790419,0.0228059653 C131.213172,0.306080061 135.368956,1.88509308 136.159013,6.79557751 C136.618223,9.64932396 136.151782,12.9387844 135.15502,15.6923046 C126.241417,40.3047424 117.113877,64.8409603 108.065283,89.4053856 C107.657298,90.5126753 107.20532,91.666177 107.153494,92.8154776 C107.126375,93.4204358 107.800726,94.2846619 108.391912,94.6045456 C108.761329,94.804998 110.314324,94.9568377 110.740389,94.5355275 C111.282762,93.9989872 113.456474,92.0304723 113.744534,91.3024818 C118.697005,78.7592009 125.597198,68.9364316 130.653322,56.4357618 C134.44873,47.0529076 139.310805,38.7077247 143.316533,29.4112931 C144.476609,26.7201892 148.050849,22.1643975 151.273149,21.9849506 C158.052212,21.6086521 164.705927,25.9081768 162.440614,32.8429907 C155.214394,54.9647771 139.813404,77.1105697 132.382288,99.1657386 C130.770234,103.95139 128.230722,108.646418 126.959158,113.516692 C126.581907,114.96127 126.371586,117.231664 127.492491,118.411573 C128.137915,119.09095 130.450233,118.698448 131.732645,118.145703 C133.2308,117.500534 134.600594,116.315224 135.720896,115.087903 C145.974162,103.854165 156.103887,92.5057966 166.421032,81.3302734 C168.341636,79.248929 170.806421,77.5648885 173.263372,76.1029061 C175.835426,74.573106 178.360475,75.8856493 180.468499,77.4142491 C182.370422,78.7928097 183.844472,80.7889318 183.138784,83.3083908 C182.425864,85.8566574 181.750308,88.6389852 180.217802,90.6969235 C173.483937,99.7400889 166.405363,108.526987 159.531083,117.466926 C154.542454,123.956423 149.178985,130.234065 144.887005,137.162277 C139.55427,145.77273 135.223721,154.995342 130.330309,163.883067 C125.199458,173.201104 120.510339,182.840225 114.520128,191.585713 C109.07229,199.538393 102.167275,206.507416 95.8401897,213.854538 C93.3525043,216.743093 90.8648189,219.548227 90.4285097,223.580081 C90.1416545,226.233976 89.8089989,228.907675 89.1732169,231.493751 C88.0378488,236.11376 85.363346,239.315597 80.310235,239.97637 C77.4555436,240.349668 74.6056734,240.760175 71.7539953,241.153878"></path>
                </g>
            </g>
            <g id="Right-hand" transform="translate(1084.359144, 144.701164) rotate(340.000000) translate(-1084.359144, -144.701164) translate(992.859144, 24.201164)" stroke="#7A7777">
                <path d="M71.6293852,241 L63.2071228,241 C57.6412105,240.605348 52.0163424,240.580758 46.5250273,239.713483 C40.6871962,238.79223 34.8571858,237.430741 29.2461543,235.587634 C24.7450566,234.108589 23.0882773,230.686875 23.5238286,225.975646 C24.2288923,218.347112 25.0921742,210.732973 25.7689631,203.101441 C26.288737,197.231446 25.8796557,191.690129 23.1039186,186.072639 C16.9556671,173.629115 11.574443,160.809532 5.85091406,148.156687 C3.56186346,143.095788 2.6901593,137.753596 2.54517606,132.263858 C2.21911419,119.921096 2.03923873,107.572936 1.57842066,95.235572 C1.23611585,86.080612 0.534060116,76.9388471 0.0154893863,67.7898849 C-0.159573354,64.6986464 1.14948686,62.4548895 3.93304459,60.998037 C6.8525617,59.470411 9.89901434,59.105748 12.2596542,61.5108443 C15.4396598,64.7520264 18.749609,68.1107643 20.9556401,72.0086996 C26.5341858,81.8689946 28.6890818,92.7399097 28.9375385,104.019871 C29.0187532,107.705486 29.0789122,111.427688 29.6720801,115.047328 C29.9355766,116.656523 31.2061351,118.669367 32.5795655,119.317123 C33.3995329,119.703978 35.8245428,118.125971 36.6312753,116.862246 C39.5128922,112.348942 42.6718422,107.835637 44.5090986,102.874302 C47.7985937,93.9940385 50.6417088,84.8954573 52.8922576,75.6979134 C58.0905983,54.4508971 62.9737058,33.1301085 71.0452411,12.716779 C72.2803057,9.59375247 73.6013978,6.45273273 75.3321727,3.59000841 C77.1922895,0.512564785 80.4029763,-0.126794971 83.776694,0.501169067 C86.8544293,1.07395384 89.4135939,2.80010523 89.6794967,6.00290175 C90.0374429,10.3158811 90.2455931,14.7806035 89.5345135,19.0162119 C87.273136,32.4859506 84.4498734,45.8603251 82.0561461,59.3090716 C80.7549065,66.6173255 79.8537244,73.9975523 78.8376386,81.3543879 C78.5175927,83.6725169 79.833872,85.6805623 81.8504022,85.8203098 C83.2063865,85.9138747 84.7326207,84.0587717 86.1102622,82.9845754 C86.4489575,82.7206745 86.5127261,82.0999078 86.6919999,81.6398806 C94.3021156,62.0722333 101.802742,42.4614022 109.582506,22.9609297 C112.111591,16.6219116 115.245876,10.5090086 118.346472,4.41529831 C119.971367,1.2214984 123.099636,-0.199967476 126.570209,0.0225489118 C130.98528,0.305642537 135.133845,1.88364959 135.92253,6.79100562 C136.380942,9.64293399 135.915311,12.9302987 134.920281,15.6820647 C126.022161,40.2788223 116.910476,64.7994086 107.877599,89.3481842 C107.470323,90.4547684 107.01913,91.6075352 106.967394,92.7561036 C106.940322,93.3606765 107.613501,94.2243519 108.203661,94.5440318 C108.572436,94.7443566 110.122734,94.8960995 110.548058,94.4750577 C111.089489,93.9388592 113.259425,91.9715984 113.546985,91.2440718 C118.490853,78.708782 125.379061,68.8922706 130.426402,56.3995649 C134.215217,47.0226883 139.068847,38.6828221 143.067617,29.392313 C144.225678,26.7029236 147.793709,22.1500344 151.010412,21.9707017 C157.7777,21.5946431 164.419857,25.8914285 162.158479,32.8218244 C154.944811,54.9295172 139.570573,77.0612011 132.152365,99.102319 C130.543111,103.884922 128.00801,108.576959 126.738655,113.44413 C126.362059,114.887788 126.152104,117.156735 127.271062,118.335892 C127.915365,119.014837 130.223666,118.622584 131.50385,118.070192 C132.999404,117.425434 134.366818,116.240879 135.485174,115.01434 C145.720629,103.787758 155.832759,92.4466199 166.131982,81.2782165 C168.04925,79.1981981 170.509754,77.5152305 172.962437,76.0541795 C175.530024,74.525354 178.050687,75.8370611 180.155049,77.3646871 C182.053668,78.7423694 183.525157,80.7372198 182.820695,83.2550737 C182.109014,85.8017168 181.434632,88.582272 179.904788,90.6388992 C173.182619,99.6763033 166.116341,108.457604 159.254002,117.391847 C154.274038,123.87721 148.919886,130.150852 144.635361,137.074651 C139.311889,145.679617 134.988862,154.896354 130.10395,163.778417 C124.982011,173.090517 120.301038,182.723498 114.321232,191.463414 C108.882857,199.411027 101.989836,206.37561 95.6737412,213.718051 C93.190377,216.604767 90.7070127,219.408113 90.2714615,223.437399 C89.9851045,226.089603 89.6530268,228.761599 89.0183491,231.346028 C87.8849532,235.963093 85.2150961,239.16289 80.1707625,239.823242 C77.3210298,240.196302 74.4761099,240.606548 71.6293852,241" id="Fill-1"></path>
            </g>
        </g>
    </g>
</svg>