<?xml version="1.0" encoding="UTF-8"?>
<svg width="187px" height="187px" viewBox="0 0 187 187" version="1.1" xmlns="http://www.w3.org/2000/svg" xmlns:xlink="http://www.w3.org/1999/xlink">
    <!-- Generator: Sketch 48.2 (47327) - http://www.bohemiancoding.com/sketch -->
    <title>Lock icon</title>
    <desc>Created with Sketch.</desc>
    <defs></defs>
    <g id="Learn---Chapter-2-Unlock" stroke="none" stroke-width="1" fill="none" fill-rule="evenodd" transform="translate(-986.000000, -459.000000)">
        <g id="Lock-icon" transform="translate(986.000000, 459.000000)" fill="#52B094">
            <g id="padlock">
                <path d="M93.9979966,101 C88.4756982,101 84,105.359717 84,110.73795 C84,114.344511 86.0186721,117.487472 89.011019,119.17095 L89.011019,130 L98.9881797,130 L98.9881797,119.17095 C101.980527,117.487472 104,114.344511 104,110.73795 C104,105.359717 99.5235004,101 93.9979966,101 Z" id="Fill-1"></path>
                <path d="M92.5030494,53 C84.5044164,53 78,59.5172888 78,67.5286958 L78,83 L107,83 L107,67.5286958 C107,59.5172888 100.495584,53 92.5030494,53 Z" id="Fill-2"></path>
                <path d="M93.4984416,0 C41.8629852,0 0,41.862206 0,93.4984416 C0,145.133898 41.8629852,187 93.4984416,187 C145.134677,187 187,145.133898 187,93.4984416 C187,41.862206 145.134677,0 93.4984416,0 Z M122.227575,141.573047 L64.7724254,141.573047 C58.7065118,141.573047 53.7844339,136.651748 53.7844339,130.582718 L53.7844339,95.1019934 C53.7844339,89.8098052 57.5315089,85.3902982 62.5135836,84.3493142 L62.5135836,68.3332764 C62.5135836,51.2458666 76.4141486,37.3453016 93.5015584,37.3453016 C110.585851,37.3453016 124.486416,51.2458666 124.486416,68.3332764 L124.486416,84.3493142 C129.468491,85.3934149 133.215566,89.8098052 133.215566,95.1019934 L133.215566,130.582718 C133.215566,136.651748 128.296605,141.573047 122.227575,141.573047 Z" id="Fill-3"></path>
            </g>
        </g>
    </g>
</svg>