<?xml version="1.0" encoding="utf-8"?>
<!-- Generator: Adobe Illustrator 22.0.1, SVG Export Plug-In . SVG Version: 6.00 Build 0)  -->
<svg version="1.1" id="Layer_1" xmlns="http://www.w3.org/2000/svg" xmlns:xlink="http://www.w3.org/1999/xlink" x="0px" y="0px"
	 viewBox="0 0 288 288" style="enable-background:new 0 0 288 288;" xml:space="preserve">
<style type="text/css">
	.st0{clip-path:url(#SVGID_2_);}
	.st1{clip-path:url(#SVGID_4_);fill:#BFD8BD;}
	.st2{clip-path:url(#SVGID_6_);}
	.st3{clip-path:url(#SVGID_8_);fill:#7F5B53;}
	.st4{clip-path:url(#SVGID_10_);}
	.st5{clip-path:url(#SVGID_12_);fill:#4FBA6F;}
	.st6{clip-path:url(#SVGID_14_);}
	.st7{clip-path:url(#SVGID_16_);fill:#4FBA6F;}
	.st8{clip-path:url(#SVGID_18_);}
	.st9{clip-path:url(#SVGID_20_);fill:#88C057;}
	.st10{clip-path:url(#SVGID_22_);}
	.st11{clip-path:url(#SVGID_24_);fill:#4C8056;}
	.st12{clip-path:url(#SVGID_26_);}
	.st13{clip-path:url(#SVGID_28_);enable-background:new    ;}
	.st14{clip-path:url(#SVGID_30_);}
	.st15{clip-path:url(#SVGID_32_);}
	.st16{clip-path:url(#SVGID_34_);fill:#4C8056;}
	.st17{clip-path:url(#SVGID_36_);}
	.st18{clip-path:url(#SVGID_38_);fill:#88C057;}
	.st19{clip-path:url(#SVGID_40_);}
	.st20{clip-path:url(#SVGID_42_);fill:#804537;}
	.st21{clip-path:url(#SVGID_44_);}
	.st22{clip-path:url(#SVGID_46_);fill:#804537;}
	.st23{clip-path:url(#SVGID_48_);}
	.st24{clip-path:url(#SVGID_50_);fill:#804537;}
	.st25{clip-path:url(#SVGID_52_);}
	.st26{clip-path:url(#SVGID_54_);fill:#804537;}
	.st27{clip-path:url(#SVGID_56_);}
	.st28{clip-path:url(#SVGID_58_);fill:#71C285;}
	.st29{clip-path:url(#SVGID_60_);}
	.st30{clip-path:url(#SVGID_62_);fill:#4C8056;}
	.st31{clip-path:url(#SVGID_64_);}
	.st32{clip-path:url(#SVGID_66_);fill:#88C057;}
	.st33{clip-path:url(#SVGID_68_);}
	.st34{clip-path:url(#SVGID_70_);fill:#88C057;}
	.st35{clip-path:url(#SVGID_72_);}
	.st36{clip-path:url(#SVGID_74_);fill:#4C8056;}
	.st37{clip-path:url(#SVGID_76_);}
	.st38{clip-path:url(#SVGID_78_);fill:#71C285;}
	.st39{clip-path:url(#SVGID_80_);}
	.st40{clip-path:url(#SVGID_82_);fill:#805333;}
</style>
<g>
	<defs>
		<path id="SVGID_1_" d="M145.4,187.3c1.1,4.6,1.6,7.6,1.8,8.2l-12.6,2.6c0-0.2-0.8-4.3-2.5-10.9c-48.9,1.6-87.7,0.8-87.7,25.7
			h186.6C230.9,188.4,193.3,189.5,145.4,187.3"/>
	</defs>
	<clipPath id="SVGID_2_">
		<use xlink:href="#SVGID_1_"  style="overflow:visible;"/>
	</clipPath>
	<g class="st0">
		<defs>
			<rect id="SVGID_3_" x="-1054.9" y="-238.6" width="1440" height="1024"/>
		</defs>
		<clipPath id="SVGID_4_">
			<use xlink:href="#SVGID_3_"  style="overflow:visible;"/>
		</clipPath>
		<rect x="39.3" y="182.3" class="st1" width="196.6" height="35.7"/>
	</g>
</g>
<g>
	<defs>
		<path id="SVGID_5_" d="M134.5,198.1c-0.2-0.8-16.1-82-58.5-111.1l3.6-3.2c52.1,26.8,66.8,108.4,67.4,111.7L134.5,198.1z"/>
	</defs>
	<clipPath id="SVGID_6_">
		<use xlink:href="#SVGID_5_"  style="overflow:visible;"/>
	</clipPath>
	<g class="st2">
		<defs>
			<rect id="SVGID_7_" x="-1054.9" y="-238.6" width="1440" height="1024"/>
		</defs>
		<clipPath id="SVGID_8_">
			<use xlink:href="#SVGID_7_"  style="overflow:visible;"/>
		</clipPath>
		<rect x="71" y="78.9" class="st3" width="81.1" height="124.3"/>
	</g>
</g>
<g>
	<defs>
		<path id="SVGID_9_" d="M47.5,122.6c-1.8,0-3.2-1.4-3.2-3.2c0-19.6,15.9-35.5,35.4-35.5c1.8,0,3.2,1.4,3.2,3.2
			c0,1.8-1.4,3.2-3.2,3.2c-16,0-29,13-29,29C50.7,121.1,49.3,122.6,47.5,122.6"/>
	</defs>
	<clipPath id="SVGID_10_">
		<use xlink:href="#SVGID_9_"  style="overflow:visible;"/>
	</clipPath>
	<g class="st4">
		<defs>
			<rect id="SVGID_11_" x="-1054.9" y="-238.6" width="1440" height="1024"/>
		</defs>
		<clipPath id="SVGID_12_">
			<use xlink:href="#SVGID_11_"  style="overflow:visible;"/>
		</clipPath>
		<rect x="39.3" y="78.9" class="st5" width="48.6" height="48.7"/>
	</g>
</g>
<g>
	<defs>
		<path id="SVGID_13_" d="M79.7,90.3c-1.8,0-3.2-1.4-3.2-3.2c0-19.6,15.9-35.5,35.4-35.5c1.8,0,3.2,1.4,3.2,3.2
			c0,1.8-1.4,3.2-3.2,3.2c-16,0-29,13-29,29C82.9,88.9,81.5,90.3,79.7,90.3"/>
	</defs>
	<clipPath id="SVGID_14_">
		<use xlink:href="#SVGID_13_"  style="overflow:visible;"/>
	</clipPath>
	<g class="st6">
		<defs>
			<rect id="SVGID_15_" x="-1054.9" y="-238.6" width="1440" height="1024"/>
		</defs>
		<clipPath id="SVGID_16_">
			<use xlink:href="#SVGID_15_"  style="overflow:visible;"/>
		</clipPath>
		<rect x="71.5" y="46.6" class="st7" width="48.6" height="48.7"/>
	</g>
</g>
<g>
	<defs>
		<path id="SVGID_17_" d="M76.5,129c-0.7,0-1.5-0.3-2.1-0.8c-8.8-7.4-13.2-23.3-9.3-34.1c2.4-6.7,7.6-10.4,14.6-10.4
			c1.8,0,3.2,1.4,3.2,3.2c0,1.8-1.4,3.2-3.2,3.2c-4.3,0-7,2-8.5,6.1c-3,8.2,0.6,21.3,7.4,26.9c1.4,1.1,1.6,3.2,0.4,4.5
			C78.3,128.7,77.4,129,76.5,129"/>
	</defs>
	<clipPath id="SVGID_18_">
		<use xlink:href="#SVGID_17_"  style="overflow:visible;"/>
	</clipPath>
	<g class="st8">
		<defs>
			<rect id="SVGID_19_" x="-1054.9" y="-238.6" width="1440" height="1024"/>
		</defs>
		<clipPath id="SVGID_20_">
			<use xlink:href="#SVGID_19_"  style="overflow:visible;"/>
		</clipPath>
		<rect x="58.7" y="78.9" class="st9" width="29.2" height="55.2"/>
	</g>
</g>
<g>
	<defs>
		<path id="SVGID_21_" d="M79.2,91.2c-1.8,0-3.2-1.4-3.2-3.2c0-8.3,5.4-14.7,14.9-17.6c9.9-3.1,23.9-1.6,29.1,6.1
			c1,1.5,0.6,3.5-0.9,4.5c-1.4,1-3.4,0.6-4.4-0.9c-3-4.5-13.5-6.2-21.9-3.6c-3.9,1.2-10.4,4.3-10.4,11.5
			C82.4,89.7,81,91.2,79.2,91.2"/>
	</defs>
	<clipPath id="SVGID_22_">
		<use xlink:href="#SVGID_21_"  style="overflow:visible;"/>
	</clipPath>
	<g class="st10">
		<defs>
			<rect id="SVGID_23_" x="-1054.9" y="-238.6" width="1440" height="1024"/>
		</defs>
		<clipPath id="SVGID_24_">
			<use xlink:href="#SVGID_23_"  style="overflow:visible;"/>
		</clipPath>
		<rect x="71.1" y="63.8" class="st11" width="54.5" height="32.4"/>
	</g>
</g>
<g>
	<defs>
		<rect id="SVGID_25_" x="41.1" y="78.4" width="41.3" height="19.2"/>
	</defs>
	<clipPath id="SVGID_26_">
		<use xlink:href="#SVGID_25_"  style="overflow:visible;"/>
	</clipPath>
	<g class="st12">
		<defs>
			<rect id="SVGID_27_" x="-1054.9" y="-238.6" width="1440" height="1024"/>
		</defs>
		<clipPath id="SVGID_28_">
			<use xlink:href="#SVGID_27_"  style="overflow:visible;"/>
		</clipPath>
		<g class="st13">
			<g>
				<defs>
					<rect id="SVGID_29_" x="40.1" y="77.4" width="43" height="21"/>
				</defs>
				<clipPath id="SVGID_30_">
					<use xlink:href="#SVGID_29_"  style="overflow:visible;"/>
				</clipPath>
				<g class="st14">
					<defs>
						<path id="SVGID_31_" d="M44.3,97.7c-0.7,0-1.3-0.2-1.9-0.7c-1.4-1.1-1.7-3.1-0.6-4.5c3.6-4.8,11-13,21.2-13.9
							c6.4-0.6,12.6,1.7,18.4,7c1.3,1.2,1.4,3.2,0.2,4.6c-1.2,1.3-3.2,1.4-4.5,0.3c-4.4-4-9-5.9-13.6-5.4
							c-7.7,0.8-13.8,7.5-16.7,11.4C46.2,97.2,45.2,97.7,44.3,97.7"/>
					</defs>
					<clipPath id="SVGID_32_">
						<use xlink:href="#SVGID_31_"  style="overflow:visible;"/>
					</clipPath>
					<g class="st15">
						<defs>
							<rect id="SVGID_33_" x="41.1" y="78.4" width="42" height="20"/>
						</defs>
						<clipPath id="SVGID_34_">
							<use xlink:href="#SVGID_33_"  style="overflow:visible;"/>
						</clipPath>
						<rect x="36.1" y="73.4" class="st16" width="51.3" height="29.2"/>
					</g>
				</g>
			</g>
		</g>
	</g>
</g>
<g>
	<defs>
		<path id="SVGID_35_" d="M79.8,90.6c-0.8,0-1.7-0.3-2.3-1c-7.3-7.4-9.2-17.7-5.1-27.6C76.6,51.9,86,45.1,96,45.1
			c1.8,0,3.2,1.5,3.2,3.3c0,1.8-1.4,3.3-3.2,3.3c-7.4,0-14.4,5.2-17.6,12.9c-3.1,7.4-1.7,15.1,3.8,20.6c1.3,1.3,1.3,3.3,0,4.6
			C81.5,90.3,80.6,90.6,79.8,90.6"/>
	</defs>
	<clipPath id="SVGID_36_">
		<use xlink:href="#SVGID_35_"  style="overflow:visible;"/>
	</clipPath>
	<g class="st17">
		<defs>
			<rect id="SVGID_37_" x="-1054.9" y="-238.6" width="1440" height="1024"/>
		</defs>
		<clipPath id="SVGID_38_">
			<use xlink:href="#SVGID_37_"  style="overflow:visible;"/>
		</clipPath>
		<rect x="65.3" y="40.1" class="st18" width="38.9" height="55.5"/>
	</g>
</g>
<g>
	<defs>
		<polygon id="SVGID_39_" points="127.3,136.8 130,142.7 119,147.8 116.3,141.9 		"/>
	</defs>
	<clipPath id="SVGID_40_">
		<use xlink:href="#SVGID_39_"  style="overflow:visible;"/>
	</clipPath>
	<g class="st19">
		<defs>
			<rect id="SVGID_41_" x="-1054.9" y="-238.6" width="1440" height="1024"/>
		</defs>
		<clipPath id="SVGID_42_">
			<use xlink:href="#SVGID_41_"  style="overflow:visible;"/>
		</clipPath>
		<rect x="111.3" y="131.8" class="st20" width="23.7" height="21"/>
	</g>
</g>
<g>
	<defs>
		<path id="SVGID_43_" d="M118.5,121.4l-1.7-2.6l-8.7,6.5c0.5,1,1.1,1.9,1.6,2.9l1.5,2.9l9-6.9C119.6,123.2,119.1,122.3,118.5,121.4
			"/>
	</defs>
	<clipPath id="SVGID_44_">
		<use xlink:href="#SVGID_43_"  style="overflow:visible;"/>
	</clipPath>
	<g class="st21">
		<defs>
			<rect id="SVGID_45_" x="-1054.9" y="-238.6" width="1440" height="1024"/>
		</defs>
		<clipPath id="SVGID_46_">
			<use xlink:href="#SVGID_45_"  style="overflow:visible;"/>
		</clipPath>
		<rect x="103.1" y="113.8" class="st22" width="22.1" height="22.2"/>
	</g>
</g>
<g>
	<defs>
		<path id="SVGID_47_" d="M143.1,178.5l-0.9-3.2l-12,5.6c0.3,1.1,0.6,2.1,0.9,3.2l1,3.7l11.9-6.1
			C143.7,180.6,143.4,179.6,143.1,178.5"/>
	</defs>
	<clipPath id="SVGID_48_">
		<use xlink:href="#SVGID_47_"  style="overflow:visible;"/>
	</clipPath>
	<g class="st23">
		<defs>
			<rect id="SVGID_49_" x="-1054.9" y="-238.6" width="1440" height="1024"/>
		</defs>
		<clipPath id="SVGID_50_">
			<use xlink:href="#SVGID_49_"  style="overflow:visible;"/>
		</clipPath>
		<rect x="125.2" y="170.3" class="st24" width="23.7" height="22.5"/>
	</g>
</g>
<g>
	<defs>
		<path id="SVGID_51_" d="M136.3,157.7l-1.3-3l-11.4,5.3c0.4,1.1,0.8,2.1,1.1,3.1l1,3l11.8-5.3C137.1,159.7,136.7,158.7,136.3,157.7
			"/>
	</defs>
	<clipPath id="SVGID_52_">
		<use xlink:href="#SVGID_51_"  style="overflow:visible;"/>
	</clipPath>
	<g class="st25">
		<defs>
			<rect id="SVGID_53_" x="-1054.9" y="-238.6" width="1440" height="1024"/>
		</defs>
		<clipPath id="SVGID_54_">
			<use xlink:href="#SVGID_53_"  style="overflow:visible;"/>
		</clipPath>
		<rect x="118.6" y="149.7" class="st26" width="23.9" height="21.3"/>
	</g>
</g>
<g>
	<defs>
		<path id="SVGID_55_" d="M176.6,93.8c-1.8,0-3.2-1.5-3.2-3.3c0-16.1-13-29.3-29-29.3c-1.8,0-3.2-1.5-3.2-3.3c0-1.8,1.5-3.3,3.2-3.3
			c19.6,0,35.5,16.1,35.5,35.8C179.8,92.4,178.3,93.8,176.6,93.8"/>
	</defs>
	<clipPath id="SVGID_56_">
		<use xlink:href="#SVGID_55_"  style="overflow:visible;"/>
	</clipPath>
	<g class="st27">
		<defs>
			<rect id="SVGID_57_" x="-1054.9" y="-238.6" width="1440" height="1024"/>
		</defs>
		<clipPath id="SVGID_58_">
			<use xlink:href="#SVGID_57_"  style="overflow:visible;"/>
		</clipPath>
		<rect x="136.1" y="49.8" class="st28" width="48.7" height="49"/>
	</g>
</g>
<g>
	<defs>
		<path id="SVGID_59_" d="M208.8,126.3c-1.8,0-3.2-1.5-3.2-3.3c0-16.1-13-29.3-29-29.3c-1.8,0-3.2-1.5-3.2-3.3
			c0-1.8,1.5-3.3,3.2-3.3c19.6,0,35.5,16.1,35.5,35.8C212,124.9,210.6,126.3,208.8,126.3"/>
	</defs>
	<clipPath id="SVGID_60_">
		<use xlink:href="#SVGID_59_"  style="overflow:visible;"/>
	</clipPath>
	<g class="st29">
		<defs>
			<rect id="SVGID_61_" x="-1054.9" y="-238.6" width="1440" height="1024"/>
		</defs>
		<clipPath id="SVGID_62_">
			<use xlink:href="#SVGID_61_"  style="overflow:visible;"/>
		</clipPath>
		<rect x="168.3" y="82.3" class="st30" width="48.7" height="49"/>
	</g>
</g>
<g>
	<defs>
		<path id="SVGID_63_" d="M176.6,93.8c-1.8,0-3.2-1.5-3.2-3.3c0-4.3-2-7.1-6.1-8.6c-8.2-3-21.3,0.6-26.9,7.4
			c-1.2,1.4-3.2,1.6-4.6,0.4c-1.4-1.1-1.6-3.2-0.4-4.6c7.3-8.9,23.3-13.3,34-9.4c6.7,2.4,10.4,7.7,10.4,14.7
			C179.8,92.4,178.3,93.8,176.6,93.8"/>
	</defs>
	<clipPath id="SVGID_64_">
		<use xlink:href="#SVGID_63_"  style="overflow:visible;"/>
	</clipPath>
	<g class="st31">
		<defs>
			<rect id="SVGID_65_" x="-1054.9" y="-238.6" width="1440" height="1024"/>
		</defs>
		<clipPath id="SVGID_66_">
			<use xlink:href="#SVGID_65_"  style="overflow:visible;"/>
		</clipPath>
		<rect x="129.6" y="69.4" class="st32" width="55.2" height="29.4"/>
	</g>
</g>
<g>
	<defs>
		<path id="SVGID_67_" d="M186.2,132.8c-1,0-2-0.5-2.7-1.4c-1-1.5-0.6-3.5,0.9-4.5c4.5-3.1,6.2-13.8,3.6-22.5
			c-1.2-3.9-4.3-10.6-11.4-10.6c-1.8,0-3.2-1.5-3.2-3.3c0-1.8,1.4-3.3,3.2-3.3c8.2,0,14.7,5.6,17.6,15.2c3.1,10.2,1.6,24.4-6.1,29.7
			C187.5,132.7,186.9,132.8,186.2,132.8"/>
	</defs>
	<clipPath id="SVGID_68_">
		<use xlink:href="#SVGID_67_"  style="overflow:visible;"/>
	</clipPath>
	<g class="st33">
		<defs>
			<rect id="SVGID_69_" x="-1054.9" y="-238.6" width="1440" height="1024"/>
		</defs>
		<clipPath id="SVGID_70_">
			<use xlink:href="#SVGID_69_"  style="overflow:visible;"/>
		</clipPath>
		<rect x="168.3" y="82.3" class="st34" width="32.4" height="55.5"/>
	</g>
</g>
<g>
	<defs>
		<path id="SVGID_71_" d="M176.6,93.8c-0.8,0-1.6-0.3-2.2-0.9c-1.3-1.2-1.4-3.3-0.2-4.6c4.5-4.9,6.3-10.4,5.3-15.9
			c-1-5.5-4.6-9.9-7.6-11.5c-1.6-0.8-2.2-2.8-1.4-4.4c0.8-1.6,2.8-2.2,4.3-1.4c4.5,2.3,9.6,8.2,11,16.1c0.9,5.3,0.5,13.3-6.9,21.4
			C178.3,93.5,177.4,93.8,176.6,93.8"/>
	</defs>
	<clipPath id="SVGID_72_">
		<use xlink:href="#SVGID_71_"  style="overflow:visible;"/>
	</clipPath>
	<g class="st35">
		<defs>
			<rect id="SVGID_73_" x="-1054.9" y="-238.6" width="1440" height="1024"/>
		</defs>
		<clipPath id="SVGID_74_">
			<use xlink:href="#SVGID_73_"  style="overflow:visible;"/>
		</clipPath>
		<rect x="165.1" y="49.8" class="st36" width="26.1" height="49"/>
	</g>
</g>
<g>
	<defs>
		<path id="SVGID_75_" d="M215.3,110.1c-1.8,0-3.2-1.5-3.2-3.3c0-7.4-5.1-14.5-12.8-17.7c-7.4-3.1-15-1.7-20.4,3.8
			c-1.3,1.3-3.3,1.3-4.6,0c-1.3-1.3-1.3-3.3,0-4.6c7.3-7.4,17.6-9.3,27.4-5.2c10,4.2,16.8,13.7,16.8,23.7
			C218.5,108.6,217,110.1,215.3,110.1"/>
	</defs>
	<clipPath id="SVGID_76_">
		<use xlink:href="#SVGID_75_"  style="overflow:visible;"/>
	</clipPath>
	<g class="st37">
		<defs>
			<rect id="SVGID_77_" x="-1054.9" y="-238.6" width="1440" height="1024"/>
		</defs>
		<clipPath id="SVGID_78_">
			<use xlink:href="#SVGID_77_"  style="overflow:visible;"/>
		</clipPath>
		<rect x="168.3" y="76" class="st38" width="55.1" height="39.1"/>
	</g>
</g>
<g>
	<defs>
		<path id="SVGID_79_" d="M143.8,180.9c9.4-36,38.9-89.9,39.2-90.4l-6.4-3.4c-1.1,1.8-26.1,43.8-38.6,74.9
			C140.4,169.1,142.4,175.6,143.8,180.9"/>
	</defs>
	<clipPath id="SVGID_80_">
		<use xlink:href="#SVGID_79_"  style="overflow:visible;"/>
	</clipPath>
	<g class="st39">
		<defs>
			<rect id="SVGID_81_" x="-1054.9" y="-238.6" width="1440" height="1024"/>
		</defs>
		<clipPath id="SVGID_82_">
			<use xlink:href="#SVGID_81_"  style="overflow:visible;"/>
		</clipPath>
		<rect x="132.9" y="82.1" class="st40" width="55.1" height="103.8"/>
	</g>
</g>
</svg>
