<?xml version="1.0" encoding="UTF-8"?>
<svg width="117px" height="82px" viewBox="0 0 117 82" version="1.1" xmlns="http://www.w3.org/2000/svg" xmlns:xlink="http://www.w3.org/1999/xlink">
    <!-- Generator: Sketch 48.2 (47327) - http://www.bohemiancoding.com/sketch -->
    <title>My Scores Button</title>
    <desc>Created with Sketch.</desc>
    <defs>
        <polygon id="path-1" points="0.0143661972 0.114613721 84.8441429 0.114613721 84.8441429 62.819416 0.0143661972 62.819416"></polygon>
    </defs>
    <g id="My-Progress-New" stroke="none" stroke-width="1" fill="none" fill-rule="evenodd" transform="translate(-56.000000, -405.000000)">
        <g id="My-Scores-Button" transform="translate(56.000000, 405.000000)">
            <g id="speed-meter">
                <path d="M32.9970847,28.0112602 C33.0209701,27.6429519 32.897328,27.2800255 32.6540248,27.0032093 L21.6306788,14.4725368 C21.3873756,14.1954866 21.043379,14.0265421 20.6747945,14.0026746 C20.3052733,13.9799771 19.9439481,14.1023565 19.6666901,14.3464134 C14.6018146,18.7951286 10.3977501,24.0417671 7.17064534,29.9410179 C6.99408072,30.2643992 6.95193001,30.6446413 7.05637009,30.9984419 C7.15963932,31.3522425 7.40013251,31.6501183 7.72399042,31.8274866 L22.3744046,39.8289496 C22.5865631,39.9450111 22.8153478,40 23.0410882,40 C23.5333148,40 24.0098519,39.7386275 24.2632245,39.2760191 C26.3955818,35.3776605 29.1763575,31.9089169 32.5268701,28.9657263 C32.8050648,28.7226054 32.9731993,28.3788666 32.9970847,28.0112602 Z" id="Fill-1" fill="#4A4A4A"></path>
                <g id="Group-6">
                    <mask id="mask-2" fill="white">
                        <use xlink:href="#path-1"></use>
                    </mask>
                    <g id="Clip-3"></g>
                    <path d="M38.5895211,23.7572519 C38.8457183,24.240813 39.3387183,24.5170992 39.8484789,24.5170992 C40.072831,24.5170992 40.3010141,24.4634771 40.5133944,24.3497405 C44.5287465,22.2120687 48.8479437,20.8162099 53.3522254,20.2028015 C54.1303944,20.0967595 54.675831,19.3763473 54.57,18.5948588 L52.2757183,1.60577863 C52.1701268,0.823568702 51.4518169,0.276767176 50.6746056,0.382087786 C43.8346197,1.3138626 37.2764507,3.43181679 31.1811127,6.67896183 C30.4869859,7.04902672 30.2224085,7.91323282 30.5899437,8.61104198 L38.5895211,23.7572519 Z" id="Fill-2" fill="#4A4A4A" mask="url(#mask-2)"></path>
                    <path d="M20.2632817,46.7481641 L3.78597183,42.2592939 C3.42226761,42.1597443 3.03414085,42.2095191 2.70683099,42.3982786 C2.37952113,42.5870382 2.14008451,42.8979504 2.04071831,43.2634466 C0.686464789,48.2772366 0,53.4742557 0,58.7090267 C0,59.6052137 0.0215492958,60.5040458 0.0653661972,61.4574618 C0.101042254,62.2228397 0.72956338,62.819416 1.48522535,62.819416 C1.50773239,62.819416 1.53023944,62.819416 1.55250704,62.8184542 L18.6068592,62.026626 C18.9827746,62.0097939 19.338338,61.8424351 19.591662,61.562542 C19.8461831,61.2826489 19.978831,60.9116221 19.9620704,60.5341031 C19.9321408,59.8906374 19.9182535,59.2943015 19.9182535,58.7090267 C19.9182535,55.2430649 20.3707887,51.8081221 21.2641268,48.5008626 C21.4688451,47.7400534 21.0208592,46.9547176 20.2632817,46.7481641 Z" id="Fill-4" fill="#4A4A4A" mask="url(#mask-2)"></path>
                    <path d="M84.0384225,5.65893893 C77.8300704,2.65321374 71.1969577,0.790625954 64.3234507,0.121912214 C63.9453803,0.0831984733 63.5732958,0.199820611 63.2814225,0.440278626 C62.990507,0.681698473 62.8063803,1.02819847 62.7697465,1.40571756 L61.1236197,18.4707824 C61.0479577,19.2561183 61.621169,19.9548893 62.403169,20.030874 C66.9337887,20.4713931 71.3025493,21.6982099 75.3897324,23.6771794 C75.5843944,23.7711985 75.7958169,23.8190496 76.0079577,23.8190496 C76.1659859,23.8190496 76.3242535,23.7918779 76.4765352,23.7382557 C76.8330563,23.6144198 77.1256479,23.3513588 77.2894225,23.0103893 L84.7026197,7.56577099 C85.0440563,6.85545802 84.7464366,6.00087023 84.0384225,5.65893893 Z" id="Fill-5" fill="#4A4A4A" mask="url(#mask-2)"></path>
                </g>
                <path d="M107.95835,29.417456 C108.04774,29.0610091 107.991959,28.6838005 107.803375,28.3686436 C104.361714,22.6141717 99.9736327,17.5476331 94.761429,13.3103935 C94.4759855,13.0789829 94.1123543,12.9705092 93.7447553,13.0069004 C93.3783232,13.0442247 93.0429329,13.225714 92.8111705,13.5107783 L82.3102093,26.4149505 C82.0786803,26.7000147 81.9692175,27.0655594 82.0074945,27.4308709 C82.0450713,27.7971154 82.2264201,28.1325675 82.5118636,28.3649111 C85.9607591,31.1679651 88.8625738,34.5185196 91.1391202,38.3246637 C91.3991236,38.7585585 91.8584473,39 92.3308412,39 C92.5733398,39 92.8177056,38.9360822 93.0410658,38.8031144 L107.324679,30.2693829 C107.640231,30.0808952 107.868025,29.7746028 107.95835,29.417456 Z" id="Fill-7" fill="#4A4A4A"></path>
                <path d="M114.294631,41.014324 C114.056991,40.2522707 113.248869,39.8272046 112.490891,40.0668669 L96.0089257,45.2542796 C95.2509476,45.4929688 94.8279915,46.3036845 95.0666008,47.0650078 C96.2492306,50.8579992 96.8482973,54.8205791 96.8482973,58.840824 C96.8482973,59.4320722 96.834005,60.0364593 96.8037246,60.6865891 C96.7867676,61.0695623 96.9212124,61.4440195 97.1784744,61.7272347 C97.4350096,62.0104499 97.7944981,62.1797951 98.1750617,62.1978002 L115.429055,62.9980535 C115.451826,62.9990268 115.474596,63 115.497125,63 C116.260917,63 116.897773,62.3953696 116.933625,61.6209074 C116.978198,60.6561751 117,59.7466747 117,58.840824 C117,52.7645924 116.089651,46.7674372 114.294631,41.014324 Z" id="Fill-8" fill="#4A4A4A"></path>
                <path d="M59.4516165,54.9870491 C59.2026743,54.9870491 58.9549477,54.9955318 58.7079505,55.0088617 L35.2434532,41.206341 C34.668747,40.8675188 33.9394243,40.9525879 33.4580714,41.4128335 C32.9767185,41.8728368 32.8617286,42.5953181 33.1750942,43.1813496 L45.9751927,67.0983672 C45.9287592,67.5595823 45.9029898,68.0244328 45.9029898,68.4938881 C45.9029898,72.100963 47.3122842,75.4930628 49.8717205,78.0444084 C52.4299412,80.595027 55.8324744,82 59.4516165,82 C63.0707585,82 66.4732917,80.595027 69.0315124,78.0444084 C71.5907056,75.4930628 73,72.100963 73,68.4938881 C73,64.8858438 71.5907056,61.493744 69.0315124,58.9433678 C66.4732917,56.3920221 63.0707585,54.9870491 59.4516165,54.9870491 Z" id="Fill-9" fill="#4A4A4A"></path>
            </g>
        </g>
    </g>
</svg>