<?xml version="1.0" encoding="UTF-8"?>
<svg width="369px" height="169px" viewBox="0 0 369 169" version="1.1" xmlns="http://www.w3.org/2000/svg" xmlns:xlink="http://www.w3.org/1999/xlink">
    <!-- Generator: Sketch 52.2 (67145) - http://www.bohemiancoding.com/sketch -->
    <title>Boat</title>
    <desc>Created with Sketch.</desc>
    <g id="Games" stroke="none" stroke-width="1" fill="none" fill-rule="evenodd">
        <g id="RST---1" transform="translate(-537.000000, -753.000000)">
            <g id="Boat" transform="translate(537.000000, 753.000000)">
                <path d="M115,60 L115,60 C116.104569,60 117,60.8954305 117,62 L117,101 C117,102.104569 116.104569,103 115,103 L115,103 C113.895431,103 113,102.104569 113,101 L113,62 C113,60.8954305 113.895431,60 115,60 Z" id="Rectangle-5" fill="#FB9031"></path>
                <rect id="Rectangle-5" fill="#FB9031" x="252" y="60" width="4" height="43" rx="2"></rect>
                <g id="canoe-(1)" transform="translate(0.000000, 75.000000)">
                    <path d="M192.433657,0.227264743 C192.128207,0.0623359523 191.569371,0.0465449638 191.13113,0.0190793875 C189.060757,-0.110675717 185.692158,0.449817024 184.278737,0.840383216 C183.221056,1.13264873 180.125016,2.9281309 179.606435,3.22996228 C177.996071,4.16724778 173.341946,7.2894401 171.910648,8.26769758 C156.160575,19.0324851 123.044309,24.0069188 105.068635,24.0069188 L0,24.0069188 L0,75.2761905 L105.068635,75.2761905 C129.340818,75.2761905 153.794327,52.3909164 167.951971,30.1907501 C169.82081,27.2602823 172.281632,23.2041349 176.563367,16.4466048 C178.016002,14.154025 179.905257,11.5423891 184.533535,6.20017298 C184.575654,6.15155766 185.34765,5.30502064 186.37968,4.52558733 C187.288916,3.8388929 188.428082,3.22952944 189.053151,2.9091599 C190.387705,2.22515452 189.295114,2.73490072 190.733672,2.13788702 C191.050901,2.00623417 191.775051,1.7702648 192.344857,1.43004544 C192.461945,1.36013496 192.876175,1.20254858 193.054658,1.05630451 C193.131402,0.955312023 193.138184,0.755445177 193.054658,0.676337742 C192.971131,0.597230306 192.90512,0.53756895 192.774328,0.437606804 C192.643536,0.337644659 192.739107,0.392193534 192.433657,0.227264743 Z" id="Combined-Shape" fill="#FCC53E" transform="translate(96.557393, 37.638095) scale(-1, 1) translate(-96.557393, -37.638095) "></path>
                    <path d="M368.318871,0.227264743 C368.013421,0.0623359523 367.454585,0.0465449638 367.016344,0.0190793875 C364.945971,-0.110675717 361.577372,0.449817024 360.163951,0.840383216 C359.10627,1.13264873 356.01023,2.9281309 355.491649,3.22996228 C353.881285,4.16724778 349.22716,7.2894401 347.795862,8.26769758 C332.045789,19.0324851 298.929523,24.0069188 280.953849,24.0069188 L175.885214,24.0069188 L175.885214,75.2761905 L280.953849,75.2761905 C305.226032,75.2761905 329.679541,52.3909164 343.837185,30.1907501 C345.706024,27.2602823 348.166846,23.2041349 352.448581,16.4466048 C353.901216,14.154025 355.790471,11.5423891 360.418749,6.20017298 C360.460868,6.15155766 361.232864,5.30502064 362.264894,4.52558733 C363.17413,3.8388929 364.313296,3.22952944 364.938365,2.9091599 C366.272919,2.22515452 365.180328,2.73490072 366.618886,2.13788702 C366.936115,2.00623417 367.660265,1.7702648 368.230071,1.43004544 C368.347159,1.36013496 368.761389,1.20254858 368.939872,1.05630451 C369.016616,0.955312023 369.023398,0.755445177 368.939872,0.676337742 C368.856345,0.597230306 368.790334,0.53756895 368.659542,0.437606804 C368.52875,0.337644659 368.624321,0.392193534 368.318871,0.227264743 Z" id="Combined-Shape" fill="#FCC53E"></path>
                    <path d="M104.395316,67.4597185 C97.882207,67.4597185 94.8543922,67.3573465 91.1811666,67.0133387 C88.6812614,66.7792156 86.9355415,66.6610907 82.0434192,65.5726432 C77.1512968,64.4841956 70.8316382,63.0910533 64.190645,58.8166307 C63.649033,58.4680265 60.570468,57.0270001 56.4724132,53.9118346 C52.6356069,50.995259 44.4621561,44.1227934 42.9313668,42.2699288 C39.7360264,38.4022944 31.2415456,30.967868 16.1008982,10.4990847 C14.3744798,8.16512339 9.02050582,4.95376688 0.0389763958,0.865015178 C0.0417412387,0.971199977 0.107790369,1.05965034 0.237123787,1.13036625 C1.7796313,1.97376649 2.4953,1.84431997 3.70446166,2.49827845 C4.65067002,3.01002226 6.34928808,4.24602467 7.01284424,4.69130892 C7.576927,5.06984082 8.05779299,5.64261491 8.39908762,6.00933391 C8.57826556,6.20185952 8.69083193,6.2833872 8.84589724,6.48876484 C9.29632794,7.08534179 9.80413497,7.64985987 10.1187326,8.01600183 C11.3829614,9.48736429 11.5360438,9.69430109 12.2189058,10.4990847 C13.0998829,11.5373559 13.6112637,12.2767142 14.0525942,12.8508256 C14.387423,13.2863925 14.6774434,13.6697358 15.050587,14.2368145 C20.181229,22.0340214 32.6594807,42.9340284 46.0137964,55.5132152 C57.8239573,66.6378751 69.8751516,72.6241856 82.0434192,74.696917 C85.5510503,75.2944037 89.6886169,75.465761 93.0679192,75.465761 L270.73346,75.465761 C280.27314,75.465761 290.887876,75.0265835 298.553123,72.2830077 C302.643529,70.8189534 309.518899,66.1480554 312.388911,63.8148444 C312.602345,63.641331 312.763924,63.5957248 312.866978,63.5228987 C313.192939,63.2925497 313.061222,63.3737522 313.187654,63.0910533 C304.602052,66.9714923 292.033562,70.0051006 280.506829,70.0051006 C265.00837,70.1152722 253.45697,70.1152722 245.852629,70.0051006 C214.414934,69.5496317 167.262496,68.701171 104.395316,67.4597185 Z" id="Fill-18" fill="#F5A623"></path>
                </g>
                <path d="M69.5,162 L300.5,162 C302.432997,162 304,163.567003 304,165.5 L304,165.5 C304,167.432997 302.432997,169 300.5,169 L69.5,169 C67.5670034,169 66,167.432997 66,165.5 L66,165.5 C66,163.567003 67.5670034,162 69.5,162 Z" id="Rectangle-2" fill="#FB9031"></path>
                <path d="M256.419638,89 L256.419638,89 C257.272445,89 257.963781,89.6913362 257.963781,90.5441427 C257.963781,90.6098917 257.959581,90.6755736 257.951208,90.7407872 C256.042506,105.606998 255.08814,116.652353 255.08814,123.876858 C255.08814,131.151477 256.055792,143.943747 257.991098,162.253668 L257.991117,162.253666 C258.082852,163.12157 257.453643,163.899511 256.585739,163.991246 C256.530564,163.997078 256.47512,164 256.419638,164 L256.419638,164 C255.423306,164 254.59094,163.241152 254.49907,162.249065 C252.832659,144.253857 251.999455,130.934739 251.999455,122.291711 C251.999455,113.764722 252.810437,103.249523 254.4324,90.7461124 L254.432389,90.7461109 C254.561941,89.7474113 255.412571,89 256.419638,89 Z" id="Rectangle" fill="#FB9031" transform="translate(254.999728, 126.500000) scale(-1, 1) translate(-254.999728, -126.500000) "></path>
                <path d="M115.420183,91 L115.420183,91 C116.272989,91 116.964326,91.6913362 116.964326,92.5441427 C116.964326,92.6098917 116.960126,92.6755736 116.951753,92.7407872 C115.043051,107.606998 114.088685,118.652353 114.088685,125.876858 C114.088685,133.151477 115.056337,145.943747 116.991643,164.253668 L116.991662,164.253666 C117.083397,165.12157 116.454188,165.899511 115.586284,165.991246 C115.531109,165.997078 115.475665,166 115.420183,166 L115.420183,166 C114.423851,166 113.591485,165.241152 113.499615,164.249065 C111.833204,146.253857 111,132.934739 111,124.291711 C111,115.764722 111.810982,105.249523 113.432945,92.7461124 L113.432933,92.7461109 C113.562486,91.7474113 114.413115,91 115.420183,91 Z" id="Rectangle" fill="#FB9031"></path>
                <path d="M185,89 L185,89 C186.104569,89 187,89.8954305 187,91 L187,162 C187,163.104569 186.104569,164 185,164 L185,164 C183.895431,164 183,163.104569 183,162 L183,91 C183,89.8954305 183.895431,89 185,89 Z" id="Rectangle" fill="#FB9031"></path>
                <path d="M315.664821,60.5 L288.755605,1.64580071 L288.755605,1.5 L78.2443946,1.5 L78.2443946,1.64580071 L51.3351786,60.5 L315.664821,60.5 Z" id="Combined-Shape" stroke="#FB9031" stroke-width="3" fill="#FFFFFF"></path>
            </g>
        </g>
    </g>
</svg>