<?xml version="1.0" encoding="UTF-8"?>
<svg width="431px" height="616px" viewBox="0 0 431 616" version="1.1" xmlns="http://www.w3.org/2000/svg" xmlns:xlink="http://www.w3.org/1999/xlink">
    <!-- Generator: Sketch 52.2 (67145) - http://www.bohemiancoding.com/sketch -->
    <title>planet-earth</title>
    <desc>Created with Sketch.</desc>
    <g id="Games" stroke="none" stroke-width="1" fill="none" fill-rule="evenodd">
        <g id="SR---1" transform="translate(-1009.000000, -307.000000)" fill-rule="nonzero">
            <g id="planet-earth" transform="translate(1317.000000, 615.000000) rotate(360.000000) translate(-1317.000000, -615.000000) translate(1009.000000, 307.000000)">
                <path d="M374,7 C376.006901,7.31966449 378.007332,7.65237651 380,8 C378.007332,7.65237651 376.006901,7.31873253 374,7 Z" id="Shape" fill="#48BBEE"></path>
                <path d="M367,6 C368.001547,6.17 369.003095,6.337 370,6.516 C369.003095,6.337 368.000387,6.17 367,6 Z" id="Shape" fill="#48BBEE"></path>
                <path d="M383,9 C384.670894,9.265 386.338618,9.537 388,9.815 C386.337032,9.537 384.670894,9.264 383,9 Z" id="Shape" fill="#48BBEE"></path>
                <path d="M389,10 C394.050545,11.5352697 399.053206,13.1979846 404,15 C399.051875,13.1994665 394.051875,11.5323059 389,10 Z" id="Shape" fill="#48BBEE"></path>
                <path d="M315,0 C315.66747,0.013 316.333735,0.031 317,0.047 C316.333735,0.031 315.66747,0.013 315,0 Z" id="Shape" fill="#48BBEE"></path>
                <path d="M404,15 C405.672657,15.3252464 407.34018,15.6580743 409,16 C407.34018,15.6588324 405.673941,15.3252464 404,15 Z" id="Shape" fill="#48BBEE"></path>
                <path d="M323,0 C323.667069,0.026 324.334138,0.049 325,0.078 C324.334138,0.049 323.667069,0.026 323,0 Z" id="Shape" fill="#48BBEE"></path>
                <path d="M332,1 C332.267,1.02 332.532,1.047 332.798,1.068 C332.532,1.047 332.267,1.02 332,1 Z" id="Shape" fill="#48BBEE"></path>
                <path d="M355,3 C355.668432,3.096 356.333686,3.204 357,3.304 C356.333686,3.203 355.669492,3.095 355,3 Z" id="Shape" fill="#48BBEE"></path>
                <path d="M259.550323,243.719998 C271.513393,243.719998 281.462144,243.7411 291.6147,250.651715 L320.288378,270.181525 C326.020042,274.084902 333.179737,275.057156 339.698703,272.813935 L391.280891,255.072095 L399.907702,247.055668 C405.076809,242.253279 408.022209,235.387184 407.999874,228.218067 C407.967768,222.081522 405.763603,216.184809 401.870371,211.629433 L347.36791,228.266896 C345.484808,228.841344 343.446759,228.358807 341.99779,226.994492 L305.386888,192.521842 C302.955188,190.226921 300.249887,191.118752 299.486316,191.450496 C298.722746,191.776495 296.193331,193.104907 296.03978,196.482664 L299.191776,222.058544 C299.475149,224.425272 298.308156,226.731682 296.247772,227.841804 C294.19716,228.951925 291.678913,228.644595 289.943779,227.056246 L259.550323,199.331928 C249.103227,193.654942 236.288644,195.349565 227.532012,203.690556 L217.813588,228.802569 C216.287843,232.744721 213.731906,236.175614 210.427753,238.714676 L195,250.566984 L246.775987,245.181781 C250.355137,244.532654 255.97257,243.719998 259.550323,243.719998 Z" id="Shape" fill="#48BBEE"></path>
                <path d="M409.365373,17 C434.02873,25.6162669 457.263369,37.2749284 478.622175,51.5215509 C500.061925,65.8708703 519.669524,82.8428108 536.906636,101.993209 C546.27424,112.327081 554.885087,123.36571 562.757163,134.947349 C566.661724,140.740735 569.664342,145.47121 572.539764,150.288976 C572.970178,151.010422 573.396737,151.733151 573.822012,152.457164 C576.008771,156.188911 578.146707,159.952751 580.180573,163.782061 C597.48578,196.480742 609.115948,232.609499 613.706601,270.909011 C612.979394,270.998871 612.2342,271.012991 611.512133,270.793477 L512.491249,239.352832 L517.108883,259.862679 C518.082775,264.160543 520.732068,267.715138 524.567248,269.887177 C528.401144,272.054081 532.818346,272.480273 536.994003,271.100284 L548.426309,267.319755 C550.00278,266.793434 551.709018,267.054027 553.054222,268.032215 C554.389147,268.994998 555.181879,270.544437 555.181879,272.194005 L555.181879,300.094176 C555.181879,311.496095 549.781792,322.203527 540.627467,328.977669 L511.221849,352.604366 C506.691583,356.243686 500.045222,355.409274 496.558227,350.762241 L448.972442,287.368751 C443.95523,280.684469 437.015931,275.686982 429.082183,273.045106 L408.26772,265.436981 C414.264964,273.166546 418.717948,278.922853 421.626673,282.705902 C436.239147,301.710693 458.433845,330.061155 488.210768,367.757289 C495.197606,373.568647 504.200322,376.64827 513.696408,375.99101 L528.29065,374.993566 C529.867121,374.922962 531.412756,375.509618 532.476585,376.6932 C533.530135,377.876781 533.982391,379.476285 533.701016,381.035993 L527.698349,414.091546 C527.497917,415.169863 526.966003,416.157037 526.162992,416.909292 L465.937172,473.603095 L420.939009,587.251297 C420.356987,588.730131 419.111999,589.858513 417.576642,590.294975 C411.905458,591.925288 406.134057,592.727607 400.402487,592.727607 C389.953066,592.727607 379.61414,590.054921 370.240111,584.799409 C355.815465,576.721017 345.457267,563.533456 341.0709,547.656521 C337.598038,535.080006 335.911073,526.701225 335.911073,522.037504 L335.911073,479.173117 L328.96535,476.505566 C312.965517,470.357875 298.822247,460.067649 288.051622,446.749149 L272.152005,427.07243 L203.83569,439.257413 C200.887034,439.790153 197.930669,439.99683 195,439.9519 C214.728372,512.737019 260.489717,574.824976 321.67915,615.643128 C317.022971,615.853657 312.35009,616 307.643803,616 C477.943792,616 616,478.062707 616,307.909407 C616,173.37138 529.680822,58.9953152 409.365373,17 Z" id="Shape" fill="#50B2DD"></path>
                <path d="M339,1 C339.667695,1.064 340.333333,1.133 341,1.202 C340.333333,1.133 339.667695,1.063 339,1 Z" id="Shape" fill="#48BBEE"></path>
                <path d="M346,2 C346.667345,2.08 347.33469,2.156 348,2.242 C347.33469,2.157 346.666328,2.08 346,2 Z" id="Shape" fill="#48BBEE"></path>
                <path d="M397.700898,195.327038 L415.3956,179.621895 C416.125952,178.973698 416.58633,178.093514 417.147592,177.295207 L417.518452,177.146804 C420.652999,172.430314 420.907344,165.615712 417.769955,160.532479 C414.062778,154.482067 406.924082,153.189083 401.872715,157.673586 L387.197466,170.707474 L359.36735,170.707474 C353.084047,170.707474 348,176.817588 348,184.353737 C348,191.889886 353.084047,198 359.36735,198 L365.406255,198 L390.938745,198 C393.372779,197.998294 395.747134,197.060114 397.700898,195.327038 Z" id="Shape" fill="#48BBEE"></path>
                <path d="M362,5 C363.002427,5.144 364.001214,5.293 365,5.446 C364.001214,5.293 363.001214,5.143 362,5 Z" id="Shape" fill="#48BBEE"></path>
                <path d="M451.709822,183 C453.814244,183 455.937996,182.35353 457.770505,181.015336 C458.044995,180.81493 458.304021,180.601595 458.552737,180.380502 C460.278285,178.828973 461.337584,176.777075 461.756406,174.611399 L461.814397,174.595884 C462.33116,171.882001 461.779603,168.969005 460.024414,166.561549 L433.636021,130.24801 C430.282864,125.641262 423.839442,124.617253 419.238838,127.985364 C414.638234,131.349596 413.621462,137.823351 416.98364,142.440443 L443.372033,178.753982 C445.387536,181.526047 448.529348,183 451.709822,183 Z" id="Shape" fill="#48BBEE"></path>
                <path d="M195.575029,440.00495 C190.538195,439.92795 185.584815,439.03475 180.902344,437.376683 C175.389174,435.429867 170.272736,432.433283 165.827791,428.537083 C165.563302,428.306083 165.298814,428.07765 165.039461,427.840233 C164.618334,427.45395 164.207478,427.058683 163.800474,426.655717 C163.434556,426.2951 163.076341,425.928067 162.721978,425.554617 C162.39201,425.20555 162.063325,424.856483 161.742344,424.495867 C161.309662,424.009483 160.892386,423.5077 160.478963,423.000783 C160.241437,422.709467 159.997491,422.42585 159.765101,422.126833 C159.123139,421.300367 158.501719,420.45465 157.912398,419.57685 C157.912398,419.57685 157.912398,419.575567 157.912398,419.575567 L150.441244,408.452917 C139.310905,391.888933 135.234446,371.9716 138.42243,352.876883 C138.464799,352.620217 138.500749,352.362267 138.545687,352.106883 C138.600895,351.7976 138.666375,351.488317 138.725436,351.179033 C138.826866,350.645167 138.924444,350.112583 139.037429,349.58 C139.052837,349.504283 139.073379,349.42985 139.088786,349.354133 C140.150592,344.421 141.700288,339.5623 143.750715,334.8499 C144.437614,333.2714 145.181007,331.710867 145.979607,330.1683 C145.988595,330.150333 145.997582,330.131083 146.00657,330.113117 C146.00657,330.113117 146.00657,330.113117 146.00657,330.113117 L161.744912,299.769983 L161.513806,289.187617 C161.153023,272.83025 171.584907,258.687917 186.861036,254.040967 L172.908632,250.16145 C162.276456,247.203367 154.743674,237.819633 154.151784,226.806067 L153.409676,213.08595 C152.67784,199.4454 162.747657,187.62975 176.339278,186.191133 L190.020773,184.739683 L190.020773,160.476983 C190.020773,158.867683 190.773153,157.348217 192.067348,156.381867 L232.902556,125.576733 C235.691239,123.475917 237.977908,120.879733 239.703502,117.851067 L246.734271,105.59395 L201.084348,114.547767 C199.579589,114.83395 198.014485,114.447667 196.830707,113.4749 C195.636658,112.497 194.954894,111.042983 194.954894,109.5094 L194.954894,95.43765 C194.954894,81.40055 201.224295,68.2977167 212.167181,59.47865 L276.484077,7.62941667 C278.128784,6.30116667 280.425724,6.12021667 282.272007,7.17768333 L327.299227,33.0997333 C328.503548,33.79145 329.896605,33.957 331.251145,33.5963833 C332.585142,33.2203667 333.698305,32.3425667 334.360809,31.1246833 L351.55127,3.13903333 L351.571813,3.10438333 C398.197518,9.68146667 441.45549,26.6971833 478.925532,51.6926667 C478.951211,51.6913833 478.975605,51.6901 479,51.6888167 C457.657329,37.4463833 434.437561,25.79115 409.791353,17.1774167 C409.700194,17.1453333 409.61032,17.11325 409.520445,17.08245 C407.860331,16.5036667 406.192514,15.9402833 404.51956,15.3897333 C404.279467,15.3101667 404.038089,15.23445 403.797995,15.1561667 C399.023081,13.5969167 394.194242,12.1557333 389.319182,10.8262 C388.656678,10.64525 387.995457,10.4655833 387.331668,10.2884833 C385.984831,9.93171667 384.635427,9.58265 383.282171,9.24256667 C382.46046,9.03723333 381.63618,8.8396 380.813185,8.64068333 C378.835942,8.162 376.850995,7.70385 374.859629,7.26366667 C373.664295,6.9993 372.470246,6.73236667 371.268493,6.48211667 C370.165602,6.2524 369.056292,6.03808333 367.949549,5.81991667 C366.795301,5.59276667 365.639769,5.36946667 364.480386,5.15515 C363.423716,4.96008333 362.367047,4.76758333 361.306525,4.58278333 C359.895493,4.33766667 358.479325,4.10666667 357.061872,3.87951667 C356.253,3.7499 355.44798,3.61258333 354.637823,3.48938333 C352.510361,3.16726667 350.373911,2.8721 348.232326,2.59361667 C347.39264,2.48453333 346.550385,2.38571667 345.708131,2.28305 C344.182829,2.09696667 342.653676,1.92243333 341.12067,1.75945 C340.289971,1.6709 339.457988,1.58235 338.624722,1.50021667 C336.660318,1.30643333 334.692062,1.1319 332.717387,0.975333333 C332.374579,0.948383333 332.035623,0.913733333 331.692815,0.888066667 C329.390739,0.713533333 327.079676,0.572366667 324.763477,0.449166667 C324.05475,0.41195 323.34474,0.382433333 322.63473,0.349066667 C320.896297,0.268216667 319.152728,0.201483333 317.406591,0.15015 C316.696581,0.128333333 315.986571,0.106516667 315.275277,0.0898333333 C312.903869,0.0359333333 310.527326,0 308.141795,0 C137.960217,0 0,137.896733 0,308 C0,478.103267 137.960217,616 308.141795,616 C312.846093,616 317.514441,615.8537 322.167382,615.6458 C261.019211,574.83965 215.289684,512.768667 195.575029,440.00495 Z M145.314535,112.86275 C148.293239,108.024583 154.612713,106.5064 159.447972,109.488867 L175.868077,119.5656 C179.599161,121.85635 181.464703,126.263317 180.522302,130.539383 L173.260428,163.219467 C172.197338,168.0063 167.943698,171.260833 163.2394,171.260833 C162.497291,171.260833 161.755183,171.185117 161.002804,171.015717 C155.465239,169.787567 151.975533,164.303883 153.199113,158.768867 L158.876625,133.2331 L148.695107,126.987117 C143.859849,124.022617 142.344818,117.695783 145.314535,112.86275 Z" id="Shape" fill="#0F86C1"></path>
                <path d="M322,268 L330.421401,274 L340,270.553518 C333.953833,272.728117 327.314828,271.786394 322,268 Z" id="Shape" fill="#00E389"></path>
                <path d="M394,195 L394.005113,195 C396.19233,195 398.322022,194.28655 400.080999,192.964912 L416,181 L400.080999,192.964912 C398.3233,194.28525 396.187217,195 394,195 Z" id="Shape" fill="#00E389"></path>
                <path d="M422.431255,370.149367 L421.309143,371.83905 C413.715373,383.274931 400.933274,390.142885 387.246576,390.142885 L267.297003,390.142885 C253.607746,390.142885 240.823088,397.013408 233.230598,408.453144 L213.951251,437.495143 L203.432569,439.380136 C195.417847,440.816688 187.368579,440.061149 180,437.447601 C184.667577,439.107731 189.602568,440.000758 194.622005,440.079138 C197.54052,440.124111 200.484625,439.917237 203.421054,439.383991 L271.454064,427.187431 L287.287746,446.882845 C298.013705,460.213999 312.098325,470.514002 328.031806,476.667534 L334.948726,479.337619 L334.948726,522.242733 C334.948726,526.910886 336.628695,535.297627 340.087155,547.886091 C344.455332,563.776826 354.771855,576.978202 369.135403,585.064269 C378.471837,590.324775 388.767889,593 399.172697,593 C404.880499,593 410.803276,592.686524 416.450942,591.054662 C417.979932,590.617786 420.729534,589.431033 421.309143,587.950793 L464.435613,473.762306 L524.411678,417.014636 C525.211359,416.261667 525.741068,415.273555 525.940668,414.194214 L531.918443,381.107254 C532.198651,379.546063 531.748271,377.94504 530.699089,376.760334 C529.639672,375.575628 528.100446,374.988415 526.530513,375.059086 L511.996793,376.057477 C502.540087,376.715361 493.574704,373.632813 486.616841,367.815933 L442.471898,361.225524 C434.633745,360.051098 426.827581,363.52812 422.431255,370.149367 Z" id="Shape" fill="#2BE89D"></path>
                <path d="M348.883063,3.03471085 C349.059052,3.06042258 349.237572,3.06942169 349.413561,3.09513343 C365.988157,5.50046654 382.129745,9.26466502 397.728173,14.2694549 C398.858806,14.633276 399.95019,15.078089 401.075758,15.454766 C407.469594,17.5914115 413.786198,19.9028967 419.985054,22.45093 C422.053871,23.3019885 424.070778,24.2520372 426.116806,25.1480913 C431.300245,27.4158666 436.430507,29.7826321 441.459481,32.3293798 C443.777721,33.5044062 446.055446,34.743712 448.339502,35.9765899 C453.005103,38.4937691 457.604867,41.1176519 462.122334,43.8700935 C464.425381,45.2739544 466.711969,46.7009559 468.975766,48.1639538 C470.724259,49.2952703 472.398051,50.5320049 474.122488,51.6993178 C350.249191,57.5204553 245.749851,138.628134 204,251 L206.470173,250.523047 L220.463179,239.913098 C223.460052,237.640181 225.779559,234.570199 227.162147,231.039978 L235.976778,208.560205 C243.919062,201.09223 255.541917,199.576524 265.017455,204.658449 L292.584385,229.476704 C294.156889,230.897277 296.442211,231.173679 298.302121,230.17992 C300.17216,229.186161 301.230624,227.121509 300.972339,225.002861 L298.113471,202.107844 C298.251476,199.084144 300.546927,197.894976 301.239487,197.603148 C301.932047,197.307463 304.384495,196.507828 306.591318,198.562195 L339.797485,229.421424 C341.111703,230.642731 342.960218,231.074688 344.668195,230.560454 L394.102045,215.666929 L366.849109,223.877973 L364.278914,219.237004 C359.843744,211.226512 361.383329,201.173222 368.006331,194.908557 L362.625379,194.908557 C357.026658,194.908557 352.49653,190.303585 352.49653,184.623862 C352.49653,178.944139 357.026658,174.339167 362.625379,174.339167 L387.423335,174.339167 L400.49968,164.515997 C405.000687,161.136189 411.360338,162.110664 414.664876,166.670641 C417.459172,170.50169 417.233805,175.63761 414.440775,179.192257 L427.622206,174.729985 L440.758058,174.729985 L443.714416,178.84772 L417.78836,142.740726 C414.485089,138.151181 415.484046,131.712962 420.004045,128.367864 C424.524044,125.018911 430.854575,126.037095 434.148984,130.617642 L460.07504,166.724636 C461.79821,169.119684 462.34137,172.014826 461.833661,174.713273 L481.966016,169.078545 C492.549397,166.116553 501.495704,158.921123 506.757641,149.139092 L532,102.21517 C515.013919,83.03807 495.691873,66.0413254 474.490925,51.6736061 C437.540882,26.6342298 394.883233,9.58991851 348.904587,3 L348.883063,3.03471085 Z" id="Shape" fill="#2BE89D"></path>
                <path d="M148.904701,126.936313 L159.094549,133.152666 L153.412392,158.567294 C152.187811,164.076053 155.681657,169.533722 161.222467,170.756046 C161.975462,170.92592 162.718177,171 163.460892,171 C168.169039,171 172.426159,167.762183 173.490118,162.996781 L180.757933,130.471728 C181.701105,126.215946 179.834037,121.829886 176.099901,119.550003 L159.666363,109.521072 C154.827149,106.552754 148.502504,108.063735 145.521364,112.87895 C142.549218,117.691611 144.065488,123.98843 148.904701,126.936313 Z" id="Shape" fill="#00BBBB"></path>
                <path d="M204.226474,250.624832 C246.540626,138.407253 352.452403,57.4109355 478,51.5977904 C476.252255,50.433364 474.55584,49.1970436 472.783714,48.0672804 C470.489318,46.6050074 468.173108,45.1799652 465.837649,43.7793156 C461.260406,41.0306532 456.597188,38.4103729 451.868525,35.8966498 C449.553598,34.6654647 447.245086,33.4278605 444.895512,32.2544473 C439.798565,29.7111964 434.598961,27.3476804 429.345462,25.0830188 C427.27178,24.188195 425.228895,23.2394507 423.130832,22.3895606 C416.848191,19.8450258 410.44621,17.5367142 403.965953,15.4030024 C402.826455,15.0268426 401.719037,14.5813565 400.573122,14.2193187 C384.763862,9.22011662 368.405384,5.46108639 351.605479,3.06033962 C351.427111,3.03466319 351.246177,3.02567644 351.06781,3 L333.888071,30.9975858 C333.22593,32.2159327 332.113379,33.0940668 330.780115,33.4702266 C329.426318,33.8309805 328.032742,33.6653675 326.830366,32.9733876 L281.82787,7.04147102 C279.982601,5.98360186 277.686922,6.16333691 276.043118,7.4933763 L211.76282,59.3610608 C200.825943,68.1822004 194.559984,81.2913048 194.559984,95.3337476 L194.559984,109.410854 C194.559984,110.945021 195.241373,112.399591 196.434767,113.377863 C197.617895,114.351 199.182139,114.73743 200.686072,114.451138 L246.31093,105.493913 L239.284022,117.755695 C237.559375,120.784231 235.273962,123.382686 232.48681,125.484303 L191.674024,156.301161 C190.380539,157.269163 189.628573,158.789208 189.628573,160.397836 L189.628573,184.669771 L175.954589,186.124341 C162.370431,187.563506 152.30486,199.383653 153.037578,213.029395 L153.779279,226.754734 C154.370843,237.772492 161.89949,247.161081 172.525828,250.119007 L186.47057,254 L204.226474,250.624832 Z" id="Shape" fill="#00BBBB"></path>
                <path d="M138.071397,377.669792 C136.659018,369.193368 136.643693,360.515217 138.045857,352 C134.875027,371.240382 138.929551,391.309657 150,408 C149.51218,407.265506 149.038407,406.523253 148.578682,405.775828 C143.215216,397.06147 139.708531,387.501409 138.071397,377.669792 Z" id="Shape" fill="#00BBBB"></path>
                <path d="M138,351.723 C138.043,351.482 138.095,351.241 138.14,351 C138.094,351.241 138.043,351.481 138,351.723 Z" id="Shape" fill="#00BBBB"></path>
                <path d="M139,349.176 C139.012,349.117 139.028,349.059 139.04,349 C139.028,349.059 139.012,349.118 139,349.176 Z" id="Shape" fill="#00BBBB"></path>
                <polygon id="Shape" fill="#FFEDB9" points="158.998625 418.998731 159 419 151 408"></polygon>
                <path d="M144,335 C144.616359,333.314145 145.28341,331.647478 146,330 C145.28341,331.647478 144.616359,333.314145 144,335 Z" id="Shape" fill="#FFEDB9"></path>
                <polygon id="Shape" fill="#FFEDB9" points="146.001305 330.998689 146 331 162 300"></polygon>
                <path d="M486.261323,167.598525 L465.681265,173.291155 C465.202388,175.484825 464.138505,177.544718 462.405488,179.103275 C459.779431,181.085241 457.646487,181.734639 455.532957,181.734639 C452.337425,181.734639 449.183308,180.252711 447.160377,177.468089 L444.136981,173.30804 L430.709014,173.30804 L417.233159,177.814868 C416.384123,178.535701 414.562776,178.609732 413.897526,179.103275 L399.182088,191.657454 C397.401184,192.978331 395.244944,193.691371 393.030462,193.691371 C376.683596,194.087149 368.22921,194.548655 367.667303,195.07589 C366.277977,196.379487 364.600749,198.606814 363.800242,199.923275 C360.353741,205.591162 360.173138,212.225499 363.474828,218.118999 L366.614446,224.04331 L396.442136,214.664357 C400.051832,218.784143 402.094178,224.115708 402.12524,229.666769 C402.145948,236.150368 399.415056,242.359919 394.622404,246.703099 L386.623865,253.952988 L338.7983,269.998335 L329.220761,273.21156 L320.800294,267.617639 L294.21486,249.955289 C284.801693,243.704175 273.941541,240.453284 262.849717,240.453284 C259.532524,240.453284 256.195917,240.748111 252.880018,241.336467 L204.638994,249.879958 L202.113889,250.361812 L184.203893,253.776351 L202.195427,250.346227 C189.327876,284.559156 182.210729,321.602166 182.210729,360.334912 C182.210729,388.569475 186.033979,415.889685 193.047584,441.895512 C181.954466,441.73576 171.297513,437.640651 163,430.373878 C167.480735,434.317027 172.639663,437.34972 178.195929,439.319996 C185.649583,441.961751 193.791785,442.726743 201.899041,441.273388 L213.860477,438.016035 C219.387218,429.712053 223.757086,423.14187 226.970082,418.305487 C228.09085,416.618442 229.955256,413.906244 232.563299,410.168894 C240.244744,398.606997 252.653522,391.504758 266.50083,391.504758 L387.835294,391.504758 C401.680014,391.504758 414.60969,384.562684 422.291135,373.003385 L423.426202,371.295466 C427.873286,364.60406 435.769578,361.088214 443.698226,362.271419 L488.35285,368.932953 L410.000824,266.821476 L428.789624,273.106358 C436.781691,275.779284 443.770705,280.835503 448.826092,287.598343 L496.76167,351.736871 C500.275591,356.43722 506.970808,357.282737 511.533081,353.600645 L541.154853,329.696273 C550.376469,322.842518 555.816252,312.009246 555.816252,300.492807 L555.816252,272.245255 C555.816252,270.5763 555.017692,269.008651 553.672954,268.034553 C552.317862,267.044869 550.599082,266.781213 549.011023,267.31372 L537.494681,271.138679 C533.288329,272.533588 528.838657,272.102387 524.976579,269.911315 C521.114502,267.715049 518.44444,264.117379 517.463389,259.769004 L512.811812,239.018113 L577.223344,259.558599 L570.632962,234.833387 C567.153986,221.78047 567.366245,208.014512 571.246442,195.07589 L580.984469,162.609843 C578.952478,158.684876 576.797532,154.876801 574.594698,151.101196 C574.166297,150.368674 573.736602,149.636153 573.303024,148.907527 C570.406466,144.033139 567.381776,139.24707 564.232837,134.549318 C563.97269,134.160978 563.71125,133.773936 563.448514,133.385595 C555.518572,121.667842 546.844428,110.499481 537.431262,100 L511.604265,147.450276 C506.225313,157.336724 497.080058,164.607394 486.261323,167.598525 Z" id="Shape" fill="#FCECBD"></path>
                <path d="M164,427 C164.317,427.313 164.638,427.622 164.965,427.923 C164.637,427.623 164.318,427.313 164,427 Z" id="Shape" fill="#FFEDB9"></path>
                <path d="M160,422 C160.18,422.232 160.37,422.454 160.556,422.681 C160.37,422.453 160.18,422.232 160,422 Z" id="Shape" fill="#FFEDB9"></path>
                <path d="M162,424 C162.249,424.281 162.506,424.553 162.763,424.825 C162.505,424.553 162.249,424.28 162,424 Z" id="Shape" fill="#FFEDB9"></path>
                <path d="M138,379 C139.558094,388.44472 142.895479,397.628571 148,406 C142.895479,397.628571 139.558094,388.44472 138,379 Z" id="Shape" fill="#FFEDB9"></path>
                <path d="M195.836808,442 C188.810441,415.932805 184.980235,388.548125 184.980235,360.246934 C184.980235,321.422787 192.110331,284.292363 205,250 L186.975728,253.438219 C171.54858,258.152264 161.013568,272.49879 161.377917,289.092331 L161.611308,299.82749 L145.717378,330.608729 C145.708301,330.626955 145.699225,330.646483 145.690149,330.664709 C144.883653,332.229548 144.132912,333.812613 143.439222,335.413904 C141.368525,340.193042 139.803508,345.123196 138.731206,350.127555 C138.71435,350.204365 138.6949,350.279873 138.679341,350.356683 C138.565239,350.895654 138.466696,351.437229 138.364263,351.978804 C138.304619,352.292553 138.237195,352.605 138.182737,352.920051 C138.137355,353.180423 138.10105,353.440796 138.058262,353.701168 C136.634576,362.273934 136.651432,371.010734 138.084194,379.544443 C139.746457,389.442504 143.306967,399.067175 148.752758,407.840427 C149.21954,408.592903 149.700585,409.340173 150.195893,410.079631 L157.742203,421.362874 C158.33735,422.253348 158.964913,423.111275 159.613221,423.949675 C159.846612,424.251707 160.09297,424.54072 160.33414,424.836243 C160.751651,425.350479 161.173051,425.859507 161.610011,426.352913 C161.934166,426.717435 162.264803,427.072843 162.59933,427.42695 C162.957196,427.805792 163.318952,428.178125 163.688488,428.543948 C164.100812,428.951431 164.514433,429.355008 164.939724,429.745567 C165.20164,429.986412 165.47004,430.218143 165.735846,430.452479 C174.047161,437.735098 184.723505,441.839871 195.836808,442 Z" id="Shape" fill="#FFD586"></path>
            </g>
        </g>
    </g>
</svg>