<?xml version="1.0" encoding="UTF-8"?>
<svg width="1440px" height="687px" viewBox="0 0 1440 687" version="1.1" xmlns="http://www.w3.org/2000/svg" xmlns:xlink="http://www.w3.org/1999/xlink">
    <!-- Generator: Sketch 52.2 (67145) - http://www.bohemiancoding.com/sketch -->
    <title>Waves</title>
    <desc>Created with Sketch.</desc>
    <g id="Games" stroke="none" stroke-width="1" fill="none" fill-rule="evenodd">
        <g id="RST---2" transform="translate(0.000000, -337.000000)">
            <g id="Waves" transform="translate(-104.000000, 337.000000)">
                <g transform="translate(102.000000, 0.000000)">
                    <path d="M0,151.785507 L0,74.9194528 C0,74.9194528 67.3124613,92.2178025 127.895863,75.1405111 C188.477079,58.0632198 261.77287,9.39175907 261.77287,9.39175907 C261.77287,9.39175907 308.145863,44.4005282 360.5,59.7715928 C412.854137,75.1405111 459.957551,80.1540279 518.364998,62.5101405 C576.772445,44.8683992 605.070796,23.0544506 605.070796,23.0544506 C605.070796,23.0544506 658.977625,58.2477928 715.764586,60.6236331 C772.549361,63.0016196 883.673968,37.9962757 924.809361,11.9543186 C991.319234,54.8246082 1076.36956,49.9420095 1171.99786,0 C1203.81273,30.3236206 1372.91616,76.8123988 1442,67.4549789 L1442,212.83194 L0,212.83194 L0,151.785507 L979.446198,493" id="Fill-12" fill="#1AAEA9"></path>
                    <path d="M0,111.60374 C55.7853663,83.2847992 159.260234,91.9534674 192.21666,37.9706213 C192.21666,37.9706213 202.125456,61.7239342 287.57598,86.7638849 C373.026504,111.801684 544.115623,46.5295596 544.115623,46.5295596 C544.115623,46.5295596 584.5031,80.7696159 677.994816,93.610175 C771.484346,106.450734 873.951057,36.257973 873.951057,36.257973 C873.951057,36.257973 905.929944,80.3973946 1027.27607,75.6338227 C1148.62002,70.8724022 1221.73648,14 1221.73648,14 C1221.73648,14 1271.09895,41.3937663 1330.93225,59.3701186 C1390.76774,77.3464709 1442,73.0670018 1442,73.0670018 L1442,234 L0,234 L0,111.60374 L611.930771,54.0349069" id="Fill-13" fill="#199893"></path>
                    <path d="M1442,76.1459022 C1412.78753,72.904318 1347.6707,59.488781 1316.09202,22 C1250.78712,117.70556 1078.32682,94.2909992 1008.22389,40.8793665 C885.036401,127.030784 751.259991,89.6607816 704.567712,37.7608804 C624.131726,126.251162 424.265326,109.831599 359.004168,49.4962359 C347.166534,79.8734001 170.387128,159.338645 90.2638675,60.6420161 C45.3823326,109.231225 36.5582331,104.821289 0,111.779573 L0,199 L1442,199 L1442,76.1459022" id="Fill-14" fill="#72CDBF"></path>
                    <path d="M125.907981,149.609088 C191.212877,217.408766 359.933596,184.385507 430.036528,146.546986 C553.224018,207.57985 688.49626,176.846699 735.18854,140.077757 C796.926619,221.027221 1007.26385,168.613527 1081.5,121 C1130.22609,151.049569 1259.64621,203.07511 1358.46738,124.025443 C1383.90309,155.405517 1414.41676,166.280291 1442,177.905496 L1442,275 L0,275 L0,187.967304 C29.212471,185.670727 94.3292952,176.16743 125.907981,149.609088 Z" id="Fill-15" fill="#A2DDD4"></path>
                </g>
                <g transform="translate(66.000000, 103.000000)">
                    <path d="M0,164.408642 L0,81.1500767 C0,81.1500767 68.9929389,99.8870315 131.088825,81.3895192 C193.18247,62.8920068 268.308115,10.1728181 268.308115,10.1728181 C268.308115,10.1728181 315.838825,48.0930671 369.5,64.7424555 C423.161175,81.3895192 471.440541,86.8199815 531.306149,67.7087525 C591.171757,48.5998483 620.176586,24.9717579 620.176586,24.9717579 C620.176586,24.9717579 675.429216,63.0919297 733.633883,65.6653551 C791.836308,68.2411052 905.735177,41.1562094 947.897529,12.9484911 C1016.06784,59.3840584 1103.24147,54.0954018 1201.25717,0 C1233.86631,32.8454633 1407.19146,83.2004482 1478,73.064825 L1478,230.53196 L0,230.53196 L0,164.408642 L1003.89839,534" id="Fill-12" fill="#1AAEA9"></path>
                    <path d="M0,122.033154 C57.1780662,91.2684864 163.236217,100.685812 197.015411,42.0408113 C197.015411,42.0408113 207.171584,67.8455467 294.755408,95.0480386 C382.339232,122.248193 557.699647,51.3389307 557.699647,51.3389307 C557.699647,51.3389307 599.09541,88.5360828 694.921178,102.485599 C790.744704,116.435116 895.76953,40.1802525 895.76953,40.1802525 C895.76953,40.1802525 928.54678,88.1317151 1052.92235,82.9567437 C1177.29569,77.7841097 1252.23753,16 1252.23753,16 C1252.23753,16 1302.83235,45.7595916 1364.15941,65.2884471 C1425.48871,84.8173025 1478,80.1682429 1478,80.1682429 L1478,255 L0,255 L0,122.033154 L627.207822,59.4924671" id="Fill-13" fill="#199893"></path>
                    <path d="M1478,82.0404471 C1448.05823,78.5058383 1381.31574,63.8775973 1348.94869,23 C1282.01343,127.35691 1105.2476,101.825779 1033.39453,43.5859759 C907.131623,137.525092 770.015442,96.7770105 722.157474,40.1855928 C639.713378,136.674996 434.857249,118.771178 367.966824,52.9817714 C355.83366,86.1048939 174.640898,172.753438 92.5173344,65.1350797 C46.5153173,118.116534 37.4709213,113.307959 0,120.89524 L0,216 L1478,216 L1478,82.0404471" id="Fill-14" fill="#72CDBF"></path>
                    <path d="M129.051315,162.024141 C195.986569,235.547168 368.919455,199.736232 440.77253,158.70355 C567.035436,224.888539 705.684794,191.561031 753.542761,151.688217 C816.822152,239.471078 1032.41052,182.63285 1108.5,131 C1158.44255,163.586221 1291.09369,220.003529 1392.38196,134.280837 C1418.45268,168.309879 1449.72814,180.102654 1478,192.709207 L1478,298 L0,298 L0,203.620388 C29.9417699,201.129945 96.6842568,190.824421 129.051315,162.024141 Z" id="Fill-15" fill="#A2DDD4"></path>
                </g>
                <g transform="translate(66.000000, 246.000000)">
                    <path d="M0,120.381609 L0,59.4188764 C0,59.4188764 68.9929389,73.1382571 131.088825,59.5941985 C193.18247,46.0501398 268.308115,7.4486365 268.308115,7.4486365 C268.308115,7.4486365 315.838825,35.2142121 369.5,47.4050564 C423.161175,59.5941985 471.440541,63.5704359 531.306149,49.5770079 C591.171757,35.5852822 620.176586,18.2845643 620.176586,18.2845643 C620.176586,18.2845643 675.429216,46.1965253 733.633883,48.0808125 C791.836308,49.9668018 905.735177,30.1349773 947.897529,9.48101127 C1016.06784,43.4815858 1103.24147,39.6091799 1201.25717,0 C1233.86631,24.0497681 1407.19146,60.9201783 1478,53.4987763 L1478,168.797746 L0,168.797746 L0,120.381609 L1003.89839,391" id="Fill-12" fill="#1AAEA9"></path>
                    <path d="M0,89.6393385 C57.1780662,67.1129084 163.236217,74.00844 197.015411,31.0675397 C197.015411,31.0675397 207.171584,49.9622204 294.755408,69.880363 C382.339232,89.7967942 557.699647,37.8757861 557.699647,37.8757861 C557.699647,37.8757861 599.09541,65.1121945 694.921178,75.3262755 C790.744704,85.5403566 895.76953,29.7052058 895.76953,29.7052058 C895.76953,29.7052058 928.54678,64.8161094 1052.92235,61.0269044 C1177.29569,57.2394109 1252.23753,12 1252.23753,12 C1252.23753,12 1302.83235,33.7904959 1364.15941,48.0898671 C1425.48871,62.3892382 1478,58.9851151 1478,58.9851151 L1478,187 L0,187 L0,89.6393385 L627.207822,43.8459487" id="Fill-13" fill="#199893"></path>
                    <path d="M1478,60.1331763 C1448.05823,57.5508974 1381.31574,46.8639442 1348.94869,17 C1282.01343,93.2400225 1105.2476,74.5877451 1033.39453,32.0394954 C907.131623,100.66859 770.015442,70.8992667 722.157474,29.5552776 C639.713378,100.047536 434.857249,86.9675447 367.966824,38.9037812 C355.83366,63.1025391 174.640898,126.405361 92.5173344,47.782623 C46.5153173,86.4892812 37.4709213,82.9762808 0,88.5193206 L0,158 L1478,158 L1478,60.1331763" id="Fill-14" fill="#72CDBF"></path>
                    <path d="M129.051315,118.664342 C195.986569,172.375775 368.919455,146.214493 440.77253,116.238521 C567.035436,164.589232 705.684794,140.24219 753.542761,111.113548 C816.822152,175.242344 1032.41052,133.719807 1108.5,96 C1158.44255,119.805503 1291.09369,161.020542 1392.38196,98.3967794 C1418.45268,123.256319 1449.72814,131.8714 1478,141.080977 L1478,218 L0,218 L0,149.05202 C29.9417699,147.232654 96.6842568,139.704068 129.051315,118.664342 Z" id="Fill-15" fill="#A2DDD4"></path>
                </g>
                <g transform="translate(0.000000, 316.000000)">
                    <path d="M0,252.154827 L0,124.460511 C0,124.460511 72.0738143,153.197526 136.942589,124.827746 C201.809022,96.4579655 280.289397,15.6021312 280.289397,15.6021312 C280.289397,15.6021312 329.942589,73.7607153 386,99.2960132 C442.057411,124.827746 492.49269,133.156488 555.031593,103.845446 C617.570496,74.5379695 647.870534,38.2993815 647.870534,38.2993815 C647.870534,38.2993815 705.590466,96.7645888 766.394259,100.711472 C827.19571,104.66192 946.180726,63.1216021 990.225835,19.8592026 C1061.44029,91.0777974 1152.50665,82.9665431 1254.89924,0 C1288.96454,50.3753454 1470.02951,127.605182 1544,112.060097 L1544,353.56868 L0,353.56868 L0,252.154827 L1048.72741,819" id="Fill-12" fill="#1AAEA9"></path>
                    <path d="M0,187.820784 C59.7313493,140.579642 170.525521,155.040557 205.813123,64.9873546 C205.813123,64.9873546 216.422819,104.612199 307.917693,146.38339 C399.412567,188.150991 582.603691,79.2652199 582.603691,79.2652199 C582.603691,79.2652199 625.847979,136.383859 725.952841,157.804246 C826.055361,179.224633 935.770064,62.1303459 935.770064,62.1303459 C935.770064,62.1303459 970.01098,135.762927 1099.94054,127.816422 C1229.86776,119.873507 1308.15612,25 1308.15612,25 C1308.15612,25 1361.01025,70.6977829 1425.07586,100.685607 C1489.14382,130.673431 1544,123.534498 1544,123.534498 L1544,392 L0,392 L0,187.820784 L655.215749,91.7855038" id="Fill-13" fill="#199893"></path>
                    <path d="M1544,126.24317 C1512.72118,120.84053 1442.99831,98.4813016 1409.18591,36 C1339.26166,195.509267 1154.60237,156.484999 1079.5407,67.4656109 C947.63953,211.051306 804.400434,148.767969 754.405372,62.2681341 C668.27974,209.751937 454.275773,182.385998 384.39836,81.8270599 C371.72339,132.455667 182.439477,264.897742 96.6486903,100.40336 C48.592456,181.385376 39.1441831,174.035481 0,185.632621 L0,331 L1544,331 L1544,126.24317" id="Fill-14" fill="#72CDBF"></path>
                    <path d="M134.814093,248.372191 C204.738338,360.637891 385.393531,305.956522 460.455201,243.301827 C592.356369,344.362739 737.197105,293.47343 787.192167,232.589792 C853.297296,366.62949 1078.51275,279.84058 1158,201 C1210.17273,250.757404 1348.7474,336.903592 1454.55869,206.009662 C1481.7936,257.970174 1514.46566,275.977106 1544,295.226633 L1544,456 L0,456 L0,311.887419 C31.2788178,308.084646 101.001686,292.348666 134.814093,248.372191 Z" id="Fill-15" fill="#A2DDD4"></path>
                </g>
            </g>
        </g>
    </g>
</svg>